G04 #@! TF.GenerationSoftware,KiCad,Pcbnew,(6.0.7-1)-1*
G04 #@! TF.CreationDate,2023-04-11T20:40:05-05:00*
G04 #@! TF.ProjectId,Neutro_v2,4e657574-726f-45f7-9632-2e6b69636164,v1*
G04 #@! TF.SameCoordinates,Original*
G04 #@! TF.FileFunction,Legend,Bot*
G04 #@! TF.FilePolarity,Positive*
%FSLAX46Y46*%
G04 Gerber Fmt 4.6, Leading zero omitted, Abs format (unit mm)*
G04 Created by KiCad (PCBNEW (6.0.7-1)-1) date 2023-04-11 20:40:05*
%MOMM*%
%LPD*%
G01*
G04 APERTURE LIST*
%ADD10C,0.150000*%
%ADD11C,0.200000*%
%ADD12C,0.127000*%
%ADD13C,0.120000*%
%ADD14C,1.500000*%
%ADD15C,2.500000*%
%ADD16C,2.250000*%
%ADD17C,2.700000*%
%ADD18C,1.930400*%
%ADD19R,1.800000X1.800000*%
%ADD20C,1.800000*%
%ADD21R,1.508000X1.508000*%
%ADD22C,1.508000*%
%ADD23C,3.500000*%
%ADD24R,1.700000X1.700000*%
%ADD25O,1.700000X1.700000*%
G04 APERTURE END LIST*
D10*
X148225000Y-83550000D02*
X156575000Y-83550000D01*
X156575000Y-83550000D02*
X156575000Y-75200000D01*
X156575000Y-75200000D02*
X148225000Y-75200000D01*
X148225000Y-75200000D02*
X148225000Y-83550000D01*
G36*
X148225000Y-83550000D02*
G01*
X156575000Y-83550000D01*
X156575000Y-75200000D01*
X148225000Y-75200000D01*
X148225000Y-83550000D01*
G37*
D11*
X199182642Y-83952380D02*
X198282642Y-83952380D01*
X198711214Y-83952380D02*
X198711214Y-84523809D01*
X199182642Y-84523809D02*
X198282642Y-84523809D01*
X199182642Y-85142857D02*
X199139785Y-85047619D01*
X199096928Y-85000000D01*
X199011214Y-84952380D01*
X198754071Y-84952380D01*
X198668357Y-85000000D01*
X198625500Y-85047619D01*
X198582642Y-85142857D01*
X198582642Y-85285714D01*
X198625500Y-85380952D01*
X198668357Y-85428571D01*
X198754071Y-85476190D01*
X199011214Y-85476190D01*
X199096928Y-85428571D01*
X199139785Y-85380952D01*
X199182642Y-85285714D01*
X199182642Y-85142857D01*
X198582642Y-85904761D02*
X199182642Y-85904761D01*
X198668357Y-85904761D02*
X198625500Y-85952380D01*
X198582642Y-86047619D01*
X198582642Y-86190476D01*
X198625500Y-86285714D01*
X198711214Y-86333333D01*
X199182642Y-86333333D01*
X198582642Y-87238095D02*
X199311214Y-87238095D01*
X199396928Y-87190476D01*
X199439785Y-87142857D01*
X199482642Y-87047619D01*
X199482642Y-86904761D01*
X199439785Y-86809523D01*
X199139785Y-87238095D02*
X199182642Y-87142857D01*
X199182642Y-86952380D01*
X199139785Y-86857142D01*
X199096928Y-86809523D01*
X199011214Y-86761904D01*
X198754071Y-86761904D01*
X198668357Y-86809523D01*
X198625500Y-86857142D01*
X198582642Y-86952380D01*
X198582642Y-87142857D01*
X198625500Y-87238095D01*
X198839785Y-87714285D02*
X198839785Y-88476190D01*
X198754071Y-89142857D02*
X199182642Y-89142857D01*
X198282642Y-88809523D02*
X198754071Y-89142857D01*
X198282642Y-89476190D01*
X199139785Y-90190476D02*
X199182642Y-90095238D01*
X199182642Y-89904761D01*
X199139785Y-89809523D01*
X199054071Y-89761904D01*
X198711214Y-89761904D01*
X198625500Y-89809523D01*
X198582642Y-89904761D01*
X198582642Y-90095238D01*
X198625500Y-90190476D01*
X198711214Y-90238095D01*
X198796928Y-90238095D01*
X198882642Y-89761904D01*
X198282642Y-91333333D02*
X199182642Y-91571428D01*
X198539785Y-91761904D01*
X199182642Y-91952380D01*
X198282642Y-92190476D01*
X199139785Y-92619047D02*
X199182642Y-92619047D01*
X199268357Y-92571428D01*
X199311214Y-92523809D01*
X199182642Y-93809523D02*
X198282642Y-93809523D01*
X198282642Y-94047619D01*
X198325500Y-94190476D01*
X198411214Y-94285714D01*
X198496928Y-94333333D01*
X198668357Y-94380952D01*
X198796928Y-94380952D01*
X198968357Y-94333333D01*
X199054071Y-94285714D01*
X199139785Y-94190476D01*
X199182642Y-94047619D01*
X199182642Y-93809523D01*
X199139785Y-95190476D02*
X199182642Y-95095238D01*
X199182642Y-94904761D01*
X199139785Y-94809523D01*
X199054071Y-94761904D01*
X198711214Y-94761904D01*
X198625500Y-94809523D01*
X198582642Y-94904761D01*
X198582642Y-95095238D01*
X198625500Y-95190476D01*
X198711214Y-95238095D01*
X198796928Y-95238095D01*
X198882642Y-94761904D01*
X198582642Y-95571428D02*
X199182642Y-95809523D01*
X198582642Y-96047619D01*
X199182642Y-96428571D02*
X198582642Y-96428571D01*
X198282642Y-96428571D02*
X198325500Y-96380952D01*
X198368357Y-96428571D01*
X198325500Y-96476190D01*
X198282642Y-96428571D01*
X198368357Y-96428571D01*
X198582642Y-96904761D02*
X199182642Y-96904761D01*
X198668357Y-96904761D02*
X198625500Y-96952380D01*
X198582642Y-97047619D01*
X198582642Y-97190476D01*
X198625500Y-97285714D01*
X198711214Y-97333333D01*
X199182642Y-97333333D01*
X198282642Y-98428571D02*
X199182642Y-98761904D01*
X198282642Y-99095238D01*
X199139785Y-99476190D02*
X199182642Y-99476190D01*
X199268357Y-99428571D01*
X199311214Y-99380952D01*
X198711214Y-100666666D02*
X198711214Y-101000000D01*
X199182642Y-101142857D02*
X199182642Y-100666666D01*
X198282642Y-100666666D01*
X198282642Y-101142857D01*
X199182642Y-102000000D02*
X198282642Y-102000000D01*
X199139785Y-102000000D02*
X199182642Y-101904761D01*
X199182642Y-101714285D01*
X199139785Y-101619047D01*
X199096928Y-101571428D01*
X199011214Y-101523809D01*
X198754071Y-101523809D01*
X198668357Y-101571428D01*
X198625500Y-101619047D01*
X198582642Y-101714285D01*
X198582642Y-101904761D01*
X198625500Y-102000000D01*
X198582642Y-102380952D02*
X199182642Y-102571428D01*
X198754071Y-102761904D01*
X199182642Y-102952380D01*
X198582642Y-103142857D01*
X199182642Y-103523809D02*
X198582642Y-103523809D01*
X198282642Y-103523809D02*
X198325500Y-103476190D01*
X198368357Y-103523809D01*
X198325500Y-103571428D01*
X198282642Y-103523809D01*
X198368357Y-103523809D01*
X198582642Y-104000000D02*
X199182642Y-104000000D01*
X198668357Y-104000000D02*
X198625500Y-104047619D01*
X198582642Y-104142857D01*
X198582642Y-104285714D01*
X198625500Y-104380952D01*
X198711214Y-104428571D01*
X199182642Y-104428571D01*
X199182642Y-106142857D02*
X199182642Y-105666666D01*
X198282642Y-105666666D01*
X199139785Y-106523809D02*
X199182642Y-106523809D01*
X199268357Y-106476190D01*
X199311214Y-106428571D01*
X198711214Y-107714285D02*
X198711214Y-108047619D01*
X199182642Y-108190476D02*
X199182642Y-107714285D01*
X198282642Y-107714285D01*
X198282642Y-108190476D01*
X199182642Y-108761904D02*
X199139785Y-108666666D01*
X199054071Y-108619047D01*
X198282642Y-108619047D01*
X199182642Y-109571428D02*
X198711214Y-109571428D01*
X198625500Y-109523809D01*
X198582642Y-109428571D01*
X198582642Y-109238095D01*
X198625500Y-109142857D01*
X199139785Y-109571428D02*
X199182642Y-109476190D01*
X199182642Y-109238095D01*
X199139785Y-109142857D01*
X199054071Y-109095238D01*
X198968357Y-109095238D01*
X198882642Y-109142857D01*
X198839785Y-109238095D01*
X198839785Y-109476190D01*
X198796928Y-109571428D01*
X199182642Y-110047619D02*
X198582642Y-110047619D01*
X198282642Y-110047619D02*
X198325500Y-110000000D01*
X198368357Y-110047619D01*
X198325500Y-110095238D01*
X198282642Y-110047619D01*
X198368357Y-110047619D01*
X198582642Y-110523809D02*
X199182642Y-110523809D01*
X198668357Y-110523809D02*
X198625500Y-110571428D01*
X198582642Y-110666666D01*
X198582642Y-110809523D01*
X198625500Y-110904761D01*
X198711214Y-110952380D01*
X199182642Y-110952380D01*
X199139785Y-111809523D02*
X199182642Y-111714285D01*
X199182642Y-111523809D01*
X199139785Y-111428571D01*
X199054071Y-111380952D01*
X198711214Y-111380952D01*
X198625500Y-111428571D01*
X198582642Y-111523809D01*
X198582642Y-111714285D01*
X198625500Y-111809523D01*
X198711214Y-111857142D01*
X198796928Y-111857142D01*
X198882642Y-111380952D01*
X199182642Y-113619047D02*
X198754071Y-113285714D01*
X199182642Y-113047619D02*
X198282642Y-113047619D01*
X198282642Y-113428571D01*
X198325500Y-113523809D01*
X198368357Y-113571428D01*
X198454071Y-113619047D01*
X198582642Y-113619047D01*
X198668357Y-113571428D01*
X198711214Y-113523809D01*
X198754071Y-113428571D01*
X198754071Y-113047619D01*
X199139785Y-114095238D02*
X199182642Y-114095238D01*
X199268357Y-114047619D01*
X199311214Y-114000000D01*
X199774500Y-85357142D02*
X199731642Y-85261904D01*
X199731642Y-85119047D01*
X199774500Y-84976190D01*
X199860214Y-84880952D01*
X199945928Y-84833333D01*
X200117357Y-84785714D01*
X200245928Y-84785714D01*
X200417357Y-84833333D01*
X200503071Y-84880952D01*
X200588785Y-84976190D01*
X200631642Y-85119047D01*
X200631642Y-85214285D01*
X200588785Y-85357142D01*
X200545928Y-85404761D01*
X200245928Y-85404761D01*
X200245928Y-85214285D01*
X200631642Y-86261904D02*
X200160214Y-86261904D01*
X200074500Y-86214285D01*
X200031642Y-86119047D01*
X200031642Y-85928571D01*
X200074500Y-85833333D01*
X200588785Y-86261904D02*
X200631642Y-86166666D01*
X200631642Y-85928571D01*
X200588785Y-85833333D01*
X200503071Y-85785714D01*
X200417357Y-85785714D01*
X200331642Y-85833333D01*
X200288785Y-85928571D01*
X200288785Y-86166666D01*
X200245928Y-86261904D01*
X200631642Y-86738095D02*
X199731642Y-86738095D01*
X200074500Y-86738095D02*
X200031642Y-86833333D01*
X200031642Y-87023809D01*
X200074500Y-87119047D01*
X200117357Y-87166666D01*
X200203071Y-87214285D01*
X200460214Y-87214285D01*
X200545928Y-87166666D01*
X200588785Y-87119047D01*
X200631642Y-87023809D01*
X200631642Y-86833333D01*
X200588785Y-86738095D01*
X200631642Y-87642857D02*
X200031642Y-87642857D01*
X200203071Y-87642857D02*
X200117357Y-87690476D01*
X200074500Y-87738095D01*
X200031642Y-87833333D01*
X200031642Y-87928571D01*
X200631642Y-88261904D02*
X200031642Y-88261904D01*
X199731642Y-88261904D02*
X199774500Y-88214285D01*
X199817357Y-88261904D01*
X199774500Y-88309523D01*
X199731642Y-88261904D01*
X199817357Y-88261904D01*
X200588785Y-89119047D02*
X200631642Y-89023809D01*
X200631642Y-88833333D01*
X200588785Y-88738095D01*
X200503071Y-88690476D01*
X200160214Y-88690476D01*
X200074500Y-88738095D01*
X200031642Y-88833333D01*
X200031642Y-89023809D01*
X200074500Y-89119047D01*
X200160214Y-89166666D01*
X200245928Y-89166666D01*
X200331642Y-88690476D01*
X200631642Y-89738095D02*
X200588785Y-89642857D01*
X200503071Y-89595238D01*
X199731642Y-89595238D01*
X199731642Y-91071428D02*
X199731642Y-91261904D01*
X199774500Y-91357142D01*
X199860214Y-91452380D01*
X200031642Y-91500000D01*
X200331642Y-91500000D01*
X200503071Y-91452380D01*
X200588785Y-91357142D01*
X200631642Y-91261904D01*
X200631642Y-91071428D01*
X200588785Y-90976190D01*
X200503071Y-90880952D01*
X200331642Y-90833333D01*
X200031642Y-90833333D01*
X199860214Y-90880952D01*
X199774500Y-90976190D01*
X199731642Y-91071428D01*
X200588785Y-91976190D02*
X200631642Y-91976190D01*
X200717357Y-91928571D01*
X200760214Y-91880952D01*
X200631642Y-93166666D02*
X199731642Y-93166666D01*
X200374500Y-93500000D01*
X199731642Y-93833333D01*
X200631642Y-93833333D01*
X200631642Y-94738095D02*
X200160214Y-94738095D01*
X200074500Y-94690476D01*
X200031642Y-94595238D01*
X200031642Y-94404761D01*
X200074500Y-94309523D01*
X200588785Y-94738095D02*
X200631642Y-94642857D01*
X200631642Y-94404761D01*
X200588785Y-94309523D01*
X200503071Y-94261904D01*
X200417357Y-94261904D01*
X200331642Y-94309523D01*
X200288785Y-94404761D01*
X200288785Y-94642857D01*
X200245928Y-94738095D01*
X200631642Y-95119047D02*
X200031642Y-95642857D01*
X200031642Y-95119047D02*
X200631642Y-95642857D01*
X200631642Y-96785714D02*
X199731642Y-96785714D01*
X200631642Y-97357142D02*
X200117357Y-96928571D01*
X199731642Y-97357142D02*
X200245928Y-96785714D01*
X200588785Y-97833333D02*
X200631642Y-97833333D01*
X200717357Y-97785714D01*
X200760214Y-97738095D01*
X200631642Y-99023809D02*
X199731642Y-99023809D01*
X200374500Y-99357142D01*
X199731642Y-99690476D01*
X200631642Y-99690476D01*
X200631642Y-100166666D02*
X200031642Y-100166666D01*
X199731642Y-100166666D02*
X199774500Y-100119047D01*
X199817357Y-100166666D01*
X199774500Y-100214285D01*
X199731642Y-100166666D01*
X199817357Y-100166666D01*
X200031642Y-100500000D02*
X200031642Y-100880952D01*
X199731642Y-100642857D02*
X200503071Y-100642857D01*
X200588785Y-100690476D01*
X200631642Y-100785714D01*
X200631642Y-100880952D01*
X200588785Y-101642857D02*
X200631642Y-101547619D01*
X200631642Y-101357142D01*
X200588785Y-101261904D01*
X200545928Y-101214285D01*
X200460214Y-101166666D01*
X200203071Y-101166666D01*
X200117357Y-101214285D01*
X200074500Y-101261904D01*
X200031642Y-101357142D01*
X200031642Y-101547619D01*
X200074500Y-101642857D01*
X200631642Y-102071428D02*
X199731642Y-102071428D01*
X200631642Y-102500000D02*
X200160214Y-102500000D01*
X200074500Y-102452380D01*
X200031642Y-102357142D01*
X200031642Y-102214285D01*
X200074500Y-102119047D01*
X200117357Y-102071428D01*
X200588785Y-103357142D02*
X200631642Y-103261904D01*
X200631642Y-103071428D01*
X200588785Y-102976190D01*
X200503071Y-102928571D01*
X200160214Y-102928571D01*
X200074500Y-102976190D01*
X200031642Y-103071428D01*
X200031642Y-103261904D01*
X200074500Y-103357142D01*
X200160214Y-103404761D01*
X200245928Y-103404761D01*
X200331642Y-102928571D01*
X200631642Y-103976190D02*
X200588785Y-103880952D01*
X200503071Y-103833333D01*
X199731642Y-103833333D01*
X200631642Y-104500000D02*
X200588785Y-104404761D01*
X200503071Y-104357142D01*
X199731642Y-104357142D01*
X200631642Y-105642857D02*
X199731642Y-105642857D01*
X200160214Y-105642857D02*
X200160214Y-106214285D01*
X200631642Y-106214285D02*
X199731642Y-106214285D01*
X200588785Y-106738095D02*
X200631642Y-106738095D01*
X200717357Y-106690476D01*
X200760214Y-106642857D01*
X200374500Y-107880952D02*
X200374500Y-108357142D01*
X200631642Y-107785714D02*
X199731642Y-108119047D01*
X200631642Y-108452380D01*
X200631642Y-109214285D02*
X199731642Y-109214285D01*
X200588785Y-109214285D02*
X200631642Y-109119047D01*
X200631642Y-108928571D01*
X200588785Y-108833333D01*
X200545928Y-108785714D01*
X200460214Y-108738095D01*
X200203071Y-108738095D01*
X200117357Y-108785714D01*
X200074500Y-108833333D01*
X200031642Y-108928571D01*
X200031642Y-109119047D01*
X200074500Y-109214285D01*
X200631642Y-110119047D02*
X200160214Y-110119047D01*
X200074500Y-110071428D01*
X200031642Y-109976190D01*
X200031642Y-109785714D01*
X200074500Y-109690476D01*
X200588785Y-110119047D02*
X200631642Y-110023809D01*
X200631642Y-109785714D01*
X200588785Y-109690476D01*
X200503071Y-109642857D01*
X200417357Y-109642857D01*
X200331642Y-109690476D01*
X200288785Y-109785714D01*
X200288785Y-110023809D01*
X200245928Y-110119047D01*
X200631642Y-110595238D02*
X200031642Y-110595238D01*
X200117357Y-110595238D02*
X200074500Y-110642857D01*
X200031642Y-110738095D01*
X200031642Y-110880952D01*
X200074500Y-110976190D01*
X200160214Y-111023809D01*
X200631642Y-111023809D01*
X200160214Y-111023809D02*
X200074500Y-111071428D01*
X200031642Y-111166666D01*
X200031642Y-111309523D01*
X200074500Y-111404761D01*
X200160214Y-111452380D01*
X200631642Y-111452380D01*
X200588785Y-112642857D02*
X200631642Y-112785714D01*
X200631642Y-113023809D01*
X200588785Y-113119047D01*
X200545928Y-113166666D01*
X200460214Y-113214285D01*
X200374500Y-113214285D01*
X200288785Y-113166666D01*
X200245928Y-113119047D01*
X200203071Y-113023809D01*
X200160214Y-112833333D01*
X200117357Y-112738095D01*
X200074500Y-112690476D01*
X199988785Y-112642857D01*
X199903071Y-112642857D01*
X199817357Y-112690476D01*
X199774500Y-112738095D01*
X199731642Y-112833333D01*
X199731642Y-113071428D01*
X199774500Y-113214285D01*
D10*
X159465635Y-86272981D02*
X158988545Y-86272981D01*
X159561053Y-86559235D02*
X159227090Y-85557345D01*
X158893127Y-86559235D01*
X158034364Y-86559235D02*
X158606872Y-86559235D01*
X158320618Y-86559235D02*
X158320618Y-85557345D01*
X158416036Y-85700473D01*
X158511454Y-85795891D01*
X158606872Y-85843600D01*
X163909333Y-109180380D02*
X163909333Y-109894666D01*
X163956952Y-110037523D01*
X164052190Y-110132761D01*
X164195047Y-110180380D01*
X164290285Y-110180380D01*
X162909333Y-110180380D02*
X163480761Y-110180380D01*
X163195047Y-110180380D02*
X163195047Y-109180380D01*
X163290285Y-109323238D01*
X163385523Y-109418476D01*
X163480761Y-109466095D01*
D12*
X141750000Y-116858000D02*
X133400000Y-116858000D01*
X188250000Y-116858000D02*
X129250000Y-116858000D01*
X154350000Y-116858000D02*
X146000000Y-116858000D01*
X129250000Y-86858000D02*
X188250000Y-86858000D01*
X191250000Y-89858000D02*
X191250000Y-113858000D01*
X126250000Y-113858000D02*
G75*
G03*
X129250000Y-116858000I3000000J0D01*
G01*
X191250000Y-89858000D02*
G75*
G03*
X188250000Y-86858000I-3000001J-1D01*
G01*
X129250000Y-86858000D02*
G75*
G03*
X126250000Y-89858000I0J-3000000D01*
G01*
X188250000Y-116858000D02*
G75*
G03*
X191250000Y-113858000I-1J3000001D01*
G01*
D13*
X165167000Y-109728000D02*
X165167000Y-112328000D01*
X167827000Y-109728000D02*
X167827000Y-112328000D01*
X167827000Y-108458000D02*
X167827000Y-107128000D01*
X167827000Y-112328000D02*
X165167000Y-112328000D01*
X167827000Y-107128000D02*
X166497000Y-107128000D01*
X167827000Y-109728000D02*
X165167000Y-109728000D01*
D11*
X136525000Y-114046000D02*
X168275000Y-114046000D01*
X168275000Y-114046000D02*
X168275000Y-93726000D01*
X168275000Y-93726000D02*
X136525000Y-93726000D01*
X136525000Y-93726000D02*
X136525000Y-114046000D01*
%LPC*%
D14*
X157353000Y-127000000D03*
X145000000Y-101600000D03*
D15*
X198700000Y-74400000D03*
D14*
X183000000Y-82000000D03*
X142000000Y-127000000D03*
X197000000Y-81300000D03*
X156000000Y-101600000D03*
X161925000Y-127000000D03*
X150750000Y-101600000D03*
X147000000Y-127000000D03*
D16*
X198120000Y-121285000D03*
X200660000Y-118745000D03*
X200660000Y-123825000D03*
X195580000Y-123825000D03*
X195580000Y-118745000D03*
D14*
X197000000Y-86300000D03*
D15*
X106100000Y-129000000D03*
D14*
X197000000Y-96500000D03*
X183000000Y-75650000D03*
D15*
X198700000Y-129000000D03*
D14*
X197000000Y-91300000D03*
D17*
X104775000Y-86487000D03*
X125095000Y-86487000D03*
D18*
X104848000Y-116168000D03*
X107388000Y-116168000D03*
X112468000Y-116168000D03*
X120088000Y-116168000D03*
X125168000Y-116168000D03*
X117548000Y-116168000D03*
X115008000Y-116168000D03*
X109928000Y-116168000D03*
X122628000Y-116168000D03*
D14*
X152400000Y-127000000D03*
D15*
X106100000Y-74500000D03*
D19*
X175750000Y-80725000D03*
D20*
X175750000Y-83265000D03*
D19*
X175800000Y-74375000D03*
D20*
X175800000Y-76915000D03*
D15*
X129750000Y-90358000D03*
X129750000Y-113358000D03*
X187750000Y-113358000D03*
X187750000Y-90358000D03*
D21*
X182880000Y-91628000D03*
D22*
X182880000Y-89088000D03*
X180340000Y-91628000D03*
X180340000Y-89088000D03*
X177800000Y-91628000D03*
X177800000Y-89088000D03*
X175260000Y-91628000D03*
X175260000Y-89088000D03*
X172720000Y-91628000D03*
X172720000Y-89088000D03*
X170180000Y-91628000D03*
X170180000Y-89088000D03*
X167640000Y-91628000D03*
X167640000Y-89088000D03*
X165100000Y-91628000D03*
X165100000Y-89088000D03*
X162560000Y-91628000D03*
X162560000Y-89088000D03*
X160020000Y-91628000D03*
X160020000Y-89088000D03*
X157480000Y-91628000D03*
X157480000Y-89088000D03*
X154940000Y-91628000D03*
X154940000Y-89088000D03*
X152400000Y-91628000D03*
X152400000Y-89088000D03*
X149860000Y-91628000D03*
X149860000Y-89088000D03*
X147320000Y-91628000D03*
X147320000Y-89088000D03*
X144780000Y-91628000D03*
X144780000Y-89088000D03*
X142240000Y-91628000D03*
X142240000Y-89088000D03*
X139700000Y-91628000D03*
X139700000Y-89088000D03*
X137160000Y-91628000D03*
X137160000Y-89088000D03*
X134620000Y-91628000D03*
X134620000Y-89088000D03*
D23*
X165735000Y-100076000D03*
X139065000Y-100076000D03*
D24*
X166497000Y-108458000D03*
D25*
X166497000Y-110998000D03*
M02*
