G04 EAGLE Gerber RS-274X export*
G75*
%MOMM*%
%FSLAX34Y34*%
%LPD*%
%INBottom Copper*%
%IPPOS*%
%AMOC8*
5,1,8,0,0,1.08239X$1,22.5*%
G01*
%ADD10R,3.200000X3.200000*%
%ADD11R,10.000000X10.000000*%
%ADD12C,1.879600*%
%ADD13C,0.152400*%
%ADD14C,1.200150*%

G36*
X94508Y10164D02*
X94508Y10164D01*
X94527Y10162D01*
X94629Y10184D01*
X94731Y10200D01*
X94748Y10210D01*
X94768Y10214D01*
X94857Y10267D01*
X94948Y10316D01*
X94962Y10330D01*
X94979Y10340D01*
X95046Y10419D01*
X95118Y10494D01*
X95126Y10512D01*
X95139Y10527D01*
X95178Y10623D01*
X95221Y10717D01*
X95223Y10737D01*
X95231Y10755D01*
X95249Y10922D01*
X95249Y69850D01*
X95250Y69851D01*
X171450Y69851D01*
X171451Y69850D01*
X171451Y10922D01*
X171454Y10902D01*
X171452Y10883D01*
X171474Y10781D01*
X171490Y10679D01*
X171500Y10662D01*
X171504Y10642D01*
X171557Y10553D01*
X171606Y10462D01*
X171620Y10448D01*
X171630Y10431D01*
X171709Y10364D01*
X171784Y10292D01*
X171802Y10284D01*
X171817Y10271D01*
X171913Y10232D01*
X172007Y10189D01*
X172027Y10187D01*
X172045Y10179D01*
X172212Y10161D01*
X255778Y10161D01*
X255798Y10164D01*
X255817Y10162D01*
X255919Y10184D01*
X256021Y10200D01*
X256038Y10210D01*
X256058Y10214D01*
X256147Y10267D01*
X256238Y10316D01*
X256252Y10330D01*
X256269Y10340D01*
X256336Y10419D01*
X256408Y10494D01*
X256416Y10512D01*
X256429Y10527D01*
X256468Y10623D01*
X256511Y10717D01*
X256513Y10737D01*
X256521Y10755D01*
X256539Y10922D01*
X256539Y344678D01*
X256536Y344698D01*
X256538Y344717D01*
X256516Y344819D01*
X256500Y344921D01*
X256490Y344938D01*
X256486Y344958D01*
X256433Y345047D01*
X256384Y345138D01*
X256370Y345152D01*
X256360Y345169D01*
X256281Y345236D01*
X256206Y345308D01*
X256188Y345316D01*
X256173Y345329D01*
X256077Y345368D01*
X255983Y345411D01*
X255963Y345413D01*
X255945Y345421D01*
X255778Y345439D01*
X10922Y345439D01*
X10902Y345436D01*
X10883Y345438D01*
X10781Y345416D01*
X10679Y345400D01*
X10662Y345390D01*
X10642Y345386D01*
X10553Y345333D01*
X10462Y345284D01*
X10448Y345270D01*
X10431Y345260D01*
X10364Y345181D01*
X10292Y345106D01*
X10284Y345088D01*
X10271Y345073D01*
X10232Y344977D01*
X10189Y344883D01*
X10187Y344863D01*
X10179Y344845D01*
X10161Y344678D01*
X10161Y10922D01*
X10164Y10902D01*
X10162Y10883D01*
X10184Y10781D01*
X10200Y10679D01*
X10210Y10662D01*
X10214Y10642D01*
X10267Y10553D01*
X10316Y10462D01*
X10330Y10448D01*
X10340Y10431D01*
X10419Y10364D01*
X10494Y10292D01*
X10512Y10284D01*
X10527Y10271D01*
X10623Y10232D01*
X10717Y10189D01*
X10737Y10187D01*
X10755Y10179D01*
X10922Y10161D01*
X94488Y10161D01*
X94508Y10164D01*
G37*
%LPC*%
G36*
X68353Y30575D02*
X68353Y30575D01*
X65587Y31720D01*
X63470Y33837D01*
X62325Y36603D01*
X62325Y39597D01*
X63470Y42363D01*
X65587Y44480D01*
X68353Y45625D01*
X71347Y45625D01*
X72853Y45002D01*
X72946Y44980D01*
X72947Y44979D01*
X72948Y44979D01*
X72968Y44975D01*
X73082Y44946D01*
X73087Y44947D01*
X73093Y44945D01*
X73180Y44954D01*
X73191Y44952D01*
X73211Y44957D01*
X73327Y44966D01*
X73332Y44968D01*
X73337Y44969D01*
X73406Y44999D01*
X73432Y45005D01*
X73468Y45026D01*
X73553Y45063D01*
X73558Y45067D01*
X73562Y45069D01*
X73574Y45080D01*
X73623Y45119D01*
X73643Y45131D01*
X73654Y45144D01*
X73684Y45168D01*
X73691Y45175D01*
X73716Y45210D01*
X73743Y45235D01*
X73764Y45272D01*
X73803Y45318D01*
X73815Y45348D01*
X73835Y45375D01*
X73852Y45432D01*
X73862Y45450D01*
X73866Y45475D01*
X73895Y45546D01*
X73899Y45588D01*
X73906Y45611D01*
X73906Y45643D01*
X73913Y45713D01*
X73913Y242247D01*
X75476Y243810D01*
X92740Y261074D01*
X94303Y262637D01*
X151137Y262637D01*
X151228Y262651D01*
X151318Y262659D01*
X151348Y262671D01*
X151380Y262676D01*
X151461Y262719D01*
X151545Y262755D01*
X151577Y262781D01*
X151598Y262792D01*
X151620Y262815D01*
X151676Y262860D01*
X156240Y267424D01*
X156293Y267498D01*
X156353Y267568D01*
X156365Y267598D01*
X156384Y267624D01*
X156411Y267711D01*
X156445Y267796D01*
X156449Y267837D01*
X156456Y267859D01*
X156455Y267891D01*
X156463Y267963D01*
X156463Y272528D01*
X156452Y272599D01*
X156450Y272671D01*
X156432Y272720D01*
X156424Y272771D01*
X156390Y272834D01*
X156365Y272902D01*
X156333Y272942D01*
X156308Y272989D01*
X156256Y273038D01*
X156212Y273094D01*
X156168Y273122D01*
X156130Y273158D01*
X156065Y273188D01*
X156005Y273227D01*
X155954Y273240D01*
X155907Y273262D01*
X155836Y273269D01*
X155766Y273287D01*
X155714Y273283D01*
X155663Y273289D01*
X155592Y273273D01*
X155521Y273268D01*
X155473Y273247D01*
X155422Y273236D01*
X155361Y273200D01*
X155295Y273171D01*
X155239Y273127D01*
X155211Y273110D01*
X155196Y273092D01*
X155164Y273067D01*
X152237Y270140D01*
X148223Y268477D01*
X143877Y268477D01*
X139863Y270140D01*
X136790Y273213D01*
X135127Y277227D01*
X135127Y281573D01*
X136790Y285587D01*
X139863Y288660D01*
X143877Y290323D01*
X148223Y290323D01*
X152237Y288660D01*
X155164Y285733D01*
X155222Y285691D01*
X155274Y285642D01*
X155321Y285620D01*
X155363Y285590D01*
X155432Y285569D01*
X155497Y285538D01*
X155549Y285533D01*
X155599Y285517D01*
X155670Y285519D01*
X155741Y285511D01*
X155792Y285522D01*
X155844Y285524D01*
X155912Y285548D01*
X155982Y285564D01*
X156027Y285590D01*
X156075Y285608D01*
X156131Y285653D01*
X156193Y285690D01*
X156227Y285729D01*
X156267Y285762D01*
X156306Y285822D01*
X156353Y285877D01*
X156372Y285925D01*
X156400Y285969D01*
X156418Y286038D01*
X156445Y286105D01*
X156453Y286176D01*
X156461Y286207D01*
X156459Y286231D01*
X156463Y286272D01*
X156463Y293047D01*
X161783Y298367D01*
X161851Y298462D01*
X161921Y298556D01*
X161923Y298562D01*
X161927Y298567D01*
X161961Y298678D01*
X161997Y298790D01*
X161997Y298796D01*
X161999Y298802D01*
X161996Y298919D01*
X161995Y299036D01*
X161993Y299043D01*
X161993Y299048D01*
X161986Y299065D01*
X161948Y299197D01*
X160527Y302627D01*
X160527Y306973D01*
X162190Y310987D01*
X165263Y314060D01*
X169277Y315723D01*
X173623Y315723D01*
X177637Y314060D01*
X180710Y310987D01*
X182373Y306973D01*
X182373Y302627D01*
X180710Y298613D01*
X177637Y295540D01*
X173623Y293877D01*
X169277Y293877D01*
X165847Y295298D01*
X165733Y295325D01*
X165620Y295353D01*
X165613Y295353D01*
X165607Y295354D01*
X165491Y295343D01*
X165374Y295334D01*
X165369Y295332D01*
X165362Y295331D01*
X165255Y295284D01*
X165148Y295238D01*
X165142Y295233D01*
X165138Y295231D01*
X165124Y295219D01*
X165017Y295133D01*
X161260Y291376D01*
X161207Y291302D01*
X161147Y291232D01*
X161135Y291202D01*
X161116Y291176D01*
X161089Y291089D01*
X161055Y291004D01*
X161051Y290963D01*
X161044Y290941D01*
X161045Y290909D01*
X161037Y290837D01*
X161037Y286272D01*
X161048Y286201D01*
X161050Y286129D01*
X161068Y286080D01*
X161076Y286029D01*
X161110Y285966D01*
X161135Y285898D01*
X161167Y285858D01*
X161192Y285811D01*
X161244Y285762D01*
X161288Y285706D01*
X161332Y285678D01*
X161370Y285642D01*
X161435Y285612D01*
X161495Y285573D01*
X161546Y285560D01*
X161593Y285538D01*
X161664Y285531D01*
X161734Y285513D01*
X161786Y285517D01*
X161837Y285511D01*
X161908Y285527D01*
X161979Y285532D01*
X162027Y285553D01*
X162078Y285564D01*
X162139Y285600D01*
X162205Y285629D01*
X162261Y285673D01*
X162289Y285690D01*
X162304Y285708D01*
X162336Y285733D01*
X165263Y288660D01*
X169277Y290323D01*
X173623Y290323D01*
X177637Y288660D01*
X180710Y285587D01*
X182373Y281573D01*
X182373Y277227D01*
X180710Y273213D01*
X177637Y270140D01*
X173623Y268477D01*
X169277Y268477D01*
X165263Y270140D01*
X162336Y273067D01*
X162278Y273109D01*
X162226Y273158D01*
X162179Y273180D01*
X162137Y273210D01*
X162068Y273231D01*
X162003Y273262D01*
X161951Y273267D01*
X161901Y273283D01*
X161830Y273281D01*
X161759Y273289D01*
X161708Y273278D01*
X161656Y273276D01*
X161588Y273252D01*
X161518Y273236D01*
X161473Y273210D01*
X161425Y273192D01*
X161369Y273147D01*
X161307Y273110D01*
X161273Y273071D01*
X161233Y273038D01*
X161194Y272978D01*
X161147Y272923D01*
X161128Y272875D01*
X161100Y272831D01*
X161082Y272762D01*
X161055Y272695D01*
X161047Y272624D01*
X161039Y272593D01*
X161041Y272569D01*
X161037Y272528D01*
X161037Y265753D01*
X153347Y258063D01*
X96512Y258063D01*
X96422Y258049D01*
X96331Y258041D01*
X96302Y258029D01*
X96270Y258024D01*
X96189Y257981D01*
X96105Y257945D01*
X96073Y257919D01*
X96052Y257908D01*
X96030Y257885D01*
X95974Y257840D01*
X78710Y240576D01*
X78665Y240513D01*
X78639Y240486D01*
X78634Y240476D01*
X78597Y240432D01*
X78585Y240402D01*
X78566Y240376D01*
X78539Y240289D01*
X78505Y240204D01*
X78501Y240163D01*
X78494Y240141D01*
X78495Y240109D01*
X78487Y240038D01*
X78487Y43503D01*
X76924Y41940D01*
X76918Y41934D01*
X76849Y41838D01*
X76779Y41744D01*
X76777Y41739D01*
X76774Y41734D01*
X76739Y41622D01*
X76702Y41510D01*
X76703Y41505D01*
X76701Y41499D01*
X76704Y41382D01*
X76704Y41334D01*
X76704Y41333D01*
X76704Y41331D01*
X76705Y41264D01*
X76707Y41258D01*
X76707Y41254D01*
X76713Y41238D01*
X76752Y41103D01*
X77375Y39597D01*
X77375Y36603D01*
X76230Y33837D01*
X74113Y31720D01*
X71347Y30575D01*
X68353Y30575D01*
G37*
%LPD*%
%LPC*%
G36*
X134873Y188523D02*
X134873Y188523D01*
X134873Y239541D01*
X183684Y239541D01*
X184331Y239368D01*
X184910Y239033D01*
X185383Y238560D01*
X185718Y237981D01*
X185891Y237334D01*
X185891Y188523D01*
X134873Y188523D01*
G37*
%LPD*%
%LPC*%
G36*
X80809Y188523D02*
X80809Y188523D01*
X80809Y237334D01*
X80982Y237981D01*
X81317Y238560D01*
X81790Y239033D01*
X82369Y239368D01*
X83016Y239541D01*
X131827Y239541D01*
X131827Y188523D01*
X80809Y188523D01*
G37*
%LPD*%
%LPC*%
G36*
X134873Y134459D02*
X134873Y134459D01*
X134873Y185477D01*
X185891Y185477D01*
X185891Y136666D01*
X185718Y136019D01*
X185383Y135440D01*
X184910Y134967D01*
X184331Y134632D01*
X183684Y134459D01*
X134873Y134459D01*
G37*
%LPD*%
%LPC*%
G36*
X83016Y134459D02*
X83016Y134459D01*
X82369Y134632D01*
X81790Y134967D01*
X81317Y135440D01*
X80982Y136019D01*
X80809Y136666D01*
X80809Y185477D01*
X131827Y185477D01*
X131827Y134459D01*
X83016Y134459D01*
G37*
%LPD*%
%LPC*%
G36*
X214403Y151225D02*
X214403Y151225D01*
X211637Y152370D01*
X209520Y154487D01*
X208375Y157253D01*
X208375Y160247D01*
X209520Y163013D01*
X211637Y165130D01*
X213143Y165754D01*
X213243Y165816D01*
X213343Y165875D01*
X213347Y165880D01*
X213352Y165883D01*
X213427Y165974D01*
X213503Y166062D01*
X213505Y166068D01*
X213509Y166073D01*
X213551Y166181D01*
X213595Y166290D01*
X213596Y166298D01*
X213597Y166302D01*
X213598Y166321D01*
X213613Y166457D01*
X213613Y168714D01*
X213610Y168734D01*
X213612Y168753D01*
X213590Y168855D01*
X213574Y168957D01*
X213564Y168974D01*
X213560Y168994D01*
X213507Y169083D01*
X213458Y169174D01*
X213444Y169188D01*
X213434Y169205D01*
X213355Y169272D01*
X213280Y169344D01*
X213262Y169352D01*
X213247Y169365D01*
X213151Y169404D01*
X213057Y169447D01*
X213037Y169449D01*
X213019Y169457D01*
X212852Y169475D01*
X195218Y169475D01*
X194325Y170368D01*
X194325Y203632D01*
X195218Y204525D01*
X228482Y204525D01*
X229375Y203632D01*
X229375Y170368D01*
X228482Y169475D01*
X218948Y169475D01*
X218928Y169472D01*
X218909Y169474D01*
X218807Y169452D01*
X218705Y169436D01*
X218688Y169426D01*
X218668Y169422D01*
X218579Y169369D01*
X218488Y169320D01*
X218474Y169306D01*
X218457Y169296D01*
X218390Y169217D01*
X218318Y169142D01*
X218310Y169124D01*
X218297Y169109D01*
X218258Y169013D01*
X218215Y168919D01*
X218213Y168899D01*
X218205Y168881D01*
X218187Y168714D01*
X218187Y166457D01*
X218206Y166342D01*
X218223Y166226D01*
X218225Y166220D01*
X218226Y166214D01*
X218281Y166112D01*
X218334Y166007D01*
X218339Y166002D01*
X218342Y165997D01*
X218426Y165917D01*
X218510Y165835D01*
X218516Y165831D01*
X218520Y165827D01*
X218537Y165820D01*
X218657Y165754D01*
X220163Y165130D01*
X222280Y163013D01*
X223425Y160247D01*
X223425Y157253D01*
X222280Y154487D01*
X220163Y152370D01*
X217397Y151225D01*
X214403Y151225D01*
G37*
%LPD*%
%LPC*%
G36*
X23903Y113125D02*
X23903Y113125D01*
X21137Y114270D01*
X19020Y116387D01*
X17875Y119153D01*
X17875Y122147D01*
X19020Y124913D01*
X21137Y127030D01*
X23903Y128175D01*
X26897Y128175D01*
X28403Y127552D01*
X28496Y127530D01*
X28497Y127529D01*
X28499Y127529D01*
X28517Y127525D01*
X28630Y127496D01*
X28636Y127497D01*
X28643Y127495D01*
X28729Y127504D01*
X28741Y127502D01*
X28761Y127507D01*
X28875Y127516D01*
X28881Y127518D01*
X28887Y127519D01*
X28955Y127549D01*
X28982Y127555D01*
X29018Y127576D01*
X29102Y127612D01*
X29108Y127616D01*
X29112Y127619D01*
X29126Y127631D01*
X29173Y127669D01*
X29193Y127681D01*
X29204Y127694D01*
X29233Y127717D01*
X29240Y127724D01*
X29266Y127760D01*
X29293Y127785D01*
X29313Y127822D01*
X29353Y127868D01*
X29365Y127898D01*
X29384Y127924D01*
X29402Y127982D01*
X29412Y128000D01*
X29416Y128025D01*
X29445Y128096D01*
X29449Y128137D01*
X29456Y128159D01*
X29455Y128191D01*
X29463Y128263D01*
X29463Y216847D01*
X85583Y272967D01*
X85651Y273061D01*
X85721Y273156D01*
X85723Y273162D01*
X85727Y273167D01*
X85761Y273278D01*
X85797Y273390D01*
X85797Y273396D01*
X85799Y273402D01*
X85796Y273519D01*
X85795Y273636D01*
X85793Y273643D01*
X85793Y273648D01*
X85786Y273665D01*
X85748Y273797D01*
X84327Y277227D01*
X84327Y281573D01*
X85990Y285587D01*
X89063Y288660D01*
X93077Y290323D01*
X97423Y290323D01*
X101437Y288660D01*
X104510Y285587D01*
X106173Y281573D01*
X106173Y277227D01*
X104510Y273213D01*
X101437Y270140D01*
X97423Y268477D01*
X93077Y268477D01*
X89647Y269898D01*
X89533Y269925D01*
X89420Y269953D01*
X89413Y269953D01*
X89407Y269954D01*
X89291Y269943D01*
X89174Y269934D01*
X89169Y269932D01*
X89162Y269931D01*
X89055Y269883D01*
X88948Y269838D01*
X88942Y269833D01*
X88938Y269831D01*
X88924Y269819D01*
X88817Y269733D01*
X34260Y215176D01*
X34207Y215102D01*
X34147Y215032D01*
X34135Y215002D01*
X34116Y214976D01*
X34089Y214889D01*
X34055Y214804D01*
X34051Y214763D01*
X34044Y214741D01*
X34045Y214709D01*
X34037Y214637D01*
X34037Y126053D01*
X32467Y124483D01*
X32399Y124389D01*
X32329Y124294D01*
X32327Y124288D01*
X32323Y124283D01*
X32289Y124172D01*
X32253Y124060D01*
X32253Y124054D01*
X32251Y124048D01*
X32254Y123931D01*
X32255Y123814D01*
X32257Y123807D01*
X32257Y123802D01*
X32264Y123784D01*
X32302Y123653D01*
X32925Y122147D01*
X32925Y119153D01*
X31780Y116387D01*
X29663Y114270D01*
X26897Y113125D01*
X23903Y113125D01*
G37*
%LPD*%
%LPC*%
G36*
X38218Y169475D02*
X38218Y169475D01*
X37325Y170368D01*
X37325Y203632D01*
X38218Y204525D01*
X71482Y204525D01*
X72375Y203632D01*
X72375Y170368D01*
X71482Y169475D01*
X38218Y169475D01*
G37*
%LPD*%
%LPC*%
G36*
X220077Y293877D02*
X220077Y293877D01*
X216063Y295540D01*
X212990Y298613D01*
X211327Y302627D01*
X211327Y306973D01*
X212990Y310987D01*
X216063Y314060D01*
X220077Y315723D01*
X224423Y315723D01*
X228437Y314060D01*
X231510Y310987D01*
X233173Y306973D01*
X233173Y302627D01*
X231510Y298613D01*
X228437Y295540D01*
X224423Y293877D01*
X220077Y293877D01*
G37*
%LPD*%
%LPC*%
G36*
X194677Y293877D02*
X194677Y293877D01*
X190663Y295540D01*
X187590Y298613D01*
X185927Y302627D01*
X185927Y306973D01*
X187590Y310987D01*
X190663Y314060D01*
X194677Y315723D01*
X199023Y315723D01*
X203037Y314060D01*
X206110Y310987D01*
X207773Y306973D01*
X207773Y302627D01*
X206110Y298613D01*
X203037Y295540D01*
X199023Y293877D01*
X194677Y293877D01*
G37*
%LPD*%
%LPC*%
G36*
X42277Y293877D02*
X42277Y293877D01*
X38263Y295540D01*
X35190Y298613D01*
X33527Y302627D01*
X33527Y306973D01*
X35190Y310987D01*
X38263Y314060D01*
X42277Y315723D01*
X46623Y315723D01*
X50637Y314060D01*
X53710Y310987D01*
X55373Y306973D01*
X55373Y302627D01*
X53710Y298613D01*
X50637Y295540D01*
X46623Y293877D01*
X42277Y293877D01*
G37*
%LPD*%
%LPC*%
G36*
X67677Y293877D02*
X67677Y293877D01*
X63663Y295540D01*
X60590Y298613D01*
X58927Y302627D01*
X58927Y306973D01*
X60590Y310987D01*
X63663Y314060D01*
X67677Y315723D01*
X72023Y315723D01*
X76037Y314060D01*
X79110Y310987D01*
X80773Y306973D01*
X80773Y302627D01*
X79110Y298613D01*
X76037Y295540D01*
X72023Y293877D01*
X67677Y293877D01*
G37*
%LPD*%
%LPC*%
G36*
X143877Y293877D02*
X143877Y293877D01*
X139863Y295540D01*
X136790Y298613D01*
X135127Y302627D01*
X135127Y306973D01*
X136790Y310987D01*
X139863Y314060D01*
X143877Y315723D01*
X148223Y315723D01*
X152237Y314060D01*
X155310Y310987D01*
X156973Y306973D01*
X156973Y302627D01*
X155310Y298613D01*
X152237Y295540D01*
X148223Y293877D01*
X143877Y293877D01*
G37*
%LPD*%
%LPC*%
G36*
X93077Y293877D02*
X93077Y293877D01*
X89063Y295540D01*
X85990Y298613D01*
X84327Y302627D01*
X84327Y306973D01*
X85990Y310987D01*
X89063Y314060D01*
X93077Y315723D01*
X97423Y315723D01*
X101437Y314060D01*
X104510Y310987D01*
X106173Y306973D01*
X106173Y302627D01*
X104510Y298613D01*
X101437Y295540D01*
X97423Y293877D01*
X93077Y293877D01*
G37*
%LPD*%
%LPC*%
G36*
X118477Y293877D02*
X118477Y293877D01*
X114463Y295540D01*
X111390Y298613D01*
X109727Y302627D01*
X109727Y306973D01*
X111390Y310987D01*
X114463Y314060D01*
X118477Y315723D01*
X122823Y315723D01*
X126837Y314060D01*
X129910Y310987D01*
X131573Y306973D01*
X131573Y302627D01*
X129910Y298613D01*
X126837Y295540D01*
X122823Y293877D01*
X118477Y293877D01*
G37*
%LPD*%
%LPC*%
G36*
X118477Y268477D02*
X118477Y268477D01*
X114463Y270140D01*
X111390Y273213D01*
X109727Y277227D01*
X109727Y281573D01*
X111390Y285587D01*
X114463Y288660D01*
X118477Y290323D01*
X122823Y290323D01*
X126837Y288660D01*
X129910Y285587D01*
X131573Y281573D01*
X131573Y277227D01*
X129910Y273213D01*
X126837Y270140D01*
X122823Y268477D01*
X118477Y268477D01*
G37*
%LPD*%
%LPC*%
G36*
X194677Y268477D02*
X194677Y268477D01*
X190663Y270140D01*
X187590Y273213D01*
X185927Y277227D01*
X185927Y281573D01*
X187590Y285587D01*
X190663Y288660D01*
X194677Y290323D01*
X199023Y290323D01*
X203037Y288660D01*
X206110Y285587D01*
X207773Y281573D01*
X207773Y277227D01*
X206110Y273213D01*
X203037Y270140D01*
X199023Y268477D01*
X194677Y268477D01*
G37*
%LPD*%
%LPC*%
G36*
X220077Y268477D02*
X220077Y268477D01*
X216063Y270140D01*
X212990Y273213D01*
X211327Y277227D01*
X211327Y281573D01*
X212990Y285587D01*
X216063Y288660D01*
X220077Y290323D01*
X224423Y290323D01*
X228437Y288660D01*
X231510Y285587D01*
X233173Y281573D01*
X233173Y277227D01*
X231510Y273213D01*
X228437Y270140D01*
X224423Y268477D01*
X220077Y268477D01*
G37*
%LPD*%
%LPC*%
G36*
X67677Y268477D02*
X67677Y268477D01*
X63663Y270140D01*
X60590Y273213D01*
X58927Y277227D01*
X58927Y281573D01*
X60590Y285587D01*
X63663Y288660D01*
X67677Y290323D01*
X72023Y290323D01*
X76037Y288660D01*
X79110Y285587D01*
X80773Y281573D01*
X80773Y277227D01*
X79110Y273213D01*
X76037Y270140D01*
X72023Y268477D01*
X67677Y268477D01*
G37*
%LPD*%
%LPC*%
G36*
X42277Y268477D02*
X42277Y268477D01*
X38263Y270140D01*
X35190Y273213D01*
X33527Y277227D01*
X33527Y281573D01*
X35190Y285587D01*
X38263Y288660D01*
X42277Y290323D01*
X46623Y290323D01*
X50637Y288660D01*
X53710Y285587D01*
X55373Y281573D01*
X55373Y277227D01*
X53710Y273213D01*
X50637Y270140D01*
X46623Y268477D01*
X42277Y268477D01*
G37*
%LPD*%
%LPC*%
G36*
X133349Y186999D02*
X133349Y186999D01*
X133349Y187001D01*
X133351Y187001D01*
X133351Y186999D01*
X133349Y186999D01*
G37*
%LPD*%
D10*
X211850Y187000D03*
D11*
X133350Y187000D03*
D10*
X54850Y187000D03*
D12*
X44450Y279400D03*
X44450Y304800D03*
X69850Y279400D03*
X69850Y304800D03*
X95250Y279400D03*
X95250Y304800D03*
X120650Y279400D03*
X120650Y304800D03*
X146050Y279400D03*
X146050Y304800D03*
X171450Y279400D03*
X171450Y304800D03*
X196850Y279400D03*
X196850Y304800D03*
X222250Y279400D03*
X222250Y304800D03*
D13*
X133350Y191770D02*
X133350Y187000D01*
D14*
X142240Y78740D03*
X157480Y78740D03*
X109220Y78740D03*
X124460Y78740D03*
X111760Y121920D03*
X66040Y66040D03*
D13*
X215900Y158750D02*
X215900Y184150D01*
X211850Y187000D01*
D14*
X215900Y158750D03*
D13*
X31750Y127000D02*
X25400Y120650D01*
X31750Y127000D02*
X31750Y215900D01*
X95250Y279400D01*
D14*
X25400Y120650D03*
D13*
X76200Y44450D02*
X69850Y38100D01*
X76200Y44450D02*
X76200Y241300D01*
X95250Y260350D01*
X158750Y266700D02*
X158750Y292100D01*
X171450Y304800D01*
D14*
X69850Y38100D03*
D13*
X152400Y260350D02*
X158750Y266700D01*
X152400Y260350D02*
X95250Y260350D01*
M02*
