M48
;GenerationSoftware,Autodesk,EAGLE,9.6.2*%
;CreationDate,2021-04-11T19:30:43Z*%
FMAT,2
ICI,OFF
METRIC,TZ,000.000
T2C0.794
T1C1.016
%
G90
M71
T1
X4445Y27940
X4445Y30480
X6985Y27940
X6985Y30480
X9525Y27940
X9525Y30480
X12065Y27940
X12065Y30480
X14605Y27940
X14605Y30480
X17145Y27940
X17145Y30480
X19685Y27940
X19685Y30480
X22225Y27940
X22225Y30480
T2
X14224Y7874
X15748Y7874
X10922Y7874
X12446Y7874
X11176Y12192
X6604Y6604
X21590Y15875
X2540Y12065
X6985Y3810
M30