M48
; DRILL file {KiCad (6.0.7-1)-1} date Monday, April 10, 2023 at 02:53:11 PM
; FORMAT={-:-/ absolute / metric / decimal}
; #@! TF.CreationDate,2023-04-10T14:53:11-05:00
; #@! TF.GenerationSoftware,Kicad,Pcbnew,(6.0.7-1)-1
; #@! TF.FileFunction,Plated,1,4,PTH
FMAT,2
METRIC
; #@! TA.AperFunction,Plated,PTH,ViaDrill
T1C0.400
; #@! TA.AperFunction,Plated,PTH,ComponentDrill
T2C0.700
; #@! TA.AperFunction,Plated,PTH,ComponentDrill
T3C0.900
; #@! TA.AperFunction,Plated,PTH,ComponentDrill
T4C1.000
; #@! TA.AperFunction,Plated,PTH,ComponentDrill
T5C1.500
; #@! TA.AperFunction,Plated,PTH,ComponentDrill
T6C1.700
%
G90
G05
T1
X117.475Y-109.474
X133.6Y-72.4
X135.25Y-109.0
X135.255Y-115.935
X135.255Y-118.221
X135.4Y-76.8
X135.4Y-78.4
X136.737Y-75.431
X137.0Y-82.8
X137.25Y-113.25
X139.25Y-113.25
X141.4Y-78.4
X141.5Y-79.8
X143.2Y-115.0
X145.161Y-81.28
X147.32Y-86.36
X148.844Y-113.395
X149.0Y-114.75
X150.731Y-82.804
X150.749Y-79.756
X150.8Y-110.4
X152.4Y-85.001
X152.527Y-115.25
X152.908Y-78.867
X153.0Y-118.5
X156.21Y-86.36
X160.2Y-99.8
X160.2Y-103.4
X163.0Y-124.5
X164.465Y-117.348
X164.592Y-119.38
X164.592Y-121.285
X164.75Y-123.25
X168.656Y-122.555
X168.783Y-124.587
X168.8Y-96.4
X171.6Y-97.4
X171.6Y-99.0
X172.2Y-95.2
X174.677Y-99.077
X175.4Y-102.6
X176.5Y-114.8
X178.2Y-94.4
X178.7Y-120.8
X178.7Y-121.8
X178.8Y-112.2
X178.8Y-113.2
X179.7Y-112.2
X179.7Y-113.2
X179.7Y-120.8
X179.7Y-121.8
X181.2Y-119.1
X182.3Y-103.3
X182.3Y-104.3
X183.144Y-95.456
X183.3Y-103.3
X183.3Y-104.3
X184.2Y-94.4
X184.643Y-128.157
X185.2Y-129.9
X185.268Y-95.532
X185.3Y-127.5
X185.8Y-129.2
X186.0Y-126.8
X186.517Y-128.517
X186.7Y-126.1
X187.218Y-127.817
X187.4Y-125.4
X187.917Y-127.117
X188.1Y-124.7
X188.617Y-126.417
X188.8Y-124.0
X189.0Y-99.2
X189.2Y-102.524
X189.317Y-125.718
X189.5Y-123.3
X190.017Y-125.017
X190.2Y-122.6
X190.4Y-104.8
X190.6Y-98.4
X190.718Y-124.317
X190.9Y-121.9
X191.2Y-101.8
X191.2Y-102.985
X191.212Y-100.788
X191.4Y-123.6
X191.6Y-121.2
X192.0Y-98.4
X192.117Y-122.917
X192.3Y-120.5
X192.8Y-122.2
X194.221Y-104.16
X194.4Y-99.6
X197.0Y-106.0
X197.2Y-109.2
T2
X142.0Y-127.0
X145.0Y-101.6
X147.0Y-127.0
X150.75Y-101.6
X152.4Y-127.0
X156.0Y-101.6
X157.353Y-127.0
X161.925Y-127.0
X183.0Y-75.65
X183.0Y-82.0
X197.0Y-81.3
X197.0Y-86.3
X197.0Y-91.3
X197.0Y-96.5
T3
X175.75Y-80.725
X175.75Y-83.265
X175.8Y-74.375
X175.8Y-76.915
T4
X104.848Y-116.168
X107.388Y-116.168
X109.928Y-116.168
X112.468Y-116.168
X115.008Y-116.168
X117.548Y-116.168
X120.088Y-116.168
X122.628Y-116.168
X125.168Y-116.168
X134.62Y-89.088
X134.62Y-91.628
X137.16Y-89.088
X137.16Y-91.628
X139.7Y-89.088
X139.7Y-91.628
X142.24Y-89.088
X142.24Y-91.628
X144.78Y-89.088
X144.78Y-91.628
X147.32Y-89.088
X147.32Y-91.628
X149.86Y-89.088
X149.86Y-91.628
X152.4Y-89.088
X152.4Y-91.628
X154.94Y-89.088
X154.94Y-91.628
X157.48Y-89.088
X157.48Y-91.628
X160.02Y-89.088
X160.02Y-91.628
X162.56Y-89.088
X162.56Y-91.628
X165.1Y-89.088
X165.1Y-91.628
X166.497Y-108.458
X166.497Y-110.998
X167.64Y-89.088
X167.64Y-91.628
X170.18Y-89.088
X170.18Y-91.628
X172.72Y-89.088
X172.72Y-91.628
X175.26Y-89.088
X175.26Y-91.628
X177.8Y-89.088
X177.8Y-91.628
X180.34Y-89.088
X180.34Y-91.628
X182.88Y-89.088
X182.88Y-91.628
T5
X198.12Y-121.285
T6
X195.58Y-118.745
X195.58Y-123.825
X200.66Y-118.745
X200.66Y-123.825
T0
M30
