G04 #@! TF.GenerationSoftware,KiCad,Pcbnew,(6.0.7-1)-1*
G04 #@! TF.CreationDate,2023-04-10T14:53:08-05:00*
G04 #@! TF.ProjectId,Neutro_v2,4e657574-726f-45f7-9632-2e6b69636164,v1*
G04 #@! TF.SameCoordinates,Original*
G04 #@! TF.FileFunction,Soldermask,Bot*
G04 #@! TF.FilePolarity,Negative*
%FSLAX46Y46*%
G04 Gerber Fmt 4.6, Leading zero omitted, Abs format (unit mm)*
G04 Created by KiCad (PCBNEW (6.0.7-1)-1) date 2023-04-10 14:53:08*
%MOMM*%
%LPD*%
G01*
G04 APERTURE LIST*
%ADD10C,1.500000*%
%ADD11C,2.500000*%
%ADD12C,2.250000*%
%ADD13C,2.700000*%
%ADD14C,1.930400*%
%ADD15R,1.800000X1.800000*%
%ADD16C,1.800000*%
%ADD17R,1.508000X1.508000*%
%ADD18C,1.508000*%
%ADD19C,3.500000*%
%ADD20R,1.700000X1.700000*%
%ADD21O,1.700000X1.700000*%
G04 APERTURE END LIST*
D10*
X157353000Y-127000000D03*
X145000000Y-101600000D03*
D11*
X198700000Y-74400000D03*
D10*
X183000000Y-82000000D03*
X142000000Y-127000000D03*
X197000000Y-81300000D03*
X156000000Y-101600000D03*
X161925000Y-127000000D03*
X150750000Y-101600000D03*
X147000000Y-127000000D03*
D12*
X198120000Y-121285000D03*
X200660000Y-118745000D03*
X200660000Y-123825000D03*
X195580000Y-123825000D03*
X195580000Y-118745000D03*
D10*
X197000000Y-86300000D03*
D11*
X106100000Y-129000000D03*
D10*
X197000000Y-96500000D03*
X183000000Y-75650000D03*
D11*
X198700000Y-129000000D03*
D10*
X197000000Y-91300000D03*
D13*
X104775000Y-86487000D03*
X125095000Y-86487000D03*
D14*
X104848000Y-116168000D03*
X107388000Y-116168000D03*
X112468000Y-116168000D03*
X120088000Y-116168000D03*
X125168000Y-116168000D03*
X117548000Y-116168000D03*
X115008000Y-116168000D03*
X109928000Y-116168000D03*
X122628000Y-116168000D03*
D10*
X152400000Y-127000000D03*
D11*
X106100000Y-74500000D03*
D15*
X175750000Y-80725000D03*
D16*
X175750000Y-83265000D03*
D15*
X175800000Y-74375000D03*
D16*
X175800000Y-76915000D03*
D11*
X129750000Y-90358000D03*
X129750000Y-113358000D03*
X187750000Y-113358000D03*
X187750000Y-90358000D03*
D17*
X182880000Y-91628000D03*
D18*
X182880000Y-89088000D03*
X180340000Y-91628000D03*
X180340000Y-89088000D03*
X177800000Y-91628000D03*
X177800000Y-89088000D03*
X175260000Y-91628000D03*
X175260000Y-89088000D03*
X172720000Y-91628000D03*
X172720000Y-89088000D03*
X170180000Y-91628000D03*
X170180000Y-89088000D03*
X167640000Y-91628000D03*
X167640000Y-89088000D03*
X165100000Y-91628000D03*
X165100000Y-89088000D03*
X162560000Y-91628000D03*
X162560000Y-89088000D03*
X160020000Y-91628000D03*
X160020000Y-89088000D03*
X157480000Y-91628000D03*
X157480000Y-89088000D03*
X154940000Y-91628000D03*
X154940000Y-89088000D03*
X152400000Y-91628000D03*
X152400000Y-89088000D03*
X149860000Y-91628000D03*
X149860000Y-89088000D03*
X147320000Y-91628000D03*
X147320000Y-89088000D03*
X144780000Y-91628000D03*
X144780000Y-89088000D03*
X142240000Y-91628000D03*
X142240000Y-89088000D03*
X139700000Y-91628000D03*
X139700000Y-89088000D03*
X137160000Y-91628000D03*
X137160000Y-89088000D03*
X134620000Y-91628000D03*
X134620000Y-89088000D03*
D19*
X165735000Y-100076000D03*
X139065000Y-100076000D03*
D20*
X166497000Y-108458000D03*
D21*
X166497000Y-110998000D03*
M02*
