G04 #@! TF.GenerationSoftware,KiCad,Pcbnew,(6.0.7-1)-1*
G04 #@! TF.CreationDate,2023-01-09T19:50:39-06:00*
G04 #@! TF.ProjectId,Neutro_v1,4e657574-726f-45f7-9631-2e6b69636164,v1*
G04 #@! TF.SameCoordinates,Original*
G04 #@! TF.FileFunction,Legend,Bot*
G04 #@! TF.FilePolarity,Positive*
%FSLAX46Y46*%
G04 Gerber Fmt 4.6, Leading zero omitted, Abs format (unit mm)*
G04 Created by KiCad (PCBNEW (6.0.7-1)-1) date 2023-01-09 19:50:39*
%MOMM*%
%LPD*%
G01*
G04 APERTURE LIST*
%ADD10C,0.150000*%
%ADD11C,0.200000*%
%ADD12C,0.127000*%
%ADD13C,0.300000*%
%ADD14C,0.120000*%
%ADD15C,2.500000*%
%ADD16C,2.250000*%
%ADD17R,1.800000X1.800000*%
%ADD18C,1.800000*%
%ADD19C,2.750000*%
%ADD20R,1.508000X1.508000*%
%ADD21C,1.508000*%
%ADD22C,1.300000*%
%ADD23C,1.050000*%
%ADD24R,2.300000X4.500000*%
%ADD25C,3.500000*%
%ADD26R,1.700000X1.700000*%
%ADD27O,1.700000X1.700000*%
G04 APERTURE END LIST*
D10*
X149225000Y-81550000D02*
X155575000Y-81550000D01*
X155575000Y-81550000D02*
X155575000Y-75200000D01*
X155575000Y-75200000D02*
X149225000Y-75200000D01*
X149225000Y-75200000D02*
X149225000Y-81550000D01*
G36*
X149225000Y-81550000D02*
G01*
X155575000Y-81550000D01*
X155575000Y-75200000D01*
X149225000Y-75200000D01*
X149225000Y-81550000D01*
G37*
D11*
X199682642Y-83571428D02*
X198782642Y-83571428D01*
X199211214Y-83571428D02*
X199211214Y-84142857D01*
X199682642Y-84142857D02*
X198782642Y-84142857D01*
X199682642Y-84761904D02*
X199639785Y-84666666D01*
X199596928Y-84619047D01*
X199511214Y-84571428D01*
X199254071Y-84571428D01*
X199168357Y-84619047D01*
X199125500Y-84666666D01*
X199082642Y-84761904D01*
X199082642Y-84904761D01*
X199125500Y-85000000D01*
X199168357Y-85047619D01*
X199254071Y-85095238D01*
X199511214Y-85095238D01*
X199596928Y-85047619D01*
X199639785Y-85000000D01*
X199682642Y-84904761D01*
X199682642Y-84761904D01*
X199082642Y-85523809D02*
X199682642Y-85523809D01*
X199168357Y-85523809D02*
X199125500Y-85571428D01*
X199082642Y-85666666D01*
X199082642Y-85809523D01*
X199125500Y-85904761D01*
X199211214Y-85952380D01*
X199682642Y-85952380D01*
X199082642Y-86857142D02*
X199811214Y-86857142D01*
X199896928Y-86809523D01*
X199939785Y-86761904D01*
X199982642Y-86666666D01*
X199982642Y-86523809D01*
X199939785Y-86428571D01*
X199639785Y-86857142D02*
X199682642Y-86761904D01*
X199682642Y-86571428D01*
X199639785Y-86476190D01*
X199596928Y-86428571D01*
X199511214Y-86380952D01*
X199254071Y-86380952D01*
X199168357Y-86428571D01*
X199125500Y-86476190D01*
X199082642Y-86571428D01*
X199082642Y-86761904D01*
X199125500Y-86857142D01*
X199339785Y-87333333D02*
X199339785Y-88095238D01*
X199254071Y-88761904D02*
X199682642Y-88761904D01*
X198782642Y-88428571D02*
X199254071Y-88761904D01*
X198782642Y-89095238D01*
X199639785Y-89809523D02*
X199682642Y-89714285D01*
X199682642Y-89523809D01*
X199639785Y-89428571D01*
X199554071Y-89380952D01*
X199211214Y-89380952D01*
X199125500Y-89428571D01*
X199082642Y-89523809D01*
X199082642Y-89714285D01*
X199125500Y-89809523D01*
X199211214Y-89857142D01*
X199296928Y-89857142D01*
X199382642Y-89380952D01*
X198782642Y-90952380D02*
X199682642Y-91190476D01*
X199039785Y-91380952D01*
X199682642Y-91571428D01*
X198782642Y-91809523D01*
X199639785Y-92238095D02*
X199682642Y-92238095D01*
X199768357Y-92190476D01*
X199811214Y-92142857D01*
X199682642Y-93428571D02*
X198782642Y-93428571D01*
X198782642Y-93666666D01*
X198825500Y-93809523D01*
X198911214Y-93904761D01*
X198996928Y-93952380D01*
X199168357Y-94000000D01*
X199296928Y-94000000D01*
X199468357Y-93952380D01*
X199554071Y-93904761D01*
X199639785Y-93809523D01*
X199682642Y-93666666D01*
X199682642Y-93428571D01*
X199639785Y-94809523D02*
X199682642Y-94714285D01*
X199682642Y-94523809D01*
X199639785Y-94428571D01*
X199554071Y-94380952D01*
X199211214Y-94380952D01*
X199125500Y-94428571D01*
X199082642Y-94523809D01*
X199082642Y-94714285D01*
X199125500Y-94809523D01*
X199211214Y-94857142D01*
X199296928Y-94857142D01*
X199382642Y-94380952D01*
X199082642Y-95190476D02*
X199682642Y-95428571D01*
X199082642Y-95666666D01*
X199682642Y-96047619D02*
X199082642Y-96047619D01*
X198782642Y-96047619D02*
X198825500Y-96000000D01*
X198868357Y-96047619D01*
X198825500Y-96095238D01*
X198782642Y-96047619D01*
X198868357Y-96047619D01*
X199082642Y-96523809D02*
X199682642Y-96523809D01*
X199168357Y-96523809D02*
X199125500Y-96571428D01*
X199082642Y-96666666D01*
X199082642Y-96809523D01*
X199125500Y-96904761D01*
X199211214Y-96952380D01*
X199682642Y-96952380D01*
X198782642Y-98047619D02*
X199682642Y-98380952D01*
X198782642Y-98714285D01*
X199639785Y-99095238D02*
X199682642Y-99095238D01*
X199768357Y-99047619D01*
X199811214Y-98999999D01*
X199211214Y-100285714D02*
X199211214Y-100619047D01*
X199682642Y-100761904D02*
X199682642Y-100285714D01*
X198782642Y-100285714D01*
X198782642Y-100761904D01*
X199682642Y-101619047D02*
X198782642Y-101619047D01*
X199639785Y-101619047D02*
X199682642Y-101523809D01*
X199682642Y-101333333D01*
X199639785Y-101238095D01*
X199596928Y-101190476D01*
X199511214Y-101142857D01*
X199254071Y-101142857D01*
X199168357Y-101190476D01*
X199125500Y-101238095D01*
X199082642Y-101333333D01*
X199082642Y-101523809D01*
X199125500Y-101619047D01*
X199082642Y-101999999D02*
X199682642Y-102190476D01*
X199254071Y-102380952D01*
X199682642Y-102571428D01*
X199082642Y-102761904D01*
X199682642Y-103142857D02*
X199082642Y-103142857D01*
X198782642Y-103142857D02*
X198825500Y-103095238D01*
X198868357Y-103142857D01*
X198825500Y-103190476D01*
X198782642Y-103142857D01*
X198868357Y-103142857D01*
X199082642Y-103619047D02*
X199682642Y-103619047D01*
X199168357Y-103619047D02*
X199125500Y-103666666D01*
X199082642Y-103761904D01*
X199082642Y-103904761D01*
X199125500Y-103999999D01*
X199211214Y-104047619D01*
X199682642Y-104047619D01*
X199682642Y-105761904D02*
X199682642Y-105285714D01*
X198782642Y-105285714D01*
X199639785Y-106142857D02*
X199682642Y-106142857D01*
X199768357Y-106095238D01*
X199811214Y-106047619D01*
X198825500Y-107857142D02*
X198782642Y-107761904D01*
X198782642Y-107619047D01*
X198825500Y-107476190D01*
X198911214Y-107380952D01*
X198996928Y-107333333D01*
X199168357Y-107285714D01*
X199296928Y-107285714D01*
X199468357Y-107333333D01*
X199554071Y-107380952D01*
X199639785Y-107476190D01*
X199682642Y-107619047D01*
X199682642Y-107714285D01*
X199639785Y-107857142D01*
X199596928Y-107904761D01*
X199296928Y-107904761D01*
X199296928Y-107714285D01*
X199682642Y-108761904D02*
X199211214Y-108761904D01*
X199125500Y-108714285D01*
X199082642Y-108619047D01*
X199082642Y-108428571D01*
X199125500Y-108333333D01*
X199639785Y-108761904D02*
X199682642Y-108666666D01*
X199682642Y-108428571D01*
X199639785Y-108333333D01*
X199554071Y-108285714D01*
X199468357Y-108285714D01*
X199382642Y-108333333D01*
X199339785Y-108428571D01*
X199339785Y-108666666D01*
X199296928Y-108761904D01*
X199682642Y-109238095D02*
X198782642Y-109238095D01*
X199125500Y-109238095D02*
X199082642Y-109333333D01*
X199082642Y-109523809D01*
X199125500Y-109619047D01*
X199168357Y-109666666D01*
X199254071Y-109714285D01*
X199511214Y-109714285D01*
X199596928Y-109666666D01*
X199639785Y-109619047D01*
X199682642Y-109523809D01*
X199682642Y-109333333D01*
X199639785Y-109238095D01*
X199682642Y-110142857D02*
X199082642Y-110142857D01*
X199254071Y-110142857D02*
X199168357Y-110190476D01*
X199125500Y-110238095D01*
X199082642Y-110333333D01*
X199082642Y-110428571D01*
X199682642Y-110761904D02*
X199082642Y-110761904D01*
X198782642Y-110761904D02*
X198825500Y-110714285D01*
X198868357Y-110761904D01*
X198825500Y-110809523D01*
X198782642Y-110761904D01*
X198868357Y-110761904D01*
X199639785Y-111619047D02*
X199682642Y-111523809D01*
X199682642Y-111333333D01*
X199639785Y-111238095D01*
X199554071Y-111190476D01*
X199211214Y-111190476D01*
X199125500Y-111238095D01*
X199082642Y-111333333D01*
X199082642Y-111523809D01*
X199125500Y-111619047D01*
X199211214Y-111666666D01*
X199296928Y-111666666D01*
X199382642Y-111190476D01*
X199682642Y-112238095D02*
X199639785Y-112142857D01*
X199554071Y-112095238D01*
X198782642Y-112095238D01*
X198782642Y-113571428D02*
X198782642Y-113761904D01*
X198825500Y-113857142D01*
X198911214Y-113952380D01*
X199082642Y-113999999D01*
X199382642Y-113999999D01*
X199554071Y-113952380D01*
X199639785Y-113857142D01*
X199682642Y-113761904D01*
X199682642Y-113571428D01*
X199639785Y-113476190D01*
X199554071Y-113380952D01*
X199382642Y-113333333D01*
X199082642Y-113333333D01*
X198911214Y-113380952D01*
X198825500Y-113476190D01*
X198782642Y-113571428D01*
X199639785Y-114476190D02*
X199682642Y-114476190D01*
X199768357Y-114428571D01*
X199811214Y-114380952D01*
X201131642Y-89000000D02*
X200231642Y-89000000D01*
X200874500Y-89333333D01*
X200231642Y-89666666D01*
X201131642Y-89666666D01*
X201131642Y-90571428D02*
X200660214Y-90571428D01*
X200574500Y-90523809D01*
X200531642Y-90428571D01*
X200531642Y-90238095D01*
X200574500Y-90142857D01*
X201088785Y-90571428D02*
X201131642Y-90476190D01*
X201131642Y-90238095D01*
X201088785Y-90142857D01*
X201003071Y-90095238D01*
X200917357Y-90095238D01*
X200831642Y-90142857D01*
X200788785Y-90238095D01*
X200788785Y-90476190D01*
X200745928Y-90571428D01*
X201131642Y-90952380D02*
X200531642Y-91476190D01*
X200531642Y-90952380D02*
X201131642Y-91476190D01*
X201131642Y-92619047D02*
X200231642Y-92619047D01*
X201131642Y-93190476D02*
X200617357Y-92761904D01*
X200231642Y-93190476D02*
X200745928Y-92619047D01*
X201088785Y-93666666D02*
X201131642Y-93666666D01*
X201217357Y-93619047D01*
X201260214Y-93571428D01*
X201131642Y-94857142D02*
X200231642Y-94857142D01*
X200874500Y-95190476D01*
X200231642Y-95523809D01*
X201131642Y-95523809D01*
X201131642Y-95999999D02*
X200531642Y-95999999D01*
X200231642Y-95999999D02*
X200274500Y-95952380D01*
X200317357Y-95999999D01*
X200274500Y-96047619D01*
X200231642Y-95999999D01*
X200317357Y-95999999D01*
X200531642Y-96333333D02*
X200531642Y-96714285D01*
X200231642Y-96476190D02*
X201003071Y-96476190D01*
X201088785Y-96523809D01*
X201131642Y-96619047D01*
X201131642Y-96714285D01*
X201088785Y-97476190D02*
X201131642Y-97380952D01*
X201131642Y-97190476D01*
X201088785Y-97095238D01*
X201045928Y-97047619D01*
X200960214Y-96999999D01*
X200703071Y-96999999D01*
X200617357Y-97047619D01*
X200574500Y-97095238D01*
X200531642Y-97190476D01*
X200531642Y-97380952D01*
X200574500Y-97476190D01*
X201131642Y-97904761D02*
X200231642Y-97904761D01*
X201131642Y-98333333D02*
X200660214Y-98333333D01*
X200574500Y-98285714D01*
X200531642Y-98190476D01*
X200531642Y-98047619D01*
X200574500Y-97952380D01*
X200617357Y-97904761D01*
X201088785Y-99190476D02*
X201131642Y-99095238D01*
X201131642Y-98904761D01*
X201088785Y-98809523D01*
X201003071Y-98761904D01*
X200660214Y-98761904D01*
X200574500Y-98809523D01*
X200531642Y-98904761D01*
X200531642Y-99095238D01*
X200574500Y-99190476D01*
X200660214Y-99238095D01*
X200745928Y-99238095D01*
X200831642Y-98761904D01*
X201131642Y-99809523D02*
X201088785Y-99714285D01*
X201003071Y-99666666D01*
X200231642Y-99666666D01*
X201131642Y-100333333D02*
X201088785Y-100238095D01*
X201003071Y-100190476D01*
X200231642Y-100190476D01*
X201131642Y-101476190D02*
X200231642Y-101476190D01*
X200660214Y-101476190D02*
X200660214Y-102047619D01*
X201131642Y-102047619D02*
X200231642Y-102047619D01*
X201088785Y-102571428D02*
X201131642Y-102571428D01*
X201217357Y-102523809D01*
X201260214Y-102476190D01*
X200874500Y-103714285D02*
X200874500Y-104190476D01*
X201131642Y-103619047D02*
X200231642Y-103952380D01*
X201131642Y-104285714D01*
X201131642Y-105047619D02*
X200231642Y-105047619D01*
X201088785Y-105047619D02*
X201131642Y-104952380D01*
X201131642Y-104761904D01*
X201088785Y-104666666D01*
X201045928Y-104619047D01*
X200960214Y-104571428D01*
X200703071Y-104571428D01*
X200617357Y-104619047D01*
X200574500Y-104666666D01*
X200531642Y-104761904D01*
X200531642Y-104952380D01*
X200574500Y-105047619D01*
X201131642Y-105952380D02*
X200660214Y-105952380D01*
X200574500Y-105904761D01*
X200531642Y-105809523D01*
X200531642Y-105619047D01*
X200574500Y-105523809D01*
X201088785Y-105952380D02*
X201131642Y-105857142D01*
X201131642Y-105619047D01*
X201088785Y-105523809D01*
X201003071Y-105476190D01*
X200917357Y-105476190D01*
X200831642Y-105523809D01*
X200788785Y-105619047D01*
X200788785Y-105857142D01*
X200745928Y-105952380D01*
X201131642Y-106428571D02*
X200531642Y-106428571D01*
X200617357Y-106428571D02*
X200574500Y-106476190D01*
X200531642Y-106571428D01*
X200531642Y-106714285D01*
X200574500Y-106809523D01*
X200660214Y-106857142D01*
X201131642Y-106857142D01*
X200660214Y-106857142D02*
X200574500Y-106904761D01*
X200531642Y-106999999D01*
X200531642Y-107142857D01*
X200574500Y-107238095D01*
X200660214Y-107285714D01*
X201131642Y-107285714D01*
X201088785Y-108476190D02*
X201131642Y-108619047D01*
X201131642Y-108857142D01*
X201088785Y-108952380D01*
X201045928Y-108999999D01*
X200960214Y-109047619D01*
X200874500Y-109047619D01*
X200788785Y-108999999D01*
X200745928Y-108952380D01*
X200703071Y-108857142D01*
X200660214Y-108666666D01*
X200617357Y-108571428D01*
X200574500Y-108523809D01*
X200488785Y-108476190D01*
X200403071Y-108476190D01*
X200317357Y-108523809D01*
X200274500Y-108571428D01*
X200231642Y-108666666D01*
X200231642Y-108904761D01*
X200274500Y-109047619D01*
D10*
X159465635Y-86272981D02*
X158988545Y-86272981D01*
X159561053Y-86559235D02*
X159227090Y-85557345D01*
X158893127Y-86559235D01*
X158034364Y-86559235D02*
X158606872Y-86559235D01*
X158320618Y-86559235D02*
X158320618Y-85557345D01*
X158416036Y-85700473D01*
X158511454Y-85795891D01*
X158606872Y-85843600D01*
X118768714Y-92967670D02*
X118625857Y-93015289D01*
X118578238Y-93062908D01*
X118530619Y-93158146D01*
X118530619Y-93301003D01*
X118578238Y-93396241D01*
X118625857Y-93443860D01*
X118721095Y-93491479D01*
X119102047Y-93491479D01*
X119102047Y-92491479D01*
X118768714Y-92491479D01*
X118673476Y-92539099D01*
X118625857Y-92586718D01*
X118578238Y-92681956D01*
X118578238Y-92777194D01*
X118625857Y-92872432D01*
X118673476Y-92920051D01*
X118768714Y-92967670D01*
X119102047Y-92967670D01*
X118244904Y-92491479D02*
X117673476Y-92491479D01*
X117959190Y-93491479D02*
X117959190Y-92491479D01*
X116816333Y-93491479D02*
X117387761Y-93491479D01*
X117102047Y-93491479D02*
X117102047Y-92491479D01*
X117197285Y-92634337D01*
X117292523Y-92729575D01*
X117387761Y-92777194D01*
X163909333Y-109180380D02*
X163909333Y-109894666D01*
X163956952Y-110037523D01*
X164052190Y-110132761D01*
X164195047Y-110180380D01*
X164290285Y-110180380D01*
X162909333Y-110180380D02*
X163480761Y-110180380D01*
X163195047Y-110180380D02*
X163195047Y-109180380D01*
X163290285Y-109323238D01*
X163385523Y-109418476D01*
X163480761Y-109466095D01*
D12*
X141750000Y-116858000D02*
X133400000Y-116858000D01*
X191250000Y-89858000D02*
X191250000Y-113858000D01*
X129250000Y-86858000D02*
X188250000Y-86858000D01*
X188250000Y-116858000D02*
X129250000Y-116858000D01*
X154350000Y-116858000D02*
X146000000Y-116858000D01*
X129250000Y-86858000D02*
G75*
G03*
X126250000Y-89858000I0J-3000000D01*
G01*
X126250000Y-113858000D02*
G75*
G03*
X129250000Y-116858000I3000000J0D01*
G01*
X191250000Y-89858000D02*
G75*
G03*
X188250000Y-86858000I-3000001J-1D01*
G01*
X188250000Y-116858000D02*
G75*
G03*
X191250000Y-113858000I-1J3000001D01*
G01*
X110837000Y-98437099D02*
X110837000Y-102287099D01*
X113312000Y-98437099D02*
X110837000Y-98437099D01*
X125637000Y-102287099D02*
X125637000Y-98437099D01*
X125637000Y-102287099D02*
X119787000Y-102287099D01*
X110837000Y-102287099D02*
X116687000Y-102287099D01*
X125637000Y-98437099D02*
X123212000Y-98437099D01*
X123212000Y-98437099D02*
G75*
G03*
X119761999Y-85712098I-4949391J5488304D01*
G01*
X116712001Y-85712098D02*
G75*
G03*
X113262000Y-98437099I1499390J-7236697D01*
G01*
D13*
X118448803Y-104212099D02*
G75*
G03*
X118448803Y-104212099I-111803J0D01*
G01*
D14*
X165167000Y-109728000D02*
X165167000Y-112328000D01*
X167827000Y-109728000D02*
X167827000Y-112328000D01*
X167827000Y-108458000D02*
X167827000Y-107128000D01*
X167827000Y-112328000D02*
X165167000Y-112328000D01*
X167827000Y-107128000D02*
X166497000Y-107128000D01*
X167827000Y-109728000D02*
X165167000Y-109728000D01*
D11*
X136525000Y-114046000D02*
X168275000Y-114046000D01*
X168275000Y-114046000D02*
X168275000Y-93726000D01*
X168275000Y-93726000D02*
X136525000Y-93726000D01*
X136525000Y-93726000D02*
X136525000Y-114046000D01*
%LPC*%
D15*
X198700000Y-74400000D03*
D16*
X198120000Y-120269000D03*
X200660000Y-117729000D03*
X200660000Y-122809000D03*
X195580000Y-122809000D03*
X195580000Y-117729000D03*
D15*
X106100000Y-129000000D03*
X198700000Y-129000000D03*
X106100000Y-74500000D03*
D17*
X129500000Y-119825000D03*
D18*
X129500000Y-122365000D03*
D17*
X129500000Y-125625000D03*
D18*
X129500000Y-128165000D03*
D19*
X187750000Y-113358000D03*
X187750000Y-90358000D03*
X129750000Y-113358000D03*
X129750000Y-90358000D03*
D20*
X182880000Y-91628000D03*
D21*
X182880000Y-89088000D03*
X180340000Y-91628000D03*
X180340000Y-89088000D03*
X177800000Y-91628000D03*
X177800000Y-89088000D03*
X175260000Y-91628000D03*
X175260000Y-89088000D03*
X172720000Y-91628000D03*
X172720000Y-89088000D03*
X170180000Y-91628000D03*
X170180000Y-89088000D03*
X167640000Y-91628000D03*
X167640000Y-89088000D03*
X165100000Y-91628000D03*
X165100000Y-89088000D03*
X162560000Y-91628000D03*
X162560000Y-89088000D03*
X160020000Y-91628000D03*
X160020000Y-89088000D03*
X157480000Y-91628000D03*
X157480000Y-89088000D03*
X154940000Y-91628000D03*
X154940000Y-89088000D03*
X152400000Y-91628000D03*
X152400000Y-89088000D03*
X149860000Y-91628000D03*
X149860000Y-89088000D03*
X147320000Y-91628000D03*
X147320000Y-89088000D03*
X144780000Y-91628000D03*
X144780000Y-89088000D03*
X142240000Y-91628000D03*
X142240000Y-89088000D03*
X139700000Y-91628000D03*
X139700000Y-89088000D03*
X137160000Y-91628000D03*
X137160000Y-89088000D03*
X134620000Y-91628000D03*
X134620000Y-89088000D03*
D22*
X118237000Y-96637099D03*
D23*
X118237000Y-89187099D03*
D24*
X118237000Y-84487099D03*
X118237000Y-100887099D03*
D25*
X165735000Y-100076000D03*
X139065000Y-100076000D03*
D26*
X166497000Y-108458000D03*
D27*
X166497000Y-110998000D03*
M02*
