%TF.GenerationSoftware,KiCad,Pcbnew,(6.0.7-1)-1*%
%TF.CreationDate,2023-01-21T15:23:19-06:00*%
%TF.ProjectId,Neutro_v1,4e657574-726f-45f7-9631-2e6b69636164,v1*%
%TF.SameCoordinates,Original*%
%TF.FileFunction,Drillmap*%
%TF.FilePolarity,Positive*%
%FSLAX45Y45*%
G04 Gerber Fmt 4.5, Leading zero omitted, Abs format (unit mm)*
G04 Created by KiCad (PCBNEW (6.0.7-1)-1) date 2023-01-21 15:23:19*
%MOMM*%
%LPD*%
G01*
G04 APERTURE LIST*
%ADD10C,0.100000*%
%ADD11C,0.200000*%
%ADD12C,0.040000*%
%ADD13C,0.070000*%
%ADD14C,0.090000*%
%ADD15C,0.150000*%
%ADD16C,0.170000*%
G04 APERTURE END LIST*
D10*
X10160000Y-6985000D02*
X20320000Y-6985000D01*
X20320000Y-6985000D02*
X20320000Y-13335000D01*
X20320000Y-13335000D02*
X10160000Y-13335000D01*
X10160000Y-13335000D02*
X10160000Y-6985000D01*
D11*
D12*
X10292400Y-11270950D02*
X10332400Y-11310950D01*
X10332400Y-11270950D02*
X10292400Y-11310950D01*
X10300020Y-8971600D02*
X10340020Y-9011600D01*
X10340020Y-8971600D02*
X10300020Y-9011600D01*
X10420000Y-11730000D02*
X10460000Y-11770000D01*
X10460000Y-11730000D02*
X10420000Y-11770000D01*
X10420000Y-11840000D02*
X10460000Y-11880000D01*
X10460000Y-11840000D02*
X10420000Y-11880000D01*
X10470000Y-10840000D02*
X10510000Y-10880000D01*
X10510000Y-10840000D02*
X10470000Y-10880000D01*
X10470200Y-11067100D02*
X10510200Y-11107100D01*
X10510200Y-11067100D02*
X10470200Y-11107100D01*
X10480000Y-9300000D02*
X10520000Y-9340000D01*
X10520000Y-9300000D02*
X10480000Y-9340000D01*
X10480000Y-9500000D02*
X10520000Y-9540000D01*
X10520000Y-9500000D02*
X10480000Y-9540000D01*
X10482900Y-9136700D02*
X10522900Y-9176700D01*
X10522900Y-9136700D02*
X10482900Y-9176700D01*
X10510000Y-11730000D02*
X10550000Y-11770000D01*
X10550000Y-11730000D02*
X10510000Y-11770000D01*
X10510000Y-11840000D02*
X10550000Y-11880000D01*
X10550000Y-11840000D02*
X10510000Y-11880000D01*
X10590000Y-9500000D02*
X10630000Y-9540000D01*
X10630000Y-9500000D02*
X10590000Y-9540000D01*
X10592600Y-10744750D02*
X10632600Y-10784750D01*
X10632600Y-10744750D02*
X10592600Y-10784750D01*
X10668800Y-11049550D02*
X10708800Y-11089550D01*
X10708800Y-11049550D02*
X10668800Y-11089550D01*
X10755000Y-9330000D02*
X10795000Y-9370000D01*
X10795000Y-9330000D02*
X10755000Y-9370000D01*
X10821200Y-10744750D02*
X10861200Y-10784750D01*
X10861200Y-10744750D02*
X10821200Y-10784750D01*
X10973600Y-8255550D02*
X11013600Y-8295550D01*
X11013600Y-8255550D02*
X10973600Y-8295550D01*
X10973600Y-8484150D02*
X11013600Y-8524150D01*
X11013600Y-8484150D02*
X10973600Y-8524150D01*
X10973600Y-9080000D02*
X11013600Y-9120000D01*
X11013600Y-9080000D02*
X10973600Y-9120000D01*
X10973600Y-11049550D02*
X11013600Y-11089550D01*
X11013600Y-11049550D02*
X10973600Y-11089550D01*
X11024400Y-9474750D02*
X11064400Y-9514750D01*
X11064400Y-9474750D02*
X11024400Y-9514750D01*
X11140000Y-11730000D02*
X11180000Y-11770000D01*
X11180000Y-11730000D02*
X11140000Y-11770000D01*
X11140000Y-11830000D02*
X11180000Y-11870000D01*
X11180000Y-11830000D02*
X11140000Y-11870000D01*
X11145000Y-10770000D02*
X11185000Y-10810000D01*
X11185000Y-10770000D02*
X11145000Y-10810000D01*
X11202200Y-9474750D02*
X11242200Y-9514750D01*
X11242200Y-9474750D02*
X11202200Y-9514750D01*
X11240000Y-11200000D02*
X11280000Y-11240000D01*
X11280000Y-11200000D02*
X11240000Y-11240000D01*
X11240000Y-11300000D02*
X11280000Y-11340000D01*
X11280000Y-11300000D02*
X11240000Y-11340000D01*
X11240000Y-11730000D02*
X11280000Y-11770000D01*
X11280000Y-11730000D02*
X11240000Y-11770000D01*
X11240000Y-11830000D02*
X11280000Y-11870000D01*
X11280000Y-11830000D02*
X11240000Y-11870000D01*
X11245000Y-10770000D02*
X11285000Y-10810000D01*
X11285000Y-10770000D02*
X11245000Y-10810000D01*
X11480000Y-9330000D02*
X11520000Y-9370000D01*
X11520000Y-9330000D02*
X11480000Y-9370000D01*
X11480000Y-9480000D02*
X11520000Y-9520000D01*
X11520000Y-9480000D02*
X11480000Y-9520000D01*
X11557800Y-8230150D02*
X11597800Y-8270150D01*
X11597800Y-8230150D02*
X11557800Y-8270150D01*
X11557800Y-8484150D02*
X11597800Y-8524150D01*
X11597800Y-8484150D02*
X11557800Y-8524150D01*
X11557800Y-9080000D02*
X11597800Y-9120000D01*
X11597800Y-9080000D02*
X11557800Y-9120000D01*
X11778300Y-10381300D02*
X11818300Y-10421300D01*
X11818300Y-10381300D02*
X11778300Y-10421300D01*
X11981500Y-10381300D02*
X12021500Y-10421300D01*
X12021500Y-10381300D02*
X11981500Y-10421300D01*
X12095800Y-8387400D02*
X12135800Y-8427400D01*
X12135800Y-8387400D02*
X12095800Y-8427400D01*
X12362500Y-10394000D02*
X12402500Y-10434000D01*
X12402500Y-10394000D02*
X12362500Y-10434000D01*
X13340000Y-7220000D02*
X13380000Y-7260000D01*
X13380000Y-7220000D02*
X13340000Y-7260000D01*
X13505000Y-10880000D02*
X13545000Y-10920000D01*
X13545000Y-10880000D02*
X13505000Y-10920000D01*
X13505500Y-11573500D02*
X13545500Y-11613500D01*
X13545500Y-11573500D02*
X13505500Y-11613500D01*
X13505500Y-11802100D02*
X13545500Y-11842100D01*
X13545500Y-11802100D02*
X13505500Y-11842100D01*
X13520000Y-7660000D02*
X13560000Y-7700000D01*
X13560000Y-7660000D02*
X13520000Y-7700000D01*
X13520000Y-7820000D02*
X13560000Y-7860000D01*
X13560000Y-7820000D02*
X13520000Y-7860000D01*
X13653750Y-7523125D02*
X13693750Y-7563125D01*
X13693750Y-7523125D02*
X13653750Y-7563125D01*
X13680000Y-8260000D02*
X13720000Y-8300000D01*
X13720000Y-8260000D02*
X13680000Y-8300000D01*
X13705000Y-11305000D02*
X13745000Y-11345000D01*
X13745000Y-11305000D02*
X13705000Y-11345000D01*
X13905000Y-11305000D02*
X13945000Y-11345000D01*
X13945000Y-11305000D02*
X13905000Y-11345000D01*
X14120000Y-7820000D02*
X14160000Y-7860000D01*
X14160000Y-7820000D02*
X14120000Y-7860000D01*
X14130000Y-7960000D02*
X14170000Y-8000000D01*
X14170000Y-7960000D02*
X14130000Y-8000000D01*
X14180000Y-10780000D02*
X14220000Y-10820000D01*
X14220000Y-10780000D02*
X14180000Y-10820000D01*
X14300000Y-11480000D02*
X14340000Y-11520000D01*
X14340000Y-11480000D02*
X14300000Y-11520000D01*
X14496100Y-8108000D02*
X14536100Y-8148000D01*
X14536100Y-8108000D02*
X14496100Y-8148000D01*
X14712000Y-8480050D02*
X14752000Y-8520050D01*
X14752000Y-8480050D02*
X14712000Y-8520050D01*
X14712000Y-8616000D02*
X14752000Y-8656000D01*
X14752000Y-8616000D02*
X14712000Y-8656000D01*
X14864400Y-11319500D02*
X14904400Y-11359500D01*
X14904400Y-11319500D02*
X14864400Y-11359500D01*
X14880000Y-11455000D02*
X14920000Y-11495000D01*
X14920000Y-11455000D02*
X14880000Y-11495000D01*
X15053150Y-8260400D02*
X15093150Y-8300400D01*
X15093150Y-8260400D02*
X15053150Y-8300400D01*
X15054900Y-7955600D02*
X15094900Y-7995600D01*
X15094900Y-7955600D02*
X15054900Y-7995600D01*
X15060000Y-11020000D02*
X15100000Y-11060000D01*
X15100000Y-11020000D02*
X15060000Y-11060000D01*
X15220000Y-8480050D02*
X15260000Y-8520050D01*
X15260000Y-8480050D02*
X15220000Y-8520050D01*
X15232700Y-11505000D02*
X15272700Y-11545000D01*
X15272700Y-11505000D02*
X15232700Y-11545000D01*
X15270800Y-7866700D02*
X15310800Y-7906700D01*
X15310800Y-7866700D02*
X15270800Y-7906700D01*
X15280000Y-11830000D02*
X15320000Y-11870000D01*
X15320000Y-11830000D02*
X15280000Y-11870000D01*
X15601000Y-8616000D02*
X15641000Y-8656000D01*
X15641000Y-8616000D02*
X15601000Y-8656000D01*
X16000000Y-9960000D02*
X16040000Y-10000000D01*
X16040000Y-9960000D02*
X16000000Y-10000000D01*
X16000000Y-10320000D02*
X16040000Y-10360000D01*
X16040000Y-10320000D02*
X16000000Y-10360000D01*
X16280000Y-12430000D02*
X16320000Y-12470000D01*
X16320000Y-12430000D02*
X16280000Y-12470000D01*
X16426500Y-11714800D02*
X16466500Y-11754800D01*
X16466500Y-11714800D02*
X16426500Y-11754800D01*
X16439200Y-11918000D02*
X16479200Y-11958000D01*
X16479200Y-11918000D02*
X16439200Y-11958000D01*
X16439200Y-12108500D02*
X16479200Y-12148500D01*
X16479200Y-12108500D02*
X16439200Y-12148500D01*
X16455000Y-12305000D02*
X16495000Y-12345000D01*
X16495000Y-12305000D02*
X16455000Y-12345000D01*
X16845600Y-12235500D02*
X16885600Y-12275500D01*
X16885600Y-12235500D02*
X16845600Y-12275500D01*
X16858300Y-12438700D02*
X16898300Y-12478700D01*
X16898300Y-12438700D02*
X16858300Y-12478700D01*
X16860000Y-9620000D02*
X16900000Y-9660000D01*
X16900000Y-9620000D02*
X16860000Y-9660000D01*
X17140000Y-9720000D02*
X17180000Y-9760000D01*
X17180000Y-9720000D02*
X17140000Y-9760000D01*
X17140000Y-9880000D02*
X17180000Y-9920000D01*
X17180000Y-9880000D02*
X17140000Y-9920000D01*
X17200000Y-9500000D02*
X17240000Y-9540000D01*
X17240000Y-9500000D02*
X17200000Y-9540000D01*
X17447681Y-9887681D02*
X17487681Y-9927681D01*
X17487681Y-9887681D02*
X17447681Y-9927681D01*
X17520000Y-10240000D02*
X17560000Y-10280000D01*
X17560000Y-10240000D02*
X17520000Y-10280000D01*
X17630000Y-11460000D02*
X17670000Y-11500000D01*
X17670000Y-11460000D02*
X17630000Y-11500000D01*
X17800000Y-9420000D02*
X17840000Y-9460000D01*
X17840000Y-9420000D02*
X17800000Y-9460000D01*
X17850000Y-11200000D02*
X17890000Y-11240000D01*
X17890000Y-11200000D02*
X17850000Y-11240000D01*
X17850000Y-11300000D02*
X17890000Y-11340000D01*
X17890000Y-11300000D02*
X17850000Y-11340000D01*
X17850000Y-12060000D02*
X17890000Y-12100000D01*
X17890000Y-12060000D02*
X17850000Y-12100000D01*
X17850000Y-12160000D02*
X17890000Y-12200000D01*
X17890000Y-12160000D02*
X17850000Y-12200000D01*
X17950000Y-11200000D02*
X17990000Y-11240000D01*
X17990000Y-11200000D02*
X17950000Y-11240000D01*
X17950000Y-11300000D02*
X17990000Y-11340000D01*
X17990000Y-11300000D02*
X17950000Y-11340000D01*
X17950000Y-12060000D02*
X17990000Y-12100000D01*
X17990000Y-12060000D02*
X17950000Y-12100000D01*
X17950000Y-12160000D02*
X17990000Y-12200000D01*
X17990000Y-12160000D02*
X17950000Y-12200000D01*
X18100000Y-11890000D02*
X18140000Y-11930000D01*
X18140000Y-11890000D02*
X18100000Y-11930000D01*
X18210000Y-10310000D02*
X18250000Y-10350000D01*
X18250000Y-10310000D02*
X18210000Y-10350000D01*
X18210000Y-10410000D02*
X18250000Y-10450000D01*
X18250000Y-10410000D02*
X18210000Y-10450000D01*
X18294370Y-9525630D02*
X18334370Y-9565630D01*
X18334370Y-9525630D02*
X18294370Y-9565630D01*
X18310000Y-10310000D02*
X18350000Y-10350000D01*
X18350000Y-10310000D02*
X18310000Y-10350000D01*
X18310000Y-10410000D02*
X18350000Y-10450000D01*
X18350000Y-10410000D02*
X18310000Y-10450000D01*
X18400000Y-9420000D02*
X18440000Y-9460000D01*
X18440000Y-9420000D02*
X18400000Y-9460000D01*
X18444300Y-12795700D02*
X18484300Y-12835700D01*
X18484300Y-12795700D02*
X18444300Y-12835700D01*
X18500000Y-12970000D02*
X18540000Y-13010000D01*
X18540000Y-12970000D02*
X18500000Y-13010000D01*
X18506830Y-9533170D02*
X18546830Y-9573170D01*
X18546830Y-9533170D02*
X18506830Y-9573170D01*
X18510000Y-12730000D02*
X18550000Y-12770000D01*
X18550000Y-12730000D02*
X18510000Y-12770000D01*
X18560000Y-12900000D02*
X18600000Y-12940000D01*
X18600000Y-12900000D02*
X18560000Y-12940000D01*
X18580000Y-12660000D02*
X18620000Y-12700000D01*
X18620000Y-12660000D02*
X18580000Y-12700000D01*
X18631750Y-12831750D02*
X18671750Y-12871750D01*
X18671750Y-12831750D02*
X18631750Y-12871750D01*
X18650000Y-12590000D02*
X18690000Y-12630000D01*
X18690000Y-12590000D02*
X18650000Y-12630000D01*
X18701750Y-12761750D02*
X18741750Y-12801750D01*
X18741750Y-12761750D02*
X18701750Y-12801750D01*
X18720000Y-12520000D02*
X18760000Y-12560000D01*
X18760000Y-12520000D02*
X18720000Y-12560000D01*
X18771750Y-12691750D02*
X18811750Y-12731750D01*
X18811750Y-12691750D02*
X18771750Y-12731750D01*
X18790000Y-12450000D02*
X18830000Y-12490000D01*
X18830000Y-12450000D02*
X18790000Y-12490000D01*
X18841750Y-12621750D02*
X18881750Y-12661750D01*
X18881750Y-12621750D02*
X18841750Y-12661750D01*
X18860000Y-12380000D02*
X18900000Y-12420000D01*
X18900000Y-12380000D02*
X18860000Y-12420000D01*
X18880000Y-9900000D02*
X18920000Y-9940000D01*
X18920000Y-9900000D02*
X18880000Y-9940000D01*
X18900000Y-10232450D02*
X18940000Y-10272450D01*
X18940000Y-10232450D02*
X18900000Y-10272450D01*
X18911750Y-12551750D02*
X18951750Y-12591750D01*
X18951750Y-12551750D02*
X18911750Y-12591750D01*
X18930000Y-12310000D02*
X18970000Y-12350000D01*
X18970000Y-12310000D02*
X18930000Y-12350000D01*
X18981750Y-12481750D02*
X19021750Y-12521750D01*
X19021750Y-12481750D02*
X18981750Y-12521750D01*
X19000000Y-12240000D02*
X19040000Y-12280000D01*
X19040000Y-12240000D02*
X19000000Y-12280000D01*
X19020000Y-10460000D02*
X19060000Y-10500000D01*
X19060000Y-10460000D02*
X19020000Y-10500000D01*
X19040000Y-9820000D02*
X19080000Y-9860000D01*
X19080000Y-9820000D02*
X19040000Y-9860000D01*
X19051750Y-12411750D02*
X19091750Y-12451750D01*
X19091750Y-12411750D02*
X19051750Y-12451750D01*
X19070000Y-12170000D02*
X19110000Y-12210000D01*
X19110000Y-12170000D02*
X19070000Y-12210000D01*
X19100000Y-10160000D02*
X19140000Y-10200000D01*
X19140000Y-10160000D02*
X19100000Y-10200000D01*
X19100000Y-10278511D02*
X19140000Y-10318511D01*
X19140000Y-10278511D02*
X19100000Y-10318511D01*
X19101230Y-10058770D02*
X19141230Y-10098770D01*
X19141230Y-10058770D02*
X19101230Y-10098770D01*
X19120000Y-12340000D02*
X19160000Y-12380000D01*
X19160000Y-12340000D02*
X19120000Y-12380000D01*
X19140000Y-12100000D02*
X19180000Y-12140000D01*
X19180000Y-12100000D02*
X19140000Y-12140000D01*
X19180000Y-9820000D02*
X19220000Y-9860000D01*
X19220000Y-9820000D02*
X19180000Y-9860000D01*
X19191750Y-12271750D02*
X19231750Y-12311750D01*
X19231750Y-12271750D02*
X19191750Y-12311750D01*
X19210000Y-12030000D02*
X19250000Y-12070000D01*
X19250000Y-12030000D02*
X19210000Y-12070000D01*
X19260000Y-12200000D02*
X19300000Y-12240000D01*
X19300000Y-12200000D02*
X19260000Y-12240000D01*
X19402115Y-10396018D02*
X19442115Y-10436018D01*
X19442115Y-10396018D02*
X19402115Y-10436018D01*
X19420000Y-9940000D02*
X19460000Y-9980000D01*
X19460000Y-9940000D02*
X19420000Y-9980000D01*
X19680000Y-10580000D02*
X19720000Y-10620000D01*
X19720000Y-10580000D02*
X19680000Y-10620000D01*
X19700000Y-10900000D02*
X19740000Y-10940000D01*
X19740000Y-10900000D02*
X19700000Y-10940000D01*
D13*
X12354000Y-7300000D02*
G75*
G03*
X12354000Y-7300000I-35000J0D01*
G01*
X12354000Y-7874000D02*
G75*
G03*
X12354000Y-7874000I-35000J0D01*
G01*
X12354000Y-8500000D02*
G75*
G03*
X12354000Y-8500000I-35000J0D01*
G01*
X12354000Y-9100000D02*
G75*
G03*
X12354000Y-9100000I-35000J0D01*
G01*
X12354000Y-9700000D02*
G75*
G03*
X12354000Y-9700000I-35000J0D01*
G01*
X14235000Y-12700000D02*
G75*
G03*
X14235000Y-12700000I-35000J0D01*
G01*
X14535000Y-10160000D02*
G75*
G03*
X14535000Y-10160000I-35000J0D01*
G01*
X14735000Y-12700000D02*
G75*
G03*
X14735000Y-12700000I-35000J0D01*
G01*
X15110000Y-10160000D02*
G75*
G03*
X15110000Y-10160000I-35000J0D01*
G01*
X15275000Y-12700000D02*
G75*
G03*
X15275000Y-12700000I-35000J0D01*
G01*
X15635000Y-10160000D02*
G75*
G03*
X15635000Y-10160000I-35000J0D01*
G01*
X15770300Y-12700000D02*
G75*
G03*
X15770300Y-12700000I-35000J0D01*
G01*
X16252900Y-12700000D02*
G75*
G03*
X16252900Y-12700000I-35000J0D01*
G01*
X18335000Y-7565000D02*
G75*
G03*
X18335000Y-7565000I-35000J0D01*
G01*
X18335000Y-8200000D02*
G75*
G03*
X18335000Y-8200000I-35000J0D01*
G01*
X19735000Y-8130000D02*
G75*
G03*
X19735000Y-8130000I-35000J0D01*
G01*
X19735000Y-8630000D02*
G75*
G03*
X19735000Y-8630000I-35000J0D01*
G01*
X19735000Y-9130000D02*
G75*
G03*
X19735000Y-9130000I-35000J0D01*
G01*
X19735000Y-9650000D02*
G75*
G03*
X19735000Y-9650000I-35000J0D01*
G01*
D14*
X17575000Y-8027500D02*
X17575000Y-8117500D01*
X17530000Y-8072500D02*
X17620000Y-8072500D01*
X17575000Y-8281500D02*
X17575000Y-8371500D01*
X17530000Y-8326500D02*
X17620000Y-8326500D01*
X17580000Y-7392500D02*
X17580000Y-7482500D01*
X17535000Y-7437500D02*
X17625000Y-7437500D01*
X17580000Y-7646500D02*
X17580000Y-7736500D01*
X17535000Y-7691500D02*
X17625000Y-7691500D01*
D10*
X13497356Y-8944156D02*
X13497356Y-8873444D01*
X13426644Y-8873444D01*
X13426644Y-8944156D01*
X13497356Y-8944156D01*
X13497356Y-9198156D02*
X13497356Y-9127444D01*
X13426644Y-9127444D01*
X13426644Y-9198156D01*
X13497356Y-9198156D01*
X13751356Y-8944156D02*
X13751356Y-8873444D01*
X13680644Y-8873444D01*
X13680644Y-8944156D01*
X13751356Y-8944156D01*
X13751356Y-9198156D02*
X13751356Y-9127444D01*
X13680644Y-9127444D01*
X13680644Y-9198156D01*
X13751356Y-9198156D01*
X14005356Y-8944156D02*
X14005356Y-8873444D01*
X13934644Y-8873444D01*
X13934644Y-8944156D01*
X14005356Y-8944156D01*
X14005356Y-9198156D02*
X14005356Y-9127444D01*
X13934644Y-9127444D01*
X13934644Y-9198156D01*
X14005356Y-9198156D01*
X14259356Y-8944156D02*
X14259356Y-8873444D01*
X14188644Y-8873444D01*
X14188644Y-8944156D01*
X14259356Y-8944156D01*
X14259356Y-9198156D02*
X14259356Y-9127444D01*
X14188644Y-9127444D01*
X14188644Y-9198156D01*
X14259356Y-9198156D01*
X14513356Y-8944156D02*
X14513356Y-8873444D01*
X14442644Y-8873444D01*
X14442644Y-8944156D01*
X14513356Y-8944156D01*
X14513356Y-9198156D02*
X14513356Y-9127444D01*
X14442644Y-9127444D01*
X14442644Y-9198156D01*
X14513356Y-9198156D01*
X14767356Y-8944156D02*
X14767356Y-8873444D01*
X14696644Y-8873444D01*
X14696644Y-8944156D01*
X14767356Y-8944156D01*
X14767356Y-9198156D02*
X14767356Y-9127444D01*
X14696644Y-9127444D01*
X14696644Y-9198156D01*
X14767356Y-9198156D01*
X15021356Y-8944156D02*
X15021356Y-8873444D01*
X14950644Y-8873444D01*
X14950644Y-8944156D01*
X15021356Y-8944156D01*
X15021356Y-9198156D02*
X15021356Y-9127444D01*
X14950644Y-9127444D01*
X14950644Y-9198156D01*
X15021356Y-9198156D01*
X15275356Y-8944156D02*
X15275356Y-8873444D01*
X15204644Y-8873444D01*
X15204644Y-8944156D01*
X15275356Y-8944156D01*
X15275356Y-9198156D02*
X15275356Y-9127444D01*
X15204644Y-9127444D01*
X15204644Y-9198156D01*
X15275356Y-9198156D01*
X15529356Y-8944156D02*
X15529356Y-8873444D01*
X15458644Y-8873444D01*
X15458644Y-8944156D01*
X15529356Y-8944156D01*
X15529356Y-9198156D02*
X15529356Y-9127444D01*
X15458644Y-9127444D01*
X15458644Y-9198156D01*
X15529356Y-9198156D01*
X15783356Y-8944156D02*
X15783356Y-8873444D01*
X15712644Y-8873444D01*
X15712644Y-8944156D01*
X15783356Y-8944156D01*
X15783356Y-9198156D02*
X15783356Y-9127444D01*
X15712644Y-9127444D01*
X15712644Y-9198156D01*
X15783356Y-9198156D01*
X16037356Y-8944156D02*
X16037356Y-8873444D01*
X15966644Y-8873444D01*
X15966644Y-8944156D01*
X16037356Y-8944156D01*
X16037356Y-9198156D02*
X16037356Y-9127444D01*
X15966644Y-9127444D01*
X15966644Y-9198156D01*
X16037356Y-9198156D01*
X16291356Y-8944156D02*
X16291356Y-8873444D01*
X16220644Y-8873444D01*
X16220644Y-8944156D01*
X16291356Y-8944156D01*
X16291356Y-9198156D02*
X16291356Y-9127444D01*
X16220644Y-9127444D01*
X16220644Y-9198156D01*
X16291356Y-9198156D01*
X16545356Y-8944156D02*
X16545356Y-8873444D01*
X16474644Y-8873444D01*
X16474644Y-8944156D01*
X16545356Y-8944156D01*
X16545356Y-9198156D02*
X16545356Y-9127444D01*
X16474644Y-9127444D01*
X16474644Y-9198156D01*
X16545356Y-9198156D01*
X16685056Y-10881156D02*
X16685056Y-10810444D01*
X16614344Y-10810444D01*
X16614344Y-10881156D01*
X16685056Y-10881156D01*
X16685056Y-11135156D02*
X16685056Y-11064444D01*
X16614344Y-11064444D01*
X16614344Y-11135156D01*
X16685056Y-11135156D01*
X16799356Y-8944156D02*
X16799356Y-8873444D01*
X16728644Y-8873444D01*
X16728644Y-8944156D01*
X16799356Y-8944156D01*
X16799356Y-9198156D02*
X16799356Y-9127444D01*
X16728644Y-9127444D01*
X16728644Y-9198156D01*
X16799356Y-9198156D01*
X17053356Y-8944156D02*
X17053356Y-8873444D01*
X16982644Y-8873444D01*
X16982644Y-8944156D01*
X17053356Y-8944156D01*
X17053356Y-9198156D02*
X17053356Y-9127444D01*
X16982644Y-9127444D01*
X16982644Y-9198156D01*
X17053356Y-9198156D01*
X17307356Y-8944156D02*
X17307356Y-8873444D01*
X17236644Y-8873444D01*
X17236644Y-8944156D01*
X17307356Y-8944156D01*
X17307356Y-9198156D02*
X17307356Y-9127444D01*
X17236644Y-9127444D01*
X17236644Y-9198156D01*
X17307356Y-9198156D01*
X17561356Y-8944156D02*
X17561356Y-8873444D01*
X17490644Y-8873444D01*
X17490644Y-8944156D01*
X17561356Y-8944156D01*
X17561356Y-9198156D02*
X17561356Y-9127444D01*
X17490644Y-9127444D01*
X17490644Y-9198156D01*
X17561356Y-9198156D01*
X17815356Y-8944156D02*
X17815356Y-8873444D01*
X17744644Y-8873444D01*
X17744644Y-8944156D01*
X17815356Y-8944156D01*
X17815356Y-9198156D02*
X17815356Y-9127444D01*
X17744644Y-9127444D01*
X17744644Y-9198156D01*
X17815356Y-9198156D01*
X18069356Y-8944156D02*
X18069356Y-8873444D01*
X17998644Y-8873444D01*
X17998644Y-8944156D01*
X18069356Y-8944156D01*
X18069356Y-9198156D02*
X18069356Y-9127444D01*
X17998644Y-9127444D01*
X17998644Y-9198156D01*
X18069356Y-9198156D01*
X18323356Y-8944156D02*
X18323356Y-8873444D01*
X18252644Y-8873444D01*
X18252644Y-8944156D01*
X18323356Y-8944156D01*
X18323356Y-9198156D02*
X18323356Y-9127444D01*
X18252644Y-9127444D01*
X18252644Y-9198156D01*
X18323356Y-9198156D01*
D15*
X19812000Y-12203500D02*
X19887000Y-12128500D01*
X19812000Y-12053500D01*
X19737000Y-12128500D01*
X19812000Y-12203500D01*
D16*
X19473000Y-11789500D02*
X19643000Y-11959500D01*
X19643000Y-11789500D02*
X19473000Y-11959500D01*
X19643000Y-11874500D02*
G75*
G03*
X19643000Y-11874500I-85000J0D01*
G01*
X19473000Y-12297500D02*
X19643000Y-12467500D01*
X19643000Y-12297500D02*
X19473000Y-12467500D01*
X19643000Y-12382500D02*
G75*
G03*
X19643000Y-12382500I-85000J0D01*
G01*
X19981000Y-11789500D02*
X20151000Y-11959500D01*
X20151000Y-11789500D02*
X19981000Y-11959500D01*
X20151000Y-11874500D02*
G75*
G03*
X20151000Y-11874500I-85000J0D01*
G01*
X19981000Y-12297500D02*
X20151000Y-12467500D01*
X20151000Y-12297500D02*
X19981000Y-12467500D01*
X20151000Y-12382500D02*
G75*
G03*
X20151000Y-12382500I-85000J0D01*
G01*
D11*
X10412619Y-13650476D02*
X10412619Y-13450476D01*
X10460238Y-13450476D01*
X10488810Y-13460000D01*
X10507857Y-13479048D01*
X10517381Y-13498095D01*
X10526905Y-13536190D01*
X10526905Y-13564762D01*
X10517381Y-13602857D01*
X10507857Y-13621905D01*
X10488810Y-13640952D01*
X10460238Y-13650476D01*
X10412619Y-13650476D01*
X10612619Y-13650476D02*
X10612619Y-13517143D01*
X10612619Y-13555238D02*
X10622143Y-13536190D01*
X10631667Y-13526667D01*
X10650714Y-13517143D01*
X10669762Y-13517143D01*
X10736429Y-13650476D02*
X10736429Y-13517143D01*
X10736429Y-13450476D02*
X10726905Y-13460000D01*
X10736429Y-13469524D01*
X10745952Y-13460000D01*
X10736429Y-13450476D01*
X10736429Y-13469524D01*
X10860238Y-13650476D02*
X10841190Y-13640952D01*
X10831667Y-13621905D01*
X10831667Y-13450476D01*
X10965000Y-13650476D02*
X10945952Y-13640952D01*
X10936429Y-13621905D01*
X10936429Y-13450476D01*
X11193571Y-13650476D02*
X11193571Y-13450476D01*
X11260238Y-13593333D01*
X11326905Y-13450476D01*
X11326905Y-13650476D01*
X11507857Y-13650476D02*
X11507857Y-13545714D01*
X11498333Y-13526667D01*
X11479286Y-13517143D01*
X11441190Y-13517143D01*
X11422143Y-13526667D01*
X11507857Y-13640952D02*
X11488809Y-13650476D01*
X11441190Y-13650476D01*
X11422143Y-13640952D01*
X11412619Y-13621905D01*
X11412619Y-13602857D01*
X11422143Y-13583809D01*
X11441190Y-13574286D01*
X11488809Y-13574286D01*
X11507857Y-13564762D01*
X11603095Y-13517143D02*
X11603095Y-13717143D01*
X11603095Y-13526667D02*
X11622143Y-13517143D01*
X11660238Y-13517143D01*
X11679286Y-13526667D01*
X11688809Y-13536190D01*
X11698333Y-13555238D01*
X11698333Y-13612381D01*
X11688809Y-13631428D01*
X11679286Y-13640952D01*
X11660238Y-13650476D01*
X11622143Y-13650476D01*
X11603095Y-13640952D01*
X11784048Y-13631428D02*
X11793571Y-13640952D01*
X11784048Y-13650476D01*
X11774524Y-13640952D01*
X11784048Y-13631428D01*
X11784048Y-13650476D01*
X11784048Y-13526667D02*
X11793571Y-13536190D01*
X11784048Y-13545714D01*
X11774524Y-13536190D01*
X11784048Y-13526667D01*
X11784048Y-13545714D01*
D12*
X10115000Y-13960000D02*
X10155000Y-14000000D01*
X10155000Y-13960000D02*
X10115000Y-14000000D01*
D11*
X10450714Y-13870476D02*
X10469762Y-13870476D01*
X10488810Y-13880000D01*
X10498333Y-13889524D01*
X10507857Y-13908571D01*
X10517381Y-13946667D01*
X10517381Y-13994286D01*
X10507857Y-14032381D01*
X10498333Y-14051428D01*
X10488810Y-14060952D01*
X10469762Y-14070476D01*
X10450714Y-14070476D01*
X10431667Y-14060952D01*
X10422143Y-14051428D01*
X10412619Y-14032381D01*
X10403095Y-13994286D01*
X10403095Y-13946667D01*
X10412619Y-13908571D01*
X10422143Y-13889524D01*
X10431667Y-13880000D01*
X10450714Y-13870476D01*
X10603095Y-14051428D02*
X10612619Y-14060952D01*
X10603095Y-14070476D01*
X10593571Y-14060952D01*
X10603095Y-14051428D01*
X10603095Y-14070476D01*
X10784048Y-13937143D02*
X10784048Y-14070476D01*
X10736429Y-13860952D02*
X10688810Y-14003809D01*
X10812619Y-14003809D01*
X10926905Y-13870476D02*
X10945952Y-13870476D01*
X10965000Y-13880000D01*
X10974524Y-13889524D01*
X10984048Y-13908571D01*
X10993571Y-13946667D01*
X10993571Y-13994286D01*
X10984048Y-14032381D01*
X10974524Y-14051428D01*
X10965000Y-14060952D01*
X10945952Y-14070476D01*
X10926905Y-14070476D01*
X10907857Y-14060952D01*
X10898333Y-14051428D01*
X10888810Y-14032381D01*
X10879286Y-13994286D01*
X10879286Y-13946667D01*
X10888810Y-13908571D01*
X10898333Y-13889524D01*
X10907857Y-13880000D01*
X10926905Y-13870476D01*
X11117381Y-13870476D02*
X11136429Y-13870476D01*
X11155476Y-13880000D01*
X11165000Y-13889524D01*
X11174524Y-13908571D01*
X11184048Y-13946667D01*
X11184048Y-13994286D01*
X11174524Y-14032381D01*
X11165000Y-14051428D01*
X11155476Y-14060952D01*
X11136429Y-14070476D01*
X11117381Y-14070476D01*
X11098333Y-14060952D01*
X11088810Y-14051428D01*
X11079286Y-14032381D01*
X11069762Y-13994286D01*
X11069762Y-13946667D01*
X11079286Y-13908571D01*
X11088810Y-13889524D01*
X11098333Y-13880000D01*
X11117381Y-13870476D01*
X11269762Y-14070476D02*
X11269762Y-13937143D01*
X11269762Y-13956190D02*
X11279286Y-13946667D01*
X11298333Y-13937143D01*
X11326905Y-13937143D01*
X11345952Y-13946667D01*
X11355476Y-13965714D01*
X11355476Y-14070476D01*
X11355476Y-13965714D02*
X11365000Y-13946667D01*
X11384048Y-13937143D01*
X11412619Y-13937143D01*
X11431667Y-13946667D01*
X11441190Y-13965714D01*
X11441190Y-14070476D01*
X11536428Y-14070476D02*
X11536428Y-13937143D01*
X11536428Y-13956190D02*
X11545952Y-13946667D01*
X11565000Y-13937143D01*
X11593571Y-13937143D01*
X11612619Y-13946667D01*
X11622143Y-13965714D01*
X11622143Y-14070476D01*
X11622143Y-13965714D02*
X11631667Y-13946667D01*
X11650714Y-13937143D01*
X11679286Y-13937143D01*
X11698333Y-13946667D01*
X11707857Y-13965714D01*
X11707857Y-14070476D01*
X12098333Y-13860952D02*
X11926905Y-14118095D01*
X12355476Y-13870476D02*
X12374524Y-13870476D01*
X12393571Y-13880000D01*
X12403095Y-13889524D01*
X12412619Y-13908571D01*
X12422143Y-13946667D01*
X12422143Y-13994286D01*
X12412619Y-14032381D01*
X12403095Y-14051428D01*
X12393571Y-14060952D01*
X12374524Y-14070476D01*
X12355476Y-14070476D01*
X12336428Y-14060952D01*
X12326905Y-14051428D01*
X12317381Y-14032381D01*
X12307857Y-13994286D01*
X12307857Y-13946667D01*
X12317381Y-13908571D01*
X12326905Y-13889524D01*
X12336428Y-13880000D01*
X12355476Y-13870476D01*
X12507857Y-14051428D02*
X12517381Y-14060952D01*
X12507857Y-14070476D01*
X12498333Y-14060952D01*
X12507857Y-14051428D01*
X12507857Y-14070476D01*
X12641190Y-13870476D02*
X12660238Y-13870476D01*
X12679286Y-13880000D01*
X12688809Y-13889524D01*
X12698333Y-13908571D01*
X12707857Y-13946667D01*
X12707857Y-13994286D01*
X12698333Y-14032381D01*
X12688809Y-14051428D01*
X12679286Y-14060952D01*
X12660238Y-14070476D01*
X12641190Y-14070476D01*
X12622143Y-14060952D01*
X12612619Y-14051428D01*
X12603095Y-14032381D01*
X12593571Y-13994286D01*
X12593571Y-13946667D01*
X12603095Y-13908571D01*
X12612619Y-13889524D01*
X12622143Y-13880000D01*
X12641190Y-13870476D01*
X12898333Y-14070476D02*
X12784048Y-14070476D01*
X12841190Y-14070476D02*
X12841190Y-13870476D01*
X12822143Y-13899048D01*
X12803095Y-13918095D01*
X12784048Y-13927619D01*
X13079286Y-13870476D02*
X12984048Y-13870476D01*
X12974524Y-13965714D01*
X12984048Y-13956190D01*
X13003095Y-13946667D01*
X13050714Y-13946667D01*
X13069762Y-13956190D01*
X13079286Y-13965714D01*
X13088809Y-13984762D01*
X13088809Y-14032381D01*
X13079286Y-14051428D01*
X13069762Y-14060952D01*
X13050714Y-14070476D01*
X13003095Y-14070476D01*
X12984048Y-14060952D01*
X12974524Y-14051428D01*
X13155476Y-13870476D02*
X13288809Y-13870476D01*
X13203095Y-14070476D01*
X13355476Y-13870476D02*
X13355476Y-13908571D01*
X13431667Y-13870476D02*
X13431667Y-13908571D01*
X13726905Y-14146667D02*
X13717381Y-14137143D01*
X13698333Y-14108571D01*
X13688809Y-14089524D01*
X13679286Y-14060952D01*
X13669762Y-14013333D01*
X13669762Y-13975238D01*
X13679286Y-13927619D01*
X13688809Y-13899048D01*
X13698333Y-13880000D01*
X13717381Y-13851428D01*
X13726905Y-13841905D01*
X13907857Y-14070476D02*
X13793571Y-14070476D01*
X13850714Y-14070476D02*
X13850714Y-13870476D01*
X13831667Y-13899048D01*
X13812619Y-13918095D01*
X13793571Y-13927619D01*
X13974524Y-13870476D02*
X14098333Y-13870476D01*
X14031667Y-13946667D01*
X14060238Y-13946667D01*
X14079286Y-13956190D01*
X14088809Y-13965714D01*
X14098333Y-13984762D01*
X14098333Y-14032381D01*
X14088809Y-14051428D01*
X14079286Y-14060952D01*
X14060238Y-14070476D01*
X14003095Y-14070476D01*
X13984048Y-14060952D01*
X13974524Y-14051428D01*
X14279286Y-13870476D02*
X14184048Y-13870476D01*
X14174524Y-13965714D01*
X14184048Y-13956190D01*
X14203095Y-13946667D01*
X14250714Y-13946667D01*
X14269762Y-13956190D01*
X14279286Y-13965714D01*
X14288809Y-13984762D01*
X14288809Y-14032381D01*
X14279286Y-14051428D01*
X14269762Y-14060952D01*
X14250714Y-14070476D01*
X14203095Y-14070476D01*
X14184048Y-14060952D01*
X14174524Y-14051428D01*
X14526905Y-14070476D02*
X14526905Y-13870476D01*
X14612619Y-14070476D02*
X14612619Y-13965714D01*
X14603095Y-13946667D01*
X14584048Y-13937143D01*
X14555476Y-13937143D01*
X14536428Y-13946667D01*
X14526905Y-13956190D01*
X14736428Y-14070476D02*
X14717381Y-14060952D01*
X14707857Y-14051428D01*
X14698333Y-14032381D01*
X14698333Y-13975238D01*
X14707857Y-13956190D01*
X14717381Y-13946667D01*
X14736428Y-13937143D01*
X14765000Y-13937143D01*
X14784048Y-13946667D01*
X14793571Y-13956190D01*
X14803095Y-13975238D01*
X14803095Y-14032381D01*
X14793571Y-14051428D01*
X14784048Y-14060952D01*
X14765000Y-14070476D01*
X14736428Y-14070476D01*
X14917381Y-14070476D02*
X14898333Y-14060952D01*
X14888809Y-14041905D01*
X14888809Y-13870476D01*
X15069762Y-14060952D02*
X15050714Y-14070476D01*
X15012619Y-14070476D01*
X14993571Y-14060952D01*
X14984048Y-14041905D01*
X14984048Y-13965714D01*
X14993571Y-13946667D01*
X15012619Y-13937143D01*
X15050714Y-13937143D01*
X15069762Y-13946667D01*
X15079286Y-13965714D01*
X15079286Y-13984762D01*
X14984048Y-14003809D01*
X15155476Y-14060952D02*
X15174524Y-14070476D01*
X15212619Y-14070476D01*
X15231667Y-14060952D01*
X15241190Y-14041905D01*
X15241190Y-14032381D01*
X15231667Y-14013333D01*
X15212619Y-14003809D01*
X15184048Y-14003809D01*
X15165000Y-13994286D01*
X15155476Y-13975238D01*
X15155476Y-13965714D01*
X15165000Y-13946667D01*
X15184048Y-13937143D01*
X15212619Y-13937143D01*
X15231667Y-13946667D01*
X15307857Y-14146667D02*
X15317381Y-14137143D01*
X15336428Y-14108571D01*
X15345952Y-14089524D01*
X15355476Y-14060952D01*
X15365000Y-14013333D01*
X15365000Y-13975238D01*
X15355476Y-13927619D01*
X15345952Y-13899048D01*
X15336428Y-13880000D01*
X15317381Y-13851428D01*
X15307857Y-13841905D01*
D13*
X10155000Y-14244000D02*
G75*
G03*
X10155000Y-14244000I-35000J0D01*
G01*
D11*
X10450714Y-14134476D02*
X10469762Y-14134476D01*
X10488810Y-14144000D01*
X10498333Y-14153524D01*
X10507857Y-14172571D01*
X10517381Y-14210667D01*
X10517381Y-14258286D01*
X10507857Y-14296381D01*
X10498333Y-14315428D01*
X10488810Y-14324952D01*
X10469762Y-14334476D01*
X10450714Y-14334476D01*
X10431667Y-14324952D01*
X10422143Y-14315428D01*
X10412619Y-14296381D01*
X10403095Y-14258286D01*
X10403095Y-14210667D01*
X10412619Y-14172571D01*
X10422143Y-14153524D01*
X10431667Y-14144000D01*
X10450714Y-14134476D01*
X10603095Y-14315428D02*
X10612619Y-14324952D01*
X10603095Y-14334476D01*
X10593571Y-14324952D01*
X10603095Y-14315428D01*
X10603095Y-14334476D01*
X10679286Y-14134476D02*
X10812619Y-14134476D01*
X10726905Y-14334476D01*
X10926905Y-14134476D02*
X10945952Y-14134476D01*
X10965000Y-14144000D01*
X10974524Y-14153524D01*
X10984048Y-14172571D01*
X10993571Y-14210667D01*
X10993571Y-14258286D01*
X10984048Y-14296381D01*
X10974524Y-14315428D01*
X10965000Y-14324952D01*
X10945952Y-14334476D01*
X10926905Y-14334476D01*
X10907857Y-14324952D01*
X10898333Y-14315428D01*
X10888810Y-14296381D01*
X10879286Y-14258286D01*
X10879286Y-14210667D01*
X10888810Y-14172571D01*
X10898333Y-14153524D01*
X10907857Y-14144000D01*
X10926905Y-14134476D01*
X11117381Y-14134476D02*
X11136429Y-14134476D01*
X11155476Y-14144000D01*
X11165000Y-14153524D01*
X11174524Y-14172571D01*
X11184048Y-14210667D01*
X11184048Y-14258286D01*
X11174524Y-14296381D01*
X11165000Y-14315428D01*
X11155476Y-14324952D01*
X11136429Y-14334476D01*
X11117381Y-14334476D01*
X11098333Y-14324952D01*
X11088810Y-14315428D01*
X11079286Y-14296381D01*
X11069762Y-14258286D01*
X11069762Y-14210667D01*
X11079286Y-14172571D01*
X11088810Y-14153524D01*
X11098333Y-14144000D01*
X11117381Y-14134476D01*
X11269762Y-14334476D02*
X11269762Y-14201143D01*
X11269762Y-14220190D02*
X11279286Y-14210667D01*
X11298333Y-14201143D01*
X11326905Y-14201143D01*
X11345952Y-14210667D01*
X11355476Y-14229714D01*
X11355476Y-14334476D01*
X11355476Y-14229714D02*
X11365000Y-14210667D01*
X11384048Y-14201143D01*
X11412619Y-14201143D01*
X11431667Y-14210667D01*
X11441190Y-14229714D01*
X11441190Y-14334476D01*
X11536428Y-14334476D02*
X11536428Y-14201143D01*
X11536428Y-14220190D02*
X11545952Y-14210667D01*
X11565000Y-14201143D01*
X11593571Y-14201143D01*
X11612619Y-14210667D01*
X11622143Y-14229714D01*
X11622143Y-14334476D01*
X11622143Y-14229714D02*
X11631667Y-14210667D01*
X11650714Y-14201143D01*
X11679286Y-14201143D01*
X11698333Y-14210667D01*
X11707857Y-14229714D01*
X11707857Y-14334476D01*
X12098333Y-14124952D02*
X11926905Y-14382095D01*
X12355476Y-14134476D02*
X12374524Y-14134476D01*
X12393571Y-14144000D01*
X12403095Y-14153524D01*
X12412619Y-14172571D01*
X12422143Y-14210667D01*
X12422143Y-14258286D01*
X12412619Y-14296381D01*
X12403095Y-14315428D01*
X12393571Y-14324952D01*
X12374524Y-14334476D01*
X12355476Y-14334476D01*
X12336428Y-14324952D01*
X12326905Y-14315428D01*
X12317381Y-14296381D01*
X12307857Y-14258286D01*
X12307857Y-14210667D01*
X12317381Y-14172571D01*
X12326905Y-14153524D01*
X12336428Y-14144000D01*
X12355476Y-14134476D01*
X12507857Y-14315428D02*
X12517381Y-14324952D01*
X12507857Y-14334476D01*
X12498333Y-14324952D01*
X12507857Y-14315428D01*
X12507857Y-14334476D01*
X12641190Y-14134476D02*
X12660238Y-14134476D01*
X12679286Y-14144000D01*
X12688809Y-14153524D01*
X12698333Y-14172571D01*
X12707857Y-14210667D01*
X12707857Y-14258286D01*
X12698333Y-14296381D01*
X12688809Y-14315428D01*
X12679286Y-14324952D01*
X12660238Y-14334476D01*
X12641190Y-14334476D01*
X12622143Y-14324952D01*
X12612619Y-14315428D01*
X12603095Y-14296381D01*
X12593571Y-14258286D01*
X12593571Y-14210667D01*
X12603095Y-14172571D01*
X12612619Y-14153524D01*
X12622143Y-14144000D01*
X12641190Y-14134476D01*
X12784048Y-14153524D02*
X12793571Y-14144000D01*
X12812619Y-14134476D01*
X12860238Y-14134476D01*
X12879286Y-14144000D01*
X12888809Y-14153524D01*
X12898333Y-14172571D01*
X12898333Y-14191619D01*
X12888809Y-14220190D01*
X12774524Y-14334476D01*
X12898333Y-14334476D01*
X12965000Y-14134476D02*
X13098333Y-14134476D01*
X13012619Y-14334476D01*
X13260238Y-14134476D02*
X13222143Y-14134476D01*
X13203095Y-14144000D01*
X13193571Y-14153524D01*
X13174524Y-14182095D01*
X13165000Y-14220190D01*
X13165000Y-14296381D01*
X13174524Y-14315428D01*
X13184048Y-14324952D01*
X13203095Y-14334476D01*
X13241190Y-14334476D01*
X13260238Y-14324952D01*
X13269762Y-14315428D01*
X13279286Y-14296381D01*
X13279286Y-14248762D01*
X13269762Y-14229714D01*
X13260238Y-14220190D01*
X13241190Y-14210667D01*
X13203095Y-14210667D01*
X13184048Y-14220190D01*
X13174524Y-14229714D01*
X13165000Y-14248762D01*
X13355476Y-14134476D02*
X13355476Y-14172571D01*
X13431667Y-14134476D02*
X13431667Y-14172571D01*
X13726905Y-14410667D02*
X13717381Y-14401143D01*
X13698333Y-14372571D01*
X13688809Y-14353524D01*
X13679286Y-14324952D01*
X13669762Y-14277333D01*
X13669762Y-14239238D01*
X13679286Y-14191619D01*
X13688809Y-14163048D01*
X13698333Y-14144000D01*
X13717381Y-14115428D01*
X13726905Y-14105905D01*
X13907857Y-14334476D02*
X13793571Y-14334476D01*
X13850714Y-14334476D02*
X13850714Y-14134476D01*
X13831667Y-14163048D01*
X13812619Y-14182095D01*
X13793571Y-14191619D01*
X14003095Y-14334476D02*
X14041190Y-14334476D01*
X14060238Y-14324952D01*
X14069762Y-14315428D01*
X14088809Y-14286857D01*
X14098333Y-14248762D01*
X14098333Y-14172571D01*
X14088809Y-14153524D01*
X14079286Y-14144000D01*
X14060238Y-14134476D01*
X14022143Y-14134476D01*
X14003095Y-14144000D01*
X13993571Y-14153524D01*
X13984048Y-14172571D01*
X13984048Y-14220190D01*
X13993571Y-14239238D01*
X14003095Y-14248762D01*
X14022143Y-14258286D01*
X14060238Y-14258286D01*
X14079286Y-14248762D01*
X14088809Y-14239238D01*
X14098333Y-14220190D01*
X14336428Y-14334476D02*
X14336428Y-14134476D01*
X14422143Y-14334476D02*
X14422143Y-14229714D01*
X14412619Y-14210667D01*
X14393571Y-14201143D01*
X14365000Y-14201143D01*
X14345952Y-14210667D01*
X14336428Y-14220190D01*
X14545952Y-14334476D02*
X14526905Y-14324952D01*
X14517381Y-14315428D01*
X14507857Y-14296381D01*
X14507857Y-14239238D01*
X14517381Y-14220190D01*
X14526905Y-14210667D01*
X14545952Y-14201143D01*
X14574524Y-14201143D01*
X14593571Y-14210667D01*
X14603095Y-14220190D01*
X14612619Y-14239238D01*
X14612619Y-14296381D01*
X14603095Y-14315428D01*
X14593571Y-14324952D01*
X14574524Y-14334476D01*
X14545952Y-14334476D01*
X14726905Y-14334476D02*
X14707857Y-14324952D01*
X14698333Y-14305905D01*
X14698333Y-14134476D01*
X14879286Y-14324952D02*
X14860238Y-14334476D01*
X14822143Y-14334476D01*
X14803095Y-14324952D01*
X14793571Y-14305905D01*
X14793571Y-14229714D01*
X14803095Y-14210667D01*
X14822143Y-14201143D01*
X14860238Y-14201143D01*
X14879286Y-14210667D01*
X14888809Y-14229714D01*
X14888809Y-14248762D01*
X14793571Y-14267809D01*
X14965000Y-14324952D02*
X14984048Y-14334476D01*
X15022143Y-14334476D01*
X15041190Y-14324952D01*
X15050714Y-14305905D01*
X15050714Y-14296381D01*
X15041190Y-14277333D01*
X15022143Y-14267809D01*
X14993571Y-14267809D01*
X14974524Y-14258286D01*
X14965000Y-14239238D01*
X14965000Y-14229714D01*
X14974524Y-14210667D01*
X14993571Y-14201143D01*
X15022143Y-14201143D01*
X15041190Y-14210667D01*
X15117381Y-14410667D02*
X15126905Y-14401143D01*
X15145952Y-14372571D01*
X15155476Y-14353524D01*
X15165000Y-14324952D01*
X15174524Y-14277333D01*
X15174524Y-14239238D01*
X15165000Y-14191619D01*
X15155476Y-14163048D01*
X15145952Y-14144000D01*
X15126905Y-14115428D01*
X15117381Y-14105905D01*
D14*
X10110000Y-14463000D02*
X10110000Y-14553000D01*
X10065000Y-14508000D02*
X10155000Y-14508000D01*
D11*
X10450714Y-14398476D02*
X10469762Y-14398476D01*
X10488810Y-14408000D01*
X10498333Y-14417524D01*
X10507857Y-14436571D01*
X10517381Y-14474667D01*
X10517381Y-14522286D01*
X10507857Y-14560381D01*
X10498333Y-14579428D01*
X10488810Y-14588952D01*
X10469762Y-14598476D01*
X10450714Y-14598476D01*
X10431667Y-14588952D01*
X10422143Y-14579428D01*
X10412619Y-14560381D01*
X10403095Y-14522286D01*
X10403095Y-14474667D01*
X10412619Y-14436571D01*
X10422143Y-14417524D01*
X10431667Y-14408000D01*
X10450714Y-14398476D01*
X10603095Y-14579428D02*
X10612619Y-14588952D01*
X10603095Y-14598476D01*
X10593571Y-14588952D01*
X10603095Y-14579428D01*
X10603095Y-14598476D01*
X10707857Y-14598476D02*
X10745952Y-14598476D01*
X10765000Y-14588952D01*
X10774524Y-14579428D01*
X10793571Y-14550857D01*
X10803095Y-14512762D01*
X10803095Y-14436571D01*
X10793571Y-14417524D01*
X10784048Y-14408000D01*
X10765000Y-14398476D01*
X10726905Y-14398476D01*
X10707857Y-14408000D01*
X10698333Y-14417524D01*
X10688810Y-14436571D01*
X10688810Y-14484190D01*
X10698333Y-14503238D01*
X10707857Y-14512762D01*
X10726905Y-14522286D01*
X10765000Y-14522286D01*
X10784048Y-14512762D01*
X10793571Y-14503238D01*
X10803095Y-14484190D01*
X10926905Y-14398476D02*
X10945952Y-14398476D01*
X10965000Y-14408000D01*
X10974524Y-14417524D01*
X10984048Y-14436571D01*
X10993571Y-14474667D01*
X10993571Y-14522286D01*
X10984048Y-14560381D01*
X10974524Y-14579428D01*
X10965000Y-14588952D01*
X10945952Y-14598476D01*
X10926905Y-14598476D01*
X10907857Y-14588952D01*
X10898333Y-14579428D01*
X10888810Y-14560381D01*
X10879286Y-14522286D01*
X10879286Y-14474667D01*
X10888810Y-14436571D01*
X10898333Y-14417524D01*
X10907857Y-14408000D01*
X10926905Y-14398476D01*
X11117381Y-14398476D02*
X11136429Y-14398476D01*
X11155476Y-14408000D01*
X11165000Y-14417524D01*
X11174524Y-14436571D01*
X11184048Y-14474667D01*
X11184048Y-14522286D01*
X11174524Y-14560381D01*
X11165000Y-14579428D01*
X11155476Y-14588952D01*
X11136429Y-14598476D01*
X11117381Y-14598476D01*
X11098333Y-14588952D01*
X11088810Y-14579428D01*
X11079286Y-14560381D01*
X11069762Y-14522286D01*
X11069762Y-14474667D01*
X11079286Y-14436571D01*
X11088810Y-14417524D01*
X11098333Y-14408000D01*
X11117381Y-14398476D01*
X11269762Y-14598476D02*
X11269762Y-14465143D01*
X11269762Y-14484190D02*
X11279286Y-14474667D01*
X11298333Y-14465143D01*
X11326905Y-14465143D01*
X11345952Y-14474667D01*
X11355476Y-14493714D01*
X11355476Y-14598476D01*
X11355476Y-14493714D02*
X11365000Y-14474667D01*
X11384048Y-14465143D01*
X11412619Y-14465143D01*
X11431667Y-14474667D01*
X11441190Y-14493714D01*
X11441190Y-14598476D01*
X11536428Y-14598476D02*
X11536428Y-14465143D01*
X11536428Y-14484190D02*
X11545952Y-14474667D01*
X11565000Y-14465143D01*
X11593571Y-14465143D01*
X11612619Y-14474667D01*
X11622143Y-14493714D01*
X11622143Y-14598476D01*
X11622143Y-14493714D02*
X11631667Y-14474667D01*
X11650714Y-14465143D01*
X11679286Y-14465143D01*
X11698333Y-14474667D01*
X11707857Y-14493714D01*
X11707857Y-14598476D01*
X12098333Y-14388952D02*
X11926905Y-14646095D01*
X12355476Y-14398476D02*
X12374524Y-14398476D01*
X12393571Y-14408000D01*
X12403095Y-14417524D01*
X12412619Y-14436571D01*
X12422143Y-14474667D01*
X12422143Y-14522286D01*
X12412619Y-14560381D01*
X12403095Y-14579428D01*
X12393571Y-14588952D01*
X12374524Y-14598476D01*
X12355476Y-14598476D01*
X12336428Y-14588952D01*
X12326905Y-14579428D01*
X12317381Y-14560381D01*
X12307857Y-14522286D01*
X12307857Y-14474667D01*
X12317381Y-14436571D01*
X12326905Y-14417524D01*
X12336428Y-14408000D01*
X12355476Y-14398476D01*
X12507857Y-14579428D02*
X12517381Y-14588952D01*
X12507857Y-14598476D01*
X12498333Y-14588952D01*
X12507857Y-14579428D01*
X12507857Y-14598476D01*
X12641190Y-14398476D02*
X12660238Y-14398476D01*
X12679286Y-14408000D01*
X12688809Y-14417524D01*
X12698333Y-14436571D01*
X12707857Y-14474667D01*
X12707857Y-14522286D01*
X12698333Y-14560381D01*
X12688809Y-14579428D01*
X12679286Y-14588952D01*
X12660238Y-14598476D01*
X12641190Y-14598476D01*
X12622143Y-14588952D01*
X12612619Y-14579428D01*
X12603095Y-14560381D01*
X12593571Y-14522286D01*
X12593571Y-14474667D01*
X12603095Y-14436571D01*
X12612619Y-14417524D01*
X12622143Y-14408000D01*
X12641190Y-14398476D01*
X12774524Y-14398476D02*
X12898333Y-14398476D01*
X12831667Y-14474667D01*
X12860238Y-14474667D01*
X12879286Y-14484190D01*
X12888809Y-14493714D01*
X12898333Y-14512762D01*
X12898333Y-14560381D01*
X12888809Y-14579428D01*
X12879286Y-14588952D01*
X12860238Y-14598476D01*
X12803095Y-14598476D01*
X12784048Y-14588952D01*
X12774524Y-14579428D01*
X13079286Y-14398476D02*
X12984048Y-14398476D01*
X12974524Y-14493714D01*
X12984048Y-14484190D01*
X13003095Y-14474667D01*
X13050714Y-14474667D01*
X13069762Y-14484190D01*
X13079286Y-14493714D01*
X13088809Y-14512762D01*
X13088809Y-14560381D01*
X13079286Y-14579428D01*
X13069762Y-14588952D01*
X13050714Y-14598476D01*
X13003095Y-14598476D01*
X12984048Y-14588952D01*
X12974524Y-14579428D01*
X13260238Y-14465143D02*
X13260238Y-14598476D01*
X13212619Y-14388952D02*
X13165000Y-14531809D01*
X13288809Y-14531809D01*
X13355476Y-14398476D02*
X13355476Y-14436571D01*
X13431667Y-14398476D02*
X13431667Y-14436571D01*
X13726905Y-14674667D02*
X13717381Y-14665143D01*
X13698333Y-14636571D01*
X13688809Y-14617524D01*
X13679286Y-14588952D01*
X13669762Y-14541333D01*
X13669762Y-14503238D01*
X13679286Y-14455619D01*
X13688809Y-14427048D01*
X13698333Y-14408000D01*
X13717381Y-14379428D01*
X13726905Y-14369905D01*
X13888809Y-14465143D02*
X13888809Y-14598476D01*
X13841190Y-14388952D02*
X13793571Y-14531809D01*
X13917381Y-14531809D01*
X14145952Y-14598476D02*
X14145952Y-14398476D01*
X14231667Y-14598476D02*
X14231667Y-14493714D01*
X14222143Y-14474667D01*
X14203095Y-14465143D01*
X14174524Y-14465143D01*
X14155476Y-14474667D01*
X14145952Y-14484190D01*
X14355476Y-14598476D02*
X14336428Y-14588952D01*
X14326905Y-14579428D01*
X14317381Y-14560381D01*
X14317381Y-14503238D01*
X14326905Y-14484190D01*
X14336428Y-14474667D01*
X14355476Y-14465143D01*
X14384048Y-14465143D01*
X14403095Y-14474667D01*
X14412619Y-14484190D01*
X14422143Y-14503238D01*
X14422143Y-14560381D01*
X14412619Y-14579428D01*
X14403095Y-14588952D01*
X14384048Y-14598476D01*
X14355476Y-14598476D01*
X14536428Y-14598476D02*
X14517381Y-14588952D01*
X14507857Y-14569905D01*
X14507857Y-14398476D01*
X14688809Y-14588952D02*
X14669762Y-14598476D01*
X14631667Y-14598476D01*
X14612619Y-14588952D01*
X14603095Y-14569905D01*
X14603095Y-14493714D01*
X14612619Y-14474667D01*
X14631667Y-14465143D01*
X14669762Y-14465143D01*
X14688809Y-14474667D01*
X14698333Y-14493714D01*
X14698333Y-14512762D01*
X14603095Y-14531809D01*
X14774524Y-14588952D02*
X14793571Y-14598476D01*
X14831667Y-14598476D01*
X14850714Y-14588952D01*
X14860238Y-14569905D01*
X14860238Y-14560381D01*
X14850714Y-14541333D01*
X14831667Y-14531809D01*
X14803095Y-14531809D01*
X14784048Y-14522286D01*
X14774524Y-14503238D01*
X14774524Y-14493714D01*
X14784048Y-14474667D01*
X14803095Y-14465143D01*
X14831667Y-14465143D01*
X14850714Y-14474667D01*
X14926905Y-14674667D02*
X14936428Y-14665143D01*
X14955476Y-14636571D01*
X14965000Y-14617524D01*
X14974524Y-14588952D01*
X14984048Y-14541333D01*
X14984048Y-14503238D01*
X14974524Y-14455619D01*
X14965000Y-14427048D01*
X14955476Y-14408000D01*
X14936428Y-14379428D01*
X14926905Y-14369905D01*
D10*
X10140356Y-14807356D02*
X10140356Y-14736644D01*
X10069644Y-14736644D01*
X10069644Y-14807356D01*
X10140356Y-14807356D01*
D11*
X10517381Y-14862476D02*
X10403095Y-14862476D01*
X10460238Y-14862476D02*
X10460238Y-14662476D01*
X10441190Y-14691048D01*
X10422143Y-14710095D01*
X10403095Y-14719619D01*
X10603095Y-14843428D02*
X10612619Y-14852952D01*
X10603095Y-14862476D01*
X10593571Y-14852952D01*
X10603095Y-14843428D01*
X10603095Y-14862476D01*
X10736429Y-14662476D02*
X10755476Y-14662476D01*
X10774524Y-14672000D01*
X10784048Y-14681524D01*
X10793571Y-14700571D01*
X10803095Y-14738667D01*
X10803095Y-14786286D01*
X10793571Y-14824381D01*
X10784048Y-14843428D01*
X10774524Y-14852952D01*
X10755476Y-14862476D01*
X10736429Y-14862476D01*
X10717381Y-14852952D01*
X10707857Y-14843428D01*
X10698333Y-14824381D01*
X10688810Y-14786286D01*
X10688810Y-14738667D01*
X10698333Y-14700571D01*
X10707857Y-14681524D01*
X10717381Y-14672000D01*
X10736429Y-14662476D01*
X10926905Y-14662476D02*
X10945952Y-14662476D01*
X10965000Y-14672000D01*
X10974524Y-14681524D01*
X10984048Y-14700571D01*
X10993571Y-14738667D01*
X10993571Y-14786286D01*
X10984048Y-14824381D01*
X10974524Y-14843428D01*
X10965000Y-14852952D01*
X10945952Y-14862476D01*
X10926905Y-14862476D01*
X10907857Y-14852952D01*
X10898333Y-14843428D01*
X10888810Y-14824381D01*
X10879286Y-14786286D01*
X10879286Y-14738667D01*
X10888810Y-14700571D01*
X10898333Y-14681524D01*
X10907857Y-14672000D01*
X10926905Y-14662476D01*
X11117381Y-14662476D02*
X11136429Y-14662476D01*
X11155476Y-14672000D01*
X11165000Y-14681524D01*
X11174524Y-14700571D01*
X11184048Y-14738667D01*
X11184048Y-14786286D01*
X11174524Y-14824381D01*
X11165000Y-14843428D01*
X11155476Y-14852952D01*
X11136429Y-14862476D01*
X11117381Y-14862476D01*
X11098333Y-14852952D01*
X11088810Y-14843428D01*
X11079286Y-14824381D01*
X11069762Y-14786286D01*
X11069762Y-14738667D01*
X11079286Y-14700571D01*
X11088810Y-14681524D01*
X11098333Y-14672000D01*
X11117381Y-14662476D01*
X11269762Y-14862476D02*
X11269762Y-14729143D01*
X11269762Y-14748190D02*
X11279286Y-14738667D01*
X11298333Y-14729143D01*
X11326905Y-14729143D01*
X11345952Y-14738667D01*
X11355476Y-14757714D01*
X11355476Y-14862476D01*
X11355476Y-14757714D02*
X11365000Y-14738667D01*
X11384048Y-14729143D01*
X11412619Y-14729143D01*
X11431667Y-14738667D01*
X11441190Y-14757714D01*
X11441190Y-14862476D01*
X11536428Y-14862476D02*
X11536428Y-14729143D01*
X11536428Y-14748190D02*
X11545952Y-14738667D01*
X11565000Y-14729143D01*
X11593571Y-14729143D01*
X11612619Y-14738667D01*
X11622143Y-14757714D01*
X11622143Y-14862476D01*
X11622143Y-14757714D02*
X11631667Y-14738667D01*
X11650714Y-14729143D01*
X11679286Y-14729143D01*
X11698333Y-14738667D01*
X11707857Y-14757714D01*
X11707857Y-14862476D01*
X12098333Y-14652952D02*
X11926905Y-14910095D01*
X12355476Y-14662476D02*
X12374524Y-14662476D01*
X12393571Y-14672000D01*
X12403095Y-14681524D01*
X12412619Y-14700571D01*
X12422143Y-14738667D01*
X12422143Y-14786286D01*
X12412619Y-14824381D01*
X12403095Y-14843428D01*
X12393571Y-14852952D01*
X12374524Y-14862476D01*
X12355476Y-14862476D01*
X12336428Y-14852952D01*
X12326905Y-14843428D01*
X12317381Y-14824381D01*
X12307857Y-14786286D01*
X12307857Y-14738667D01*
X12317381Y-14700571D01*
X12326905Y-14681524D01*
X12336428Y-14672000D01*
X12355476Y-14662476D01*
X12507857Y-14843428D02*
X12517381Y-14852952D01*
X12507857Y-14862476D01*
X12498333Y-14852952D01*
X12507857Y-14843428D01*
X12507857Y-14862476D01*
X12641190Y-14662476D02*
X12660238Y-14662476D01*
X12679286Y-14672000D01*
X12688809Y-14681524D01*
X12698333Y-14700571D01*
X12707857Y-14738667D01*
X12707857Y-14786286D01*
X12698333Y-14824381D01*
X12688809Y-14843428D01*
X12679286Y-14852952D01*
X12660238Y-14862476D01*
X12641190Y-14862476D01*
X12622143Y-14852952D01*
X12612619Y-14843428D01*
X12603095Y-14824381D01*
X12593571Y-14786286D01*
X12593571Y-14738667D01*
X12603095Y-14700571D01*
X12612619Y-14681524D01*
X12622143Y-14672000D01*
X12641190Y-14662476D01*
X12774524Y-14662476D02*
X12898333Y-14662476D01*
X12831667Y-14738667D01*
X12860238Y-14738667D01*
X12879286Y-14748190D01*
X12888809Y-14757714D01*
X12898333Y-14776762D01*
X12898333Y-14824381D01*
X12888809Y-14843428D01*
X12879286Y-14852952D01*
X12860238Y-14862476D01*
X12803095Y-14862476D01*
X12784048Y-14852952D01*
X12774524Y-14843428D01*
X12993571Y-14862476D02*
X13031667Y-14862476D01*
X13050714Y-14852952D01*
X13060238Y-14843428D01*
X13079286Y-14814857D01*
X13088809Y-14776762D01*
X13088809Y-14700571D01*
X13079286Y-14681524D01*
X13069762Y-14672000D01*
X13050714Y-14662476D01*
X13012619Y-14662476D01*
X12993571Y-14672000D01*
X12984048Y-14681524D01*
X12974524Y-14700571D01*
X12974524Y-14748190D01*
X12984048Y-14767238D01*
X12993571Y-14776762D01*
X13012619Y-14786286D01*
X13050714Y-14786286D01*
X13069762Y-14776762D01*
X13079286Y-14767238D01*
X13088809Y-14748190D01*
X13260238Y-14729143D02*
X13260238Y-14862476D01*
X13212619Y-14652952D02*
X13165000Y-14795809D01*
X13288809Y-14795809D01*
X13355476Y-14662476D02*
X13355476Y-14700571D01*
X13431667Y-14662476D02*
X13431667Y-14700571D01*
X13726905Y-14938667D02*
X13717381Y-14929143D01*
X13698333Y-14900571D01*
X13688809Y-14881524D01*
X13679286Y-14852952D01*
X13669762Y-14805333D01*
X13669762Y-14767238D01*
X13679286Y-14719619D01*
X13688809Y-14691048D01*
X13698333Y-14672000D01*
X13717381Y-14643428D01*
X13726905Y-14633905D01*
X13888809Y-14729143D02*
X13888809Y-14862476D01*
X13841190Y-14652952D02*
X13793571Y-14795809D01*
X13917381Y-14795809D01*
X13984048Y-14681524D02*
X13993571Y-14672000D01*
X14012619Y-14662476D01*
X14060238Y-14662476D01*
X14079286Y-14672000D01*
X14088809Y-14681524D01*
X14098333Y-14700571D01*
X14098333Y-14719619D01*
X14088809Y-14748190D01*
X13974524Y-14862476D01*
X14098333Y-14862476D01*
X14336428Y-14862476D02*
X14336428Y-14662476D01*
X14422143Y-14862476D02*
X14422143Y-14757714D01*
X14412619Y-14738667D01*
X14393571Y-14729143D01*
X14365000Y-14729143D01*
X14345952Y-14738667D01*
X14336428Y-14748190D01*
X14545952Y-14862476D02*
X14526905Y-14852952D01*
X14517381Y-14843428D01*
X14507857Y-14824381D01*
X14507857Y-14767238D01*
X14517381Y-14748190D01*
X14526905Y-14738667D01*
X14545952Y-14729143D01*
X14574524Y-14729143D01*
X14593571Y-14738667D01*
X14603095Y-14748190D01*
X14612619Y-14767238D01*
X14612619Y-14824381D01*
X14603095Y-14843428D01*
X14593571Y-14852952D01*
X14574524Y-14862476D01*
X14545952Y-14862476D01*
X14726905Y-14862476D02*
X14707857Y-14852952D01*
X14698333Y-14833905D01*
X14698333Y-14662476D01*
X14879286Y-14852952D02*
X14860238Y-14862476D01*
X14822143Y-14862476D01*
X14803095Y-14852952D01*
X14793571Y-14833905D01*
X14793571Y-14757714D01*
X14803095Y-14738667D01*
X14822143Y-14729143D01*
X14860238Y-14729143D01*
X14879286Y-14738667D01*
X14888809Y-14757714D01*
X14888809Y-14776762D01*
X14793571Y-14795809D01*
X14965000Y-14852952D02*
X14984048Y-14862476D01*
X15022143Y-14862476D01*
X15041190Y-14852952D01*
X15050714Y-14833905D01*
X15050714Y-14824381D01*
X15041190Y-14805333D01*
X15022143Y-14795809D01*
X14993571Y-14795809D01*
X14974524Y-14786286D01*
X14965000Y-14767238D01*
X14965000Y-14757714D01*
X14974524Y-14738667D01*
X14993571Y-14729143D01*
X15022143Y-14729143D01*
X15041190Y-14738667D01*
X15117381Y-14938667D02*
X15126905Y-14929143D01*
X15145952Y-14900571D01*
X15155476Y-14881524D01*
X15165000Y-14852952D01*
X15174524Y-14805333D01*
X15174524Y-14767238D01*
X15165000Y-14719619D01*
X15155476Y-14691048D01*
X15145952Y-14672000D01*
X15126905Y-14643428D01*
X15117381Y-14633905D01*
D15*
X10080000Y-15111000D02*
X10155000Y-15036000D01*
X10080000Y-14961000D01*
X10005000Y-15036000D01*
X10080000Y-15111000D01*
D11*
X10517381Y-15126476D02*
X10403095Y-15126476D01*
X10460238Y-15126476D02*
X10460238Y-14926476D01*
X10441190Y-14955048D01*
X10422143Y-14974095D01*
X10403095Y-14983619D01*
X10603095Y-15107428D02*
X10612619Y-15116952D01*
X10603095Y-15126476D01*
X10593571Y-15116952D01*
X10603095Y-15107428D01*
X10603095Y-15126476D01*
X10793571Y-14926476D02*
X10698333Y-14926476D01*
X10688810Y-15021714D01*
X10698333Y-15012190D01*
X10717381Y-15002667D01*
X10765000Y-15002667D01*
X10784048Y-15012190D01*
X10793571Y-15021714D01*
X10803095Y-15040762D01*
X10803095Y-15088381D01*
X10793571Y-15107428D01*
X10784048Y-15116952D01*
X10765000Y-15126476D01*
X10717381Y-15126476D01*
X10698333Y-15116952D01*
X10688810Y-15107428D01*
X10926905Y-14926476D02*
X10945952Y-14926476D01*
X10965000Y-14936000D01*
X10974524Y-14945524D01*
X10984048Y-14964571D01*
X10993571Y-15002667D01*
X10993571Y-15050286D01*
X10984048Y-15088381D01*
X10974524Y-15107428D01*
X10965000Y-15116952D01*
X10945952Y-15126476D01*
X10926905Y-15126476D01*
X10907857Y-15116952D01*
X10898333Y-15107428D01*
X10888810Y-15088381D01*
X10879286Y-15050286D01*
X10879286Y-15002667D01*
X10888810Y-14964571D01*
X10898333Y-14945524D01*
X10907857Y-14936000D01*
X10926905Y-14926476D01*
X11117381Y-14926476D02*
X11136429Y-14926476D01*
X11155476Y-14936000D01*
X11165000Y-14945524D01*
X11174524Y-14964571D01*
X11184048Y-15002667D01*
X11184048Y-15050286D01*
X11174524Y-15088381D01*
X11165000Y-15107428D01*
X11155476Y-15116952D01*
X11136429Y-15126476D01*
X11117381Y-15126476D01*
X11098333Y-15116952D01*
X11088810Y-15107428D01*
X11079286Y-15088381D01*
X11069762Y-15050286D01*
X11069762Y-15002667D01*
X11079286Y-14964571D01*
X11088810Y-14945524D01*
X11098333Y-14936000D01*
X11117381Y-14926476D01*
X11269762Y-15126476D02*
X11269762Y-14993143D01*
X11269762Y-15012190D02*
X11279286Y-15002667D01*
X11298333Y-14993143D01*
X11326905Y-14993143D01*
X11345952Y-15002667D01*
X11355476Y-15021714D01*
X11355476Y-15126476D01*
X11355476Y-15021714D02*
X11365000Y-15002667D01*
X11384048Y-14993143D01*
X11412619Y-14993143D01*
X11431667Y-15002667D01*
X11441190Y-15021714D01*
X11441190Y-15126476D01*
X11536428Y-15126476D02*
X11536428Y-14993143D01*
X11536428Y-15012190D02*
X11545952Y-15002667D01*
X11565000Y-14993143D01*
X11593571Y-14993143D01*
X11612619Y-15002667D01*
X11622143Y-15021714D01*
X11622143Y-15126476D01*
X11622143Y-15021714D02*
X11631667Y-15002667D01*
X11650714Y-14993143D01*
X11679286Y-14993143D01*
X11698333Y-15002667D01*
X11707857Y-15021714D01*
X11707857Y-15126476D01*
X12098333Y-14916952D02*
X11926905Y-15174095D01*
X12355476Y-14926476D02*
X12374524Y-14926476D01*
X12393571Y-14936000D01*
X12403095Y-14945524D01*
X12412619Y-14964571D01*
X12422143Y-15002667D01*
X12422143Y-15050286D01*
X12412619Y-15088381D01*
X12403095Y-15107428D01*
X12393571Y-15116952D01*
X12374524Y-15126476D01*
X12355476Y-15126476D01*
X12336428Y-15116952D01*
X12326905Y-15107428D01*
X12317381Y-15088381D01*
X12307857Y-15050286D01*
X12307857Y-15002667D01*
X12317381Y-14964571D01*
X12326905Y-14945524D01*
X12336428Y-14936000D01*
X12355476Y-14926476D01*
X12507857Y-15107428D02*
X12517381Y-15116952D01*
X12507857Y-15126476D01*
X12498333Y-15116952D01*
X12507857Y-15107428D01*
X12507857Y-15126476D01*
X12641190Y-14926476D02*
X12660238Y-14926476D01*
X12679286Y-14936000D01*
X12688809Y-14945524D01*
X12698333Y-14964571D01*
X12707857Y-15002667D01*
X12707857Y-15050286D01*
X12698333Y-15088381D01*
X12688809Y-15107428D01*
X12679286Y-15116952D01*
X12660238Y-15126476D01*
X12641190Y-15126476D01*
X12622143Y-15116952D01*
X12612619Y-15107428D01*
X12603095Y-15088381D01*
X12593571Y-15050286D01*
X12593571Y-15002667D01*
X12603095Y-14964571D01*
X12612619Y-14945524D01*
X12622143Y-14936000D01*
X12641190Y-14926476D01*
X12888809Y-14926476D02*
X12793571Y-14926476D01*
X12784048Y-15021714D01*
X12793571Y-15012190D01*
X12812619Y-15002667D01*
X12860238Y-15002667D01*
X12879286Y-15012190D01*
X12888809Y-15021714D01*
X12898333Y-15040762D01*
X12898333Y-15088381D01*
X12888809Y-15107428D01*
X12879286Y-15116952D01*
X12860238Y-15126476D01*
X12812619Y-15126476D01*
X12793571Y-15116952D01*
X12784048Y-15107428D01*
X12993571Y-15126476D02*
X13031667Y-15126476D01*
X13050714Y-15116952D01*
X13060238Y-15107428D01*
X13079286Y-15078857D01*
X13088809Y-15040762D01*
X13088809Y-14964571D01*
X13079286Y-14945524D01*
X13069762Y-14936000D01*
X13050714Y-14926476D01*
X13012619Y-14926476D01*
X12993571Y-14936000D01*
X12984048Y-14945524D01*
X12974524Y-14964571D01*
X12974524Y-15012190D01*
X12984048Y-15031238D01*
X12993571Y-15040762D01*
X13012619Y-15050286D01*
X13050714Y-15050286D01*
X13069762Y-15040762D01*
X13079286Y-15031238D01*
X13088809Y-15012190D01*
X13279286Y-15126476D02*
X13165000Y-15126476D01*
X13222143Y-15126476D02*
X13222143Y-14926476D01*
X13203095Y-14955048D01*
X13184048Y-14974095D01*
X13165000Y-14983619D01*
X13355476Y-14926476D02*
X13355476Y-14964571D01*
X13431667Y-14926476D02*
X13431667Y-14964571D01*
X13726905Y-15202667D02*
X13717381Y-15193143D01*
X13698333Y-15164571D01*
X13688809Y-15145524D01*
X13679286Y-15116952D01*
X13669762Y-15069333D01*
X13669762Y-15031238D01*
X13679286Y-14983619D01*
X13688809Y-14955048D01*
X13698333Y-14936000D01*
X13717381Y-14907428D01*
X13726905Y-14897905D01*
X13907857Y-15126476D02*
X13793571Y-15126476D01*
X13850714Y-15126476D02*
X13850714Y-14926476D01*
X13831667Y-14955048D01*
X13812619Y-14974095D01*
X13793571Y-14983619D01*
X14145952Y-15126476D02*
X14145952Y-14926476D01*
X14231667Y-15126476D02*
X14231667Y-15021714D01*
X14222143Y-15002667D01*
X14203095Y-14993143D01*
X14174524Y-14993143D01*
X14155476Y-15002667D01*
X14145952Y-15012190D01*
X14355476Y-15126476D02*
X14336428Y-15116952D01*
X14326905Y-15107428D01*
X14317381Y-15088381D01*
X14317381Y-15031238D01*
X14326905Y-15012190D01*
X14336428Y-15002667D01*
X14355476Y-14993143D01*
X14384048Y-14993143D01*
X14403095Y-15002667D01*
X14412619Y-15012190D01*
X14422143Y-15031238D01*
X14422143Y-15088381D01*
X14412619Y-15107428D01*
X14403095Y-15116952D01*
X14384048Y-15126476D01*
X14355476Y-15126476D01*
X14536428Y-15126476D02*
X14517381Y-15116952D01*
X14507857Y-15097905D01*
X14507857Y-14926476D01*
X14688809Y-15116952D02*
X14669762Y-15126476D01*
X14631667Y-15126476D01*
X14612619Y-15116952D01*
X14603095Y-15097905D01*
X14603095Y-15021714D01*
X14612619Y-15002667D01*
X14631667Y-14993143D01*
X14669762Y-14993143D01*
X14688809Y-15002667D01*
X14698333Y-15021714D01*
X14698333Y-15040762D01*
X14603095Y-15059809D01*
X14765000Y-15202667D02*
X14774524Y-15193143D01*
X14793571Y-15164571D01*
X14803095Y-15145524D01*
X14812619Y-15116952D01*
X14822143Y-15069333D01*
X14822143Y-15031238D01*
X14812619Y-14983619D01*
X14803095Y-14955048D01*
X14793571Y-14936000D01*
X14774524Y-14907428D01*
X14765000Y-14897905D01*
D16*
X9985000Y-15221000D02*
X10155000Y-15391000D01*
X10155000Y-15221000D02*
X9985000Y-15391000D01*
X10155000Y-15306000D02*
G75*
G03*
X10155000Y-15306000I-85000J0D01*
G01*
D11*
X10517381Y-15396476D02*
X10403095Y-15396476D01*
X10460238Y-15396476D02*
X10460238Y-15196476D01*
X10441190Y-15225048D01*
X10422143Y-15244095D01*
X10403095Y-15253619D01*
X10603095Y-15377428D02*
X10612619Y-15386952D01*
X10603095Y-15396476D01*
X10593571Y-15386952D01*
X10603095Y-15377428D01*
X10603095Y-15396476D01*
X10679286Y-15196476D02*
X10812619Y-15196476D01*
X10726905Y-15396476D01*
X10926905Y-15196476D02*
X10945952Y-15196476D01*
X10965000Y-15206000D01*
X10974524Y-15215524D01*
X10984048Y-15234571D01*
X10993571Y-15272667D01*
X10993571Y-15320286D01*
X10984048Y-15358381D01*
X10974524Y-15377428D01*
X10965000Y-15386952D01*
X10945952Y-15396476D01*
X10926905Y-15396476D01*
X10907857Y-15386952D01*
X10898333Y-15377428D01*
X10888810Y-15358381D01*
X10879286Y-15320286D01*
X10879286Y-15272667D01*
X10888810Y-15234571D01*
X10898333Y-15215524D01*
X10907857Y-15206000D01*
X10926905Y-15196476D01*
X11117381Y-15196476D02*
X11136429Y-15196476D01*
X11155476Y-15206000D01*
X11165000Y-15215524D01*
X11174524Y-15234571D01*
X11184048Y-15272667D01*
X11184048Y-15320286D01*
X11174524Y-15358381D01*
X11165000Y-15377428D01*
X11155476Y-15386952D01*
X11136429Y-15396476D01*
X11117381Y-15396476D01*
X11098333Y-15386952D01*
X11088810Y-15377428D01*
X11079286Y-15358381D01*
X11069762Y-15320286D01*
X11069762Y-15272667D01*
X11079286Y-15234571D01*
X11088810Y-15215524D01*
X11098333Y-15206000D01*
X11117381Y-15196476D01*
X11269762Y-15396476D02*
X11269762Y-15263143D01*
X11269762Y-15282190D02*
X11279286Y-15272667D01*
X11298333Y-15263143D01*
X11326905Y-15263143D01*
X11345952Y-15272667D01*
X11355476Y-15291714D01*
X11355476Y-15396476D01*
X11355476Y-15291714D02*
X11365000Y-15272667D01*
X11384048Y-15263143D01*
X11412619Y-15263143D01*
X11431667Y-15272667D01*
X11441190Y-15291714D01*
X11441190Y-15396476D01*
X11536428Y-15396476D02*
X11536428Y-15263143D01*
X11536428Y-15282190D02*
X11545952Y-15272667D01*
X11565000Y-15263143D01*
X11593571Y-15263143D01*
X11612619Y-15272667D01*
X11622143Y-15291714D01*
X11622143Y-15396476D01*
X11622143Y-15291714D02*
X11631667Y-15272667D01*
X11650714Y-15263143D01*
X11679286Y-15263143D01*
X11698333Y-15272667D01*
X11707857Y-15291714D01*
X11707857Y-15396476D01*
X12098333Y-15186952D02*
X11926905Y-15444095D01*
X12355476Y-15196476D02*
X12374524Y-15196476D01*
X12393571Y-15206000D01*
X12403095Y-15215524D01*
X12412619Y-15234571D01*
X12422143Y-15272667D01*
X12422143Y-15320286D01*
X12412619Y-15358381D01*
X12403095Y-15377428D01*
X12393571Y-15386952D01*
X12374524Y-15396476D01*
X12355476Y-15396476D01*
X12336428Y-15386952D01*
X12326905Y-15377428D01*
X12317381Y-15358381D01*
X12307857Y-15320286D01*
X12307857Y-15272667D01*
X12317381Y-15234571D01*
X12326905Y-15215524D01*
X12336428Y-15206000D01*
X12355476Y-15196476D01*
X12507857Y-15377428D02*
X12517381Y-15386952D01*
X12507857Y-15396476D01*
X12498333Y-15386952D01*
X12507857Y-15377428D01*
X12507857Y-15396476D01*
X12641190Y-15196476D02*
X12660238Y-15196476D01*
X12679286Y-15206000D01*
X12688809Y-15215524D01*
X12698333Y-15234571D01*
X12707857Y-15272667D01*
X12707857Y-15320286D01*
X12698333Y-15358381D01*
X12688809Y-15377428D01*
X12679286Y-15386952D01*
X12660238Y-15396476D01*
X12641190Y-15396476D01*
X12622143Y-15386952D01*
X12612619Y-15377428D01*
X12603095Y-15358381D01*
X12593571Y-15320286D01*
X12593571Y-15272667D01*
X12603095Y-15234571D01*
X12612619Y-15215524D01*
X12622143Y-15206000D01*
X12641190Y-15196476D01*
X12879286Y-15196476D02*
X12841190Y-15196476D01*
X12822143Y-15206000D01*
X12812619Y-15215524D01*
X12793571Y-15244095D01*
X12784048Y-15282190D01*
X12784048Y-15358381D01*
X12793571Y-15377428D01*
X12803095Y-15386952D01*
X12822143Y-15396476D01*
X12860238Y-15396476D01*
X12879286Y-15386952D01*
X12888809Y-15377428D01*
X12898333Y-15358381D01*
X12898333Y-15310762D01*
X12888809Y-15291714D01*
X12879286Y-15282190D01*
X12860238Y-15272667D01*
X12822143Y-15272667D01*
X12803095Y-15282190D01*
X12793571Y-15291714D01*
X12784048Y-15310762D01*
X13069762Y-15196476D02*
X13031667Y-15196476D01*
X13012619Y-15206000D01*
X13003095Y-15215524D01*
X12984048Y-15244095D01*
X12974524Y-15282190D01*
X12974524Y-15358381D01*
X12984048Y-15377428D01*
X12993571Y-15386952D01*
X13012619Y-15396476D01*
X13050714Y-15396476D01*
X13069762Y-15386952D01*
X13079286Y-15377428D01*
X13088809Y-15358381D01*
X13088809Y-15310762D01*
X13079286Y-15291714D01*
X13069762Y-15282190D01*
X13050714Y-15272667D01*
X13012619Y-15272667D01*
X12993571Y-15282190D01*
X12984048Y-15291714D01*
X12974524Y-15310762D01*
X13184048Y-15396476D02*
X13222143Y-15396476D01*
X13241190Y-15386952D01*
X13250714Y-15377428D01*
X13269762Y-15348857D01*
X13279286Y-15310762D01*
X13279286Y-15234571D01*
X13269762Y-15215524D01*
X13260238Y-15206000D01*
X13241190Y-15196476D01*
X13203095Y-15196476D01*
X13184048Y-15206000D01*
X13174524Y-15215524D01*
X13165000Y-15234571D01*
X13165000Y-15282190D01*
X13174524Y-15301238D01*
X13184048Y-15310762D01*
X13203095Y-15320286D01*
X13241190Y-15320286D01*
X13260238Y-15310762D01*
X13269762Y-15301238D01*
X13279286Y-15282190D01*
X13355476Y-15196476D02*
X13355476Y-15234571D01*
X13431667Y-15196476D02*
X13431667Y-15234571D01*
X13726905Y-15472667D02*
X13717381Y-15463143D01*
X13698333Y-15434571D01*
X13688809Y-15415524D01*
X13679286Y-15386952D01*
X13669762Y-15339333D01*
X13669762Y-15301238D01*
X13679286Y-15253619D01*
X13688809Y-15225048D01*
X13698333Y-15206000D01*
X13717381Y-15177428D01*
X13726905Y-15167905D01*
X13888809Y-15263143D02*
X13888809Y-15396476D01*
X13841190Y-15186952D02*
X13793571Y-15329809D01*
X13917381Y-15329809D01*
X14145952Y-15396476D02*
X14145952Y-15196476D01*
X14231667Y-15396476D02*
X14231667Y-15291714D01*
X14222143Y-15272667D01*
X14203095Y-15263143D01*
X14174524Y-15263143D01*
X14155476Y-15272667D01*
X14145952Y-15282190D01*
X14355476Y-15396476D02*
X14336428Y-15386952D01*
X14326905Y-15377428D01*
X14317381Y-15358381D01*
X14317381Y-15301238D01*
X14326905Y-15282190D01*
X14336428Y-15272667D01*
X14355476Y-15263143D01*
X14384048Y-15263143D01*
X14403095Y-15272667D01*
X14412619Y-15282190D01*
X14422143Y-15301238D01*
X14422143Y-15358381D01*
X14412619Y-15377428D01*
X14403095Y-15386952D01*
X14384048Y-15396476D01*
X14355476Y-15396476D01*
X14536428Y-15396476D02*
X14517381Y-15386952D01*
X14507857Y-15367905D01*
X14507857Y-15196476D01*
X14688809Y-15386952D02*
X14669762Y-15396476D01*
X14631667Y-15396476D01*
X14612619Y-15386952D01*
X14603095Y-15367905D01*
X14603095Y-15291714D01*
X14612619Y-15272667D01*
X14631667Y-15263143D01*
X14669762Y-15263143D01*
X14688809Y-15272667D01*
X14698333Y-15291714D01*
X14698333Y-15310762D01*
X14603095Y-15329809D01*
X14774524Y-15386952D02*
X14793571Y-15396476D01*
X14831667Y-15396476D01*
X14850714Y-15386952D01*
X14860238Y-15367905D01*
X14860238Y-15358381D01*
X14850714Y-15339333D01*
X14831667Y-15329809D01*
X14803095Y-15329809D01*
X14784048Y-15320286D01*
X14774524Y-15301238D01*
X14774524Y-15291714D01*
X14784048Y-15272667D01*
X14803095Y-15263143D01*
X14831667Y-15263143D01*
X14850714Y-15272667D01*
X14926905Y-15472667D02*
X14936428Y-15463143D01*
X14955476Y-15434571D01*
X14965000Y-15415524D01*
X14974524Y-15386952D01*
X14984048Y-15339333D01*
X14984048Y-15301238D01*
X14974524Y-15253619D01*
X14965000Y-15225048D01*
X14955476Y-15206000D01*
X14936428Y-15177428D01*
X14926905Y-15167905D01*
M02*
