M48
; DRILL file {KiCad (6.0.7-1)-1} date Monday, January 09, 2023 at 07:50:44 PM
; FORMAT={-:-/ absolute / metric / decimal}
; #@! TF.CreationDate,2023-01-09T19:50:44-06:00
; #@! TF.GenerationSoftware,Kicad,Pcbnew,(6.0.7-1)-1
; #@! TF.FileFunction,Plated,1,4,PTH
FMAT,2
METRIC
; #@! TA.AperFunction,Plated,PTH,ViaDrill
T1C0.400
; #@! TA.AperFunction,Plated,PTH,ComponentDrill
T2C0.900
; #@! TA.AperFunction,Plated,PTH,ComponentDrill
T3C1.000
; #@! TA.AperFunction,Plated,PTH,ComponentDrill
T4C1.500
; #@! TA.AperFunction,Plated,PTH,ComponentDrill
T5C1.700
%
G90
G05
T1
X103.124Y-112.909
X103.2Y-89.916
X104.9Y-108.6
X104.902Y-110.871
X105.0Y-93.2
X105.0Y-95.2
X105.029Y-91.567
X105.156Y-118.11
X106.1Y-95.2
X106.126Y-107.647
X106.888Y-110.695
X108.412Y-107.647
X109.936Y-82.755
X109.936Y-85.041
X109.936Y-91.645
X109.936Y-110.695
X110.444Y-94.947
X110.617Y-107.188
X111.206Y-118.061
X112.222Y-94.947
X113.238Y-118.061
X114.254Y-110.95
X114.254Y-114.505
X114.254Y-116.029
X115.778Y-82.501
X115.778Y-85.041
X115.778Y-91.391
X116.032Y-94.947
X117.983Y-104.013
X120.015Y-104.013
X121.112Y-80.01
X121.112Y-94.947
X121.158Y-84.074
X121.285Y-90.805
X123.7Y-123.779
X123.825Y-104.14
X124.714Y-92.329
X124.968Y-78.867
X125.095Y-84.201
X125.095Y-97.028
X125.3Y-117.2
X125.3Y-120.3
X125.3Y-128.2
X126.7Y-121.7
X126.8Y-128.2
X132.588Y-107.061
X133.6Y-72.4
X135.255Y-111.506
X135.255Y-113.792
X135.4Y-76.8
X135.4Y-78.4
X136.737Y-75.431
X137.0Y-82.8
X137.16Y-108.966
X139.319Y-108.966
X139.598Y-124.866
X141.4Y-78.4
X141.5Y-79.8
X143.383Y-111.252
X145.161Y-81.28
X145.542Y-99.949
X146.939Y-96.774
X148.844Y-108.966
X148.844Y-110.236
X150.731Y-82.804
X150.749Y-79.756
X151.0Y-100.2
X151.003Y-96.393
X151.4Y-106.0
X152.527Y-110.236
X152.908Y-78.867
X153.416Y-115.189
X154.944Y-100.715
X155.702Y-112.649
X157.353Y-123.19
X158.623Y-85.001
X160.655Y-117.348
X160.987Y-77.851
X161.114Y-82.169
X161.798Y-85.725
X161.798Y-96.774
X162.179Y-123.063
X164.465Y-117.348
X164.592Y-119.38
X164.592Y-121.285
X167.005Y-77.851
X167.132Y-82.169
X168.656Y-122.555
X168.783Y-124.587
X168.91Y-106.299
X169.926Y-98.171
X169.926Y-110.871
X170.688Y-102.235
X170.688Y-106.172
X171.704Y-93.599
X172.671Y-82.042
X172.72Y-77.978
X173.99Y-95.885
X174.625Y-110.49
X176.149Y-110.49
X176.227Y-77.978
X176.227Y-82.042
X178.6Y-81.3
X178.64Y-82.55
X178.64Y-83.55
X180.086Y-111.633
X180.34Y-78.281
X180.935Y-119.126
X180.975Y-121.158
X181.022Y-81.665
X181.307Y-85.09
X181.61Y-82.931
X182.327Y-85.086
X182.88Y-105.791
X183.339Y-82.55
X183.716Y-85.086
X184.355Y-79.248
X184.531Y-128.0
X185.125Y-127.375
X185.371Y-81.534
X185.75Y-126.75
X185.8Y-129.286
X186.375Y-126.125
X186.418Y-128.668
X187.0Y-125.5
X187.043Y-128.043
X187.625Y-124.875
X187.657Y-76.454
X187.657Y-82.296
X187.668Y-127.418
X188.25Y-124.25
X188.293Y-126.793
X188.875Y-123.625
X188.918Y-126.168
X189.5Y-123.0
X189.543Y-125.543
X190.125Y-122.375
X190.168Y-124.918
X190.75Y-121.75
X190.793Y-124.293
X191.375Y-121.125
X191.418Y-123.668
X192.0Y-120.5
X192.043Y-123.043
X192.278Y-82.804
X192.625Y-119.875
X192.668Y-122.418
T2
X129.5Y-119.825
X129.5Y-122.365
X129.5Y-125.625
X129.5Y-128.165
T3
X134.62Y-89.088
X134.62Y-91.628
X137.16Y-89.088
X137.16Y-91.628
X139.7Y-89.088
X139.7Y-91.628
X142.24Y-89.088
X142.24Y-91.628
X144.78Y-89.088
X144.78Y-91.628
X147.32Y-89.088
X147.32Y-91.628
X149.86Y-89.088
X149.86Y-91.628
X152.4Y-89.088
X152.4Y-91.628
X154.94Y-89.088
X154.94Y-91.628
X157.48Y-89.088
X157.48Y-91.628
X160.02Y-89.088
X160.02Y-91.628
X162.56Y-89.088
X162.56Y-91.628
X165.1Y-89.088
X165.1Y-91.628
X166.497Y-108.458
X166.497Y-110.998
X167.64Y-89.088
X167.64Y-91.628
X170.18Y-89.088
X170.18Y-91.628
X172.72Y-89.088
X172.72Y-91.628
X175.26Y-89.088
X175.26Y-91.628
X177.8Y-89.088
X177.8Y-91.628
X180.34Y-89.088
X180.34Y-91.628
X182.88Y-89.088
X182.88Y-91.628
T4
X198.12Y-120.269
T5
X195.58Y-117.729
X195.58Y-122.809
X200.66Y-117.729
X200.66Y-122.809
T0
M30
