G04 #@! TF.GenerationSoftware,KiCad,Pcbnew,(6.0.7-1)-1*
G04 #@! TF.CreationDate,2023-01-21T15:22:46-06:00*
G04 #@! TF.ProjectId,Neutro_v1,4e657574-726f-45f7-9631-2e6b69636164,v1*
G04 #@! TF.SameCoordinates,Original*
G04 #@! TF.FileFunction,Legend,Top*
G04 #@! TF.FilePolarity,Positive*
%FSLAX46Y46*%
G04 Gerber Fmt 4.6, Leading zero omitted, Abs format (unit mm)*
G04 Created by KiCad (PCBNEW (6.0.7-1)-1) date 2023-01-21 15:22:46*
%MOMM*%
%LPD*%
G01*
G04 APERTURE LIST*
G04 Aperture macros list*
%AMRoundRect*
0 Rectangle with rounded corners*
0 $1 Rounding radius*
0 $2 $3 $4 $5 $6 $7 $8 $9 X,Y pos of 4 corners*
0 Add a 4 corners polygon primitive as box body*
4,1,4,$2,$3,$4,$5,$6,$7,$8,$9,$2,$3,0*
0 Add four circle primitives for the rounded corners*
1,1,$1+$1,$2,$3*
1,1,$1+$1,$4,$5*
1,1,$1+$1,$6,$7*
1,1,$1+$1,$8,$9*
0 Add four rect primitives between the rounded corners*
20,1,$1+$1,$2,$3,$4,$5,0*
20,1,$1+$1,$4,$5,$6,$7,0*
20,1,$1+$1,$6,$7,$8,$9,0*
20,1,$1+$1,$8,$9,$2,$3,0*%
G04 Aperture macros list end*
%ADD10C,0.200000*%
%ADD11C,0.300000*%
%ADD12C,0.150000*%
%ADD13C,0.120000*%
%ADD14C,0.127000*%
%ADD15C,0.100000*%
%ADD16C,1.500000*%
%ADD17RoundRect,0.250000X0.625000X-0.312500X0.625000X0.312500X-0.625000X0.312500X-0.625000X-0.312500X0*%
%ADD18RoundRect,0.250000X0.325000X0.650000X-0.325000X0.650000X-0.325000X-0.650000X0.325000X-0.650000X0*%
%ADD19RoundRect,0.250000X-0.625000X0.312500X-0.625000X-0.312500X0.625000X-0.312500X0.625000X0.312500X0*%
%ADD20RoundRect,0.250000X0.650000X-0.325000X0.650000X0.325000X-0.650000X0.325000X-0.650000X-0.325000X0*%
%ADD21C,2.500000*%
%ADD22RoundRect,0.250000X-0.312500X-0.625000X0.312500X-0.625000X0.312500X0.625000X-0.312500X0.625000X0*%
%ADD23RoundRect,0.250000X0.850000X-0.375000X0.850000X0.375000X-0.850000X0.375000X-0.850000X-0.375000X0*%
%ADD24RoundRect,0.218750X-0.381250X0.218750X-0.381250X-0.218750X0.381250X-0.218750X0.381250X0.218750X0*%
%ADD25C,2.250000*%
%ADD26RoundRect,0.250000X-0.650000X0.325000X-0.650000X-0.325000X0.650000X-0.325000X0.650000X0.325000X0*%
%ADD27R,0.700000X2.000000*%
%ADD28R,2.000000X0.700000*%
%ADD29RoundRect,0.041300X-0.983700X-0.253700X0.983700X-0.253700X0.983700X0.253700X-0.983700X0.253700X0*%
%ADD30R,2.000000X1.000000*%
%ADD31R,1.800000X1.800000*%
%ADD32C,1.800000*%
%ADD33R,2.250000X0.900000*%
%ADD34R,2.800000X0.900000*%
%ADD35R,0.675000X0.250000*%
%ADD36R,0.250000X0.575000*%
%ADD37R,1.508000X1.508000*%
%ADD38C,1.508000*%
%ADD39C,1.300000*%
%ADD40C,1.050000*%
%ADD41C,3.500000*%
%ADD42R,1.700000X1.700000*%
%ADD43O,1.700000X1.700000*%
G04 APERTURE END LIST*
D10*
X193400000Y-93800000D02*
X193400000Y-97200000D01*
X192552787Y-96400000D02*
X192552787Y-96400000D01*
X193400000Y-93800000D02*
X193800000Y-94200000D01*
X190000000Y-97200000D02*
X190400000Y-97600000D01*
X190000000Y-97200000D02*
X190400000Y-96800000D01*
X193400000Y-93800000D02*
X193000000Y-94200000D01*
X193000001Y-96400000D02*
G75*
G03*
X193000001Y-96400000I-447214J0D01*
G01*
X193400000Y-97200000D02*
X190000000Y-97200000D01*
X190400000Y-97600000D02*
X190000000Y-97200000D01*
D11*
X188078571Y-97357142D02*
X189078571Y-97000000D01*
X188078571Y-96642857D02*
X189078571Y-97000000D01*
X189435714Y-97142857D01*
X189507142Y-97214285D01*
X189578571Y-97357142D01*
D10*
X113308333Y-131165476D02*
X112891666Y-130570238D01*
X112594047Y-131165476D02*
X112594047Y-129915476D01*
X113070238Y-129915476D01*
X113189285Y-129975000D01*
X113248809Y-130034523D01*
X113308333Y-130153571D01*
X113308333Y-130332142D01*
X113248809Y-130451190D01*
X113189285Y-130510714D01*
X113070238Y-130570238D01*
X112594047Y-130570238D01*
X113844047Y-131165476D02*
X113844047Y-130332142D01*
X113844047Y-129915476D02*
X113784523Y-129975000D01*
X113844047Y-130034523D01*
X113903571Y-129975000D01*
X113844047Y-129915476D01*
X113844047Y-130034523D01*
X114975000Y-131105952D02*
X114855952Y-131165476D01*
X114617857Y-131165476D01*
X114498809Y-131105952D01*
X114439285Y-131046428D01*
X114379761Y-130927380D01*
X114379761Y-130570238D01*
X114439285Y-130451190D01*
X114498809Y-130391666D01*
X114617857Y-130332142D01*
X114855952Y-130332142D01*
X114975000Y-130391666D01*
X115986904Y-131105952D02*
X115867857Y-131165476D01*
X115629761Y-131165476D01*
X115510714Y-131105952D01*
X115451190Y-130986904D01*
X115451190Y-130510714D01*
X115510714Y-130391666D01*
X115629761Y-130332142D01*
X115867857Y-130332142D01*
X115986904Y-130391666D01*
X116046428Y-130510714D01*
X116046428Y-130629761D01*
X115451190Y-130748809D01*
X117534523Y-130510714D02*
X117951190Y-130510714D01*
X118129761Y-131165476D02*
X117534523Y-131165476D01*
X117534523Y-129915476D01*
X118129761Y-129915476D01*
X119201190Y-131105952D02*
X119082142Y-131165476D01*
X118844047Y-131165476D01*
X118725000Y-131105952D01*
X118665476Y-131046428D01*
X118605952Y-130927380D01*
X118605952Y-130570238D01*
X118665476Y-130451190D01*
X118725000Y-130391666D01*
X118844047Y-130332142D01*
X119082142Y-130332142D01*
X119201190Y-130391666D01*
X119915476Y-131165476D02*
X119796428Y-131105952D01*
X119736904Y-130986904D01*
X119736904Y-129915476D01*
X120391666Y-131165476D02*
X120391666Y-130332142D01*
X120391666Y-129915476D02*
X120332142Y-129975000D01*
X120391666Y-130034523D01*
X120451190Y-129975000D01*
X120391666Y-129915476D01*
X120391666Y-130034523D01*
X120986904Y-130332142D02*
X120986904Y-131582142D01*
X120986904Y-130391666D02*
X121105952Y-130332142D01*
X121344047Y-130332142D01*
X121463095Y-130391666D01*
X121522619Y-130451190D01*
X121582142Y-130570238D01*
X121582142Y-130927380D01*
X121522619Y-131046428D01*
X121463095Y-131105952D01*
X121344047Y-131165476D01*
X121105952Y-131165476D01*
X120986904Y-131105952D01*
X122058333Y-131105952D02*
X122177380Y-131165476D01*
X122415476Y-131165476D01*
X122534523Y-131105952D01*
X122594047Y-130986904D01*
X122594047Y-130927380D01*
X122534523Y-130808333D01*
X122415476Y-130748809D01*
X122236904Y-130748809D01*
X122117857Y-130689285D01*
X122058333Y-130570238D01*
X122058333Y-130510714D01*
X122117857Y-130391666D01*
X122236904Y-130332142D01*
X122415476Y-130332142D01*
X122534523Y-130391666D01*
X123605952Y-131105952D02*
X123486904Y-131165476D01*
X123248809Y-131165476D01*
X123129761Y-131105952D01*
X123070238Y-130986904D01*
X123070238Y-130510714D01*
X123129761Y-130391666D01*
X123248809Y-130332142D01*
X123486904Y-130332142D01*
X123605952Y-130391666D01*
X123665476Y-130510714D01*
X123665476Y-130629761D01*
X123070238Y-130748809D01*
D11*
X191078571Y-95592857D02*
X191078571Y-94807142D01*
X192078571Y-95592857D01*
X192078571Y-94807142D01*
X112671428Y-128904761D02*
X112671428Y-126904761D01*
X113814285Y-128904761D01*
X113814285Y-126904761D01*
X115528571Y-128809523D02*
X115338095Y-128904761D01*
X114957142Y-128904761D01*
X114766666Y-128809523D01*
X114671428Y-128619047D01*
X114671428Y-127857142D01*
X114766666Y-127666666D01*
X114957142Y-127571428D01*
X115338095Y-127571428D01*
X115528571Y-127666666D01*
X115623809Y-127857142D01*
X115623809Y-128047619D01*
X114671428Y-128238095D01*
X117338095Y-127571428D02*
X117338095Y-128904761D01*
X116480952Y-127571428D02*
X116480952Y-128619047D01*
X116576190Y-128809523D01*
X116766666Y-128904761D01*
X117052380Y-128904761D01*
X117242857Y-128809523D01*
X117338095Y-128714285D01*
X118004761Y-127571428D02*
X118766666Y-127571428D01*
X118290476Y-126904761D02*
X118290476Y-128619047D01*
X118385714Y-128809523D01*
X118576190Y-128904761D01*
X118766666Y-128904761D01*
X119433333Y-128904761D02*
X119433333Y-127571428D01*
X119433333Y-127952380D02*
X119528571Y-127761904D01*
X119623809Y-127666666D01*
X119814285Y-127571428D01*
X120004761Y-127571428D01*
X120957142Y-128904761D02*
X120766666Y-128809523D01*
X120671428Y-128714285D01*
X120576190Y-128523809D01*
X120576190Y-127952380D01*
X120671428Y-127761904D01*
X120766666Y-127666666D01*
X120957142Y-127571428D01*
X121242857Y-127571428D01*
X121433333Y-127666666D01*
X121528571Y-127761904D01*
X121623809Y-127952380D01*
X121623809Y-128523809D01*
X121528571Y-128714285D01*
X121433333Y-128809523D01*
X121242857Y-128904761D01*
X120957142Y-128904761D01*
D10*
X123107142Y-128132142D02*
X123404761Y-128965476D01*
X123702380Y-128132142D01*
X124833333Y-128965476D02*
X124119047Y-128965476D01*
X124476190Y-128965476D02*
X124476190Y-127715476D01*
X124357142Y-127894047D01*
X124238095Y-128013095D01*
X124119047Y-128072619D01*
D11*
X193878571Y-93392857D02*
X192878571Y-92607142D01*
X192878571Y-93392857D02*
X193878571Y-92607142D01*
D12*
X102957333Y-113475880D02*
X102624000Y-112999690D01*
X102385904Y-113475880D02*
X102385904Y-112475880D01*
X102766857Y-112475880D01*
X102862095Y-112523500D01*
X102909714Y-112571119D01*
X102957333Y-112666357D01*
X102957333Y-112809214D01*
X102909714Y-112904452D01*
X102862095Y-112952071D01*
X102766857Y-112999690D01*
X102385904Y-112999690D01*
X103338285Y-112571119D02*
X103385904Y-112523500D01*
X103481142Y-112475880D01*
X103719238Y-112475880D01*
X103814476Y-112523500D01*
X103862095Y-112571119D01*
X103909714Y-112666357D01*
X103909714Y-112761595D01*
X103862095Y-112904452D01*
X103290666Y-113475880D01*
X103909714Y-113475880D01*
X115611331Y-115165142D02*
X115563712Y-115212761D01*
X115420855Y-115260380D01*
X115325617Y-115260380D01*
X115182759Y-115212761D01*
X115087521Y-115117523D01*
X115039902Y-115022285D01*
X114992283Y-114831809D01*
X114992283Y-114688952D01*
X115039902Y-114498476D01*
X115087521Y-114403238D01*
X115182759Y-114308000D01*
X115325617Y-114260380D01*
X115420855Y-114260380D01*
X115563712Y-114308000D01*
X115611331Y-114355619D01*
X116563712Y-115260380D02*
X115992283Y-115260380D01*
X116277998Y-115260380D02*
X116277998Y-114260380D01*
X116182759Y-114403238D01*
X116087521Y-114498476D01*
X115992283Y-114546095D01*
X135083333Y-116702380D02*
X134750000Y-116226190D01*
X134511904Y-116702380D02*
X134511904Y-115702380D01*
X134892857Y-115702380D01*
X134988095Y-115750000D01*
X135035714Y-115797619D01*
X135083333Y-115892857D01*
X135083333Y-116035714D01*
X135035714Y-116130952D01*
X134988095Y-116178571D01*
X134892857Y-116226190D01*
X134511904Y-116226190D01*
X135559523Y-116702380D02*
X135750000Y-116702380D01*
X135845238Y-116654761D01*
X135892857Y-116607142D01*
X135988095Y-116464285D01*
X136035714Y-116273809D01*
X136035714Y-115892857D01*
X135988095Y-115797619D01*
X135940476Y-115750000D01*
X135845238Y-115702380D01*
X135654761Y-115702380D01*
X135559523Y-115750000D01*
X135511904Y-115797619D01*
X135464285Y-115892857D01*
X135464285Y-116130952D01*
X135511904Y-116226190D01*
X135559523Y-116273809D01*
X135654761Y-116321428D01*
X135845238Y-116321428D01*
X135940476Y-116273809D01*
X135988095Y-116226190D01*
X136035714Y-116130952D01*
X134612142Y-124801142D02*
X134564523Y-124848761D01*
X134421666Y-124896380D01*
X134326428Y-124896380D01*
X134183571Y-124848761D01*
X134088333Y-124753523D01*
X134040714Y-124658285D01*
X133993095Y-124467809D01*
X133993095Y-124324952D01*
X134040714Y-124134476D01*
X134088333Y-124039238D01*
X134183571Y-123944000D01*
X134326428Y-123896380D01*
X134421666Y-123896380D01*
X134564523Y-123944000D01*
X134612142Y-123991619D01*
X135564523Y-124896380D02*
X134993095Y-124896380D01*
X135278809Y-124896380D02*
X135278809Y-123896380D01*
X135183571Y-124039238D01*
X135088333Y-124134476D01*
X134993095Y-124182095D01*
X136516904Y-124896380D02*
X135945476Y-124896380D01*
X136231190Y-124896380D02*
X136231190Y-123896380D01*
X136135952Y-124039238D01*
X136040714Y-124134476D01*
X135945476Y-124182095D01*
X115611331Y-120547642D02*
X115563712Y-120595261D01*
X115420855Y-120642880D01*
X115325617Y-120642880D01*
X115182759Y-120595261D01*
X115087521Y-120500023D01*
X115039902Y-120404785D01*
X114992283Y-120214309D01*
X114992283Y-120071452D01*
X115039902Y-119880976D01*
X115087521Y-119785738D01*
X115182759Y-119690500D01*
X115325617Y-119642880D01*
X115420855Y-119642880D01*
X115563712Y-119690500D01*
X115611331Y-119738119D01*
X115992283Y-119738119D02*
X116039902Y-119690500D01*
X116135140Y-119642880D01*
X116373236Y-119642880D01*
X116468474Y-119690500D01*
X116516093Y-119738119D01*
X116563712Y-119833357D01*
X116563712Y-119928595D01*
X116516093Y-120071452D01*
X115944664Y-120642880D01*
X116563712Y-120642880D01*
X187357142Y-111157142D02*
X187309523Y-111204761D01*
X187166666Y-111252380D01*
X187071428Y-111252380D01*
X186928571Y-111204761D01*
X186833333Y-111109523D01*
X186785714Y-111014285D01*
X186738095Y-110823809D01*
X186738095Y-110680952D01*
X186785714Y-110490476D01*
X186833333Y-110395238D01*
X186928571Y-110300000D01*
X187071428Y-110252380D01*
X187166666Y-110252380D01*
X187309523Y-110300000D01*
X187357142Y-110347619D01*
X188309523Y-111252380D02*
X187738095Y-111252380D01*
X188023809Y-111252380D02*
X188023809Y-110252380D01*
X187928571Y-110395238D01*
X187833333Y-110490476D01*
X187738095Y-110538095D01*
X189166666Y-110585714D02*
X189166666Y-111252380D01*
X188928571Y-110204761D02*
X188690476Y-110919047D01*
X189309523Y-110919047D01*
X154374833Y-83796142D02*
X154327214Y-83843761D01*
X154184357Y-83891380D01*
X154089119Y-83891380D01*
X153946261Y-83843761D01*
X153851023Y-83748523D01*
X153803404Y-83653285D01*
X153755785Y-83462809D01*
X153755785Y-83319952D01*
X153803404Y-83129476D01*
X153851023Y-83034238D01*
X153946261Y-82939000D01*
X154089119Y-82891380D01*
X154184357Y-82891380D01*
X154327214Y-82939000D01*
X154374833Y-82986619D01*
X154851023Y-83891380D02*
X155041500Y-83891380D01*
X155136738Y-83843761D01*
X155184357Y-83796142D01*
X155279595Y-83653285D01*
X155327214Y-83462809D01*
X155327214Y-83081857D01*
X155279595Y-82986619D01*
X155231976Y-82939000D01*
X155136738Y-82891380D01*
X154946261Y-82891380D01*
X154851023Y-82939000D01*
X154803404Y-82986619D01*
X154755785Y-83081857D01*
X154755785Y-83319952D01*
X154803404Y-83415190D01*
X154851023Y-83462809D01*
X154946261Y-83510428D01*
X155136738Y-83510428D01*
X155231976Y-83462809D01*
X155279595Y-83415190D01*
X155327214Y-83319952D01*
X185731642Y-101847380D02*
X185398309Y-101371190D01*
X185160214Y-101847380D02*
X185160214Y-100847380D01*
X185541166Y-100847380D01*
X185636404Y-100895000D01*
X185684023Y-100942619D01*
X185731642Y-101037857D01*
X185731642Y-101180714D01*
X185684023Y-101275952D01*
X185636404Y-101323571D01*
X185541166Y-101371190D01*
X185160214Y-101371190D01*
X186684023Y-101847380D02*
X186112595Y-101847380D01*
X186398309Y-101847380D02*
X186398309Y-100847380D01*
X186303071Y-100990238D01*
X186207833Y-101085476D01*
X186112595Y-101133095D01*
X187303071Y-100847380D02*
X187398309Y-100847380D01*
X187493547Y-100895000D01*
X187541166Y-100942619D01*
X187588785Y-101037857D01*
X187636404Y-101228333D01*
X187636404Y-101466428D01*
X187588785Y-101656904D01*
X187541166Y-101752142D01*
X187493547Y-101799761D01*
X187398309Y-101847380D01*
X187303071Y-101847380D01*
X187207833Y-101799761D01*
X187160214Y-101752142D01*
X187112595Y-101656904D01*
X187064976Y-101466428D01*
X187064976Y-101228333D01*
X187112595Y-101037857D01*
X187160214Y-100942619D01*
X187207833Y-100895000D01*
X187303071Y-100847380D01*
X196857142Y-104657142D02*
X196809523Y-104704761D01*
X196666666Y-104752380D01*
X196571428Y-104752380D01*
X196428571Y-104704761D01*
X196333333Y-104609523D01*
X196285714Y-104514285D01*
X196238095Y-104323809D01*
X196238095Y-104180952D01*
X196285714Y-103990476D01*
X196333333Y-103895238D01*
X196428571Y-103800000D01*
X196571428Y-103752380D01*
X196666666Y-103752380D01*
X196809523Y-103800000D01*
X196857142Y-103847619D01*
X197809523Y-104752380D02*
X197238095Y-104752380D01*
X197523809Y-104752380D02*
X197523809Y-103752380D01*
X197428571Y-103895238D01*
X197333333Y-103990476D01*
X197238095Y-104038095D01*
X198428571Y-103752380D02*
X198523809Y-103752380D01*
X198619047Y-103800000D01*
X198666666Y-103847619D01*
X198714285Y-103942857D01*
X198761904Y-104133333D01*
X198761904Y-104371428D01*
X198714285Y-104561904D01*
X198666666Y-104657142D01*
X198619047Y-104704761D01*
X198523809Y-104752380D01*
X198428571Y-104752380D01*
X198333333Y-104704761D01*
X198285714Y-104657142D01*
X198238095Y-104561904D01*
X198190476Y-104371428D01*
X198190476Y-104133333D01*
X198238095Y-103942857D01*
X198285714Y-103847619D01*
X198333333Y-103800000D01*
X198428571Y-103752380D01*
X115633333Y-91652380D02*
X115157142Y-91652380D01*
X115157142Y-90652380D01*
X115871428Y-90652380D02*
X116490476Y-90652380D01*
X116157142Y-91033333D01*
X116300000Y-91033333D01*
X116395238Y-91080952D01*
X116442857Y-91128571D01*
X116490476Y-91223809D01*
X116490476Y-91461904D01*
X116442857Y-91557142D01*
X116395238Y-91604761D01*
X116300000Y-91652380D01*
X116014285Y-91652380D01*
X115919047Y-91604761D01*
X115871428Y-91557142D01*
X195033333Y-111252380D02*
X194700000Y-110776190D01*
X194461904Y-111252380D02*
X194461904Y-110252380D01*
X194842857Y-110252380D01*
X194938095Y-110300000D01*
X194985714Y-110347619D01*
X195033333Y-110442857D01*
X195033333Y-110585714D01*
X194985714Y-110680952D01*
X194938095Y-110728571D01*
X194842857Y-110776190D01*
X194461904Y-110776190D01*
X195604761Y-110680952D02*
X195509523Y-110633333D01*
X195461904Y-110585714D01*
X195414285Y-110490476D01*
X195414285Y-110442857D01*
X195461904Y-110347619D01*
X195509523Y-110300000D01*
X195604761Y-110252380D01*
X195795238Y-110252380D01*
X195890476Y-110300000D01*
X195938095Y-110347619D01*
X195985714Y-110442857D01*
X195985714Y-110490476D01*
X195938095Y-110585714D01*
X195890476Y-110633333D01*
X195795238Y-110680952D01*
X195604761Y-110680952D01*
X195509523Y-110728571D01*
X195461904Y-110776190D01*
X195414285Y-110871428D01*
X195414285Y-111061904D01*
X195461904Y-111157142D01*
X195509523Y-111204761D01*
X195604761Y-111252380D01*
X195795238Y-111252380D01*
X195890476Y-111204761D01*
X195938095Y-111157142D01*
X195985714Y-111061904D01*
X195985714Y-110871428D01*
X195938095Y-110776190D01*
X195890476Y-110728571D01*
X195795238Y-110680952D01*
X109815333Y-83161142D02*
X109767714Y-83208761D01*
X109624857Y-83256380D01*
X109529619Y-83256380D01*
X109386761Y-83208761D01*
X109291523Y-83113523D01*
X109243904Y-83018285D01*
X109196285Y-82827809D01*
X109196285Y-82684952D01*
X109243904Y-82494476D01*
X109291523Y-82399238D01*
X109386761Y-82304000D01*
X109529619Y-82256380D01*
X109624857Y-82256380D01*
X109767714Y-82304000D01*
X109815333Y-82351619D01*
X110148666Y-82256380D02*
X110815333Y-82256380D01*
X110386761Y-83256380D01*
X103109733Y-91130380D02*
X102633542Y-91130380D01*
X102633542Y-90130380D01*
X103966876Y-91130380D02*
X103395447Y-91130380D01*
X103681161Y-91130380D02*
X103681161Y-90130380D01*
X103585923Y-90273238D01*
X103490685Y-90368476D01*
X103395447Y-90416095D01*
X197786666Y-115537380D02*
X197786666Y-116251666D01*
X197739047Y-116394523D01*
X197643809Y-116489761D01*
X197500952Y-116537380D01*
X197405714Y-116537380D01*
X198215238Y-115632619D02*
X198262857Y-115585000D01*
X198358095Y-115537380D01*
X198596190Y-115537380D01*
X198691428Y-115585000D01*
X198739047Y-115632619D01*
X198786666Y-115727857D01*
X198786666Y-115823095D01*
X198739047Y-115965952D01*
X198167619Y-116537380D01*
X198786666Y-116537380D01*
X135170833Y-84989880D02*
X134837500Y-84513690D01*
X134599404Y-84989880D02*
X134599404Y-83989880D01*
X134980357Y-83989880D01*
X135075595Y-84037500D01*
X135123214Y-84085119D01*
X135170833Y-84180357D01*
X135170833Y-84323214D01*
X135123214Y-84418452D01*
X135075595Y-84466071D01*
X134980357Y-84513690D01*
X134599404Y-84513690D01*
X136075595Y-83989880D02*
X135599404Y-83989880D01*
X135551785Y-84466071D01*
X135599404Y-84418452D01*
X135694642Y-84370833D01*
X135932738Y-84370833D01*
X136027976Y-84418452D01*
X136075595Y-84466071D01*
X136123214Y-84561309D01*
X136123214Y-84799404D01*
X136075595Y-84894642D01*
X136027976Y-84942261D01*
X135932738Y-84989880D01*
X135694642Y-84989880D01*
X135599404Y-84942261D01*
X135551785Y-84894642D01*
X108245331Y-115165142D02*
X108197712Y-115212761D01*
X108054855Y-115260380D01*
X107959617Y-115260380D01*
X107816759Y-115212761D01*
X107721521Y-115117523D01*
X107673902Y-115022285D01*
X107626283Y-114831809D01*
X107626283Y-114688952D01*
X107673902Y-114498476D01*
X107721521Y-114403238D01*
X107816759Y-114308000D01*
X107959617Y-114260380D01*
X108054855Y-114260380D01*
X108197712Y-114308000D01*
X108245331Y-114355619D01*
X108578664Y-114260380D02*
X109197712Y-114260380D01*
X108864378Y-114641333D01*
X109007236Y-114641333D01*
X109102474Y-114688952D01*
X109150093Y-114736571D01*
X109197712Y-114831809D01*
X109197712Y-115069904D01*
X109150093Y-115165142D01*
X109102474Y-115212761D01*
X109007236Y-115260380D01*
X108721521Y-115260380D01*
X108626283Y-115212761D01*
X108578664Y-115165142D01*
X171627380Y-83416666D02*
X171151190Y-83750000D01*
X171627380Y-83988095D02*
X170627380Y-83988095D01*
X170627380Y-83607142D01*
X170675000Y-83511904D01*
X170722619Y-83464285D01*
X170817857Y-83416666D01*
X170960714Y-83416666D01*
X171055952Y-83464285D01*
X171103571Y-83511904D01*
X171151190Y-83607142D01*
X171151190Y-83988095D01*
X170627380Y-82559523D02*
X170627380Y-82750000D01*
X170675000Y-82845238D01*
X170722619Y-82892857D01*
X170865476Y-82988095D01*
X171055952Y-83035714D01*
X171436904Y-83035714D01*
X171532142Y-82988095D01*
X171579761Y-82940476D01*
X171627380Y-82845238D01*
X171627380Y-82654761D01*
X171579761Y-82559523D01*
X171532142Y-82511904D01*
X171436904Y-82464285D01*
X171198809Y-82464285D01*
X171103571Y-82511904D01*
X171055952Y-82559523D01*
X171008333Y-82654761D01*
X171008333Y-82845238D01*
X171055952Y-82940476D01*
X171103571Y-82988095D01*
X171198809Y-83035714D01*
X121626333Y-109323142D02*
X121578714Y-109370761D01*
X121435857Y-109418380D01*
X121340619Y-109418380D01*
X121197761Y-109370761D01*
X121102523Y-109275523D01*
X121054904Y-109180285D01*
X121007285Y-108989809D01*
X121007285Y-108846952D01*
X121054904Y-108656476D01*
X121102523Y-108561238D01*
X121197761Y-108466000D01*
X121340619Y-108418380D01*
X121435857Y-108418380D01*
X121578714Y-108466000D01*
X121626333Y-108513619D01*
X122483476Y-108751714D02*
X122483476Y-109418380D01*
X122245380Y-108370761D02*
X122007285Y-109085047D01*
X122626333Y-109085047D01*
X109833333Y-91652380D02*
X109357142Y-91652380D01*
X109357142Y-90652380D01*
X110119047Y-90747619D02*
X110166666Y-90700000D01*
X110261904Y-90652380D01*
X110500000Y-90652380D01*
X110595238Y-90700000D01*
X110642857Y-90747619D01*
X110690476Y-90842857D01*
X110690476Y-90938095D01*
X110642857Y-91080952D01*
X110071428Y-91652380D01*
X110690476Y-91652380D01*
X132833333Y-74452380D02*
X132500000Y-73976190D01*
X132261904Y-74452380D02*
X132261904Y-73452380D01*
X132642857Y-73452380D01*
X132738095Y-73500000D01*
X132785714Y-73547619D01*
X132833333Y-73642857D01*
X132833333Y-73785714D01*
X132785714Y-73880952D01*
X132738095Y-73928571D01*
X132642857Y-73976190D01*
X132261904Y-73976190D01*
X133690476Y-73785714D02*
X133690476Y-74452380D01*
X133452380Y-73404761D02*
X133214285Y-74119047D01*
X133833333Y-74119047D01*
X154357142Y-123532142D02*
X154309523Y-123579761D01*
X154166666Y-123627380D01*
X154071428Y-123627380D01*
X153928571Y-123579761D01*
X153833333Y-123484523D01*
X153785714Y-123389285D01*
X153738095Y-123198809D01*
X153738095Y-123055952D01*
X153785714Y-122865476D01*
X153833333Y-122770238D01*
X153928571Y-122675000D01*
X154071428Y-122627380D01*
X154166666Y-122627380D01*
X154309523Y-122675000D01*
X154357142Y-122722619D01*
X155309523Y-123627380D02*
X154738095Y-123627380D01*
X155023809Y-123627380D02*
X155023809Y-122627380D01*
X154928571Y-122770238D01*
X154833333Y-122865476D01*
X154738095Y-122913095D01*
X155642857Y-122627380D02*
X156261904Y-122627380D01*
X155928571Y-123008333D01*
X156071428Y-123008333D01*
X156166666Y-123055952D01*
X156214285Y-123103571D01*
X156261904Y-123198809D01*
X156261904Y-123436904D01*
X156214285Y-123532142D01*
X156166666Y-123579761D01*
X156071428Y-123627380D01*
X155785714Y-123627380D01*
X155690476Y-123579761D01*
X155642857Y-123532142D01*
X178083333Y-106357142D02*
X178035714Y-106404761D01*
X177892857Y-106452380D01*
X177797619Y-106452380D01*
X177654761Y-106404761D01*
X177559523Y-106309523D01*
X177511904Y-106214285D01*
X177464285Y-106023809D01*
X177464285Y-105880952D01*
X177511904Y-105690476D01*
X177559523Y-105595238D01*
X177654761Y-105500000D01*
X177797619Y-105452380D01*
X177892857Y-105452380D01*
X178035714Y-105500000D01*
X178083333Y-105547619D01*
X178988095Y-105452380D02*
X178511904Y-105452380D01*
X178464285Y-105928571D01*
X178511904Y-105880952D01*
X178607142Y-105833333D01*
X178845238Y-105833333D01*
X178940476Y-105880952D01*
X178988095Y-105928571D01*
X179035714Y-106023809D01*
X179035714Y-106261904D01*
X178988095Y-106357142D01*
X178940476Y-106404761D01*
X178845238Y-106452380D01*
X178607142Y-106452380D01*
X178511904Y-106404761D01*
X178464285Y-106357142D01*
X108245331Y-120594380D02*
X107911998Y-120118190D01*
X107673902Y-120594380D02*
X107673902Y-119594380D01*
X108054855Y-119594380D01*
X108150093Y-119642000D01*
X108197712Y-119689619D01*
X108245331Y-119784857D01*
X108245331Y-119927714D01*
X108197712Y-120022952D01*
X108150093Y-120070571D01*
X108054855Y-120118190D01*
X107673902Y-120118190D01*
X109197712Y-120594380D02*
X108626283Y-120594380D01*
X108911998Y-120594380D02*
X108911998Y-119594380D01*
X108816759Y-119737238D01*
X108721521Y-119832476D01*
X108626283Y-119880095D01*
X182713333Y-106452380D02*
X182380000Y-105976190D01*
X182141904Y-106452380D02*
X182141904Y-105452380D01*
X182522857Y-105452380D01*
X182618095Y-105500000D01*
X182665714Y-105547619D01*
X182713333Y-105642857D01*
X182713333Y-105785714D01*
X182665714Y-105880952D01*
X182618095Y-105928571D01*
X182522857Y-105976190D01*
X182141904Y-105976190D01*
X183046666Y-105452380D02*
X183665714Y-105452380D01*
X183332380Y-105833333D01*
X183475238Y-105833333D01*
X183570476Y-105880952D01*
X183618095Y-105928571D01*
X183665714Y-106023809D01*
X183665714Y-106261904D01*
X183618095Y-106357142D01*
X183570476Y-106404761D01*
X183475238Y-106452380D01*
X183189523Y-106452380D01*
X183094285Y-106404761D01*
X183046666Y-106357142D01*
X115570095Y-107275380D02*
X115570095Y-108084904D01*
X115617714Y-108180142D01*
X115665333Y-108227761D01*
X115760571Y-108275380D01*
X115951047Y-108275380D01*
X116046285Y-108227761D01*
X116093904Y-108180142D01*
X116141523Y-108084904D01*
X116141523Y-107275380D01*
X117141523Y-108275380D02*
X116570095Y-108275380D01*
X116855809Y-108275380D02*
X116855809Y-107275380D01*
X116760571Y-107418238D01*
X116665333Y-107513476D01*
X116570095Y-107561095D01*
X145169095Y-109799380D02*
X145169095Y-110608904D01*
X145216714Y-110704142D01*
X145264333Y-110751761D01*
X145359571Y-110799380D01*
X145550047Y-110799380D01*
X145645285Y-110751761D01*
X145692904Y-110704142D01*
X145740523Y-110608904D01*
X145740523Y-109799380D01*
X146692904Y-109799380D02*
X146216714Y-109799380D01*
X146169095Y-110275571D01*
X146216714Y-110227952D01*
X146311952Y-110180333D01*
X146550047Y-110180333D01*
X146645285Y-110227952D01*
X146692904Y-110275571D01*
X146740523Y-110370809D01*
X146740523Y-110608904D01*
X146692904Y-110704142D01*
X146645285Y-110751761D01*
X146550047Y-110799380D01*
X146311952Y-110799380D01*
X146216714Y-110751761D01*
X146169095Y-110704142D01*
X171627380Y-77166666D02*
X171151190Y-77500000D01*
X171627380Y-77738095D02*
X170627380Y-77738095D01*
X170627380Y-77357142D01*
X170675000Y-77261904D01*
X170722619Y-77214285D01*
X170817857Y-77166666D01*
X170960714Y-77166666D01*
X171055952Y-77214285D01*
X171103571Y-77261904D01*
X171151190Y-77357142D01*
X171151190Y-77738095D01*
X170627380Y-76833333D02*
X170627380Y-76166666D01*
X171627380Y-76595238D01*
X190957142Y-111157142D02*
X190909523Y-111204761D01*
X190766666Y-111252380D01*
X190671428Y-111252380D01*
X190528571Y-111204761D01*
X190433333Y-111109523D01*
X190385714Y-111014285D01*
X190338095Y-110823809D01*
X190338095Y-110680952D01*
X190385714Y-110490476D01*
X190433333Y-110395238D01*
X190528571Y-110300000D01*
X190671428Y-110252380D01*
X190766666Y-110252380D01*
X190909523Y-110300000D01*
X190957142Y-110347619D01*
X191909523Y-111252380D02*
X191338095Y-111252380D01*
X191623809Y-111252380D02*
X191623809Y-110252380D01*
X191528571Y-110395238D01*
X191433333Y-110490476D01*
X191338095Y-110538095D01*
X192290476Y-110347619D02*
X192338095Y-110300000D01*
X192433333Y-110252380D01*
X192671428Y-110252380D01*
X192766666Y-110300000D01*
X192814285Y-110347619D01*
X192861904Y-110442857D01*
X192861904Y-110538095D01*
X192814285Y-110680952D01*
X192242857Y-111252380D01*
X192861904Y-111252380D01*
X115530333Y-83161142D02*
X115482714Y-83208761D01*
X115339857Y-83256380D01*
X115244619Y-83256380D01*
X115101761Y-83208761D01*
X115006523Y-83113523D01*
X114958904Y-83018285D01*
X114911285Y-82827809D01*
X114911285Y-82684952D01*
X114958904Y-82494476D01*
X115006523Y-82399238D01*
X115101761Y-82304000D01*
X115244619Y-82256380D01*
X115339857Y-82256380D01*
X115482714Y-82304000D01*
X115530333Y-82351619D01*
X116101761Y-82684952D02*
X116006523Y-82637333D01*
X115958904Y-82589714D01*
X115911285Y-82494476D01*
X115911285Y-82446857D01*
X115958904Y-82351619D01*
X116006523Y-82304000D01*
X116101761Y-82256380D01*
X116292238Y-82256380D01*
X116387476Y-82304000D01*
X116435095Y-82351619D01*
X116482714Y-82446857D01*
X116482714Y-82494476D01*
X116435095Y-82589714D01*
X116387476Y-82637333D01*
X116292238Y-82684952D01*
X116101761Y-82684952D01*
X116006523Y-82732571D01*
X115958904Y-82780190D01*
X115911285Y-82875428D01*
X115911285Y-83065904D01*
X115958904Y-83161142D01*
X116006523Y-83208761D01*
X116101761Y-83256380D01*
X116292238Y-83256380D01*
X116387476Y-83208761D01*
X116435095Y-83161142D01*
X116482714Y-83065904D01*
X116482714Y-82875428D01*
X116435095Y-82780190D01*
X116387476Y-82732571D01*
X116292238Y-82684952D01*
X173990095Y-112553380D02*
X173990095Y-113362904D01*
X174037714Y-113458142D01*
X174085333Y-113505761D01*
X174180571Y-113553380D01*
X174371047Y-113553380D01*
X174466285Y-113505761D01*
X174513904Y-113458142D01*
X174561523Y-113362904D01*
X174561523Y-112553380D01*
X174990095Y-112648619D02*
X175037714Y-112601000D01*
X175132952Y-112553380D01*
X175371047Y-112553380D01*
X175466285Y-112601000D01*
X175513904Y-112648619D01*
X175561523Y-112743857D01*
X175561523Y-112839095D01*
X175513904Y-112981952D01*
X174942476Y-113553380D01*
X175561523Y-113553380D01*
X178440904Y-82447380D02*
X178440904Y-81447380D01*
X178679000Y-81447380D01*
X178821857Y-81495000D01*
X178917095Y-81590238D01*
X178964714Y-81685476D01*
X179012333Y-81875952D01*
X179012333Y-82018809D01*
X178964714Y-82209285D01*
X178917095Y-82304523D01*
X178821857Y-82399761D01*
X178679000Y-82447380D01*
X178440904Y-82447380D01*
X179964714Y-82447380D02*
X179393285Y-82447380D01*
X179679000Y-82447380D02*
X179679000Y-81447380D01*
X179583761Y-81590238D01*
X179488523Y-81685476D01*
X179393285Y-81733095D01*
X145288095Y-74890380D02*
X145288095Y-75699904D01*
X145335714Y-75795142D01*
X145383333Y-75842761D01*
X145478571Y-75890380D01*
X145669047Y-75890380D01*
X145764285Y-75842761D01*
X145811904Y-75795142D01*
X145859523Y-75699904D01*
X145859523Y-74890380D01*
X146240476Y-74890380D02*
X146859523Y-74890380D01*
X146526190Y-75271333D01*
X146669047Y-75271333D01*
X146764285Y-75318952D01*
X146811904Y-75366571D01*
X146859523Y-75461809D01*
X146859523Y-75699904D01*
X146811904Y-75795142D01*
X146764285Y-75842761D01*
X146669047Y-75890380D01*
X146383333Y-75890380D01*
X146288095Y-75842761D01*
X146240476Y-75795142D01*
X188512380Y-101249523D02*
X188512380Y-101767619D01*
X188542857Y-101828571D01*
X188573333Y-101859047D01*
X188634285Y-101889523D01*
X188756190Y-101889523D01*
X188817142Y-101859047D01*
X188847619Y-101828571D01*
X188878095Y-101767619D01*
X188878095Y-101249523D01*
X189457142Y-101462857D02*
X189457142Y-101889523D01*
X189304761Y-101219047D02*
X189152380Y-101676190D01*
X189548571Y-101676190D01*
X178490904Y-76097380D02*
X178490904Y-75097380D01*
X178729000Y-75097380D01*
X178871857Y-75145000D01*
X178967095Y-75240238D01*
X179014714Y-75335476D01*
X179062333Y-75525952D01*
X179062333Y-75668809D01*
X179014714Y-75859285D01*
X178967095Y-75954523D01*
X178871857Y-76049761D01*
X178729000Y-76097380D01*
X178490904Y-76097380D01*
X179443285Y-75192619D02*
X179490904Y-75145000D01*
X179586142Y-75097380D01*
X179824238Y-75097380D01*
X179919476Y-75145000D01*
X179967095Y-75192619D01*
X180014714Y-75287857D01*
X180014714Y-75383095D01*
X179967095Y-75525952D01*
X179395666Y-76097380D01*
X180014714Y-76097380D01*
X172433333Y-106257142D02*
X172385714Y-106304761D01*
X172242857Y-106352380D01*
X172147619Y-106352380D01*
X172004761Y-106304761D01*
X171909523Y-106209523D01*
X171861904Y-106114285D01*
X171814285Y-105923809D01*
X171814285Y-105780952D01*
X171861904Y-105590476D01*
X171909523Y-105495238D01*
X172004761Y-105400000D01*
X172147619Y-105352380D01*
X172242857Y-105352380D01*
X172385714Y-105400000D01*
X172433333Y-105447619D01*
X173290476Y-105352380D02*
X173100000Y-105352380D01*
X173004761Y-105400000D01*
X172957142Y-105447619D01*
X172861904Y-105590476D01*
X172814285Y-105780952D01*
X172814285Y-106161904D01*
X172861904Y-106257142D01*
X172909523Y-106304761D01*
X173004761Y-106352380D01*
X173195238Y-106352380D01*
X173290476Y-106304761D01*
X173338095Y-106257142D01*
X173385714Y-106161904D01*
X173385714Y-105923809D01*
X173338095Y-105828571D01*
X173290476Y-105780952D01*
X173195238Y-105733333D01*
X173004761Y-105733333D01*
X172909523Y-105780952D01*
X172861904Y-105828571D01*
X172814285Y-105923809D01*
D13*
X158403000Y-127000000D02*
G75*
G03*
X158403000Y-127000000I-1050000J0D01*
G01*
X102214000Y-110527064D02*
X102214000Y-109072936D01*
X104034000Y-110527064D02*
X104034000Y-109072936D01*
X116489250Y-113637500D02*
X115066746Y-113637500D01*
X116489250Y-111817500D02*
X115066746Y-111817500D01*
X136110000Y-112301936D02*
X136110000Y-113756064D01*
X134290000Y-112301936D02*
X134290000Y-113756064D01*
X146050000Y-101600000D02*
G75*
G03*
X146050000Y-101600000I-1050000J0D01*
G01*
X134345000Y-121980252D02*
X134345000Y-120557748D01*
X136165000Y-121980252D02*
X136165000Y-120557748D01*
X124240000Y-73000000D02*
G75*
G03*
X124240000Y-73000000I-1050000J0D01*
G01*
X116489250Y-117151500D02*
X115066746Y-117151500D01*
X116489250Y-118971500D02*
X115066746Y-118971500D01*
X184050000Y-82000000D02*
G75*
G03*
X184050000Y-82000000I-1050000J0D01*
G01*
X143050000Y-127000000D02*
G75*
G03*
X143050000Y-127000000I-1050000J0D01*
G01*
X124240000Y-91000000D02*
G75*
G03*
X124240000Y-91000000I-1050000J0D01*
G01*
X188910000Y-108311252D02*
X188910000Y-106888748D01*
X187090000Y-108311252D02*
X187090000Y-106888748D01*
X155469000Y-80975252D02*
X155469000Y-79552748D01*
X153649000Y-80975252D02*
X153649000Y-79552748D01*
X185647436Y-102390000D02*
X187101564Y-102390000D01*
X185647436Y-104210000D02*
X187101564Y-104210000D01*
X198323252Y-103272000D02*
X196900748Y-103272000D01*
X198323252Y-101452000D02*
X196900748Y-101452000D01*
X198050000Y-81300000D02*
G75*
G03*
X198050000Y-81300000I-1050000J0D01*
G01*
X116887998Y-88604752D02*
X116887998Y-88082248D01*
X114667998Y-88604752D02*
X114667998Y-88082248D01*
X194290000Y-108327064D02*
X194290000Y-106872936D01*
X196110000Y-108327064D02*
X196110000Y-106872936D01*
X157050000Y-101600000D02*
G75*
G03*
X157050000Y-101600000I-1050000J0D01*
G01*
X110845998Y-80418752D02*
X110845998Y-78996248D01*
X109025998Y-80418752D02*
X109025998Y-78996248D01*
X163229000Y-127000000D02*
G75*
G03*
X163229000Y-127000000I-1050000J0D01*
G01*
X103811000Y-92700378D02*
X103811000Y-93499622D01*
X102691000Y-92700378D02*
X102691000Y-93499622D01*
X151800000Y-101600000D02*
G75*
G03*
X151800000Y-101600000I-1050000J0D01*
G01*
X148050000Y-127000000D02*
G75*
G03*
X148050000Y-127000000I-1050000J0D01*
G01*
X202270000Y-117135000D02*
X202270000Y-125435000D01*
X202270000Y-125435000D02*
X193970000Y-125435000D01*
X193970000Y-117135000D02*
X193970000Y-125435000D01*
X202270000Y-117135000D02*
X193970000Y-117135000D01*
X136247500Y-80610436D02*
X136247500Y-82064564D01*
X134427500Y-80610436D02*
X134427500Y-82064564D01*
X109123250Y-113637500D02*
X107700746Y-113637500D01*
X109123250Y-111817500D02*
X107700746Y-111817500D01*
X167272936Y-82340000D02*
X168727064Y-82340000D01*
X167272936Y-84160000D02*
X168727064Y-84160000D01*
X124240000Y-78740000D02*
G75*
G03*
X124240000Y-78740000I-1050000J0D01*
G01*
X120883000Y-106375252D02*
X120883000Y-104952748D01*
X122703000Y-106375252D02*
X122703000Y-104952748D01*
X108790000Y-88561252D02*
X108790000Y-88038748D01*
X111010000Y-88561252D02*
X111010000Y-88038748D01*
X198050000Y-86300000D02*
G75*
G03*
X198050000Y-86300000I-1050000J0D01*
G01*
X136110000Y-73210436D02*
X136110000Y-74664564D01*
X134290000Y-73210436D02*
X134290000Y-74664564D01*
X154090000Y-119288748D02*
X154090000Y-120711252D01*
X155910000Y-119288748D02*
X155910000Y-120711252D01*
X177398000Y-108381748D02*
X177398000Y-109804252D01*
X179218000Y-108381748D02*
X179218000Y-109804252D01*
X107684934Y-118971500D02*
X109139062Y-118971500D01*
X107684934Y-117151500D02*
X109139062Y-117151500D01*
X181970000Y-108238936D02*
X181970000Y-109693064D01*
X183790000Y-108238936D02*
X183790000Y-109693064D01*
X198050000Y-96500000D02*
G75*
G03*
X198050000Y-96500000I-1050000J0D01*
G01*
X184050000Y-75650000D02*
G75*
G03*
X184050000Y-75650000I-1050000J0D01*
G01*
X198050000Y-91300000D02*
G75*
G03*
X198050000Y-91300000I-1050000J0D01*
G01*
D14*
X116074000Y-106047500D02*
X114544000Y-106047500D01*
X102274000Y-104297500D02*
X102274000Y-98297500D01*
X116074000Y-96547500D02*
X114544000Y-96547500D01*
X116074000Y-104737500D02*
X116074000Y-106047500D01*
X116074000Y-96547500D02*
X116074000Y-97897500D01*
D10*
X102974000Y-107297500D02*
G75*
G03*
X102974000Y-107297500I-100000J0D01*
G01*
D13*
X124240000Y-85000000D02*
G75*
G03*
X124240000Y-85000000I-1050000J0D01*
G01*
X153450000Y-127000000D02*
G75*
G03*
X153450000Y-127000000I-1050000J0D01*
G01*
D14*
X142258000Y-121820000D02*
X149858000Y-121820000D01*
X142258000Y-111320000D02*
X149858000Y-111320000D01*
D10*
X139453000Y-111535000D02*
G75*
G03*
X139453000Y-111535000I-100000J0D01*
G01*
D13*
X167272936Y-77910000D02*
X168727064Y-77910000D01*
X167272936Y-76090000D02*
X168727064Y-76090000D01*
X192426000Y-108311252D02*
X192426000Y-106888748D01*
X190606000Y-108311252D02*
X190606000Y-106888748D01*
X116687998Y-80369752D02*
X116687998Y-78947248D01*
X114867998Y-80369752D02*
X114867998Y-78947248D01*
X166652000Y-114201000D02*
X182852000Y-114201000D01*
X166652000Y-130401000D02*
X182852000Y-130401000D01*
X182852000Y-130401000D02*
X182852000Y-130151000D01*
X182852000Y-114201000D02*
X182852000Y-114551000D01*
X182852000Y-114551000D02*
X183752000Y-114551000D01*
X166652000Y-114551000D02*
X165752000Y-114551000D01*
X166652000Y-114201000D02*
X166652000Y-114551000D01*
X166652000Y-130151000D02*
X166652000Y-130401000D01*
X174670000Y-80954039D02*
G75*
G03*
X174670163Y-83036130I1080000J-1040961D01*
G01*
X174514484Y-80435000D02*
G75*
G03*
X174671392Y-83667335I1235516J-1560000D01*
G01*
X176828608Y-83667335D02*
G75*
G03*
X176985516Y-80435000I-1078608J1672335D01*
G01*
X176829837Y-83036130D02*
G75*
G03*
X176830000Y-80954039I-1079837J1041130D01*
G01*
X142758000Y-83576000D02*
X149358000Y-83576000D01*
X149358000Y-77176000D02*
X149358000Y-77776000D01*
X142758000Y-77176000D02*
X149358000Y-77176000D01*
X142758000Y-83576000D02*
X142758000Y-83126000D01*
X142758000Y-77176000D02*
X142758000Y-77776000D01*
X149358000Y-83576000D02*
X149358000Y-83126000D01*
D14*
X193670000Y-104288500D02*
X192958500Y-104288500D01*
X189870000Y-98911500D02*
X190581500Y-98911500D01*
X189870000Y-104288500D02*
X190581500Y-104288500D01*
X193670000Y-98911500D02*
X192958500Y-98911500D01*
D15*
X189420000Y-104100000D02*
G75*
G03*
X189420000Y-104100000I-50000J0D01*
G01*
D13*
X124240000Y-97000000D02*
G75*
G03*
X124240000Y-97000000I-1050000J0D01*
G01*
X174564484Y-74085000D02*
G75*
G03*
X174721392Y-77317335I1235516J-1560000D01*
G01*
X176879837Y-76686130D02*
G75*
G03*
X176880000Y-74604039I-1079837J1041130D01*
G01*
X176878608Y-77317335D02*
G75*
G03*
X177035516Y-74085000I-1078608J1672335D01*
G01*
X174720000Y-74604039D02*
G75*
G03*
X174720163Y-76686130I1080000J-1040961D01*
G01*
X173503000Y-108303748D02*
X173503000Y-109726252D01*
X171683000Y-108303748D02*
X171683000Y-109726252D01*
%LPC*%
D16*
X157353000Y-127000000D03*
D17*
X103124000Y-111262500D03*
X103124000Y-108337500D03*
D18*
X117252998Y-112727500D03*
X114302998Y-112727500D03*
D19*
X135200000Y-111566500D03*
X135200000Y-114491500D03*
D16*
X145000000Y-101600000D03*
D20*
X135255000Y-122744000D03*
X135255000Y-119794000D03*
D16*
X123190000Y-73000000D03*
D21*
X198700000Y-74400000D03*
D18*
X117252998Y-118061500D03*
X114302998Y-118061500D03*
D16*
X183000000Y-82000000D03*
X142000000Y-127000000D03*
X123190000Y-91000000D03*
D20*
X188000000Y-109075000D03*
X188000000Y-106125000D03*
X154559000Y-81739000D03*
X154559000Y-78789000D03*
D22*
X184912000Y-103300000D03*
X187837000Y-103300000D03*
D18*
X199087000Y-102362000D03*
X196137000Y-102362000D03*
D16*
X197000000Y-81300000D03*
D23*
X115777998Y-89418500D03*
X115777998Y-87268500D03*
D17*
X195200000Y-109062500D03*
X195200000Y-106137500D03*
D16*
X156000000Y-101600000D03*
D20*
X109935998Y-81182500D03*
X109935998Y-78232500D03*
D16*
X162179000Y-127000000D03*
D24*
X103251000Y-92037500D03*
X103251000Y-94162500D03*
D16*
X150750000Y-101600000D03*
X147000000Y-127000000D03*
D25*
X198120000Y-121285000D03*
X200660000Y-118745000D03*
X200660000Y-123825000D03*
X195580000Y-123825000D03*
X195580000Y-118745000D03*
D19*
X135337500Y-79875000D03*
X135337500Y-82800000D03*
D18*
X109886998Y-112727500D03*
X106936998Y-112727500D03*
D22*
X166537500Y-83250000D03*
X169462500Y-83250000D03*
D16*
X123190000Y-78740000D03*
D20*
X121793000Y-107139000D03*
X121793000Y-104189000D03*
D23*
X109900000Y-89375000D03*
X109900000Y-87225000D03*
D16*
X197000000Y-86300000D03*
D21*
X106100000Y-129000000D03*
D19*
X135200000Y-72475000D03*
X135200000Y-75400000D03*
D26*
X155000000Y-118525000D03*
X155000000Y-121475000D03*
X178308000Y-107618000D03*
X178308000Y-110568000D03*
D22*
X106949498Y-118061500D03*
X109874498Y-118061500D03*
D19*
X182880000Y-107503500D03*
X182880000Y-110428500D03*
D16*
X197000000Y-96500000D03*
X183000000Y-75650000D03*
D21*
X198700000Y-129000000D03*
D16*
X197000000Y-91300000D03*
D27*
X102874000Y-105617500D03*
X103974000Y-105617500D03*
X105074000Y-105617500D03*
X106174000Y-105617500D03*
X107274000Y-105617500D03*
X108374000Y-105617500D03*
X109474000Y-105617500D03*
X110574000Y-105617500D03*
X111674000Y-105617500D03*
X112774000Y-105617500D03*
X113874000Y-105617500D03*
D28*
X115674000Y-104067500D03*
X115674000Y-102967500D03*
X115674000Y-101867500D03*
X115674000Y-100767500D03*
X115674000Y-99667500D03*
X115674000Y-98567500D03*
D27*
X113874000Y-96977500D03*
X112774000Y-96977500D03*
X111674000Y-96977500D03*
X110574000Y-96977500D03*
X109474000Y-96977500D03*
X108374000Y-96977500D03*
X107274000Y-96977500D03*
X106174000Y-96977500D03*
X105074000Y-96977500D03*
X103974000Y-96977500D03*
X102874000Y-96977500D03*
D16*
X123190000Y-85000000D03*
X152400000Y-127000000D03*
D29*
X141403000Y-112125000D03*
X141403000Y-113395000D03*
X141403000Y-114665000D03*
X141403000Y-115935000D03*
X141403000Y-117205000D03*
X141403000Y-118475000D03*
X141403000Y-119745000D03*
X141403000Y-121015000D03*
X150713000Y-121015000D03*
X150713000Y-119745000D03*
X150713000Y-118475000D03*
X150713000Y-117205000D03*
X150713000Y-115935000D03*
X150713000Y-114665000D03*
X150713000Y-113395000D03*
X150713000Y-112125000D03*
D21*
X106100000Y-74500000D03*
D22*
X166537500Y-77000000D03*
X169462500Y-77000000D03*
D20*
X191516000Y-109075000D03*
X191516000Y-106125000D03*
X115777998Y-81133500D03*
X115777998Y-78183500D03*
D30*
X166752000Y-115301000D03*
X166752000Y-117301000D03*
X166752000Y-119301000D03*
X166752000Y-121301000D03*
X166752000Y-123301000D03*
X166752000Y-125301000D03*
X166752000Y-127301000D03*
X166752000Y-129301000D03*
X182752000Y-129301000D03*
X182752000Y-127301000D03*
X182752000Y-125301000D03*
X182752000Y-123301000D03*
X182752000Y-121301000D03*
X182752000Y-119301000D03*
X182752000Y-117301000D03*
X182752000Y-115301000D03*
D31*
X175750000Y-80725000D03*
D32*
X175750000Y-83265000D03*
D33*
X148733000Y-82276000D03*
X148733000Y-81026000D03*
D34*
X148458000Y-79726000D03*
D33*
X148733000Y-78476000D03*
X143430500Y-78476000D03*
X143383000Y-79726000D03*
X143383000Y-81026000D03*
X143383000Y-82276000D03*
D35*
X190207500Y-103850000D03*
D36*
X191020000Y-103912500D03*
X191520000Y-103912500D03*
X192020000Y-103912500D03*
X192520000Y-103912500D03*
D35*
X193332500Y-103850000D03*
X193332500Y-103350000D03*
X193332500Y-102850000D03*
X193332500Y-102350000D03*
X193332500Y-101850000D03*
X193332500Y-101350000D03*
X193332500Y-100850000D03*
X193332500Y-100350000D03*
X193332500Y-99850000D03*
X193332500Y-99350000D03*
D36*
X192520000Y-99287500D03*
X192020000Y-99287500D03*
X191520000Y-99287500D03*
X191020000Y-99287500D03*
D35*
X190207500Y-99350000D03*
X190207500Y-99850000D03*
X190207500Y-100350000D03*
X190207500Y-100850000D03*
X190207500Y-101350000D03*
X190207500Y-101850000D03*
X190207500Y-102350000D03*
X190207500Y-102850000D03*
X190207500Y-103350000D03*
D16*
X123190000Y-97000000D03*
D31*
X175800000Y-74375000D03*
D32*
X175800000Y-76915000D03*
D26*
X172593000Y-107540000D03*
X172593000Y-110490000D03*
D21*
X129750000Y-90358000D03*
X129750000Y-113358000D03*
X187750000Y-113358000D03*
X187750000Y-90358000D03*
D37*
X182880000Y-91628000D03*
D38*
X182880000Y-89088000D03*
X180340000Y-91628000D03*
X180340000Y-89088000D03*
X177800000Y-91628000D03*
X177800000Y-89088000D03*
X175260000Y-91628000D03*
X175260000Y-89088000D03*
X172720000Y-91628000D03*
X172720000Y-89088000D03*
X170180000Y-91628000D03*
X170180000Y-89088000D03*
X167640000Y-91628000D03*
X167640000Y-89088000D03*
X165100000Y-91628000D03*
X165100000Y-89088000D03*
X162560000Y-91628000D03*
X162560000Y-89088000D03*
X160020000Y-91628000D03*
X160020000Y-89088000D03*
X157480000Y-91628000D03*
X157480000Y-89088000D03*
X154940000Y-91628000D03*
X154940000Y-89088000D03*
X152400000Y-91628000D03*
X152400000Y-89088000D03*
X149860000Y-91628000D03*
X149860000Y-89088000D03*
X147320000Y-91628000D03*
X147320000Y-89088000D03*
X144780000Y-91628000D03*
X144780000Y-89088000D03*
X142240000Y-91628000D03*
X142240000Y-89088000D03*
X139700000Y-91628000D03*
X139700000Y-89088000D03*
X137160000Y-91628000D03*
X137160000Y-89088000D03*
X134620000Y-91628000D03*
X134620000Y-89088000D03*
D39*
X118237000Y-96637099D03*
D40*
X118237000Y-89187099D03*
D41*
X165735000Y-100076000D03*
X139065000Y-100076000D03*
D42*
X166497000Y-108458000D03*
D43*
X166497000Y-110998000D03*
M02*
