G04 #@! TF.GenerationSoftware,KiCad,Pcbnew,(6.0.7-1)-1*
G04 #@! TF.CreationDate,2023-01-09T19:50:39-06:00*
G04 #@! TF.ProjectId,Neutro_v1,4e657574-726f-45f7-9631-2e6b69636164,v1*
G04 #@! TF.SameCoordinates,Original*
G04 #@! TF.FileFunction,Legend,Top*
G04 #@! TF.FilePolarity,Positive*
%FSLAX46Y46*%
G04 Gerber Fmt 4.6, Leading zero omitted, Abs format (unit mm)*
G04 Created by KiCad (PCBNEW (6.0.7-1)-1) date 2023-01-09 19:50:39*
%MOMM*%
%LPD*%
G01*
G04 APERTURE LIST*
G04 Aperture macros list*
%AMRoundRect*
0 Rectangle with rounded corners*
0 $1 Rounding radius*
0 $2 $3 $4 $5 $6 $7 $8 $9 X,Y pos of 4 corners*
0 Add a 4 corners polygon primitive as box body*
4,1,4,$2,$3,$4,$5,$6,$7,$8,$9,$2,$3,0*
0 Add four circle primitives for the rounded corners*
1,1,$1+$1,$2,$3*
1,1,$1+$1,$4,$5*
1,1,$1+$1,$6,$7*
1,1,$1+$1,$8,$9*
0 Add four rect primitives between the rounded corners*
20,1,$1+$1,$2,$3,$4,$5,0*
20,1,$1+$1,$4,$5,$6,$7,0*
20,1,$1+$1,$6,$7,$8,$9,0*
20,1,$1+$1,$8,$9,$2,$3,0*%
G04 Aperture macros list end*
%ADD10C,0.200000*%
%ADD11C,0.300000*%
%ADD12C,0.150000*%
%ADD13C,0.120000*%
%ADD14C,0.127000*%
%ADD15C,0.100000*%
%ADD16C,1.500000*%
%ADD17RoundRect,0.250000X0.625000X-0.312500X0.625000X0.312500X-0.625000X0.312500X-0.625000X-0.312500X0*%
%ADD18RoundRect,0.250000X0.325000X0.650000X-0.325000X0.650000X-0.325000X-0.650000X0.325000X-0.650000X0*%
%ADD19RoundRect,0.250000X-0.625000X0.312500X-0.625000X-0.312500X0.625000X-0.312500X0.625000X0.312500X0*%
%ADD20RoundRect,0.250000X0.650000X-0.325000X0.650000X0.325000X-0.650000X0.325000X-0.650000X-0.325000X0*%
%ADD21C,2.500000*%
%ADD22RoundRect,0.250000X-0.650000X0.325000X-0.650000X-0.325000X0.650000X-0.325000X0.650000X0.325000X0*%
%ADD23RoundRect,0.250000X-0.312500X-0.625000X0.312500X-0.625000X0.312500X0.625000X-0.312500X0.625000X0*%
%ADD24RoundRect,0.250000X0.700000X-0.275000X0.700000X0.275000X-0.700000X0.275000X-0.700000X-0.275000X0*%
%ADD25RoundRect,0.218750X-0.381250X0.218750X-0.381250X-0.218750X0.381250X-0.218750X0.381250X0.218750X0*%
%ADD26C,2.250000*%
%ADD27R,0.700000X2.000000*%
%ADD28R,2.000000X0.700000*%
%ADD29RoundRect,0.041300X-0.983700X-0.253700X0.983700X-0.253700X0.983700X0.253700X-0.983700X0.253700X0*%
%ADD30R,2.000000X1.000000*%
%ADD31R,1.800000X1.800000*%
%ADD32C,1.800000*%
%ADD33R,2.250000X0.900000*%
%ADD34R,2.800000X0.900000*%
%ADD35R,0.250000X0.675000*%
%ADD36R,0.575000X0.250000*%
%ADD37C,2.750000*%
%ADD38R,1.508000X1.508000*%
%ADD39C,1.508000*%
%ADD40C,1.300000*%
%ADD41C,1.050000*%
%ADD42C,3.500000*%
%ADD43R,1.700000X1.700000*%
%ADD44O,1.700000X1.700000*%
G04 APERTURE END LIST*
D10*
X201365476Y-105791666D02*
X200770238Y-106208333D01*
X201365476Y-106505952D02*
X200115476Y-106505952D01*
X200115476Y-106029761D01*
X200175000Y-105910714D01*
X200234523Y-105851190D01*
X200353571Y-105791666D01*
X200532142Y-105791666D01*
X200651190Y-105851190D01*
X200710714Y-105910714D01*
X200770238Y-106029761D01*
X200770238Y-106505952D01*
X201365476Y-105255952D02*
X200532142Y-105255952D01*
X200115476Y-105255952D02*
X200175000Y-105315476D01*
X200234523Y-105255952D01*
X200175000Y-105196428D01*
X200115476Y-105255952D01*
X200234523Y-105255952D01*
X201305952Y-104125000D02*
X201365476Y-104244047D01*
X201365476Y-104482142D01*
X201305952Y-104601190D01*
X201246428Y-104660714D01*
X201127380Y-104720238D01*
X200770238Y-104720238D01*
X200651190Y-104660714D01*
X200591666Y-104601190D01*
X200532142Y-104482142D01*
X200532142Y-104244047D01*
X200591666Y-104125000D01*
X201305952Y-103113095D02*
X201365476Y-103232142D01*
X201365476Y-103470238D01*
X201305952Y-103589285D01*
X201186904Y-103648809D01*
X200710714Y-103648809D01*
X200591666Y-103589285D01*
X200532142Y-103470238D01*
X200532142Y-103232142D01*
X200591666Y-103113095D01*
X200710714Y-103053571D01*
X200829761Y-103053571D01*
X200948809Y-103648809D01*
X200710714Y-101565476D02*
X200710714Y-101148809D01*
X201365476Y-100970238D02*
X201365476Y-101565476D01*
X200115476Y-101565476D01*
X200115476Y-100970238D01*
X201305952Y-99898809D02*
X201365476Y-100017857D01*
X201365476Y-100255952D01*
X201305952Y-100375000D01*
X201246428Y-100434523D01*
X201127380Y-100494047D01*
X200770238Y-100494047D01*
X200651190Y-100434523D01*
X200591666Y-100375000D01*
X200532142Y-100255952D01*
X200532142Y-100017857D01*
X200591666Y-99898809D01*
X201365476Y-99184523D02*
X201305952Y-99303571D01*
X201186904Y-99363095D01*
X200115476Y-99363095D01*
X201365476Y-98708333D02*
X200532142Y-98708333D01*
X200115476Y-98708333D02*
X200175000Y-98767857D01*
X200234523Y-98708333D01*
X200175000Y-98648809D01*
X200115476Y-98708333D01*
X200234523Y-98708333D01*
X200532142Y-98113095D02*
X201782142Y-98113095D01*
X200591666Y-98113095D02*
X200532142Y-97994047D01*
X200532142Y-97755952D01*
X200591666Y-97636904D01*
X200651190Y-97577380D01*
X200770238Y-97517857D01*
X201127380Y-97517857D01*
X201246428Y-97577380D01*
X201305952Y-97636904D01*
X201365476Y-97755952D01*
X201365476Y-97994047D01*
X201305952Y-98113095D01*
X201305952Y-97041666D02*
X201365476Y-96922619D01*
X201365476Y-96684523D01*
X201305952Y-96565476D01*
X201186904Y-96505952D01*
X201127380Y-96505952D01*
X201008333Y-96565476D01*
X200948809Y-96684523D01*
X200948809Y-96863095D01*
X200889285Y-96982142D01*
X200770238Y-97041666D01*
X200710714Y-97041666D01*
X200591666Y-96982142D01*
X200532142Y-96863095D01*
X200532142Y-96684523D01*
X200591666Y-96565476D01*
X201305952Y-95494047D02*
X201365476Y-95613095D01*
X201365476Y-95851190D01*
X201305952Y-95970238D01*
X201186904Y-96029761D01*
X200710714Y-96029761D01*
X200591666Y-95970238D01*
X200532142Y-95851190D01*
X200532142Y-95613095D01*
X200591666Y-95494047D01*
X200710714Y-95434523D01*
X200829761Y-95434523D01*
X200948809Y-96029761D01*
D11*
X199104761Y-106428571D02*
X197104761Y-106428571D01*
X199104761Y-105285714D01*
X197104761Y-105285714D01*
X199009523Y-103571428D02*
X199104761Y-103761904D01*
X199104761Y-104142857D01*
X199009523Y-104333333D01*
X198819047Y-104428571D01*
X198057142Y-104428571D01*
X197866666Y-104333333D01*
X197771428Y-104142857D01*
X197771428Y-103761904D01*
X197866666Y-103571428D01*
X198057142Y-103476190D01*
X198247619Y-103476190D01*
X198438095Y-104428571D01*
X197771428Y-101761904D02*
X199104761Y-101761904D01*
X197771428Y-102619047D02*
X198819047Y-102619047D01*
X199009523Y-102523809D01*
X199104761Y-102333333D01*
X199104761Y-102047619D01*
X199009523Y-101857142D01*
X198914285Y-101761904D01*
X197771428Y-101095238D02*
X197771428Y-100333333D01*
X197104761Y-100809523D02*
X198819047Y-100809523D01*
X199009523Y-100714285D01*
X199104761Y-100523809D01*
X199104761Y-100333333D01*
X199104761Y-99666666D02*
X197771428Y-99666666D01*
X198152380Y-99666666D02*
X197961904Y-99571428D01*
X197866666Y-99476190D01*
X197771428Y-99285714D01*
X197771428Y-99095238D01*
X199104761Y-98142857D02*
X199009523Y-98333333D01*
X198914285Y-98428571D01*
X198723809Y-98523809D01*
X198152380Y-98523809D01*
X197961904Y-98428571D01*
X197866666Y-98333333D01*
X197771428Y-98142857D01*
X197771428Y-97857142D01*
X197866666Y-97666666D01*
X197961904Y-97571428D01*
X198152380Y-97476190D01*
X198723809Y-97476190D01*
X198914285Y-97571428D01*
X199009523Y-97666666D01*
X199104761Y-97857142D01*
X199104761Y-98142857D01*
D10*
X198332142Y-95992857D02*
X199165476Y-95695238D01*
X198332142Y-95397619D01*
X199165476Y-94266666D02*
X199165476Y-94980952D01*
X199165476Y-94623809D02*
X197915476Y-94623809D01*
X198094047Y-94742857D01*
X198213095Y-94861904D01*
X198272619Y-94980952D01*
D12*
X102957333Y-113475880D02*
X102624000Y-112999690D01*
X102385904Y-113475880D02*
X102385904Y-112475880D01*
X102766857Y-112475880D01*
X102862095Y-112523500D01*
X102909714Y-112571119D01*
X102957333Y-112666357D01*
X102957333Y-112809214D01*
X102909714Y-112904452D01*
X102862095Y-112952071D01*
X102766857Y-112999690D01*
X102385904Y-112999690D01*
X103338285Y-112571119D02*
X103385904Y-112523500D01*
X103481142Y-112475880D01*
X103719238Y-112475880D01*
X103814476Y-112523500D01*
X103862095Y-112571119D01*
X103909714Y-112666357D01*
X103909714Y-112761595D01*
X103862095Y-112904452D01*
X103290666Y-113475880D01*
X103909714Y-113475880D01*
X115611331Y-115165142D02*
X115563712Y-115212761D01*
X115420855Y-115260380D01*
X115325617Y-115260380D01*
X115182759Y-115212761D01*
X115087521Y-115117523D01*
X115039902Y-115022285D01*
X114992283Y-114831809D01*
X114992283Y-114688952D01*
X115039902Y-114498476D01*
X115087521Y-114403238D01*
X115182759Y-114308000D01*
X115325617Y-114260380D01*
X115420855Y-114260380D01*
X115563712Y-114308000D01*
X115611331Y-114355619D01*
X116563712Y-115260380D02*
X115992283Y-115260380D01*
X116277998Y-115260380D02*
X116277998Y-114260380D01*
X116182759Y-114403238D01*
X116087521Y-114498476D01*
X115992283Y-114546095D01*
X132833333Y-109052380D02*
X132500000Y-108576190D01*
X132261904Y-109052380D02*
X132261904Y-108052380D01*
X132642857Y-108052380D01*
X132738095Y-108100000D01*
X132785714Y-108147619D01*
X132833333Y-108242857D01*
X132833333Y-108385714D01*
X132785714Y-108480952D01*
X132738095Y-108528571D01*
X132642857Y-108576190D01*
X132261904Y-108576190D01*
X133309523Y-109052380D02*
X133500000Y-109052380D01*
X133595238Y-109004761D01*
X133642857Y-108957142D01*
X133738095Y-108814285D01*
X133785714Y-108623809D01*
X133785714Y-108242857D01*
X133738095Y-108147619D01*
X133690476Y-108100000D01*
X133595238Y-108052380D01*
X133404761Y-108052380D01*
X133309523Y-108100000D01*
X133261904Y-108147619D01*
X133214285Y-108242857D01*
X133214285Y-108480952D01*
X133261904Y-108576190D01*
X133309523Y-108623809D01*
X133404761Y-108671428D01*
X133595238Y-108671428D01*
X133690476Y-108623809D01*
X133738095Y-108576190D01*
X133785714Y-108480952D01*
X134612142Y-120372142D02*
X134564523Y-120419761D01*
X134421666Y-120467380D01*
X134326428Y-120467380D01*
X134183571Y-120419761D01*
X134088333Y-120324523D01*
X134040714Y-120229285D01*
X133993095Y-120038809D01*
X133993095Y-119895952D01*
X134040714Y-119705476D01*
X134088333Y-119610238D01*
X134183571Y-119515000D01*
X134326428Y-119467380D01*
X134421666Y-119467380D01*
X134564523Y-119515000D01*
X134612142Y-119562619D01*
X135564523Y-120467380D02*
X134993095Y-120467380D01*
X135278809Y-120467380D02*
X135278809Y-119467380D01*
X135183571Y-119610238D01*
X135088333Y-119705476D01*
X134993095Y-119753095D01*
X136516904Y-120467380D02*
X135945476Y-120467380D01*
X136231190Y-120467380D02*
X136231190Y-119467380D01*
X136135952Y-119610238D01*
X136040714Y-119705476D01*
X135945476Y-119753095D01*
X115611331Y-120547642D02*
X115563712Y-120595261D01*
X115420855Y-120642880D01*
X115325617Y-120642880D01*
X115182759Y-120595261D01*
X115087521Y-120500023D01*
X115039902Y-120404785D01*
X114992283Y-120214309D01*
X114992283Y-120071452D01*
X115039902Y-119880976D01*
X115087521Y-119785738D01*
X115182759Y-119690500D01*
X115325617Y-119642880D01*
X115420855Y-119642880D01*
X115563712Y-119690500D01*
X115611331Y-119738119D01*
X115992283Y-119738119D02*
X116039902Y-119690500D01*
X116135140Y-119642880D01*
X116373236Y-119642880D01*
X116468474Y-119690500D01*
X116516093Y-119738119D01*
X116563712Y-119833357D01*
X116563712Y-119928595D01*
X116516093Y-120071452D01*
X115944664Y-120642880D01*
X116563712Y-120642880D01*
X173806142Y-79986142D02*
X173758523Y-80033761D01*
X173615666Y-80081380D01*
X173520428Y-80081380D01*
X173377571Y-80033761D01*
X173282333Y-79938523D01*
X173234714Y-79843285D01*
X173187095Y-79652809D01*
X173187095Y-79509952D01*
X173234714Y-79319476D01*
X173282333Y-79224238D01*
X173377571Y-79129000D01*
X173520428Y-79081380D01*
X173615666Y-79081380D01*
X173758523Y-79129000D01*
X173806142Y-79176619D01*
X174758523Y-80081380D02*
X174187095Y-80081380D01*
X174472809Y-80081380D02*
X174472809Y-79081380D01*
X174377571Y-79224238D01*
X174282333Y-79319476D01*
X174187095Y-79367095D01*
X175615666Y-79414714D02*
X175615666Y-80081380D01*
X175377571Y-79033761D02*
X175139476Y-79748047D01*
X175758523Y-79748047D01*
X154374833Y-83796142D02*
X154327214Y-83843761D01*
X154184357Y-83891380D01*
X154089119Y-83891380D01*
X153946261Y-83843761D01*
X153851023Y-83748523D01*
X153803404Y-83653285D01*
X153755785Y-83462809D01*
X153755785Y-83319952D01*
X153803404Y-83129476D01*
X153851023Y-83034238D01*
X153946261Y-82939000D01*
X154089119Y-82891380D01*
X154184357Y-82891380D01*
X154327214Y-82939000D01*
X154374833Y-82986619D01*
X154851023Y-83891380D02*
X155041500Y-83891380D01*
X155136738Y-83843761D01*
X155184357Y-83796142D01*
X155279595Y-83653285D01*
X155327214Y-83462809D01*
X155327214Y-83081857D01*
X155279595Y-82986619D01*
X155231976Y-82939000D01*
X155136738Y-82891380D01*
X154946261Y-82891380D01*
X154851023Y-82939000D01*
X154803404Y-82986619D01*
X154755785Y-83081857D01*
X154755785Y-83319952D01*
X154803404Y-83415190D01*
X154851023Y-83462809D01*
X154946261Y-83510428D01*
X155136738Y-83510428D01*
X155231976Y-83462809D01*
X155279595Y-83415190D01*
X155327214Y-83319952D01*
X163357142Y-76347380D02*
X163023809Y-75871190D01*
X162785714Y-76347380D02*
X162785714Y-75347380D01*
X163166666Y-75347380D01*
X163261904Y-75395000D01*
X163309523Y-75442619D01*
X163357142Y-75537857D01*
X163357142Y-75680714D01*
X163309523Y-75775952D01*
X163261904Y-75823571D01*
X163166666Y-75871190D01*
X162785714Y-75871190D01*
X164309523Y-76347380D02*
X163738095Y-76347380D01*
X164023809Y-76347380D02*
X164023809Y-75347380D01*
X163928571Y-75490238D01*
X163833333Y-75585476D01*
X163738095Y-75633095D01*
X164928571Y-75347380D02*
X165023809Y-75347380D01*
X165119047Y-75395000D01*
X165166666Y-75442619D01*
X165214285Y-75537857D01*
X165261904Y-75728333D01*
X165261904Y-75966428D01*
X165214285Y-76156904D01*
X165166666Y-76252142D01*
X165119047Y-76299761D01*
X165023809Y-76347380D01*
X164928571Y-76347380D01*
X164833333Y-76299761D01*
X164785714Y-76252142D01*
X164738095Y-76156904D01*
X164690476Y-75966428D01*
X164690476Y-75728333D01*
X164738095Y-75537857D01*
X164785714Y-75442619D01*
X164833333Y-75395000D01*
X164928571Y-75347380D01*
X193667142Y-84812142D02*
X193619523Y-84859761D01*
X193476666Y-84907380D01*
X193381428Y-84907380D01*
X193238571Y-84859761D01*
X193143333Y-84764523D01*
X193095714Y-84669285D01*
X193048095Y-84478809D01*
X193048095Y-84335952D01*
X193095714Y-84145476D01*
X193143333Y-84050238D01*
X193238571Y-83955000D01*
X193381428Y-83907380D01*
X193476666Y-83907380D01*
X193619523Y-83955000D01*
X193667142Y-84002619D01*
X194619523Y-84907380D02*
X194048095Y-84907380D01*
X194333809Y-84907380D02*
X194333809Y-83907380D01*
X194238571Y-84050238D01*
X194143333Y-84145476D01*
X194048095Y-84193095D01*
X195238571Y-83907380D02*
X195333809Y-83907380D01*
X195429047Y-83955000D01*
X195476666Y-84002619D01*
X195524285Y-84097857D01*
X195571904Y-84288333D01*
X195571904Y-84526428D01*
X195524285Y-84716904D01*
X195476666Y-84812142D01*
X195429047Y-84859761D01*
X195333809Y-84907380D01*
X195238571Y-84907380D01*
X195143333Y-84859761D01*
X195095714Y-84812142D01*
X195048095Y-84716904D01*
X195000476Y-84526428D01*
X195000476Y-84288333D01*
X195048095Y-84097857D01*
X195095714Y-84002619D01*
X195143333Y-83955000D01*
X195238571Y-83907380D01*
X115657333Y-92019380D02*
X115181142Y-92019380D01*
X115181142Y-91019380D01*
X115895428Y-91019380D02*
X116514476Y-91019380D01*
X116181142Y-91400333D01*
X116324000Y-91400333D01*
X116419238Y-91447952D01*
X116466857Y-91495571D01*
X116514476Y-91590809D01*
X116514476Y-91828904D01*
X116466857Y-91924142D01*
X116419238Y-91971761D01*
X116324000Y-92019380D01*
X116038285Y-92019380D01*
X115943047Y-91971761D01*
X115895428Y-91924142D01*
X164122333Y-84653380D02*
X163789000Y-84177190D01*
X163550904Y-84653380D02*
X163550904Y-83653380D01*
X163931857Y-83653380D01*
X164027095Y-83701000D01*
X164074714Y-83748619D01*
X164122333Y-83843857D01*
X164122333Y-83986714D01*
X164074714Y-84081952D01*
X164027095Y-84129571D01*
X163931857Y-84177190D01*
X163550904Y-84177190D01*
X164693761Y-84081952D02*
X164598523Y-84034333D01*
X164550904Y-83986714D01*
X164503285Y-83891476D01*
X164503285Y-83843857D01*
X164550904Y-83748619D01*
X164598523Y-83701000D01*
X164693761Y-83653380D01*
X164884238Y-83653380D01*
X164979476Y-83701000D01*
X165027095Y-83748619D01*
X165074714Y-83843857D01*
X165074714Y-83891476D01*
X165027095Y-83986714D01*
X164979476Y-84034333D01*
X164884238Y-84081952D01*
X164693761Y-84081952D01*
X164598523Y-84129571D01*
X164550904Y-84177190D01*
X164503285Y-84272428D01*
X164503285Y-84462904D01*
X164550904Y-84558142D01*
X164598523Y-84605761D01*
X164693761Y-84653380D01*
X164884238Y-84653380D01*
X164979476Y-84605761D01*
X165027095Y-84558142D01*
X165074714Y-84462904D01*
X165074714Y-84272428D01*
X165027095Y-84177190D01*
X164979476Y-84129571D01*
X164884238Y-84081952D01*
X109815333Y-83161142D02*
X109767714Y-83208761D01*
X109624857Y-83256380D01*
X109529619Y-83256380D01*
X109386761Y-83208761D01*
X109291523Y-83113523D01*
X109243904Y-83018285D01*
X109196285Y-82827809D01*
X109196285Y-82684952D01*
X109243904Y-82494476D01*
X109291523Y-82399238D01*
X109386761Y-82304000D01*
X109529619Y-82256380D01*
X109624857Y-82256380D01*
X109767714Y-82304000D01*
X109815333Y-82351619D01*
X110148666Y-82256380D02*
X110815333Y-82256380D01*
X110386761Y-83256380D01*
X103109733Y-91130380D02*
X102633542Y-91130380D01*
X102633542Y-90130380D01*
X103966876Y-91130380D02*
X103395447Y-91130380D01*
X103681161Y-91130380D02*
X103681161Y-90130380D01*
X103585923Y-90273238D01*
X103490685Y-90368476D01*
X103395447Y-90416095D01*
X197786666Y-114521380D02*
X197786666Y-115235666D01*
X197739047Y-115378523D01*
X197643809Y-115473761D01*
X197500952Y-115521380D01*
X197405714Y-115521380D01*
X198215238Y-114616619D02*
X198262857Y-114569000D01*
X198358095Y-114521380D01*
X198596190Y-114521380D01*
X198691428Y-114569000D01*
X198739047Y-114616619D01*
X198786666Y-114711857D01*
X198786666Y-114807095D01*
X198739047Y-114949952D01*
X198167619Y-115521380D01*
X198786666Y-115521380D01*
X135170833Y-84989880D02*
X134837500Y-84513690D01*
X134599404Y-84989880D02*
X134599404Y-83989880D01*
X134980357Y-83989880D01*
X135075595Y-84037500D01*
X135123214Y-84085119D01*
X135170833Y-84180357D01*
X135170833Y-84323214D01*
X135123214Y-84418452D01*
X135075595Y-84466071D01*
X134980357Y-84513690D01*
X134599404Y-84513690D01*
X136075595Y-83989880D02*
X135599404Y-83989880D01*
X135551785Y-84466071D01*
X135599404Y-84418452D01*
X135694642Y-84370833D01*
X135932738Y-84370833D01*
X136027976Y-84418452D01*
X136075595Y-84466071D01*
X136123214Y-84561309D01*
X136123214Y-84799404D01*
X136075595Y-84894642D01*
X136027976Y-84942261D01*
X135932738Y-84989880D01*
X135694642Y-84989880D01*
X135599404Y-84942261D01*
X135551785Y-84894642D01*
X108245331Y-115165142D02*
X108197712Y-115212761D01*
X108054855Y-115260380D01*
X107959617Y-115260380D01*
X107816759Y-115212761D01*
X107721521Y-115117523D01*
X107673902Y-115022285D01*
X107626283Y-114831809D01*
X107626283Y-114688952D01*
X107673902Y-114498476D01*
X107721521Y-114403238D01*
X107816759Y-114308000D01*
X107959617Y-114260380D01*
X108054855Y-114260380D01*
X108197712Y-114308000D01*
X108245331Y-114355619D01*
X108578664Y-114260380D02*
X109197712Y-114260380D01*
X108864378Y-114641333D01*
X109007236Y-114641333D01*
X109102474Y-114688952D01*
X109150093Y-114736571D01*
X109197712Y-114831809D01*
X109197712Y-115069904D01*
X109150093Y-115165142D01*
X109102474Y-115212761D01*
X109007236Y-115260380D01*
X108721521Y-115260380D01*
X108626283Y-115212761D01*
X108578664Y-115165142D01*
X123533333Y-122464880D02*
X123200000Y-121988690D01*
X122961904Y-122464880D02*
X122961904Y-121464880D01*
X123342857Y-121464880D01*
X123438095Y-121512500D01*
X123485714Y-121560119D01*
X123533333Y-121655357D01*
X123533333Y-121798214D01*
X123485714Y-121893452D01*
X123438095Y-121941071D01*
X123342857Y-121988690D01*
X122961904Y-121988690D01*
X124390476Y-121464880D02*
X124200000Y-121464880D01*
X124104761Y-121512500D01*
X124057142Y-121560119D01*
X123961904Y-121702976D01*
X123914285Y-121893452D01*
X123914285Y-122274404D01*
X123961904Y-122369642D01*
X124009523Y-122417261D01*
X124104761Y-122464880D01*
X124295238Y-122464880D01*
X124390476Y-122417261D01*
X124438095Y-122369642D01*
X124485714Y-122274404D01*
X124485714Y-122036309D01*
X124438095Y-121941071D01*
X124390476Y-121893452D01*
X124295238Y-121845833D01*
X124104761Y-121845833D01*
X124009523Y-121893452D01*
X123961904Y-121941071D01*
X123914285Y-122036309D01*
X121626333Y-109323142D02*
X121578714Y-109370761D01*
X121435857Y-109418380D01*
X121340619Y-109418380D01*
X121197761Y-109370761D01*
X121102523Y-109275523D01*
X121054904Y-109180285D01*
X121007285Y-108989809D01*
X121007285Y-108846952D01*
X121054904Y-108656476D01*
X121102523Y-108561238D01*
X121197761Y-108466000D01*
X121340619Y-108418380D01*
X121435857Y-108418380D01*
X121578714Y-108466000D01*
X121626333Y-108513619D01*
X122483476Y-108751714D02*
X122483476Y-109418380D01*
X122245380Y-108370761D02*
X122007285Y-109085047D01*
X122626333Y-109085047D01*
X109942333Y-92019380D02*
X109466142Y-92019380D01*
X109466142Y-91019380D01*
X110228047Y-91114619D02*
X110275666Y-91067000D01*
X110370904Y-91019380D01*
X110609000Y-91019380D01*
X110704238Y-91067000D01*
X110751857Y-91114619D01*
X110799476Y-91209857D01*
X110799476Y-91305095D01*
X110751857Y-91447952D01*
X110180428Y-92019380D01*
X110799476Y-92019380D01*
X132833333Y-74452380D02*
X132500000Y-73976190D01*
X132261904Y-74452380D02*
X132261904Y-73452380D01*
X132642857Y-73452380D01*
X132738095Y-73500000D01*
X132785714Y-73547619D01*
X132833333Y-73642857D01*
X132833333Y-73785714D01*
X132785714Y-73880952D01*
X132738095Y-73928571D01*
X132642857Y-73976190D01*
X132261904Y-73976190D01*
X133690476Y-73785714D02*
X133690476Y-74452380D01*
X133452380Y-73404761D02*
X133214285Y-74119047D01*
X133833333Y-74119047D01*
X156964142Y-117578142D02*
X156916523Y-117625761D01*
X156773666Y-117673380D01*
X156678428Y-117673380D01*
X156535571Y-117625761D01*
X156440333Y-117530523D01*
X156392714Y-117435285D01*
X156345095Y-117244809D01*
X156345095Y-117101952D01*
X156392714Y-116911476D01*
X156440333Y-116816238D01*
X156535571Y-116721000D01*
X156678428Y-116673380D01*
X156773666Y-116673380D01*
X156916523Y-116721000D01*
X156964142Y-116768619D01*
X157916523Y-117673380D02*
X157345095Y-117673380D01*
X157630809Y-117673380D02*
X157630809Y-116673380D01*
X157535571Y-116816238D01*
X157440333Y-116911476D01*
X157345095Y-116959095D01*
X158249857Y-116673380D02*
X158868904Y-116673380D01*
X158535571Y-117054333D01*
X158678428Y-117054333D01*
X158773666Y-117101952D01*
X158821285Y-117149571D01*
X158868904Y-117244809D01*
X158868904Y-117482904D01*
X158821285Y-117578142D01*
X158773666Y-117625761D01*
X158678428Y-117673380D01*
X158392714Y-117673380D01*
X158297476Y-117625761D01*
X158249857Y-117578142D01*
X178141333Y-112625142D02*
X178093714Y-112672761D01*
X177950857Y-112720380D01*
X177855619Y-112720380D01*
X177712761Y-112672761D01*
X177617523Y-112577523D01*
X177569904Y-112482285D01*
X177522285Y-112291809D01*
X177522285Y-112148952D01*
X177569904Y-111958476D01*
X177617523Y-111863238D01*
X177712761Y-111768000D01*
X177855619Y-111720380D01*
X177950857Y-111720380D01*
X178093714Y-111768000D01*
X178141333Y-111815619D01*
X179046095Y-111720380D02*
X178569904Y-111720380D01*
X178522285Y-112196571D01*
X178569904Y-112148952D01*
X178665142Y-112101333D01*
X178903238Y-112101333D01*
X178998476Y-112148952D01*
X179046095Y-112196571D01*
X179093714Y-112291809D01*
X179093714Y-112529904D01*
X179046095Y-112625142D01*
X178998476Y-112672761D01*
X178903238Y-112720380D01*
X178665142Y-112720380D01*
X178569904Y-112672761D01*
X178522285Y-112625142D01*
X108245331Y-120594380D02*
X107911998Y-120118190D01*
X107673902Y-120594380D02*
X107673902Y-119594380D01*
X108054855Y-119594380D01*
X108150093Y-119642000D01*
X108197712Y-119689619D01*
X108245331Y-119784857D01*
X108245331Y-119927714D01*
X108197712Y-120022952D01*
X108150093Y-120070571D01*
X108054855Y-120118190D01*
X107673902Y-120118190D01*
X109197712Y-120594380D02*
X108626283Y-120594380D01*
X108911998Y-120594380D02*
X108911998Y-119594380D01*
X108816759Y-119737238D01*
X108721521Y-119832476D01*
X108626283Y-119880095D01*
X182713333Y-112593380D02*
X182380000Y-112117190D01*
X182141904Y-112593380D02*
X182141904Y-111593380D01*
X182522857Y-111593380D01*
X182618095Y-111641000D01*
X182665714Y-111688619D01*
X182713333Y-111783857D01*
X182713333Y-111926714D01*
X182665714Y-112021952D01*
X182618095Y-112069571D01*
X182522857Y-112117190D01*
X182141904Y-112117190D01*
X183046666Y-111593380D02*
X183665714Y-111593380D01*
X183332380Y-111974333D01*
X183475238Y-111974333D01*
X183570476Y-112021952D01*
X183618095Y-112069571D01*
X183665714Y-112164809D01*
X183665714Y-112402904D01*
X183618095Y-112498142D01*
X183570476Y-112545761D01*
X183475238Y-112593380D01*
X183189523Y-112593380D01*
X183094285Y-112545761D01*
X183046666Y-112498142D01*
X115570095Y-107275380D02*
X115570095Y-108084904D01*
X115617714Y-108180142D01*
X115665333Y-108227761D01*
X115760571Y-108275380D01*
X115951047Y-108275380D01*
X116046285Y-108227761D01*
X116093904Y-108180142D01*
X116141523Y-108084904D01*
X116141523Y-107275380D01*
X117141523Y-108275380D02*
X116570095Y-108275380D01*
X116855809Y-108275380D02*
X116855809Y-107275380D01*
X116760571Y-107418238D01*
X116665333Y-107513476D01*
X116570095Y-107561095D01*
X145161095Y-105370380D02*
X145161095Y-106179904D01*
X145208714Y-106275142D01*
X145256333Y-106322761D01*
X145351571Y-106370380D01*
X145542047Y-106370380D01*
X145637285Y-106322761D01*
X145684904Y-106275142D01*
X145732523Y-106179904D01*
X145732523Y-105370380D01*
X146684904Y-105370380D02*
X146208714Y-105370380D01*
X146161095Y-105846571D01*
X146208714Y-105798952D01*
X146303952Y-105751333D01*
X146542047Y-105751333D01*
X146637285Y-105798952D01*
X146684904Y-105846571D01*
X146732523Y-105941809D01*
X146732523Y-106179904D01*
X146684904Y-106275142D01*
X146637285Y-106322761D01*
X146542047Y-106370380D01*
X146303952Y-106370380D01*
X146208714Y-106322761D01*
X146161095Y-106275142D01*
X123533333Y-130327380D02*
X123200000Y-129851190D01*
X122961904Y-130327380D02*
X122961904Y-129327380D01*
X123342857Y-129327380D01*
X123438095Y-129375000D01*
X123485714Y-129422619D01*
X123533333Y-129517857D01*
X123533333Y-129660714D01*
X123485714Y-129755952D01*
X123438095Y-129803571D01*
X123342857Y-129851190D01*
X122961904Y-129851190D01*
X123866666Y-129327380D02*
X124533333Y-129327380D01*
X124104761Y-130327380D01*
X176957142Y-75757142D02*
X176909523Y-75804761D01*
X176766666Y-75852380D01*
X176671428Y-75852380D01*
X176528571Y-75804761D01*
X176433333Y-75709523D01*
X176385714Y-75614285D01*
X176338095Y-75423809D01*
X176338095Y-75280952D01*
X176385714Y-75090476D01*
X176433333Y-74995238D01*
X176528571Y-74900000D01*
X176671428Y-74852380D01*
X176766666Y-74852380D01*
X176909523Y-74900000D01*
X176957142Y-74947619D01*
X177909523Y-75852380D02*
X177338095Y-75852380D01*
X177623809Y-75852380D02*
X177623809Y-74852380D01*
X177528571Y-74995238D01*
X177433333Y-75090476D01*
X177338095Y-75138095D01*
X178290476Y-74947619D02*
X178338095Y-74900000D01*
X178433333Y-74852380D01*
X178671428Y-74852380D01*
X178766666Y-74900000D01*
X178814285Y-74947619D01*
X178861904Y-75042857D01*
X178861904Y-75138095D01*
X178814285Y-75280952D01*
X178242857Y-75852380D01*
X178861904Y-75852380D01*
X115530333Y-83161142D02*
X115482714Y-83208761D01*
X115339857Y-83256380D01*
X115244619Y-83256380D01*
X115101761Y-83208761D01*
X115006523Y-83113523D01*
X114958904Y-83018285D01*
X114911285Y-82827809D01*
X114911285Y-82684952D01*
X114958904Y-82494476D01*
X115006523Y-82399238D01*
X115101761Y-82304000D01*
X115244619Y-82256380D01*
X115339857Y-82256380D01*
X115482714Y-82304000D01*
X115530333Y-82351619D01*
X116101761Y-82684952D02*
X116006523Y-82637333D01*
X115958904Y-82589714D01*
X115911285Y-82494476D01*
X115911285Y-82446857D01*
X115958904Y-82351619D01*
X116006523Y-82304000D01*
X116101761Y-82256380D01*
X116292238Y-82256380D01*
X116387476Y-82304000D01*
X116435095Y-82351619D01*
X116482714Y-82446857D01*
X116482714Y-82494476D01*
X116435095Y-82589714D01*
X116387476Y-82637333D01*
X116292238Y-82684952D01*
X116101761Y-82684952D01*
X116006523Y-82732571D01*
X115958904Y-82780190D01*
X115911285Y-82875428D01*
X115911285Y-83065904D01*
X115958904Y-83161142D01*
X116006523Y-83208761D01*
X116101761Y-83256380D01*
X116292238Y-83256380D01*
X116387476Y-83208761D01*
X116435095Y-83161142D01*
X116482714Y-83065904D01*
X116482714Y-82875428D01*
X116435095Y-82780190D01*
X116387476Y-82732571D01*
X116292238Y-82684952D01*
X173990095Y-112553380D02*
X173990095Y-113362904D01*
X174037714Y-113458142D01*
X174085333Y-113505761D01*
X174180571Y-113553380D01*
X174371047Y-113553380D01*
X174466285Y-113505761D01*
X174513904Y-113458142D01*
X174561523Y-113362904D01*
X174561523Y-112553380D01*
X174990095Y-112648619D02*
X175037714Y-112601000D01*
X175132952Y-112553380D01*
X175371047Y-112553380D01*
X175466285Y-112601000D01*
X175513904Y-112648619D01*
X175561523Y-112743857D01*
X175561523Y-112839095D01*
X175513904Y-112981952D01*
X174942476Y-113553380D01*
X175561523Y-113553380D01*
X132190904Y-121547380D02*
X132190904Y-120547380D01*
X132429000Y-120547380D01*
X132571857Y-120595000D01*
X132667095Y-120690238D01*
X132714714Y-120785476D01*
X132762333Y-120975952D01*
X132762333Y-121118809D01*
X132714714Y-121309285D01*
X132667095Y-121404523D01*
X132571857Y-121499761D01*
X132429000Y-121547380D01*
X132190904Y-121547380D01*
X133714714Y-121547380D02*
X133143285Y-121547380D01*
X133429000Y-121547380D02*
X133429000Y-120547380D01*
X133333761Y-120690238D01*
X133238523Y-120785476D01*
X133143285Y-120833095D01*
X145288095Y-74890380D02*
X145288095Y-75699904D01*
X145335714Y-75795142D01*
X145383333Y-75842761D01*
X145478571Y-75890380D01*
X145669047Y-75890380D01*
X145764285Y-75842761D01*
X145811904Y-75795142D01*
X145859523Y-75699904D01*
X145859523Y-74890380D01*
X146240476Y-74890380D02*
X146859523Y-74890380D01*
X146526190Y-75271333D01*
X146669047Y-75271333D01*
X146764285Y-75318952D01*
X146811904Y-75366571D01*
X146859523Y-75461809D01*
X146859523Y-75699904D01*
X146811904Y-75795142D01*
X146764285Y-75842761D01*
X146669047Y-75890380D01*
X146383333Y-75890380D01*
X146288095Y-75842761D01*
X146240476Y-75795142D01*
X181581380Y-79405523D02*
X181581380Y-79923619D01*
X181611857Y-79984571D01*
X181642333Y-80015047D01*
X181703285Y-80045523D01*
X181825190Y-80045523D01*
X181886142Y-80015047D01*
X181916619Y-79984571D01*
X181947095Y-79923619D01*
X181947095Y-79405523D01*
X182526142Y-79618857D02*
X182526142Y-80045523D01*
X182373761Y-79375047D02*
X182221380Y-79832190D01*
X182617571Y-79832190D01*
X132190904Y-127347380D02*
X132190904Y-126347380D01*
X132429000Y-126347380D01*
X132571857Y-126395000D01*
X132667095Y-126490238D01*
X132714714Y-126585476D01*
X132762333Y-126775952D01*
X132762333Y-126918809D01*
X132714714Y-127109285D01*
X132667095Y-127204523D01*
X132571857Y-127299761D01*
X132429000Y-127347380D01*
X132190904Y-127347380D01*
X133143285Y-126442619D02*
X133190904Y-126395000D01*
X133286142Y-126347380D01*
X133524238Y-126347380D01*
X133619476Y-126395000D01*
X133667095Y-126442619D01*
X133714714Y-126537857D01*
X133714714Y-126633095D01*
X133667095Y-126775952D01*
X133095666Y-127347380D01*
X133714714Y-127347380D01*
X170233333Y-109357142D02*
X170185714Y-109404761D01*
X170042857Y-109452380D01*
X169947619Y-109452380D01*
X169804761Y-109404761D01*
X169709523Y-109309523D01*
X169661904Y-109214285D01*
X169614285Y-109023809D01*
X169614285Y-108880952D01*
X169661904Y-108690476D01*
X169709523Y-108595238D01*
X169804761Y-108500000D01*
X169947619Y-108452380D01*
X170042857Y-108452380D01*
X170185714Y-108500000D01*
X170233333Y-108547619D01*
X171090476Y-108452380D02*
X170900000Y-108452380D01*
X170804761Y-108500000D01*
X170757142Y-108547619D01*
X170661904Y-108690476D01*
X170614285Y-108880952D01*
X170614285Y-109261904D01*
X170661904Y-109357142D01*
X170709523Y-109404761D01*
X170804761Y-109452380D01*
X170995238Y-109452380D01*
X171090476Y-109404761D01*
X171138095Y-109357142D01*
X171185714Y-109261904D01*
X171185714Y-109023809D01*
X171138095Y-108928571D01*
X171090476Y-108880952D01*
X170995238Y-108833333D01*
X170804761Y-108833333D01*
X170709523Y-108880952D01*
X170661904Y-108928571D01*
X170614285Y-109023809D01*
D13*
X158403000Y-125222000D02*
G75*
G03*
X158403000Y-125222000I-1050000J0D01*
G01*
X102214000Y-110527064D02*
X102214000Y-109072936D01*
X104034000Y-110527064D02*
X104034000Y-109072936D01*
X116489250Y-113637500D02*
X115066746Y-113637500D01*
X116489250Y-111817500D02*
X115066746Y-111817500D01*
X136110000Y-107872936D02*
X136110000Y-109327064D01*
X134290000Y-107872936D02*
X134290000Y-109327064D01*
X134345000Y-117551252D02*
X134345000Y-116128748D01*
X136165000Y-117551252D02*
X136165000Y-116128748D01*
X124193998Y-78232000D02*
G75*
G03*
X124193998Y-78232000I-1050000J0D01*
G01*
X116489250Y-117151500D02*
X115066746Y-117151500D01*
X116489250Y-118971500D02*
X115066746Y-118971500D01*
X124193998Y-90805000D02*
G75*
G03*
X124193998Y-90805000I-1050000J0D01*
G01*
X151926000Y-98171000D02*
G75*
G03*
X151926000Y-98171000I-1050000J0D01*
G01*
X173539000Y-75742748D02*
X173539000Y-77165252D01*
X175359000Y-75742748D02*
X175359000Y-77165252D01*
X155469000Y-80975252D02*
X155469000Y-79552748D01*
X153649000Y-80975252D02*
X153649000Y-79552748D01*
X163272936Y-76890000D02*
X164727064Y-76890000D01*
X163272936Y-78710000D02*
X164727064Y-78710000D01*
X195220000Y-80695748D02*
X195220000Y-82118252D01*
X193400000Y-80695748D02*
X193400000Y-82118252D01*
X116687998Y-89178742D02*
X116687998Y-87508258D01*
X114867998Y-89178742D02*
X114867998Y-87508258D01*
X163561936Y-81259000D02*
X165016064Y-81259000D01*
X163561936Y-83079000D02*
X165016064Y-83079000D01*
X190485000Y-76454000D02*
G75*
G03*
X190485000Y-76454000I-1050000J0D01*
G01*
X110845998Y-80418752D02*
X110845998Y-78996248D01*
X109025998Y-80418752D02*
X109025998Y-78996248D01*
X163229000Y-125222000D02*
G75*
G03*
X163229000Y-125222000I-1050000J0D01*
G01*
X103811000Y-92700378D02*
X103811000Y-93499622D01*
X102691000Y-92700378D02*
X102691000Y-93499622D01*
X124193998Y-97028000D02*
G75*
G03*
X124193998Y-97028000I-1050000J0D01*
G01*
X202270000Y-116119000D02*
X202270000Y-124419000D01*
X202270000Y-124419000D02*
X193970000Y-124419000D01*
X193970000Y-116119000D02*
X193970000Y-124419000D01*
X202270000Y-116119000D02*
X193970000Y-116119000D01*
X136247500Y-80610436D02*
X136247500Y-82064564D01*
X134427500Y-80610436D02*
X134427500Y-82064564D01*
X109123250Y-113637500D02*
X107700746Y-113637500D01*
X109123250Y-111817500D02*
X107700746Y-111817500D01*
X124610000Y-118110436D02*
X124610000Y-119564564D01*
X122790000Y-118110436D02*
X122790000Y-119564564D01*
X175499000Y-82042000D02*
G75*
G03*
X175499000Y-82042000I-1050000J0D01*
G01*
X120883000Y-106375252D02*
X120883000Y-104952748D01*
X122703000Y-106375252D02*
X122703000Y-104952748D01*
X109025998Y-89178742D02*
X109025998Y-87508258D01*
X110845998Y-89178742D02*
X110845998Y-87508258D01*
X136110000Y-73210436D02*
X136110000Y-74664564D01*
X134290000Y-73210436D02*
X134290000Y-74664564D01*
X156697000Y-113334748D02*
X156697000Y-114757252D01*
X158517000Y-113334748D02*
X158517000Y-114757252D01*
X177398000Y-108381748D02*
X177398000Y-109804252D01*
X179218000Y-108381748D02*
X179218000Y-109804252D01*
X107684934Y-118971500D02*
X109139062Y-118971500D01*
X107684934Y-117151500D02*
X109139062Y-117151500D01*
X181970000Y-108238936D02*
X181970000Y-109693064D01*
X183790000Y-108238936D02*
X183790000Y-109693064D01*
X190485000Y-82296000D02*
G75*
G03*
X190485000Y-82296000I-1050000J0D01*
G01*
D14*
X116074000Y-106047500D02*
X114544000Y-106047500D01*
X102274000Y-104297500D02*
X102274000Y-98297500D01*
X116074000Y-96547500D02*
X114544000Y-96547500D01*
X116074000Y-104737500D02*
X116074000Y-106047500D01*
X116074000Y-96547500D02*
X116074000Y-97897500D01*
D10*
X102974000Y-107297500D02*
G75*
G03*
X102974000Y-107297500I-100000J0D01*
G01*
D13*
X146592000Y-98171000D02*
G75*
G03*
X146592000Y-98171000I-1050000J0D01*
G01*
X124193998Y-84201000D02*
G75*
G03*
X124193998Y-84201000I-1050000J0D01*
G01*
D14*
X142250000Y-117391000D02*
X149850000Y-117391000D01*
X142250000Y-106891000D02*
X149850000Y-106891000D01*
D10*
X139445000Y-107106000D02*
G75*
G03*
X139445000Y-107106000I-100000J0D01*
G01*
D13*
X122790000Y-125972936D02*
X122790000Y-127427064D01*
X124610000Y-125972936D02*
X124610000Y-127427064D01*
X179430000Y-74775748D02*
X179430000Y-76198252D01*
X181250000Y-74775748D02*
X181250000Y-76198252D01*
X116687998Y-80369752D02*
X116687998Y-78947248D01*
X114867998Y-80369752D02*
X114867998Y-78947248D01*
X166652000Y-114201000D02*
X182852000Y-114201000D01*
X166652000Y-130401000D02*
X182852000Y-130401000D01*
X182852000Y-130401000D02*
X182852000Y-130151000D01*
X182852000Y-114201000D02*
X182852000Y-114551000D01*
X182852000Y-114551000D02*
X183752000Y-114551000D01*
X166652000Y-114551000D02*
X165752000Y-114551000D01*
X166652000Y-114201000D02*
X166652000Y-114551000D01*
X166652000Y-130151000D02*
X166652000Y-130401000D01*
X128420000Y-120054039D02*
G75*
G03*
X128420163Y-122136130I1080000J-1040961D01*
G01*
X128264484Y-119535000D02*
G75*
G03*
X128421392Y-122767335I1235516J-1560000D01*
G01*
X130578608Y-122767335D02*
G75*
G03*
X130735516Y-119535000I-1078608J1672335D01*
G01*
X130579837Y-122136130D02*
G75*
G03*
X130580000Y-120054039I-1079837J1041130D01*
G01*
X142758000Y-83576000D02*
X149358000Y-83576000D01*
X149358000Y-77176000D02*
X149358000Y-77776000D01*
X142758000Y-77176000D02*
X149358000Y-77176000D01*
X142758000Y-83576000D02*
X142758000Y-83126000D01*
X142758000Y-77176000D02*
X142758000Y-77776000D01*
X149358000Y-83576000D02*
X149358000Y-83126000D01*
D14*
X179380500Y-84196000D02*
X179380500Y-83484500D01*
X184757500Y-80396000D02*
X184757500Y-81107500D01*
X179380500Y-80396000D02*
X179380500Y-81107500D01*
X184757500Y-84196000D02*
X184757500Y-83484500D01*
D15*
X179619000Y-79896000D02*
G75*
G03*
X179619000Y-79896000I-50000J0D01*
G01*
D13*
X138362400Y-124866400D02*
G75*
G03*
X138362400Y-124866400I-1050000J0D01*
G01*
X128264484Y-125335000D02*
G75*
G03*
X128421392Y-128567335I1235516J-1560000D01*
G01*
X130579837Y-127936130D02*
G75*
G03*
X130580000Y-125854039I-1079837J1041130D01*
G01*
X130578608Y-128567335D02*
G75*
G03*
X130735516Y-125335000I-1078608J1672335D01*
G01*
X128420000Y-125854039D02*
G75*
G03*
X128420163Y-127936130I1080000J-1040961D01*
G01*
X173503000Y-108303748D02*
X173503000Y-109726252D01*
X171683000Y-108303748D02*
X171683000Y-109726252D01*
%LPC*%
D16*
X157353000Y-125222000D03*
D17*
X103124000Y-111262500D03*
X103124000Y-108337500D03*
D18*
X117252998Y-112727500D03*
X114302998Y-112727500D03*
D19*
X135200000Y-107137500D03*
X135200000Y-110062500D03*
D20*
X135255000Y-118315000D03*
X135255000Y-115365000D03*
D16*
X123143998Y-78232000D03*
D21*
X198700000Y-74400000D03*
D18*
X117252998Y-118061500D03*
X114302998Y-118061500D03*
D16*
X123143998Y-90805000D03*
X150876000Y-98171000D03*
D22*
X174449000Y-74979000D03*
X174449000Y-77929000D03*
D20*
X154559000Y-81739000D03*
X154559000Y-78789000D03*
D23*
X162537500Y-77800000D03*
X165462500Y-77800000D03*
D22*
X194310000Y-79932000D03*
X194310000Y-82882000D03*
D24*
X115777998Y-89918500D03*
X115777998Y-86768500D03*
D23*
X162826500Y-82169000D03*
X165751500Y-82169000D03*
D16*
X189435000Y-76454000D03*
D20*
X109935998Y-81182500D03*
X109935998Y-78232500D03*
D16*
X162179000Y-125222000D03*
D25*
X103251000Y-92037500D03*
X103251000Y-94162500D03*
D16*
X123143998Y-97028000D03*
D26*
X198120000Y-120269000D03*
X200660000Y-117729000D03*
X200660000Y-122809000D03*
X195580000Y-122809000D03*
X195580000Y-117729000D03*
D19*
X135337500Y-79875000D03*
X135337500Y-82800000D03*
D18*
X109886998Y-112727500D03*
X106936998Y-112727500D03*
D19*
X123700000Y-117375000D03*
X123700000Y-120300000D03*
D16*
X174449000Y-82042000D03*
D20*
X121793000Y-107139000D03*
X121793000Y-104189000D03*
D24*
X109935998Y-89918500D03*
X109935998Y-86768500D03*
D21*
X106100000Y-129000000D03*
D19*
X135200000Y-72475000D03*
X135200000Y-75400000D03*
D22*
X157607000Y-112571000D03*
X157607000Y-115521000D03*
X178308000Y-107618000D03*
X178308000Y-110568000D03*
D23*
X106949498Y-118061500D03*
X109874498Y-118061500D03*
D19*
X182880000Y-107503500D03*
X182880000Y-110428500D03*
D16*
X189435000Y-82296000D03*
D21*
X198700000Y-129000000D03*
D27*
X102874000Y-105617500D03*
X103974000Y-105617500D03*
X105074000Y-105617500D03*
X106174000Y-105617500D03*
X107274000Y-105617500D03*
X108374000Y-105617500D03*
X109474000Y-105617500D03*
X110574000Y-105617500D03*
X111674000Y-105617500D03*
X112774000Y-105617500D03*
X113874000Y-105617500D03*
D28*
X115674000Y-104067500D03*
X115674000Y-102967500D03*
X115674000Y-101867500D03*
X115674000Y-100767500D03*
X115674000Y-99667500D03*
X115674000Y-98567500D03*
D27*
X113874000Y-96977500D03*
X112774000Y-96977500D03*
X111674000Y-96977500D03*
X110574000Y-96977500D03*
X109474000Y-96977500D03*
X108374000Y-96977500D03*
X107274000Y-96977500D03*
X106174000Y-96977500D03*
X105074000Y-96977500D03*
X103974000Y-96977500D03*
X102874000Y-96977500D03*
D16*
X145542000Y-98171000D03*
X123143998Y-84201000D03*
D29*
X141395000Y-107696000D03*
X141395000Y-108966000D03*
X141395000Y-110236000D03*
X141395000Y-111506000D03*
X141395000Y-112776000D03*
X141395000Y-114046000D03*
X141395000Y-115316000D03*
X141395000Y-116586000D03*
X150705000Y-116586000D03*
X150705000Y-115316000D03*
X150705000Y-114046000D03*
X150705000Y-112776000D03*
X150705000Y-111506000D03*
X150705000Y-110236000D03*
X150705000Y-108966000D03*
X150705000Y-107696000D03*
D21*
X106100000Y-74500000D03*
D19*
X123700000Y-125237500D03*
X123700000Y-128162500D03*
D22*
X180340000Y-74012000D03*
X180340000Y-76962000D03*
D20*
X115777998Y-81133500D03*
X115777998Y-78183500D03*
D30*
X166752000Y-115301000D03*
X166752000Y-117301000D03*
X166752000Y-119301000D03*
X166752000Y-121301000D03*
X166752000Y-123301000D03*
X166752000Y-125301000D03*
X166752000Y-127301000D03*
X166752000Y-129301000D03*
X182752000Y-129301000D03*
X182752000Y-127301000D03*
X182752000Y-125301000D03*
X182752000Y-123301000D03*
X182752000Y-121301000D03*
X182752000Y-119301000D03*
X182752000Y-117301000D03*
X182752000Y-115301000D03*
D31*
X129500000Y-119825000D03*
D32*
X129500000Y-122365000D03*
D33*
X148733000Y-82276000D03*
X148733000Y-81026000D03*
D34*
X148458000Y-79726000D03*
D33*
X148733000Y-78476000D03*
X143430500Y-78476000D03*
X143383000Y-79726000D03*
X143383000Y-81026000D03*
X143383000Y-82276000D03*
D35*
X179819000Y-80733500D03*
D36*
X179756500Y-81546000D03*
X179756500Y-82046000D03*
X179756500Y-82546000D03*
X179756500Y-83046000D03*
D35*
X179819000Y-83858500D03*
X180319000Y-83858500D03*
X180819000Y-83858500D03*
X181319000Y-83858500D03*
X181819000Y-83858500D03*
X182319000Y-83858500D03*
X182819000Y-83858500D03*
X183319000Y-83858500D03*
X183819000Y-83858500D03*
X184319000Y-83858500D03*
D36*
X184381500Y-83046000D03*
X184381500Y-82546000D03*
X184381500Y-82046000D03*
X184381500Y-81546000D03*
D35*
X184319000Y-80733500D03*
X183819000Y-80733500D03*
X183319000Y-80733500D03*
X182819000Y-80733500D03*
X182319000Y-80733500D03*
X181819000Y-80733500D03*
X181319000Y-80733500D03*
X180819000Y-80733500D03*
X180319000Y-80733500D03*
D16*
X137312400Y-124866400D03*
D31*
X129500000Y-125625000D03*
D32*
X129500000Y-128165000D03*
D22*
X172593000Y-107540000D03*
X172593000Y-110490000D03*
D37*
X187750000Y-113358000D03*
X187750000Y-90358000D03*
X129750000Y-113358000D03*
X129750000Y-90358000D03*
D38*
X182880000Y-91628000D03*
D39*
X182880000Y-89088000D03*
X180340000Y-91628000D03*
X180340000Y-89088000D03*
X177800000Y-91628000D03*
X177800000Y-89088000D03*
X175260000Y-91628000D03*
X175260000Y-89088000D03*
X172720000Y-91628000D03*
X172720000Y-89088000D03*
X170180000Y-91628000D03*
X170180000Y-89088000D03*
X167640000Y-91628000D03*
X167640000Y-89088000D03*
X165100000Y-91628000D03*
X165100000Y-89088000D03*
X162560000Y-91628000D03*
X162560000Y-89088000D03*
X160020000Y-91628000D03*
X160020000Y-89088000D03*
X157480000Y-91628000D03*
X157480000Y-89088000D03*
X154940000Y-91628000D03*
X154940000Y-89088000D03*
X152400000Y-91628000D03*
X152400000Y-89088000D03*
X149860000Y-91628000D03*
X149860000Y-89088000D03*
X147320000Y-91628000D03*
X147320000Y-89088000D03*
X144780000Y-91628000D03*
X144780000Y-89088000D03*
X142240000Y-91628000D03*
X142240000Y-89088000D03*
X139700000Y-91628000D03*
X139700000Y-89088000D03*
X137160000Y-91628000D03*
X137160000Y-89088000D03*
X134620000Y-91628000D03*
X134620000Y-89088000D03*
D40*
X118237000Y-96637099D03*
D41*
X118237000Y-89187099D03*
D42*
X165735000Y-100076000D03*
X139065000Y-100076000D03*
D43*
X166497000Y-108458000D03*
D44*
X166497000Y-110998000D03*
M02*
