G04 EAGLE Gerber RS-274X export*
G75*
%MOMM*%
%FSLAX34Y34*%
%LPD*%
%INTop Copper*%
%IPPOS*%
%AMOC8*
5,1,8,0,0,1.08239X$1,22.5*%
G01*
%ADD10P,1.649562X8X22.500000*%
%ADD11R,1.800000X1.600000*%
%ADD12R,1.600000X1.800000*%
%ADD13R,1.803000X1.600000*%
%ADD14R,0.300000X0.525000*%
%ADD15R,0.425000X0.300000*%
%ADD16C,0.304800*%

G36*
X242906Y10164D02*
X242906Y10164D01*
X242925Y10162D01*
X243027Y10184D01*
X243129Y10200D01*
X243147Y10210D01*
X243166Y10214D01*
X243255Y10267D01*
X243347Y10316D01*
X243360Y10330D01*
X243377Y10340D01*
X243445Y10419D01*
X243516Y10494D01*
X243524Y10512D01*
X243537Y10527D01*
X243576Y10623D01*
X243620Y10717D01*
X243622Y10737D01*
X243629Y10755D01*
X243648Y10921D01*
X243831Y243077D01*
X243827Y243097D01*
X243830Y243117D01*
X243808Y243218D01*
X243791Y243320D01*
X243782Y243338D01*
X243777Y243358D01*
X243724Y243446D01*
X243676Y243538D01*
X243662Y243552D01*
X243651Y243569D01*
X243573Y243636D01*
X243498Y243707D01*
X243480Y243716D01*
X243464Y243729D01*
X243368Y243767D01*
X243275Y243811D01*
X243255Y243813D01*
X243236Y243821D01*
X243069Y243839D01*
X10922Y243839D01*
X10902Y243836D01*
X10883Y243838D01*
X10781Y243816D01*
X10679Y243800D01*
X10662Y243790D01*
X10642Y243786D01*
X10553Y243733D01*
X10462Y243684D01*
X10448Y243670D01*
X10431Y243660D01*
X10364Y243581D01*
X10292Y243506D01*
X10284Y243488D01*
X10271Y243473D01*
X10232Y243377D01*
X10189Y243283D01*
X10187Y243263D01*
X10179Y243245D01*
X10161Y243078D01*
X10161Y10922D01*
X10164Y10902D01*
X10162Y10883D01*
X10184Y10781D01*
X10200Y10679D01*
X10210Y10662D01*
X10214Y10642D01*
X10267Y10553D01*
X10316Y10462D01*
X10330Y10448D01*
X10340Y10431D01*
X10419Y10364D01*
X10494Y10292D01*
X10512Y10284D01*
X10527Y10271D01*
X10623Y10232D01*
X10717Y10189D01*
X10737Y10187D01*
X10755Y10179D01*
X10922Y10161D01*
X242887Y10161D01*
X242906Y10164D01*
G37*
%LPC*%
G36*
X122998Y23384D02*
X122998Y23384D01*
X121509Y24873D01*
X121509Y30099D01*
X121506Y30119D01*
X121508Y30138D01*
X121486Y30240D01*
X121470Y30342D01*
X121460Y30359D01*
X121456Y30379D01*
X121403Y30468D01*
X121354Y30559D01*
X121340Y30573D01*
X121330Y30590D01*
X121251Y30657D01*
X121176Y30729D01*
X121158Y30737D01*
X121143Y30750D01*
X121047Y30789D01*
X120953Y30832D01*
X120933Y30834D01*
X120915Y30842D01*
X120748Y30860D01*
X55466Y30860D01*
X34035Y52291D01*
X34035Y179880D01*
X34021Y179970D01*
X34013Y180061D01*
X34001Y180091D01*
X33996Y180123D01*
X33953Y180203D01*
X33917Y180287D01*
X33891Y180319D01*
X33880Y180340D01*
X33857Y180362D01*
X33812Y180418D01*
X27939Y186291D01*
X27939Y194709D01*
X33891Y200661D01*
X42309Y200661D01*
X48261Y194709D01*
X48261Y186022D01*
X48272Y185951D01*
X48274Y185879D01*
X48292Y185831D01*
X48300Y185779D01*
X48334Y185716D01*
X48359Y185648D01*
X48391Y185608D01*
X48416Y185562D01*
X48468Y185512D01*
X48512Y185456D01*
X48556Y185428D01*
X48594Y185392D01*
X48659Y185362D01*
X48719Y185323D01*
X48770Y185311D01*
X48817Y185289D01*
X48888Y185281D01*
X48958Y185263D01*
X49010Y185267D01*
X49061Y185262D01*
X49132Y185277D01*
X49203Y185283D01*
X49251Y185303D01*
X49302Y185314D01*
X49363Y185351D01*
X49429Y185379D01*
X49485Y185424D01*
X49513Y185440D01*
X49528Y185458D01*
X49560Y185484D01*
X53116Y189040D01*
X53169Y189114D01*
X53229Y189183D01*
X53241Y189213D01*
X53260Y189239D01*
X53287Y189327D01*
X53321Y189411D01*
X53325Y189452D01*
X53332Y189475D01*
X53331Y189507D01*
X53339Y189578D01*
X53339Y194709D01*
X59253Y200622D01*
X59265Y200639D01*
X59280Y200651D01*
X59336Y200738D01*
X59396Y200822D01*
X59402Y200841D01*
X59413Y200858D01*
X59438Y200958D01*
X59469Y201057D01*
X59468Y201077D01*
X59473Y201097D01*
X59465Y201200D01*
X59462Y201303D01*
X59455Y201322D01*
X59454Y201342D01*
X59435Y201386D01*
X59435Y205280D01*
X59421Y205370D01*
X59413Y205461D01*
X59401Y205491D01*
X59396Y205523D01*
X59353Y205603D01*
X59317Y205687D01*
X59291Y205719D01*
X59280Y205740D01*
X59257Y205762D01*
X59212Y205818D01*
X53339Y211691D01*
X53339Y220109D01*
X59291Y226061D01*
X67709Y226061D01*
X73661Y220109D01*
X73661Y211691D01*
X69518Y207548D01*
X69476Y207490D01*
X69426Y207438D01*
X69405Y207391D01*
X69374Y207349D01*
X69353Y207280D01*
X69323Y207215D01*
X69317Y207163D01*
X69302Y207113D01*
X69304Y207042D01*
X69296Y206971D01*
X69307Y206920D01*
X69308Y206868D01*
X69333Y206800D01*
X69348Y206730D01*
X69375Y206685D01*
X69393Y206637D01*
X69437Y206581D01*
X69474Y206519D01*
X69514Y206485D01*
X69546Y206445D01*
X69607Y206406D01*
X69661Y206359D01*
X69709Y206340D01*
X69753Y206312D01*
X69823Y206294D01*
X69889Y206267D01*
X69961Y206259D01*
X69992Y206251D01*
X70015Y206253D01*
X70056Y206249D01*
X82344Y206249D01*
X82415Y206260D01*
X82486Y206262D01*
X82535Y206280D01*
X82587Y206288D01*
X82650Y206322D01*
X82717Y206347D01*
X82758Y206379D01*
X82804Y206404D01*
X82854Y206456D01*
X82910Y206500D01*
X82938Y206544D01*
X82974Y206582D01*
X83004Y206647D01*
X83043Y206707D01*
X83055Y206758D01*
X83077Y206805D01*
X83085Y206876D01*
X83103Y206946D01*
X83099Y206998D01*
X83104Y207049D01*
X83089Y207120D01*
X83083Y207191D01*
X83063Y207239D01*
X83052Y207290D01*
X83015Y207351D01*
X82987Y207417D01*
X82942Y207473D01*
X82926Y207501D01*
X82908Y207516D01*
X82882Y207548D01*
X78739Y211691D01*
X78739Y220109D01*
X84691Y226061D01*
X93109Y226061D01*
X99061Y220109D01*
X99061Y211803D01*
X99075Y211713D01*
X99083Y211622D01*
X99095Y211592D01*
X99100Y211560D01*
X99143Y211480D01*
X99179Y211396D01*
X99205Y211364D01*
X99216Y211343D01*
X99239Y211321D01*
X99284Y211265D01*
X103061Y207488D01*
X103135Y207435D01*
X103204Y207375D01*
X103234Y207363D01*
X103260Y207344D01*
X103347Y207317D01*
X103432Y207283D01*
X103473Y207279D01*
X103496Y207272D01*
X103528Y207273D01*
X103599Y207265D01*
X106728Y207265D01*
X106799Y207276D01*
X106870Y207278D01*
X106919Y207296D01*
X106971Y207304D01*
X107034Y207338D01*
X107101Y207363D01*
X107142Y207395D01*
X107188Y207420D01*
X107238Y207472D01*
X107294Y207516D01*
X107322Y207560D01*
X107358Y207598D01*
X107388Y207663D01*
X107427Y207723D01*
X107439Y207774D01*
X107461Y207821D01*
X107469Y207892D01*
X107487Y207962D01*
X107483Y208014D01*
X107488Y208065D01*
X107473Y208136D01*
X107467Y208207D01*
X107447Y208255D01*
X107436Y208306D01*
X107399Y208367D01*
X107371Y208433D01*
X107326Y208489D01*
X107310Y208517D01*
X107292Y208532D01*
X107266Y208564D01*
X104139Y211691D01*
X104139Y220109D01*
X110091Y226061D01*
X118509Y226061D01*
X124461Y220109D01*
X124461Y211691D01*
X120459Y207690D01*
X120447Y207673D01*
X120432Y207661D01*
X120376Y207574D01*
X120315Y207490D01*
X120310Y207471D01*
X120299Y207454D01*
X120274Y207354D01*
X120243Y207255D01*
X120244Y207235D01*
X120239Y207216D01*
X120247Y207113D01*
X120249Y207009D01*
X120256Y206990D01*
X120258Y206970D01*
X120298Y206875D01*
X120334Y206778D01*
X120346Y206762D01*
X120354Y206744D01*
X120459Y206613D01*
X122411Y204661D01*
X130413Y196659D01*
X130429Y196647D01*
X130442Y196632D01*
X130529Y196576D01*
X130613Y196515D01*
X130632Y196510D01*
X130649Y196499D01*
X130749Y196474D01*
X130848Y196443D01*
X130868Y196444D01*
X130887Y196439D01*
X130990Y196447D01*
X131094Y196449D01*
X131113Y196456D01*
X131132Y196458D01*
X131227Y196498D01*
X131325Y196534D01*
X131340Y196546D01*
X131359Y196554D01*
X131490Y196659D01*
X135491Y200661D01*
X143909Y200661D01*
X149861Y194709D01*
X149861Y186291D01*
X143909Y180339D01*
X135491Y180339D01*
X132364Y183466D01*
X132306Y183508D01*
X132254Y183558D01*
X132207Y183579D01*
X132165Y183610D01*
X132096Y183631D01*
X132031Y183661D01*
X131979Y183667D01*
X131929Y183682D01*
X131858Y183680D01*
X131787Y183688D01*
X131736Y183677D01*
X131684Y183676D01*
X131616Y183651D01*
X131546Y183636D01*
X131501Y183609D01*
X131453Y183591D01*
X131397Y183547D01*
X131335Y183510D01*
X131301Y183470D01*
X131261Y183438D01*
X131222Y183377D01*
X131175Y183323D01*
X131156Y183275D01*
X131128Y183231D01*
X131110Y183161D01*
X131083Y183095D01*
X131075Y183023D01*
X131067Y182992D01*
X131069Y182969D01*
X131065Y182928D01*
X131065Y176116D01*
X116088Y161139D01*
X116035Y161065D01*
X115975Y160996D01*
X115963Y160966D01*
X115944Y160940D01*
X115917Y160853D01*
X115883Y160768D01*
X115879Y160727D01*
X115872Y160704D01*
X115873Y160672D01*
X115865Y160601D01*
X115865Y155194D01*
X115880Y155100D01*
X115889Y155005D01*
X115900Y154980D01*
X115904Y154952D01*
X115949Y154868D01*
X115987Y154780D01*
X116006Y154759D01*
X116020Y154734D01*
X116089Y154669D01*
X116153Y154598D01*
X116177Y154584D01*
X116198Y154565D01*
X116284Y154525D01*
X116368Y154478D01*
X116395Y154473D01*
X116421Y154461D01*
X116516Y154451D01*
X116610Y154433D01*
X116637Y154437D01*
X116665Y154434D01*
X116759Y154455D01*
X116853Y154468D01*
X116886Y154482D01*
X116906Y154487D01*
X116934Y154503D01*
X117007Y154535D01*
X117019Y154543D01*
X117666Y154716D01*
X125477Y154716D01*
X125477Y144937D01*
X125480Y144917D01*
X125478Y144898D01*
X125500Y144796D01*
X125517Y144694D01*
X125526Y144677D01*
X125530Y144657D01*
X125583Y144568D01*
X125632Y144477D01*
X125646Y144463D01*
X125656Y144446D01*
X125735Y144379D01*
X125810Y144308D01*
X125828Y144299D01*
X125843Y144286D01*
X125939Y144247D01*
X126033Y144204D01*
X126053Y144202D01*
X126071Y144194D01*
X126238Y144176D01*
X127001Y144176D01*
X127001Y144174D01*
X126238Y144174D01*
X126218Y144171D01*
X126199Y144173D01*
X126097Y144151D01*
X125995Y144134D01*
X125978Y144125D01*
X125958Y144121D01*
X125869Y144068D01*
X125778Y144019D01*
X125764Y144005D01*
X125747Y143995D01*
X125680Y143916D01*
X125609Y143841D01*
X125600Y143823D01*
X125587Y143808D01*
X125548Y143712D01*
X125505Y143618D01*
X125503Y143598D01*
X125495Y143580D01*
X125477Y143413D01*
X125477Y133634D01*
X117666Y133634D01*
X117019Y133807D01*
X117007Y133815D01*
X116918Y133848D01*
X116831Y133889D01*
X116803Y133892D01*
X116777Y133902D01*
X116681Y133905D01*
X116587Y133916D01*
X116559Y133910D01*
X116531Y133911D01*
X116439Y133884D01*
X116346Y133863D01*
X116322Y133849D01*
X116295Y133841D01*
X116217Y133786D01*
X116135Y133737D01*
X116117Y133716D01*
X116094Y133700D01*
X116037Y133623D01*
X115975Y133550D01*
X115965Y133524D01*
X115948Y133502D01*
X115919Y133411D01*
X115883Y133322D01*
X115879Y133287D01*
X115873Y133267D01*
X115873Y133234D01*
X115865Y133156D01*
X115865Y127471D01*
X115876Y127399D01*
X115879Y127326D01*
X115896Y127278D01*
X115904Y127228D01*
X115938Y127164D01*
X115964Y127096D01*
X115996Y127056D01*
X116020Y127011D01*
X116072Y126961D01*
X116118Y126904D01*
X116161Y126876D01*
X116198Y126841D01*
X116264Y126811D01*
X116325Y126771D01*
X116375Y126759D01*
X116421Y126738D01*
X116493Y126730D01*
X116564Y126712D01*
X116615Y126716D01*
X116665Y126710D01*
X116690Y126716D01*
X137052Y126716D01*
X138541Y125227D01*
X138541Y107123D01*
X137052Y105634D01*
X126626Y105634D01*
X126606Y105631D01*
X126587Y105633D01*
X126485Y105611D01*
X126383Y105595D01*
X126366Y105585D01*
X126346Y105581D01*
X126257Y105528D01*
X126166Y105479D01*
X126152Y105465D01*
X126135Y105455D01*
X126068Y105376D01*
X125996Y105301D01*
X125988Y105283D01*
X125975Y105268D01*
X125936Y105172D01*
X125893Y105078D01*
X125891Y105058D01*
X125883Y105040D01*
X125865Y104873D01*
X125865Y97752D01*
X125868Y97732D01*
X125866Y97713D01*
X125888Y97611D01*
X125904Y97509D01*
X125914Y97492D01*
X125918Y97472D01*
X125971Y97383D01*
X126020Y97292D01*
X126034Y97278D01*
X126044Y97261D01*
X126123Y97194D01*
X126198Y97122D01*
X126216Y97114D01*
X126231Y97101D01*
X126327Y97062D01*
X126421Y97019D01*
X126441Y97017D01*
X126459Y97009D01*
X126626Y96991D01*
X134473Y96991D01*
X134497Y96979D01*
X134552Y96973D01*
X134606Y96956D01*
X134674Y96958D01*
X134741Y96950D01*
X134819Y96962D01*
X134852Y96962D01*
X134872Y96970D01*
X134907Y96975D01*
X134966Y96991D01*
X136039Y96991D01*
X136039Y91825D01*
X136042Y91806D01*
X136040Y91786D01*
X136062Y91685D01*
X136078Y91583D01*
X136088Y91565D01*
X136092Y91546D01*
X136145Y91456D01*
X136193Y91365D01*
X136194Y91365D01*
X136208Y91351D01*
X136218Y91334D01*
X136219Y91334D01*
X136297Y91267D01*
X136372Y91195D01*
X136390Y91187D01*
X136405Y91174D01*
X136502Y91135D01*
X136595Y91092D01*
X136615Y91090D01*
X136634Y91082D01*
X136800Y91064D01*
X140841Y91064D01*
X140841Y88866D01*
X140649Y88151D01*
X140645Y88107D01*
X140631Y88065D01*
X140633Y87985D01*
X140625Y87906D01*
X140635Y87863D01*
X140635Y87819D01*
X140662Y87744D01*
X140680Y87666D01*
X140703Y87629D01*
X140717Y87587D01*
X140766Y87525D01*
X140808Y87456D01*
X140842Y87428D01*
X140869Y87394D01*
X140986Y87308D01*
X140997Y87299D01*
X141000Y87297D01*
X141004Y87294D01*
X141110Y87233D01*
X141583Y86760D01*
X141918Y86181D01*
X142091Y85534D01*
X142091Y84461D01*
X137425Y84461D01*
X132759Y84461D01*
X132759Y85534D01*
X132804Y85701D01*
X132816Y85820D01*
X132829Y85937D01*
X132828Y85942D01*
X132828Y85946D01*
X132802Y86062D01*
X132777Y86178D01*
X132774Y86181D01*
X132773Y86185D01*
X132711Y86287D01*
X132650Y86389D01*
X132647Y86392D01*
X132645Y86395D01*
X132554Y86472D01*
X132463Y86549D01*
X132460Y86550D01*
X132456Y86553D01*
X132346Y86596D01*
X132235Y86641D01*
X132230Y86641D01*
X132227Y86643D01*
X132214Y86643D01*
X132069Y86659D01*
X96602Y86659D01*
X96582Y86656D01*
X96563Y86658D01*
X96461Y86636D01*
X96359Y86620D01*
X96342Y86610D01*
X96322Y86606D01*
X96233Y86553D01*
X96142Y86504D01*
X96128Y86490D01*
X96111Y86480D01*
X96044Y86401D01*
X95972Y86326D01*
X95964Y86308D01*
X95951Y86293D01*
X95912Y86197D01*
X95869Y86103D01*
X95867Y86083D01*
X95859Y86065D01*
X95841Y85898D01*
X95841Y81027D01*
X95829Y81003D01*
X95823Y80948D01*
X95806Y80894D01*
X95808Y80826D01*
X95800Y80759D01*
X95812Y80681D01*
X95812Y80648D01*
X95820Y80628D01*
X95825Y80593D01*
X95841Y80534D01*
X95841Y79461D01*
X91175Y79461D01*
X86509Y79461D01*
X86509Y80534D01*
X86525Y80593D01*
X86532Y80661D01*
X86548Y80726D01*
X86544Y80782D01*
X86550Y80838D01*
X86534Y80904D01*
X86529Y80972D01*
X86509Y81018D01*
X86509Y86252D01*
X87544Y87287D01*
X87556Y87304D01*
X87572Y87317D01*
X87601Y87363D01*
X87618Y87380D01*
X87631Y87409D01*
X87687Y87486D01*
X87693Y87506D01*
X87704Y87524D01*
X87729Y87624D01*
X87759Y87722D01*
X87759Y87742D01*
X87764Y87762D01*
X87759Y87828D01*
X87759Y87832D01*
X87759Y95502D01*
X89248Y96991D01*
X91974Y96991D01*
X91994Y96994D01*
X92013Y96992D01*
X92115Y97014D01*
X92217Y97030D01*
X92234Y97040D01*
X92254Y97044D01*
X92343Y97097D01*
X92434Y97146D01*
X92448Y97160D01*
X92465Y97170D01*
X92532Y97249D01*
X92604Y97324D01*
X92612Y97342D01*
X92625Y97357D01*
X92664Y97453D01*
X92707Y97547D01*
X92709Y97567D01*
X92717Y97585D01*
X92735Y97752D01*
X92735Y111184D01*
X97312Y115761D01*
X97365Y115835D01*
X97425Y115904D01*
X97437Y115934D01*
X97456Y115960D01*
X97483Y116047D01*
X97517Y116132D01*
X97521Y116173D01*
X97528Y116196D01*
X97527Y116228D01*
X97535Y116299D01*
X97535Y182928D01*
X97524Y182999D01*
X97522Y183070D01*
X97504Y183119D01*
X97496Y183171D01*
X97462Y183234D01*
X97437Y183301D01*
X97405Y183342D01*
X97380Y183388D01*
X97329Y183437D01*
X97284Y183494D01*
X97240Y183522D01*
X97202Y183558D01*
X97137Y183588D01*
X97077Y183627D01*
X97026Y183639D01*
X96979Y183661D01*
X96908Y183669D01*
X96838Y183687D01*
X96786Y183683D01*
X96735Y183688D01*
X96664Y183673D01*
X96593Y183667D01*
X96545Y183647D01*
X96494Y183636D01*
X96433Y183599D01*
X96367Y183571D01*
X96311Y183526D01*
X96283Y183510D01*
X96268Y183492D01*
X96236Y183466D01*
X93188Y180418D01*
X93140Y180351D01*
X93136Y180348D01*
X93134Y180344D01*
X93075Y180275D01*
X93063Y180245D01*
X93044Y180219D01*
X93017Y180132D01*
X92983Y180047D01*
X92979Y180006D01*
X92972Y179983D01*
X92973Y179951D01*
X92965Y179880D01*
X92965Y176116D01*
X84234Y167385D01*
X62324Y167385D01*
X62234Y167371D01*
X62143Y167363D01*
X62113Y167351D01*
X62081Y167346D01*
X62001Y167303D01*
X61917Y167267D01*
X61885Y167241D01*
X61864Y167230D01*
X61842Y167207D01*
X61786Y167162D01*
X58263Y163639D01*
X58210Y163565D01*
X58150Y163496D01*
X58138Y163466D01*
X58119Y163440D01*
X58092Y163353D01*
X58058Y163268D01*
X58054Y163227D01*
X58047Y163204D01*
X58048Y163172D01*
X58040Y163101D01*
X58040Y105624D01*
X58054Y105534D01*
X58062Y105443D01*
X58074Y105413D01*
X58079Y105381D01*
X58122Y105301D01*
X58158Y105217D01*
X58184Y105185D01*
X58195Y105164D01*
X58218Y105142D01*
X58263Y105086D01*
X85210Y78139D01*
X85268Y78097D01*
X85320Y78047D01*
X85367Y78025D01*
X85409Y77995D01*
X85478Y77974D01*
X85543Y77944D01*
X85595Y77938D01*
X85645Y77923D01*
X85716Y77925D01*
X85787Y77917D01*
X85838Y77928D01*
X85890Y77929D01*
X85916Y77939D01*
X90414Y77939D01*
X90414Y73700D01*
X90417Y73681D01*
X90415Y73661D01*
X90437Y73560D01*
X90453Y73458D01*
X90463Y73440D01*
X90467Y73421D01*
X90520Y73331D01*
X90568Y73240D01*
X90569Y73240D01*
X90583Y73226D01*
X90593Y73209D01*
X90594Y73209D01*
X90672Y73142D01*
X90747Y73070D01*
X90765Y73062D01*
X90780Y73049D01*
X90877Y73010D01*
X90970Y72967D01*
X90990Y72965D01*
X91009Y72957D01*
X91175Y72939D01*
X95841Y72939D01*
X95841Y71866D01*
X95825Y71807D01*
X95818Y71739D01*
X95802Y71674D01*
X95806Y71618D01*
X95800Y71562D01*
X95816Y71496D01*
X95821Y71428D01*
X95841Y71382D01*
X95841Y66502D01*
X95844Y66482D01*
X95842Y66463D01*
X95864Y66361D01*
X95880Y66259D01*
X95890Y66242D01*
X95894Y66222D01*
X95947Y66133D01*
X95996Y66042D01*
X96010Y66028D01*
X96020Y66011D01*
X96099Y65944D01*
X96174Y65872D01*
X96192Y65864D01*
X96207Y65851D01*
X96303Y65812D01*
X96397Y65769D01*
X96417Y65767D01*
X96435Y65759D01*
X96602Y65741D01*
X114473Y65741D01*
X114497Y65729D01*
X114552Y65723D01*
X114606Y65706D01*
X114674Y65708D01*
X114741Y65700D01*
X114819Y65712D01*
X114852Y65712D01*
X114872Y65720D01*
X114907Y65725D01*
X114966Y65741D01*
X116039Y65741D01*
X116039Y60575D01*
X116039Y55409D01*
X114966Y55409D01*
X114907Y55425D01*
X114839Y55432D01*
X114774Y55448D01*
X114718Y55444D01*
X114662Y55450D01*
X114596Y55434D01*
X114528Y55429D01*
X114482Y55409D01*
X89248Y55409D01*
X88370Y56287D01*
X88296Y56340D01*
X88226Y56400D01*
X88196Y56412D01*
X88170Y56431D01*
X88083Y56458D01*
X87998Y56492D01*
X87957Y56496D01*
X87935Y56503D01*
X87903Y56502D01*
X87831Y56510D01*
X80616Y56510D01*
X46164Y90962D01*
X43464Y93662D01*
X43406Y93704D01*
X43354Y93754D01*
X43307Y93776D01*
X43265Y93806D01*
X43196Y93827D01*
X43131Y93857D01*
X43079Y93863D01*
X43029Y93878D01*
X42958Y93876D01*
X42887Y93884D01*
X42836Y93873D01*
X42784Y93872D01*
X42716Y93847D01*
X42646Y93832D01*
X42601Y93805D01*
X42553Y93787D01*
X42497Y93743D01*
X42435Y93706D01*
X42401Y93666D01*
X42361Y93634D01*
X42322Y93573D01*
X42275Y93519D01*
X42256Y93471D01*
X42228Y93427D01*
X42210Y93357D01*
X42183Y93291D01*
X42175Y93219D01*
X42167Y93188D01*
X42169Y93165D01*
X42165Y93124D01*
X42165Y55974D01*
X42179Y55884D01*
X42187Y55793D01*
X42199Y55763D01*
X42204Y55731D01*
X42247Y55651D01*
X42283Y55567D01*
X42309Y55535D01*
X42320Y55514D01*
X42343Y55492D01*
X42388Y55436D01*
X58611Y39213D01*
X58685Y39160D01*
X58754Y39100D01*
X58784Y39088D01*
X58810Y39069D01*
X58897Y39042D01*
X58982Y39008D01*
X59023Y39004D01*
X59046Y38997D01*
X59078Y38998D01*
X59149Y38990D01*
X120748Y38990D01*
X120768Y38993D01*
X120787Y38991D01*
X120889Y39013D01*
X120991Y39029D01*
X121008Y39039D01*
X121028Y39043D01*
X121117Y39096D01*
X121208Y39145D01*
X121222Y39159D01*
X121239Y39169D01*
X121306Y39248D01*
X121378Y39323D01*
X121386Y39341D01*
X121399Y39356D01*
X121438Y39452D01*
X121481Y39546D01*
X121483Y39566D01*
X121491Y39584D01*
X121509Y39751D01*
X121509Y44977D01*
X122998Y46466D01*
X127224Y46466D01*
X127244Y46469D01*
X127263Y46467D01*
X127365Y46489D01*
X127467Y46505D01*
X127484Y46515D01*
X127504Y46519D01*
X127593Y46572D01*
X127684Y46621D01*
X127698Y46635D01*
X127715Y46645D01*
X127782Y46724D01*
X127854Y46799D01*
X127862Y46817D01*
X127875Y46832D01*
X127914Y46928D01*
X127957Y47022D01*
X127959Y47042D01*
X127967Y47060D01*
X127985Y47227D01*
X127985Y54648D01*
X127982Y54668D01*
X127984Y54687D01*
X127962Y54789D01*
X127946Y54891D01*
X127936Y54908D01*
X127932Y54928D01*
X127879Y55017D01*
X127830Y55108D01*
X127816Y55122D01*
X127806Y55139D01*
X127727Y55206D01*
X127652Y55278D01*
X127634Y55286D01*
X127619Y55299D01*
X127523Y55338D01*
X127429Y55381D01*
X127409Y55383D01*
X127391Y55391D01*
X127224Y55409D01*
X119127Y55409D01*
X119103Y55421D01*
X119048Y55427D01*
X118994Y55444D01*
X118926Y55442D01*
X118859Y55450D01*
X118781Y55438D01*
X118748Y55438D01*
X118728Y55430D01*
X118693Y55425D01*
X118634Y55409D01*
X117561Y55409D01*
X117561Y60575D01*
X117561Y65741D01*
X118634Y65741D01*
X118693Y65725D01*
X118761Y65718D01*
X118826Y65702D01*
X118882Y65706D01*
X118938Y65700D01*
X119004Y65716D01*
X119072Y65721D01*
X119118Y65741D01*
X126974Y65741D01*
X126994Y65744D01*
X127013Y65742D01*
X127115Y65764D01*
X127217Y65780D01*
X127234Y65790D01*
X127254Y65794D01*
X127343Y65847D01*
X127434Y65896D01*
X127448Y65910D01*
X127465Y65920D01*
X127532Y65999D01*
X127604Y66074D01*
X127612Y66092D01*
X127625Y66107D01*
X127664Y66203D01*
X127707Y66297D01*
X127709Y66317D01*
X127717Y66335D01*
X127735Y66502D01*
X127735Y73159D01*
X132536Y77960D01*
X132589Y78034D01*
X132649Y78103D01*
X132661Y78133D01*
X132680Y78159D01*
X132707Y78246D01*
X132741Y78331D01*
X132745Y78372D01*
X132752Y78395D01*
X132751Y78427D01*
X132759Y78498D01*
X132759Y81373D01*
X132771Y81397D01*
X132777Y81452D01*
X132794Y81506D01*
X132792Y81574D01*
X132800Y81641D01*
X132788Y81719D01*
X132788Y81752D01*
X132780Y81772D01*
X132775Y81807D01*
X132759Y81866D01*
X132759Y82939D01*
X137425Y82939D01*
X142380Y82939D01*
X142424Y82896D01*
X142442Y82888D01*
X142457Y82875D01*
X142553Y82836D01*
X142647Y82793D01*
X142667Y82791D01*
X142685Y82783D01*
X142852Y82765D01*
X146448Y82765D01*
X146468Y82768D01*
X146487Y82766D01*
X146589Y82788D01*
X146691Y82804D01*
X146708Y82814D01*
X146728Y82818D01*
X146817Y82871D01*
X146908Y82920D01*
X146922Y82934D01*
X146939Y82944D01*
X147006Y83023D01*
X147078Y83098D01*
X147086Y83116D01*
X147099Y83131D01*
X147138Y83227D01*
X147181Y83321D01*
X147183Y83341D01*
X147191Y83359D01*
X147209Y83526D01*
X147209Y88677D01*
X157988Y88677D01*
X158008Y88680D01*
X158027Y88678D01*
X158129Y88700D01*
X158231Y88717D01*
X158248Y88726D01*
X158268Y88730D01*
X158357Y88783D01*
X158448Y88832D01*
X158462Y88846D01*
X158479Y88856D01*
X158546Y88935D01*
X158617Y89010D01*
X158626Y89028D01*
X158639Y89043D01*
X158678Y89139D01*
X158721Y89233D01*
X158723Y89253D01*
X158731Y89271D01*
X158749Y89438D01*
X158749Y90201D01*
X158751Y90201D01*
X158751Y89438D01*
X158754Y89418D01*
X158752Y89399D01*
X158774Y89297D01*
X158791Y89195D01*
X158800Y89178D01*
X158804Y89158D01*
X158857Y89069D01*
X158906Y88978D01*
X158920Y88964D01*
X158930Y88947D01*
X159009Y88880D01*
X159084Y88809D01*
X159102Y88800D01*
X159117Y88787D01*
X159213Y88748D01*
X159307Y88705D01*
X159327Y88703D01*
X159345Y88695D01*
X159512Y88677D01*
X170291Y88677D01*
X170291Y83526D01*
X170294Y83506D01*
X170292Y83487D01*
X170314Y83385D01*
X170330Y83283D01*
X170340Y83266D01*
X170344Y83246D01*
X170397Y83157D01*
X170446Y83066D01*
X170460Y83052D01*
X170470Y83035D01*
X170549Y82968D01*
X170624Y82896D01*
X170642Y82888D01*
X170657Y82875D01*
X170753Y82836D01*
X170847Y82793D01*
X170867Y82791D01*
X170885Y82783D01*
X171052Y82765D01*
X189481Y82765D01*
X189571Y82779D01*
X189662Y82787D01*
X189692Y82799D01*
X189724Y82804D01*
X189804Y82847D01*
X189888Y82883D01*
X189921Y82909D01*
X189941Y82920D01*
X189963Y82943D01*
X190019Y82988D01*
X191421Y84390D01*
X191474Y84464D01*
X191534Y84533D01*
X191546Y84563D01*
X191565Y84589D01*
X191592Y84676D01*
X191626Y84761D01*
X191630Y84802D01*
X191637Y84824D01*
X191636Y84857D01*
X191644Y84928D01*
X191644Y99472D01*
X193133Y100961D01*
X213267Y100961D01*
X214756Y99472D01*
X214756Y81368D01*
X213267Y79879D01*
X198723Y79879D01*
X198633Y79865D01*
X198542Y79857D01*
X198512Y79845D01*
X198480Y79840D01*
X198400Y79797D01*
X198316Y79761D01*
X198284Y79735D01*
X198263Y79724D01*
X198241Y79701D01*
X198185Y79656D01*
X193164Y74635D01*
X153901Y74635D01*
X153830Y74624D01*
X153758Y74622D01*
X153709Y74604D01*
X153658Y74596D01*
X153595Y74562D01*
X153527Y74537D01*
X153487Y74505D01*
X153441Y74480D01*
X153391Y74429D01*
X153335Y74384D01*
X153307Y74340D01*
X153271Y74302D01*
X153241Y74237D01*
X153202Y74177D01*
X153190Y74126D01*
X153168Y74079D01*
X153160Y74008D01*
X153142Y73938D01*
X153146Y73886D01*
X153141Y73835D01*
X153156Y73764D01*
X153162Y73693D01*
X153182Y73645D01*
X153193Y73594D01*
X153230Y73533D01*
X153258Y73467D01*
X153303Y73411D01*
X153319Y73383D01*
X153337Y73368D01*
X153363Y73336D01*
X153735Y72964D01*
X153809Y72910D01*
X153878Y72851D01*
X153908Y72839D01*
X153934Y72820D01*
X154022Y72793D01*
X154106Y72759D01*
X154147Y72755D01*
X154170Y72748D01*
X154202Y72749D01*
X154273Y72741D01*
X168802Y72741D01*
X170291Y71252D01*
X170291Y66806D01*
X170294Y66786D01*
X170292Y66767D01*
X170314Y66665D01*
X170330Y66563D01*
X170340Y66546D01*
X170344Y66526D01*
X170397Y66437D01*
X170446Y66346D01*
X170460Y66332D01*
X170470Y66315D01*
X170549Y66248D01*
X170624Y66176D01*
X170642Y66168D01*
X170657Y66155D01*
X170753Y66116D01*
X170847Y66073D01*
X170867Y66071D01*
X170885Y66063D01*
X171052Y66045D01*
X190883Y66045D01*
X190903Y66048D01*
X190922Y66046D01*
X191024Y66068D01*
X191126Y66084D01*
X191143Y66094D01*
X191163Y66098D01*
X191252Y66151D01*
X191343Y66200D01*
X191357Y66214D01*
X191374Y66224D01*
X191441Y66303D01*
X191513Y66378D01*
X191521Y66396D01*
X191534Y66411D01*
X191573Y66507D01*
X191616Y66601D01*
X191618Y66621D01*
X191626Y66639D01*
X191644Y66806D01*
X191644Y71032D01*
X193133Y72521D01*
X213267Y72521D01*
X214756Y71032D01*
X214756Y52928D01*
X213267Y51439D01*
X193133Y51439D01*
X191644Y52928D01*
X191644Y57154D01*
X191641Y57174D01*
X191643Y57193D01*
X191621Y57295D01*
X191605Y57397D01*
X191595Y57414D01*
X191591Y57434D01*
X191538Y57523D01*
X191489Y57614D01*
X191475Y57628D01*
X191465Y57645D01*
X191386Y57712D01*
X191311Y57784D01*
X191293Y57792D01*
X191278Y57805D01*
X191182Y57844D01*
X191088Y57887D01*
X191068Y57889D01*
X191050Y57897D01*
X190883Y57915D01*
X171052Y57915D01*
X171032Y57912D01*
X171013Y57914D01*
X170911Y57892D01*
X170809Y57876D01*
X170792Y57866D01*
X170772Y57862D01*
X170683Y57809D01*
X170592Y57760D01*
X170578Y57746D01*
X170561Y57736D01*
X170494Y57657D01*
X170422Y57582D01*
X170414Y57564D01*
X170401Y57549D01*
X170362Y57453D01*
X170319Y57359D01*
X170317Y57339D01*
X170309Y57321D01*
X170291Y57154D01*
X170291Y53148D01*
X168802Y51659D01*
X148698Y51659D01*
X147209Y53148D01*
X147209Y67677D01*
X147195Y67767D01*
X147187Y67858D01*
X147175Y67888D01*
X147170Y67920D01*
X147127Y68000D01*
X147091Y68084D01*
X147065Y68116D01*
X147054Y68137D01*
X147031Y68159D01*
X146986Y68215D01*
X145789Y69412D01*
X145715Y69465D01*
X145646Y69525D01*
X145616Y69537D01*
X145590Y69556D01*
X145503Y69583D01*
X145418Y69617D01*
X145377Y69621D01*
X145354Y69628D01*
X145322Y69627D01*
X145251Y69635D01*
X142852Y69635D01*
X142832Y69632D01*
X142813Y69634D01*
X142711Y69612D01*
X142609Y69596D01*
X142592Y69586D01*
X142572Y69582D01*
X142483Y69529D01*
X142392Y69480D01*
X142378Y69466D01*
X142370Y69461D01*
X137425Y69461D01*
X137406Y69458D01*
X137386Y69460D01*
X137285Y69438D01*
X137183Y69422D01*
X137165Y69412D01*
X137146Y69408D01*
X137056Y69355D01*
X136965Y69307D01*
X136952Y69292D01*
X136934Y69282D01*
X136867Y69203D01*
X136796Y69128D01*
X136787Y69110D01*
X136774Y69095D01*
X136736Y68999D01*
X136692Y68905D01*
X136690Y68885D01*
X136683Y68867D01*
X136664Y68700D01*
X136667Y68680D01*
X136665Y68661D01*
X136665Y68660D01*
X136687Y68559D01*
X136704Y68457D01*
X136713Y68440D01*
X136717Y68420D01*
X136771Y68331D01*
X136819Y68240D01*
X136833Y68226D01*
X136844Y68209D01*
X136922Y68142D01*
X136997Y68070D01*
X137015Y68062D01*
X137030Y68049D01*
X137127Y68010D01*
X137220Y67967D01*
X137240Y67965D01*
X137259Y67957D01*
X137425Y67939D01*
X142091Y67939D01*
X142091Y66866D01*
X141918Y66219D01*
X141583Y65640D01*
X141056Y65113D01*
X141044Y65096D01*
X141028Y65083D01*
X140973Y64997D01*
X140913Y64914D01*
X140907Y64894D01*
X140896Y64876D01*
X140871Y64776D01*
X140841Y64678D01*
X140841Y64658D01*
X140836Y64638D01*
X140841Y64572D01*
X140841Y64568D01*
X140841Y56898D01*
X139352Y55409D01*
X136876Y55409D01*
X136856Y55406D01*
X136837Y55408D01*
X136735Y55386D01*
X136633Y55370D01*
X136616Y55360D01*
X136596Y55356D01*
X136507Y55303D01*
X136416Y55254D01*
X136402Y55240D01*
X136385Y55230D01*
X136318Y55151D01*
X136246Y55076D01*
X136238Y55058D01*
X136225Y55043D01*
X136186Y54947D01*
X136143Y54853D01*
X136141Y54833D01*
X136133Y54815D01*
X136115Y54648D01*
X136115Y47227D01*
X136118Y47207D01*
X136116Y47188D01*
X136138Y47086D01*
X136154Y46984D01*
X136164Y46967D01*
X136168Y46947D01*
X136221Y46858D01*
X136270Y46767D01*
X136284Y46753D01*
X136294Y46736D01*
X136373Y46669D01*
X136448Y46597D01*
X136466Y46589D01*
X136481Y46576D01*
X136577Y46537D01*
X136671Y46494D01*
X136691Y46492D01*
X136709Y46484D01*
X136876Y46466D01*
X141102Y46466D01*
X142591Y44977D01*
X142591Y24873D01*
X141102Y23384D01*
X122998Y23384D01*
G37*
%LPD*%
%LPC*%
G36*
X186291Y205739D02*
X186291Y205739D01*
X180339Y211691D01*
X180339Y220109D01*
X186291Y226061D01*
X194709Y226061D01*
X200661Y220109D01*
X200661Y211691D01*
X194709Y205739D01*
X186291Y205739D01*
G37*
%LPD*%
%LPC*%
G36*
X160891Y205739D02*
X160891Y205739D01*
X154939Y211691D01*
X154939Y220109D01*
X160891Y226061D01*
X169309Y226061D01*
X175261Y220109D01*
X175261Y211691D01*
X169309Y205739D01*
X160891Y205739D01*
G37*
%LPD*%
%LPC*%
G36*
X211691Y205739D02*
X211691Y205739D01*
X205739Y211691D01*
X205739Y220109D01*
X211691Y226061D01*
X220109Y226061D01*
X226061Y220109D01*
X226061Y211691D01*
X220109Y205739D01*
X211691Y205739D01*
G37*
%LPD*%
%LPC*%
G36*
X135491Y205739D02*
X135491Y205739D01*
X129539Y211691D01*
X129539Y220109D01*
X135491Y226061D01*
X143909Y226061D01*
X149861Y220109D01*
X149861Y211691D01*
X143909Y205739D01*
X135491Y205739D01*
G37*
%LPD*%
%LPC*%
G36*
X33891Y205739D02*
X33891Y205739D01*
X27939Y211691D01*
X27939Y220109D01*
X33891Y226061D01*
X42309Y226061D01*
X48261Y220109D01*
X48261Y211691D01*
X42309Y205739D01*
X33891Y205739D01*
G37*
%LPD*%
%LPC*%
G36*
X211691Y180339D02*
X211691Y180339D01*
X205739Y186291D01*
X205739Y194709D01*
X211691Y200661D01*
X220109Y200661D01*
X226061Y194709D01*
X226061Y186291D01*
X220109Y180339D01*
X211691Y180339D01*
G37*
%LPD*%
%LPC*%
G36*
X186291Y180339D02*
X186291Y180339D01*
X180339Y186291D01*
X180339Y194709D01*
X186291Y200661D01*
X194709Y200661D01*
X200661Y194709D01*
X200661Y186291D01*
X194709Y180339D01*
X186291Y180339D01*
G37*
%LPD*%
%LPC*%
G36*
X161573Y36448D02*
X161573Y36448D01*
X161573Y46466D01*
X168384Y46466D01*
X169031Y46293D01*
X169610Y45958D01*
X170083Y45485D01*
X170418Y44906D01*
X170591Y44259D01*
X170591Y36448D01*
X161573Y36448D01*
G37*
%LPD*%
%LPC*%
G36*
X128523Y145698D02*
X128523Y145698D01*
X128523Y154716D01*
X136334Y154716D01*
X136981Y154543D01*
X137560Y154208D01*
X138033Y153735D01*
X138368Y153156D01*
X138541Y152509D01*
X138541Y145698D01*
X128523Y145698D01*
G37*
%LPD*%
%LPC*%
G36*
X160273Y91723D02*
X160273Y91723D01*
X160273Y100741D01*
X168084Y100741D01*
X168731Y100568D01*
X169310Y100233D01*
X169783Y99760D01*
X170118Y99181D01*
X170291Y98534D01*
X170291Y91723D01*
X160273Y91723D01*
G37*
%LPD*%
%LPC*%
G36*
X128523Y142652D02*
X128523Y142652D01*
X138541Y142652D01*
X138541Y135841D01*
X138368Y135194D01*
X138033Y134615D01*
X137560Y134142D01*
X136981Y133807D01*
X136334Y133634D01*
X128523Y133634D01*
X128523Y142652D01*
G37*
%LPD*%
%LPC*%
G36*
X147209Y91723D02*
X147209Y91723D01*
X147209Y98534D01*
X147382Y99181D01*
X147717Y99760D01*
X148190Y100233D01*
X148769Y100568D01*
X149416Y100741D01*
X157227Y100741D01*
X157227Y91723D01*
X147209Y91723D01*
G37*
%LPD*%
%LPC*%
G36*
X149509Y36448D02*
X149509Y36448D01*
X149509Y44259D01*
X149682Y44906D01*
X150017Y45485D01*
X150490Y45958D01*
X151069Y46293D01*
X151716Y46466D01*
X158527Y46466D01*
X158527Y36448D01*
X149509Y36448D01*
G37*
%LPD*%
%LPC*%
G36*
X161573Y23384D02*
X161573Y23384D01*
X161573Y33402D01*
X170591Y33402D01*
X170591Y25591D01*
X170418Y24944D01*
X170083Y24365D01*
X169610Y23892D01*
X169031Y23557D01*
X168384Y23384D01*
X161573Y23384D01*
G37*
%LPD*%
%LPC*%
G36*
X151716Y23384D02*
X151716Y23384D01*
X151069Y23557D01*
X150490Y23892D01*
X150017Y24365D01*
X149682Y24944D01*
X149509Y25591D01*
X149509Y33402D01*
X158527Y33402D01*
X158527Y23384D01*
X151716Y23384D01*
G37*
%LPD*%
%LPC*%
G36*
X166623Y192023D02*
X166623Y192023D01*
X166623Y200661D01*
X169309Y200661D01*
X175261Y194709D01*
X175261Y192023D01*
X166623Y192023D01*
G37*
%LPD*%
%LPC*%
G36*
X154939Y192023D02*
X154939Y192023D01*
X154939Y194709D01*
X160891Y200661D01*
X163577Y200661D01*
X163577Y192023D01*
X154939Y192023D01*
G37*
%LPD*%
%LPC*%
G36*
X166623Y180339D02*
X166623Y180339D01*
X166623Y188977D01*
X175261Y188977D01*
X175261Y186291D01*
X169309Y180339D01*
X166623Y180339D01*
G37*
%LPD*%
%LPC*%
G36*
X160891Y180339D02*
X160891Y180339D01*
X154939Y186291D01*
X154939Y188977D01*
X163577Y188977D01*
X163577Y180339D01*
X160891Y180339D01*
G37*
%LPD*%
%LPC*%
G36*
X91936Y74461D02*
X91936Y74461D01*
X91936Y77939D01*
X95841Y77939D01*
X95841Y76865D01*
X95715Y76397D01*
X95704Y76283D01*
X95690Y76169D01*
X95691Y76159D01*
X95691Y76152D01*
X95696Y76131D01*
X95715Y76003D01*
X95841Y75534D01*
X95841Y74461D01*
X91936Y74461D01*
G37*
%LPD*%
%LPC*%
G36*
X137561Y92586D02*
X137561Y92586D01*
X137561Y96991D01*
X138634Y96991D01*
X139281Y96818D01*
X139860Y96483D01*
X140333Y96010D01*
X140668Y95431D01*
X140841Y94784D01*
X140841Y92586D01*
X137561Y92586D01*
G37*
%LPD*%
%LPC*%
G36*
X165099Y190499D02*
X165099Y190499D01*
X165099Y190501D01*
X165101Y190501D01*
X165101Y190499D01*
X165099Y190499D01*
G37*
%LPD*%
%LPC*%
G36*
X160049Y34924D02*
X160049Y34924D01*
X160049Y34926D01*
X160051Y34926D01*
X160051Y34924D01*
X160049Y34924D01*
G37*
%LPD*%
D10*
X38100Y190500D03*
X63500Y190500D03*
X88900Y190500D03*
X114300Y190500D03*
X139700Y190500D03*
X165100Y190500D03*
X38100Y215900D03*
X63500Y215900D03*
X88900Y215900D03*
X114300Y215900D03*
X139700Y215900D03*
X165100Y215900D03*
X190500Y190500D03*
X215900Y190500D03*
X190500Y215900D03*
X215900Y215900D03*
D11*
X158750Y62200D03*
X158750Y90200D03*
X127000Y116175D03*
X127000Y144175D03*
D12*
X132050Y34925D03*
X160050Y34925D03*
D13*
X203200Y61980D03*
X203200Y90420D03*
D14*
X136800Y60575D03*
D15*
X137425Y68700D03*
X137425Y73700D03*
X137425Y78700D03*
X137425Y83700D03*
D14*
X136800Y91825D03*
X131800Y91825D03*
X126800Y91825D03*
X121800Y91825D03*
X116800Y91825D03*
X111800Y91825D03*
X106800Y91825D03*
X101800Y91825D03*
X96800Y91825D03*
X91800Y91825D03*
D15*
X91175Y83700D03*
X91175Y78700D03*
X91175Y73700D03*
X91175Y68700D03*
D14*
X91800Y60575D03*
X96800Y60575D03*
X101800Y60575D03*
X106800Y60575D03*
X111800Y60575D03*
X116800Y60575D03*
X121800Y60575D03*
X126800Y60575D03*
X131800Y60575D03*
D16*
X137425Y73700D02*
X147250Y73700D01*
X158750Y62200D01*
X158970Y61980D02*
X203200Y61980D01*
X158970Y61980D02*
X158750Y62200D01*
X132050Y60325D02*
X131800Y60575D01*
X132050Y60325D02*
X132050Y34925D01*
X57150Y34925D01*
X38100Y53975D01*
X38100Y190500D01*
X134025Y73700D02*
X137425Y73700D01*
X131800Y71475D02*
X131800Y60575D01*
X131800Y71475D02*
X134025Y73700D01*
X121800Y110975D02*
X127000Y116175D01*
X121800Y110975D02*
X121800Y91825D01*
X137425Y78700D02*
X191480Y78700D01*
X203200Y90420D01*
X60325Y190500D02*
X47625Y177800D01*
X60325Y190500D02*
X63500Y190500D01*
X47625Y95250D02*
X82300Y60575D01*
X91236Y60575D01*
X47625Y95250D02*
X47625Y177800D01*
X88900Y68700D02*
X91175Y68700D01*
X88900Y68700D02*
X53975Y103625D01*
X88900Y177800D02*
X88900Y190500D01*
X53975Y165100D02*
X53975Y103625D01*
X53975Y165100D02*
X60325Y171450D01*
X82550Y171450D02*
X88900Y177800D01*
X82550Y171450D02*
X60325Y171450D01*
X96800Y109500D02*
X96800Y91825D01*
X96800Y109500D02*
X101600Y114300D01*
X64516Y202184D02*
X63500Y203200D01*
X101600Y194324D02*
X101600Y114300D01*
X101600Y194324D02*
X93740Y202184D01*
X64516Y202184D01*
X63500Y203200D02*
X63500Y215900D01*
X111800Y162600D02*
X111800Y91825D01*
X111800Y162600D02*
X127000Y177800D01*
X101600Y203200D02*
X88900Y215900D01*
X127000Y194324D02*
X127000Y177800D01*
X127000Y194324D02*
X118124Y203200D01*
X101600Y203200D01*
M02*
