G04 EAGLE Gerber RS-274X export*
G75*
%MOMM*%
%FSLAX34Y34*%
%LPD*%
%INSilkscreen Top*%
%IPPOS*%
%AMOC8*
5,1,8,0,0,1.08239X$1,22.5*%
G01*
%ADD10C,0.152400*%
%ADD11C,0.127000*%
%ADD12C,0.101600*%
%ADD13C,0.304800*%


D10*
X31750Y228600D02*
X44450Y228600D01*
X50800Y222250D01*
X57150Y228600D01*
X69850Y228600D01*
X76200Y222250D01*
X31750Y228600D02*
X25400Y222250D01*
X76200Y222250D02*
X82550Y228600D01*
X95250Y228600D01*
X101600Y222250D01*
X107950Y228600D02*
X120650Y228600D01*
X127000Y222250D01*
X133350Y228600D01*
X146050Y228600D01*
X152400Y222250D01*
X107950Y228600D02*
X101600Y222250D01*
X152400Y222250D02*
X158750Y228600D01*
X171450Y228600D01*
X177800Y222250D01*
X50800Y184150D02*
X44450Y177800D01*
X69850Y177800D02*
X76200Y184150D01*
X69850Y177800D02*
X57150Y177800D01*
X50800Y184150D01*
X25400Y184150D02*
X25400Y222250D01*
X25400Y184150D02*
X31750Y177800D01*
X44450Y177800D01*
X95250Y177800D02*
X101600Y184150D01*
X95250Y177800D02*
X82550Y177800D01*
X76200Y184150D01*
X120650Y177800D02*
X127000Y184150D01*
X146050Y177800D02*
X152400Y184150D01*
X146050Y177800D02*
X133350Y177800D01*
X127000Y184150D01*
X107950Y177800D02*
X101600Y184150D01*
X107950Y177800D02*
X120650Y177800D01*
X171450Y177800D02*
X177800Y184150D01*
X171450Y177800D02*
X158750Y177800D01*
X152400Y184150D01*
X184150Y228600D02*
X196850Y228600D01*
X203200Y222250D01*
X209550Y228600D01*
X222250Y228600D01*
X228600Y222250D01*
X184150Y228600D02*
X177800Y222250D01*
X228600Y222250D02*
X228600Y184150D01*
X203200Y184150D02*
X196850Y177800D01*
X222250Y177800D02*
X228600Y184150D01*
X222250Y177800D02*
X209550Y177800D01*
X203200Y184150D01*
X184150Y177800D02*
X177800Y184150D01*
X184150Y177800D02*
X196850Y177800D01*
D11*
X36830Y173355D02*
X33655Y170815D01*
X36830Y173355D02*
X36830Y161925D01*
X33655Y161925D02*
X40005Y161925D01*
X203835Y241935D02*
X207010Y244475D01*
X207010Y233045D01*
X203835Y233045D02*
X210185Y233045D01*
X215265Y239395D02*
X219075Y239395D01*
X219175Y239393D01*
X219274Y239387D01*
X219374Y239377D01*
X219472Y239364D01*
X219571Y239346D01*
X219668Y239325D01*
X219764Y239300D01*
X219860Y239271D01*
X219954Y239238D01*
X220047Y239202D01*
X220138Y239162D01*
X220228Y239118D01*
X220316Y239071D01*
X220402Y239021D01*
X220486Y238967D01*
X220568Y238910D01*
X220647Y238850D01*
X220725Y238786D01*
X220799Y238720D01*
X220871Y238651D01*
X220940Y238579D01*
X221006Y238505D01*
X221070Y238427D01*
X221130Y238348D01*
X221187Y238266D01*
X221241Y238182D01*
X221291Y238096D01*
X221338Y238008D01*
X221382Y237918D01*
X221422Y237827D01*
X221458Y237734D01*
X221491Y237640D01*
X221520Y237544D01*
X221545Y237448D01*
X221566Y237351D01*
X221584Y237252D01*
X221597Y237154D01*
X221607Y237054D01*
X221613Y236955D01*
X221615Y236855D01*
X221615Y236220D01*
X221613Y236109D01*
X221607Y235999D01*
X221598Y235888D01*
X221584Y235778D01*
X221567Y235669D01*
X221546Y235560D01*
X221521Y235452D01*
X221492Y235345D01*
X221460Y235239D01*
X221424Y235134D01*
X221384Y235031D01*
X221341Y234929D01*
X221294Y234828D01*
X221243Y234729D01*
X221190Y234632D01*
X221133Y234538D01*
X221072Y234445D01*
X221009Y234354D01*
X220942Y234265D01*
X220872Y234179D01*
X220799Y234096D01*
X220724Y234014D01*
X220646Y233936D01*
X220564Y233861D01*
X220481Y233788D01*
X220395Y233718D01*
X220306Y233651D01*
X220215Y233588D01*
X220122Y233527D01*
X220027Y233470D01*
X219931Y233417D01*
X219832Y233366D01*
X219731Y233319D01*
X219629Y233276D01*
X219526Y233236D01*
X219421Y233200D01*
X219315Y233168D01*
X219208Y233139D01*
X219100Y233114D01*
X218991Y233093D01*
X218882Y233076D01*
X218772Y233062D01*
X218661Y233053D01*
X218551Y233047D01*
X218440Y233045D01*
X218329Y233047D01*
X218219Y233053D01*
X218108Y233062D01*
X217998Y233076D01*
X217889Y233093D01*
X217780Y233114D01*
X217672Y233139D01*
X217565Y233168D01*
X217459Y233200D01*
X217354Y233236D01*
X217251Y233276D01*
X217149Y233319D01*
X217048Y233366D01*
X216949Y233417D01*
X216853Y233470D01*
X216758Y233527D01*
X216665Y233588D01*
X216574Y233651D01*
X216485Y233718D01*
X216399Y233788D01*
X216316Y233861D01*
X216234Y233936D01*
X216156Y234014D01*
X216081Y234096D01*
X216008Y234179D01*
X215938Y234265D01*
X215871Y234354D01*
X215808Y234445D01*
X215747Y234538D01*
X215690Y234633D01*
X215637Y234729D01*
X215586Y234828D01*
X215539Y234929D01*
X215496Y235031D01*
X215456Y235134D01*
X215420Y235239D01*
X215388Y235345D01*
X215359Y235452D01*
X215334Y235560D01*
X215313Y235669D01*
X215296Y235778D01*
X215282Y235888D01*
X215273Y235999D01*
X215267Y236109D01*
X215265Y236220D01*
X215265Y239395D01*
X215267Y239535D01*
X215273Y239675D01*
X215282Y239815D01*
X215296Y239954D01*
X215313Y240093D01*
X215334Y240231D01*
X215359Y240369D01*
X215388Y240506D01*
X215420Y240642D01*
X215457Y240777D01*
X215497Y240911D01*
X215540Y241044D01*
X215588Y241176D01*
X215638Y241307D01*
X215693Y241436D01*
X215751Y241563D01*
X215812Y241689D01*
X215877Y241813D01*
X215946Y241935D01*
X216017Y242055D01*
X216092Y242173D01*
X216170Y242290D01*
X216252Y242404D01*
X216336Y242515D01*
X216424Y242624D01*
X216514Y242731D01*
X216608Y242836D01*
X216704Y242937D01*
X216803Y243036D01*
X216904Y243132D01*
X217009Y243226D01*
X217116Y243316D01*
X217225Y243404D01*
X217336Y243488D01*
X217450Y243570D01*
X217567Y243648D01*
X217685Y243723D01*
X217805Y243794D01*
X217927Y243863D01*
X218051Y243928D01*
X218177Y243989D01*
X218304Y244047D01*
X218433Y244102D01*
X218564Y244152D01*
X218696Y244200D01*
X218829Y244243D01*
X218963Y244283D01*
X219098Y244320D01*
X219234Y244352D01*
X219371Y244381D01*
X219509Y244406D01*
X219647Y244427D01*
X219786Y244444D01*
X219925Y244458D01*
X220065Y244467D01*
X220205Y244473D01*
X220345Y244475D01*
X32386Y241618D02*
X32384Y241722D01*
X32378Y241827D01*
X32369Y241931D01*
X32356Y242034D01*
X32338Y242137D01*
X32318Y242239D01*
X32293Y242341D01*
X32265Y242441D01*
X32233Y242541D01*
X32197Y242639D01*
X32158Y242736D01*
X32116Y242831D01*
X32070Y242925D01*
X32020Y243017D01*
X31968Y243107D01*
X31912Y243195D01*
X31852Y243281D01*
X31790Y243365D01*
X31725Y243446D01*
X31657Y243525D01*
X31585Y243602D01*
X31512Y243675D01*
X31435Y243747D01*
X31356Y243815D01*
X31275Y243880D01*
X31191Y243942D01*
X31105Y244002D01*
X31017Y244058D01*
X30927Y244110D01*
X30835Y244160D01*
X30741Y244206D01*
X30646Y244248D01*
X30549Y244287D01*
X30451Y244323D01*
X30351Y244355D01*
X30251Y244383D01*
X30149Y244408D01*
X30047Y244428D01*
X29944Y244446D01*
X29841Y244459D01*
X29737Y244468D01*
X29632Y244474D01*
X29528Y244476D01*
X29528Y244475D02*
X29410Y244473D01*
X29291Y244467D01*
X29173Y244458D01*
X29056Y244445D01*
X28939Y244427D01*
X28822Y244407D01*
X28706Y244382D01*
X28591Y244354D01*
X28478Y244321D01*
X28365Y244286D01*
X28253Y244246D01*
X28143Y244204D01*
X28034Y244157D01*
X27926Y244107D01*
X27821Y244054D01*
X27717Y243997D01*
X27615Y243937D01*
X27515Y243874D01*
X27417Y243807D01*
X27321Y243738D01*
X27228Y243665D01*
X27137Y243589D01*
X27048Y243511D01*
X26962Y243429D01*
X26879Y243345D01*
X26798Y243259D01*
X26721Y243169D01*
X26646Y243078D01*
X26574Y242984D01*
X26505Y242887D01*
X26440Y242789D01*
X26377Y242688D01*
X26318Y242585D01*
X26262Y242481D01*
X26210Y242375D01*
X26161Y242267D01*
X26116Y242158D01*
X26074Y242047D01*
X26036Y241935D01*
X31433Y239396D02*
X31509Y239471D01*
X31584Y239550D01*
X31655Y239631D01*
X31724Y239715D01*
X31789Y239801D01*
X31851Y239889D01*
X31911Y239979D01*
X31967Y240071D01*
X32020Y240166D01*
X32069Y240262D01*
X32115Y240360D01*
X32158Y240459D01*
X32197Y240560D01*
X32232Y240662D01*
X32264Y240765D01*
X32292Y240869D01*
X32317Y240974D01*
X32338Y241081D01*
X32355Y241187D01*
X32368Y241294D01*
X32377Y241402D01*
X32383Y241510D01*
X32385Y241618D01*
X31433Y239395D02*
X26035Y233045D01*
X32385Y233045D01*
X36830Y233045D02*
X44450Y244475D01*
X36830Y244475D02*
X44450Y233045D01*
X48895Y236220D02*
X48897Y236331D01*
X48903Y236441D01*
X48912Y236552D01*
X48926Y236662D01*
X48943Y236771D01*
X48964Y236880D01*
X48989Y236988D01*
X49018Y237095D01*
X49050Y237201D01*
X49086Y237306D01*
X49126Y237409D01*
X49169Y237511D01*
X49216Y237612D01*
X49267Y237711D01*
X49320Y237808D01*
X49377Y237902D01*
X49438Y237995D01*
X49501Y238086D01*
X49568Y238175D01*
X49638Y238261D01*
X49711Y238344D01*
X49786Y238426D01*
X49864Y238504D01*
X49946Y238579D01*
X50029Y238652D01*
X50115Y238722D01*
X50204Y238789D01*
X50295Y238852D01*
X50388Y238913D01*
X50482Y238970D01*
X50579Y239023D01*
X50678Y239074D01*
X50779Y239121D01*
X50881Y239164D01*
X50984Y239204D01*
X51089Y239240D01*
X51195Y239272D01*
X51302Y239301D01*
X51410Y239326D01*
X51519Y239347D01*
X51628Y239364D01*
X51738Y239378D01*
X51849Y239387D01*
X51959Y239393D01*
X52070Y239395D01*
X52181Y239393D01*
X52291Y239387D01*
X52402Y239378D01*
X52512Y239364D01*
X52621Y239347D01*
X52730Y239326D01*
X52838Y239301D01*
X52945Y239272D01*
X53051Y239240D01*
X53156Y239204D01*
X53259Y239164D01*
X53361Y239121D01*
X53462Y239074D01*
X53561Y239023D01*
X53658Y238970D01*
X53752Y238913D01*
X53845Y238852D01*
X53936Y238789D01*
X54025Y238722D01*
X54111Y238652D01*
X54194Y238579D01*
X54276Y238504D01*
X54354Y238426D01*
X54429Y238344D01*
X54502Y238261D01*
X54572Y238175D01*
X54639Y238086D01*
X54702Y237995D01*
X54763Y237902D01*
X54820Y237808D01*
X54873Y237711D01*
X54924Y237612D01*
X54971Y237511D01*
X55014Y237409D01*
X55054Y237306D01*
X55090Y237201D01*
X55122Y237095D01*
X55151Y236988D01*
X55176Y236880D01*
X55197Y236771D01*
X55214Y236662D01*
X55228Y236552D01*
X55237Y236441D01*
X55243Y236331D01*
X55245Y236220D01*
X55243Y236109D01*
X55237Y235999D01*
X55228Y235888D01*
X55214Y235778D01*
X55197Y235669D01*
X55176Y235560D01*
X55151Y235452D01*
X55122Y235345D01*
X55090Y235239D01*
X55054Y235134D01*
X55014Y235031D01*
X54971Y234929D01*
X54924Y234828D01*
X54873Y234729D01*
X54820Y234632D01*
X54763Y234538D01*
X54702Y234445D01*
X54639Y234354D01*
X54572Y234265D01*
X54502Y234179D01*
X54429Y234096D01*
X54354Y234014D01*
X54276Y233936D01*
X54194Y233861D01*
X54111Y233788D01*
X54025Y233718D01*
X53936Y233651D01*
X53845Y233588D01*
X53752Y233527D01*
X53657Y233470D01*
X53561Y233417D01*
X53462Y233366D01*
X53361Y233319D01*
X53259Y233276D01*
X53156Y233236D01*
X53051Y233200D01*
X52945Y233168D01*
X52838Y233139D01*
X52730Y233114D01*
X52621Y233093D01*
X52512Y233076D01*
X52402Y233062D01*
X52291Y233053D01*
X52181Y233047D01*
X52070Y233045D01*
X51959Y233047D01*
X51849Y233053D01*
X51738Y233062D01*
X51628Y233076D01*
X51519Y233093D01*
X51410Y233114D01*
X51302Y233139D01*
X51195Y233168D01*
X51089Y233200D01*
X50984Y233236D01*
X50881Y233276D01*
X50779Y233319D01*
X50678Y233366D01*
X50579Y233417D01*
X50483Y233470D01*
X50388Y233527D01*
X50295Y233588D01*
X50204Y233651D01*
X50115Y233718D01*
X50029Y233788D01*
X49946Y233861D01*
X49864Y233936D01*
X49786Y234014D01*
X49711Y234096D01*
X49638Y234179D01*
X49568Y234265D01*
X49501Y234354D01*
X49438Y234445D01*
X49377Y234538D01*
X49320Y234633D01*
X49267Y234729D01*
X49216Y234828D01*
X49169Y234929D01*
X49126Y235031D01*
X49086Y235134D01*
X49050Y235239D01*
X49018Y235345D01*
X48989Y235452D01*
X48964Y235560D01*
X48943Y235669D01*
X48926Y235778D01*
X48912Y235888D01*
X48903Y235999D01*
X48897Y236109D01*
X48895Y236220D01*
X49530Y241935D02*
X49532Y242035D01*
X49538Y242134D01*
X49548Y242234D01*
X49561Y242332D01*
X49579Y242431D01*
X49600Y242528D01*
X49625Y242624D01*
X49654Y242720D01*
X49687Y242814D01*
X49723Y242907D01*
X49763Y242998D01*
X49807Y243088D01*
X49854Y243176D01*
X49904Y243262D01*
X49958Y243346D01*
X50015Y243428D01*
X50075Y243507D01*
X50139Y243585D01*
X50205Y243659D01*
X50274Y243731D01*
X50346Y243800D01*
X50420Y243866D01*
X50498Y243930D01*
X50577Y243990D01*
X50659Y244047D01*
X50743Y244101D01*
X50829Y244151D01*
X50917Y244198D01*
X51007Y244242D01*
X51098Y244282D01*
X51191Y244318D01*
X51285Y244351D01*
X51381Y244380D01*
X51477Y244405D01*
X51574Y244426D01*
X51673Y244444D01*
X51771Y244457D01*
X51871Y244467D01*
X51970Y244473D01*
X52070Y244475D01*
X52170Y244473D01*
X52269Y244467D01*
X52369Y244457D01*
X52467Y244444D01*
X52566Y244426D01*
X52663Y244405D01*
X52759Y244380D01*
X52855Y244351D01*
X52949Y244318D01*
X53042Y244282D01*
X53133Y244242D01*
X53223Y244198D01*
X53311Y244151D01*
X53397Y244101D01*
X53481Y244047D01*
X53563Y243990D01*
X53642Y243930D01*
X53720Y243866D01*
X53794Y243800D01*
X53866Y243731D01*
X53935Y243659D01*
X54001Y243585D01*
X54065Y243507D01*
X54125Y243428D01*
X54182Y243346D01*
X54236Y243262D01*
X54286Y243176D01*
X54333Y243088D01*
X54377Y242998D01*
X54417Y242907D01*
X54453Y242814D01*
X54486Y242720D01*
X54515Y242624D01*
X54540Y242528D01*
X54561Y242431D01*
X54579Y242332D01*
X54592Y242234D01*
X54602Y242134D01*
X54608Y242035D01*
X54610Y241935D01*
X54608Y241835D01*
X54602Y241736D01*
X54592Y241636D01*
X54579Y241538D01*
X54561Y241439D01*
X54540Y241342D01*
X54515Y241246D01*
X54486Y241150D01*
X54453Y241056D01*
X54417Y240963D01*
X54377Y240872D01*
X54333Y240782D01*
X54286Y240694D01*
X54236Y240608D01*
X54182Y240524D01*
X54125Y240442D01*
X54065Y240363D01*
X54001Y240285D01*
X53935Y240211D01*
X53866Y240139D01*
X53794Y240070D01*
X53720Y240004D01*
X53642Y239940D01*
X53563Y239880D01*
X53481Y239823D01*
X53397Y239769D01*
X53311Y239719D01*
X53223Y239672D01*
X53133Y239628D01*
X53042Y239588D01*
X52949Y239552D01*
X52855Y239519D01*
X52759Y239490D01*
X52663Y239465D01*
X52566Y239444D01*
X52467Y239426D01*
X52369Y239413D01*
X52269Y239403D01*
X52170Y239397D01*
X52070Y239395D01*
X51970Y239397D01*
X51871Y239403D01*
X51771Y239413D01*
X51673Y239426D01*
X51574Y239444D01*
X51477Y239465D01*
X51381Y239490D01*
X51285Y239519D01*
X51191Y239552D01*
X51098Y239588D01*
X51007Y239628D01*
X50917Y239672D01*
X50829Y239719D01*
X50743Y239769D01*
X50659Y239823D01*
X50577Y239880D01*
X50498Y239940D01*
X50420Y240004D01*
X50346Y240070D01*
X50274Y240139D01*
X50205Y240211D01*
X50139Y240285D01*
X50075Y240363D01*
X50015Y240442D01*
X49958Y240524D01*
X49904Y240608D01*
X49854Y240694D01*
X49807Y240782D01*
X49763Y240872D01*
X49723Y240963D01*
X49687Y241056D01*
X49654Y241150D01*
X49625Y241246D01*
X49600Y241342D01*
X49579Y241439D01*
X49561Y241538D01*
X49548Y241636D01*
X49538Y241736D01*
X49532Y241835D01*
X49530Y241935D01*
D12*
X154314Y105283D02*
X156911Y105283D01*
X154314Y105283D02*
X154215Y105285D01*
X154115Y105291D01*
X154016Y105300D01*
X153918Y105313D01*
X153820Y105330D01*
X153722Y105351D01*
X153626Y105376D01*
X153531Y105404D01*
X153437Y105436D01*
X153344Y105471D01*
X153252Y105510D01*
X153162Y105553D01*
X153074Y105598D01*
X152987Y105648D01*
X152903Y105700D01*
X152820Y105756D01*
X152740Y105814D01*
X152662Y105876D01*
X152587Y105941D01*
X152514Y106009D01*
X152444Y106079D01*
X152376Y106152D01*
X152311Y106227D01*
X152249Y106305D01*
X152191Y106385D01*
X152135Y106468D01*
X152083Y106552D01*
X152033Y106639D01*
X151988Y106727D01*
X151945Y106817D01*
X151906Y106909D01*
X151871Y107002D01*
X151839Y107096D01*
X151811Y107191D01*
X151786Y107287D01*
X151765Y107385D01*
X151748Y107483D01*
X151735Y107581D01*
X151726Y107680D01*
X151720Y107780D01*
X151718Y107879D01*
X151718Y114371D01*
X151720Y114470D01*
X151726Y114570D01*
X151735Y114669D01*
X151748Y114767D01*
X151765Y114865D01*
X151786Y114963D01*
X151811Y115059D01*
X151839Y115154D01*
X151871Y115248D01*
X151906Y115341D01*
X151945Y115433D01*
X151988Y115523D01*
X152033Y115611D01*
X152083Y115698D01*
X152135Y115782D01*
X152191Y115865D01*
X152249Y115945D01*
X152311Y116023D01*
X152376Y116098D01*
X152444Y116171D01*
X152514Y116241D01*
X152587Y116309D01*
X152662Y116374D01*
X152740Y116436D01*
X152820Y116494D01*
X152903Y116550D01*
X152987Y116602D01*
X153074Y116652D01*
X153162Y116697D01*
X153252Y116740D01*
X153344Y116779D01*
X153436Y116814D01*
X153531Y116846D01*
X153626Y116874D01*
X153722Y116899D01*
X153820Y116920D01*
X153918Y116937D01*
X154016Y116950D01*
X154115Y116959D01*
X154215Y116965D01*
X154314Y116967D01*
X156911Y116967D01*
X161276Y114371D02*
X164521Y116967D01*
X164521Y105283D01*
X161276Y105283D02*
X167767Y105283D01*
X145401Y156083D02*
X142804Y156083D01*
X142705Y156085D01*
X142605Y156091D01*
X142506Y156100D01*
X142408Y156113D01*
X142310Y156130D01*
X142212Y156151D01*
X142116Y156176D01*
X142021Y156204D01*
X141927Y156236D01*
X141834Y156271D01*
X141742Y156310D01*
X141652Y156353D01*
X141564Y156398D01*
X141477Y156448D01*
X141393Y156500D01*
X141310Y156556D01*
X141230Y156614D01*
X141152Y156676D01*
X141077Y156741D01*
X141004Y156809D01*
X140934Y156879D01*
X140866Y156952D01*
X140801Y157027D01*
X140739Y157105D01*
X140681Y157185D01*
X140625Y157268D01*
X140573Y157352D01*
X140523Y157439D01*
X140478Y157527D01*
X140435Y157617D01*
X140396Y157709D01*
X140361Y157802D01*
X140329Y157896D01*
X140301Y157991D01*
X140276Y158087D01*
X140255Y158185D01*
X140238Y158283D01*
X140225Y158381D01*
X140216Y158480D01*
X140210Y158580D01*
X140208Y158679D01*
X140208Y165171D01*
X140210Y165270D01*
X140216Y165370D01*
X140225Y165469D01*
X140238Y165567D01*
X140255Y165665D01*
X140276Y165763D01*
X140301Y165859D01*
X140329Y165954D01*
X140361Y166048D01*
X140396Y166141D01*
X140435Y166233D01*
X140478Y166323D01*
X140523Y166411D01*
X140573Y166498D01*
X140625Y166582D01*
X140681Y166665D01*
X140739Y166745D01*
X140801Y166823D01*
X140866Y166898D01*
X140934Y166971D01*
X141004Y167041D01*
X141077Y167109D01*
X141152Y167174D01*
X141230Y167236D01*
X141310Y167294D01*
X141393Y167350D01*
X141477Y167402D01*
X141564Y167452D01*
X141652Y167497D01*
X141742Y167540D01*
X141834Y167579D01*
X141926Y167614D01*
X142021Y167646D01*
X142116Y167674D01*
X142212Y167699D01*
X142310Y167720D01*
X142408Y167737D01*
X142506Y167750D01*
X142605Y167759D01*
X142705Y167765D01*
X142804Y167767D01*
X145401Y167767D01*
X153336Y167767D02*
X153443Y167765D01*
X153549Y167759D01*
X153655Y167749D01*
X153761Y167736D01*
X153867Y167718D01*
X153971Y167697D01*
X154075Y167672D01*
X154178Y167643D01*
X154279Y167611D01*
X154379Y167574D01*
X154478Y167534D01*
X154576Y167491D01*
X154672Y167444D01*
X154766Y167393D01*
X154858Y167339D01*
X154948Y167282D01*
X155036Y167222D01*
X155121Y167158D01*
X155204Y167091D01*
X155285Y167021D01*
X155363Y166949D01*
X155439Y166873D01*
X155511Y166795D01*
X155581Y166714D01*
X155648Y166631D01*
X155712Y166546D01*
X155772Y166458D01*
X155829Y166368D01*
X155883Y166276D01*
X155934Y166182D01*
X155981Y166086D01*
X156024Y165988D01*
X156064Y165889D01*
X156101Y165789D01*
X156133Y165688D01*
X156162Y165585D01*
X156187Y165481D01*
X156208Y165377D01*
X156226Y165271D01*
X156239Y165165D01*
X156249Y165059D01*
X156255Y164953D01*
X156257Y164846D01*
X153336Y167767D02*
X153215Y167765D01*
X153094Y167759D01*
X152974Y167749D01*
X152853Y167736D01*
X152734Y167718D01*
X152614Y167697D01*
X152496Y167672D01*
X152379Y167643D01*
X152262Y167610D01*
X152147Y167574D01*
X152033Y167533D01*
X151920Y167490D01*
X151808Y167442D01*
X151699Y167391D01*
X151591Y167336D01*
X151484Y167278D01*
X151380Y167217D01*
X151278Y167152D01*
X151178Y167084D01*
X151080Y167013D01*
X150984Y166939D01*
X150891Y166862D01*
X150801Y166781D01*
X150713Y166698D01*
X150628Y166612D01*
X150545Y166523D01*
X150466Y166432D01*
X150389Y166338D01*
X150316Y166242D01*
X150246Y166144D01*
X150179Y166043D01*
X150115Y165940D01*
X150055Y165835D01*
X149998Y165728D01*
X149944Y165620D01*
X149894Y165510D01*
X149848Y165398D01*
X149805Y165285D01*
X149766Y165170D01*
X155284Y162574D02*
X155363Y162651D01*
X155439Y162732D01*
X155512Y162815D01*
X155582Y162900D01*
X155649Y162988D01*
X155713Y163078D01*
X155773Y163170D01*
X155830Y163265D01*
X155884Y163361D01*
X155935Y163459D01*
X155982Y163559D01*
X156026Y163661D01*
X156066Y163764D01*
X156102Y163868D01*
X156134Y163974D01*
X156163Y164080D01*
X156188Y164188D01*
X156210Y164296D01*
X156227Y164406D01*
X156241Y164515D01*
X156250Y164625D01*
X156256Y164736D01*
X156258Y164846D01*
X155284Y162574D02*
X149766Y156083D01*
X156257Y156083D01*
X177729Y29083D02*
X180326Y29083D01*
X177729Y29083D02*
X177630Y29085D01*
X177530Y29091D01*
X177431Y29100D01*
X177333Y29113D01*
X177235Y29130D01*
X177137Y29151D01*
X177041Y29176D01*
X176946Y29204D01*
X176852Y29236D01*
X176759Y29271D01*
X176667Y29310D01*
X176577Y29353D01*
X176489Y29398D01*
X176402Y29448D01*
X176318Y29500D01*
X176235Y29556D01*
X176155Y29614D01*
X176077Y29676D01*
X176002Y29741D01*
X175929Y29809D01*
X175859Y29879D01*
X175791Y29952D01*
X175726Y30027D01*
X175664Y30105D01*
X175606Y30185D01*
X175550Y30268D01*
X175498Y30352D01*
X175448Y30439D01*
X175403Y30527D01*
X175360Y30617D01*
X175321Y30709D01*
X175286Y30802D01*
X175254Y30896D01*
X175226Y30991D01*
X175201Y31087D01*
X175180Y31185D01*
X175163Y31283D01*
X175150Y31381D01*
X175141Y31480D01*
X175135Y31580D01*
X175133Y31679D01*
X175133Y38171D01*
X175135Y38270D01*
X175141Y38370D01*
X175150Y38469D01*
X175163Y38567D01*
X175180Y38665D01*
X175201Y38763D01*
X175226Y38859D01*
X175254Y38954D01*
X175286Y39048D01*
X175321Y39141D01*
X175360Y39233D01*
X175403Y39323D01*
X175448Y39411D01*
X175498Y39498D01*
X175550Y39582D01*
X175606Y39665D01*
X175664Y39745D01*
X175726Y39823D01*
X175791Y39898D01*
X175859Y39971D01*
X175929Y40041D01*
X176002Y40109D01*
X176077Y40174D01*
X176155Y40236D01*
X176235Y40294D01*
X176318Y40350D01*
X176402Y40402D01*
X176489Y40452D01*
X176577Y40497D01*
X176667Y40540D01*
X176759Y40579D01*
X176851Y40614D01*
X176946Y40646D01*
X177041Y40674D01*
X177137Y40699D01*
X177235Y40720D01*
X177333Y40737D01*
X177431Y40750D01*
X177530Y40759D01*
X177630Y40765D01*
X177729Y40767D01*
X180326Y40767D01*
X184691Y29083D02*
X187937Y29083D01*
X188050Y29085D01*
X188163Y29091D01*
X188276Y29101D01*
X188389Y29115D01*
X188501Y29132D01*
X188612Y29154D01*
X188722Y29179D01*
X188832Y29209D01*
X188940Y29242D01*
X189047Y29279D01*
X189153Y29319D01*
X189257Y29364D01*
X189360Y29412D01*
X189461Y29463D01*
X189560Y29518D01*
X189657Y29576D01*
X189752Y29638D01*
X189845Y29703D01*
X189935Y29771D01*
X190023Y29842D01*
X190109Y29917D01*
X190192Y29994D01*
X190272Y30074D01*
X190349Y30157D01*
X190424Y30243D01*
X190495Y30331D01*
X190563Y30421D01*
X190628Y30514D01*
X190690Y30609D01*
X190748Y30706D01*
X190803Y30805D01*
X190854Y30906D01*
X190902Y31009D01*
X190947Y31113D01*
X190987Y31219D01*
X191024Y31326D01*
X191057Y31434D01*
X191087Y31544D01*
X191112Y31654D01*
X191134Y31765D01*
X191151Y31877D01*
X191165Y31990D01*
X191175Y32103D01*
X191181Y32216D01*
X191183Y32329D01*
X191181Y32442D01*
X191175Y32555D01*
X191165Y32668D01*
X191151Y32781D01*
X191134Y32893D01*
X191112Y33004D01*
X191087Y33114D01*
X191057Y33224D01*
X191024Y33332D01*
X190987Y33439D01*
X190947Y33545D01*
X190902Y33649D01*
X190854Y33752D01*
X190803Y33853D01*
X190748Y33952D01*
X190690Y34049D01*
X190628Y34144D01*
X190563Y34237D01*
X190495Y34327D01*
X190424Y34415D01*
X190349Y34501D01*
X190272Y34584D01*
X190192Y34664D01*
X190109Y34741D01*
X190023Y34816D01*
X189935Y34887D01*
X189845Y34955D01*
X189752Y35020D01*
X189657Y35082D01*
X189560Y35140D01*
X189461Y35195D01*
X189360Y35246D01*
X189257Y35294D01*
X189153Y35339D01*
X189047Y35379D01*
X188940Y35416D01*
X188832Y35449D01*
X188722Y35479D01*
X188612Y35504D01*
X188501Y35526D01*
X188389Y35543D01*
X188276Y35557D01*
X188163Y35567D01*
X188050Y35573D01*
X187937Y35575D01*
X188586Y40767D02*
X184691Y40767D01*
X188586Y40767D02*
X188687Y40765D01*
X188787Y40759D01*
X188887Y40749D01*
X188987Y40736D01*
X189086Y40718D01*
X189185Y40697D01*
X189282Y40672D01*
X189379Y40643D01*
X189474Y40610D01*
X189568Y40574D01*
X189660Y40534D01*
X189751Y40491D01*
X189840Y40444D01*
X189927Y40394D01*
X190013Y40340D01*
X190096Y40283D01*
X190176Y40223D01*
X190255Y40160D01*
X190331Y40093D01*
X190404Y40024D01*
X190474Y39952D01*
X190542Y39878D01*
X190607Y39801D01*
X190668Y39721D01*
X190727Y39639D01*
X190782Y39555D01*
X190834Y39469D01*
X190883Y39381D01*
X190928Y39291D01*
X190970Y39199D01*
X191008Y39106D01*
X191042Y39011D01*
X191073Y38916D01*
X191100Y38819D01*
X191123Y38721D01*
X191143Y38622D01*
X191158Y38522D01*
X191170Y38422D01*
X191178Y38322D01*
X191182Y38221D01*
X191182Y38121D01*
X191178Y38020D01*
X191170Y37920D01*
X191158Y37820D01*
X191143Y37720D01*
X191123Y37621D01*
X191100Y37523D01*
X191073Y37426D01*
X191042Y37331D01*
X191008Y37236D01*
X190970Y37143D01*
X190928Y37051D01*
X190883Y36961D01*
X190834Y36873D01*
X190782Y36787D01*
X190727Y36703D01*
X190668Y36621D01*
X190607Y36541D01*
X190542Y36464D01*
X190474Y36390D01*
X190404Y36318D01*
X190331Y36249D01*
X190255Y36182D01*
X190176Y36119D01*
X190096Y36059D01*
X190013Y36002D01*
X189927Y35948D01*
X189840Y35898D01*
X189751Y35851D01*
X189660Y35808D01*
X189568Y35768D01*
X189474Y35732D01*
X189379Y35699D01*
X189282Y35670D01*
X189185Y35645D01*
X189086Y35624D01*
X188987Y35606D01*
X188887Y35593D01*
X188787Y35583D01*
X188687Y35577D01*
X188586Y35575D01*
X188586Y35574D02*
X185989Y35574D01*
X191008Y105283D02*
X191008Y116967D01*
X194254Y116967D01*
X194367Y116965D01*
X194480Y116959D01*
X194593Y116949D01*
X194706Y116935D01*
X194818Y116918D01*
X194929Y116896D01*
X195039Y116871D01*
X195149Y116841D01*
X195257Y116808D01*
X195364Y116771D01*
X195470Y116731D01*
X195574Y116686D01*
X195677Y116638D01*
X195778Y116587D01*
X195877Y116532D01*
X195974Y116474D01*
X196069Y116412D01*
X196162Y116347D01*
X196252Y116279D01*
X196340Y116208D01*
X196426Y116133D01*
X196509Y116056D01*
X196589Y115976D01*
X196666Y115893D01*
X196741Y115807D01*
X196812Y115719D01*
X196880Y115629D01*
X196945Y115536D01*
X197007Y115441D01*
X197065Y115344D01*
X197120Y115245D01*
X197171Y115144D01*
X197219Y115041D01*
X197264Y114937D01*
X197304Y114831D01*
X197341Y114724D01*
X197374Y114616D01*
X197404Y114506D01*
X197429Y114396D01*
X197451Y114285D01*
X197468Y114173D01*
X197482Y114060D01*
X197492Y113947D01*
X197498Y113834D01*
X197500Y113721D01*
X197498Y113608D01*
X197492Y113495D01*
X197482Y113382D01*
X197468Y113269D01*
X197451Y113157D01*
X197429Y113046D01*
X197404Y112936D01*
X197374Y112826D01*
X197341Y112718D01*
X197304Y112611D01*
X197264Y112505D01*
X197219Y112401D01*
X197171Y112298D01*
X197120Y112197D01*
X197065Y112098D01*
X197007Y112001D01*
X196945Y111906D01*
X196880Y111813D01*
X196812Y111723D01*
X196741Y111635D01*
X196666Y111549D01*
X196589Y111466D01*
X196509Y111386D01*
X196426Y111309D01*
X196340Y111234D01*
X196252Y111163D01*
X196162Y111095D01*
X196069Y111030D01*
X195974Y110968D01*
X195877Y110910D01*
X195778Y110855D01*
X195677Y110804D01*
X195574Y110756D01*
X195470Y110711D01*
X195364Y110671D01*
X195257Y110634D01*
X195149Y110601D01*
X195039Y110571D01*
X194929Y110546D01*
X194818Y110524D01*
X194706Y110507D01*
X194593Y110493D01*
X194480Y110483D01*
X194367Y110477D01*
X194254Y110475D01*
X194254Y110476D02*
X191008Y110476D01*
X194903Y110476D02*
X197499Y105283D01*
X202364Y114371D02*
X205610Y116967D01*
X205610Y105283D01*
X208855Y105283D02*
X202364Y105283D01*
D11*
X140300Y95200D02*
X140300Y57200D01*
X140300Y95200D02*
X88300Y95200D01*
X88300Y57200D01*
X140300Y57200D01*
D13*
X135300Y53200D02*
X135302Y53263D01*
X135308Y53325D01*
X135318Y53387D01*
X135331Y53449D01*
X135349Y53509D01*
X135370Y53568D01*
X135395Y53626D01*
X135424Y53682D01*
X135456Y53736D01*
X135491Y53788D01*
X135529Y53837D01*
X135571Y53885D01*
X135615Y53929D01*
X135663Y53971D01*
X135712Y54009D01*
X135764Y54044D01*
X135818Y54076D01*
X135874Y54105D01*
X135932Y54130D01*
X135991Y54151D01*
X136051Y54169D01*
X136113Y54182D01*
X136175Y54192D01*
X136237Y54198D01*
X136300Y54200D01*
X136363Y54198D01*
X136425Y54192D01*
X136487Y54182D01*
X136549Y54169D01*
X136609Y54151D01*
X136668Y54130D01*
X136726Y54105D01*
X136782Y54076D01*
X136836Y54044D01*
X136888Y54009D01*
X136937Y53971D01*
X136985Y53929D01*
X137029Y53885D01*
X137071Y53837D01*
X137109Y53788D01*
X137144Y53736D01*
X137176Y53682D01*
X137205Y53626D01*
X137230Y53568D01*
X137251Y53509D01*
X137269Y53449D01*
X137282Y53387D01*
X137292Y53325D01*
X137298Y53263D01*
X137300Y53200D01*
X137298Y53137D01*
X137292Y53075D01*
X137282Y53013D01*
X137269Y52951D01*
X137251Y52891D01*
X137230Y52832D01*
X137205Y52774D01*
X137176Y52718D01*
X137144Y52664D01*
X137109Y52612D01*
X137071Y52563D01*
X137029Y52515D01*
X136985Y52471D01*
X136937Y52429D01*
X136888Y52391D01*
X136836Y52356D01*
X136782Y52324D01*
X136726Y52295D01*
X136668Y52270D01*
X136609Y52249D01*
X136549Y52231D01*
X136487Y52218D01*
X136425Y52208D01*
X136363Y52202D01*
X136300Y52200D01*
X136237Y52202D01*
X136175Y52208D01*
X136113Y52218D01*
X136051Y52231D01*
X135991Y52249D01*
X135932Y52270D01*
X135874Y52295D01*
X135818Y52324D01*
X135764Y52356D01*
X135712Y52391D01*
X135663Y52429D01*
X135615Y52471D01*
X135571Y52515D01*
X135529Y52563D01*
X135491Y52612D01*
X135456Y52664D01*
X135424Y52718D01*
X135395Y52774D01*
X135370Y52832D01*
X135349Y52891D01*
X135331Y52951D01*
X135318Y53013D01*
X135308Y53075D01*
X135302Y53137D01*
X135300Y53200D01*
M02*
