%TF.GenerationSoftware,KiCad,Pcbnew,(6.0.7-1)-1*%
%TF.CreationDate,2023-01-21T15:23:19-06:00*%
%TF.ProjectId,Neutro_v1,4e657574-726f-45f7-9631-2e6b69636164,v1*%
%TF.SameCoordinates,Original*%
%TF.FileFunction,Drillmap*%
%TF.FilePolarity,Positive*%
%FSLAX45Y45*%
G04 Gerber Fmt 4.5, Leading zero omitted, Abs format (unit mm)*
G04 Created by KiCad (PCBNEW (6.0.7-1)-1) date 2023-01-21 15:23:19*
%MOMM*%
%LPD*%
G01*
G04 APERTURE LIST*
%ADD10C,0.100000*%
%ADD11C,0.200000*%
%ADD12C,0.105000*%
%ADD13C,0.130000*%
%ADD14C,0.250000*%
%ADD15C,0.350000*%
G04 APERTURE END LIST*
D10*
X10160000Y-6985000D02*
X20320000Y-6985000D01*
X20320000Y-6985000D02*
X20320000Y-13335000D01*
X20320000Y-13335000D02*
X10160000Y-13335000D01*
X10160000Y-13335000D02*
X10160000Y-6985000D01*
D11*
D12*
X11771200Y-8866210D02*
X11876200Y-8971210D01*
X11876200Y-8866210D02*
X11771200Y-8971210D01*
D13*
X11888700Y-9663710D02*
G75*
G03*
X11888700Y-9663710I-65000J0D01*
G01*
D14*
X10610000Y-7325000D02*
X10610000Y-7575000D01*
X10485000Y-7450000D02*
X10735000Y-7450000D01*
X10610000Y-12775000D02*
X10610000Y-13025000D01*
X10485000Y-12900000D02*
X10735000Y-12900000D01*
X12975000Y-8910800D02*
X12975000Y-9160800D01*
X12850000Y-9035800D02*
X13100000Y-9035800D01*
X12975000Y-11210800D02*
X12975000Y-11460800D01*
X12850000Y-11335800D02*
X13100000Y-11335800D01*
X18775000Y-8910800D02*
X18775000Y-9160800D01*
X18650000Y-9035800D02*
X18900000Y-9035800D01*
X18775000Y-11210800D02*
X18775000Y-11460800D01*
X18650000Y-11335800D02*
X18900000Y-11335800D01*
X19870000Y-7315000D02*
X19870000Y-7565000D01*
X19745000Y-7440000D02*
X19995000Y-7440000D01*
X19870000Y-12775000D02*
X19870000Y-13025000D01*
X19745000Y-12900000D02*
X19995000Y-12900000D01*
D15*
X14030245Y-10131345D02*
X14030245Y-9883855D01*
X13782755Y-9883855D01*
X13782755Y-10131345D01*
X14030245Y-10131345D01*
X16697245Y-10131345D02*
X16697245Y-9883855D01*
X16449755Y-9883855D01*
X16449755Y-10131345D01*
X16697245Y-10131345D01*
D11*
X10412619Y-13650476D02*
X10412619Y-13450476D01*
X10460238Y-13450476D01*
X10488810Y-13460000D01*
X10507857Y-13479048D01*
X10517381Y-13498095D01*
X10526905Y-13536190D01*
X10526905Y-13564762D01*
X10517381Y-13602857D01*
X10507857Y-13621905D01*
X10488810Y-13640952D01*
X10460238Y-13650476D01*
X10412619Y-13650476D01*
X10612619Y-13650476D02*
X10612619Y-13517143D01*
X10612619Y-13555238D02*
X10622143Y-13536190D01*
X10631667Y-13526667D01*
X10650714Y-13517143D01*
X10669762Y-13517143D01*
X10736429Y-13650476D02*
X10736429Y-13517143D01*
X10736429Y-13450476D02*
X10726905Y-13460000D01*
X10736429Y-13469524D01*
X10745952Y-13460000D01*
X10736429Y-13450476D01*
X10736429Y-13469524D01*
X10860238Y-13650476D02*
X10841190Y-13640952D01*
X10831667Y-13621905D01*
X10831667Y-13450476D01*
X10965000Y-13650476D02*
X10945952Y-13640952D01*
X10936429Y-13621905D01*
X10936429Y-13450476D01*
X11193571Y-13650476D02*
X11193571Y-13450476D01*
X11260238Y-13593333D01*
X11326905Y-13450476D01*
X11326905Y-13650476D01*
X11507857Y-13650476D02*
X11507857Y-13545714D01*
X11498333Y-13526667D01*
X11479286Y-13517143D01*
X11441190Y-13517143D01*
X11422143Y-13526667D01*
X11507857Y-13640952D02*
X11488809Y-13650476D01*
X11441190Y-13650476D01*
X11422143Y-13640952D01*
X11412619Y-13621905D01*
X11412619Y-13602857D01*
X11422143Y-13583809D01*
X11441190Y-13574286D01*
X11488809Y-13574286D01*
X11507857Y-13564762D01*
X11603095Y-13517143D02*
X11603095Y-13717143D01*
X11603095Y-13526667D02*
X11622143Y-13517143D01*
X11660238Y-13517143D01*
X11679286Y-13526667D01*
X11688809Y-13536190D01*
X11698333Y-13555238D01*
X11698333Y-13612381D01*
X11688809Y-13631428D01*
X11679286Y-13640952D01*
X11660238Y-13650476D01*
X11622143Y-13650476D01*
X11603095Y-13640952D01*
X11784048Y-13631428D02*
X11793571Y-13640952D01*
X11784048Y-13650476D01*
X11774524Y-13640952D01*
X11784048Y-13631428D01*
X11784048Y-13650476D01*
X11784048Y-13526667D02*
X11793571Y-13536190D01*
X11784048Y-13545714D01*
X11774524Y-13536190D01*
X11784048Y-13526667D01*
X11784048Y-13545714D01*
D12*
X10050000Y-13927500D02*
X10155000Y-14032500D01*
X10155000Y-13927500D02*
X10050000Y-14032500D01*
D11*
X10517381Y-14070476D02*
X10403095Y-14070476D01*
X10460238Y-14070476D02*
X10460238Y-13870476D01*
X10441190Y-13899048D01*
X10422143Y-13918095D01*
X10403095Y-13927619D01*
X10603095Y-14051428D02*
X10612619Y-14060952D01*
X10603095Y-14070476D01*
X10593571Y-14060952D01*
X10603095Y-14051428D01*
X10603095Y-14070476D01*
X10736429Y-13870476D02*
X10755476Y-13870476D01*
X10774524Y-13880000D01*
X10784048Y-13889524D01*
X10793571Y-13908571D01*
X10803095Y-13946667D01*
X10803095Y-13994286D01*
X10793571Y-14032381D01*
X10784048Y-14051428D01*
X10774524Y-14060952D01*
X10755476Y-14070476D01*
X10736429Y-14070476D01*
X10717381Y-14060952D01*
X10707857Y-14051428D01*
X10698333Y-14032381D01*
X10688810Y-13994286D01*
X10688810Y-13946667D01*
X10698333Y-13908571D01*
X10707857Y-13889524D01*
X10717381Y-13880000D01*
X10736429Y-13870476D01*
X10984048Y-13870476D02*
X10888810Y-13870476D01*
X10879286Y-13965714D01*
X10888810Y-13956190D01*
X10907857Y-13946667D01*
X10955476Y-13946667D01*
X10974524Y-13956190D01*
X10984048Y-13965714D01*
X10993571Y-13984762D01*
X10993571Y-14032381D01*
X10984048Y-14051428D01*
X10974524Y-14060952D01*
X10955476Y-14070476D01*
X10907857Y-14070476D01*
X10888810Y-14060952D01*
X10879286Y-14051428D01*
X11117381Y-13870476D02*
X11136429Y-13870476D01*
X11155476Y-13880000D01*
X11165000Y-13889524D01*
X11174524Y-13908571D01*
X11184048Y-13946667D01*
X11184048Y-13994286D01*
X11174524Y-14032381D01*
X11165000Y-14051428D01*
X11155476Y-14060952D01*
X11136429Y-14070476D01*
X11117381Y-14070476D01*
X11098333Y-14060952D01*
X11088810Y-14051428D01*
X11079286Y-14032381D01*
X11069762Y-13994286D01*
X11069762Y-13946667D01*
X11079286Y-13908571D01*
X11088810Y-13889524D01*
X11098333Y-13880000D01*
X11117381Y-13870476D01*
X11269762Y-14070476D02*
X11269762Y-13937143D01*
X11269762Y-13956190D02*
X11279286Y-13946667D01*
X11298333Y-13937143D01*
X11326905Y-13937143D01*
X11345952Y-13946667D01*
X11355476Y-13965714D01*
X11355476Y-14070476D01*
X11355476Y-13965714D02*
X11365000Y-13946667D01*
X11384048Y-13937143D01*
X11412619Y-13937143D01*
X11431667Y-13946667D01*
X11441190Y-13965714D01*
X11441190Y-14070476D01*
X11536428Y-14070476D02*
X11536428Y-13937143D01*
X11536428Y-13956190D02*
X11545952Y-13946667D01*
X11565000Y-13937143D01*
X11593571Y-13937143D01*
X11612619Y-13946667D01*
X11622143Y-13965714D01*
X11622143Y-14070476D01*
X11622143Y-13965714D02*
X11631667Y-13946667D01*
X11650714Y-13937143D01*
X11679286Y-13937143D01*
X11698333Y-13946667D01*
X11707857Y-13965714D01*
X11707857Y-14070476D01*
X12098333Y-13860952D02*
X11926905Y-14118095D01*
X12355476Y-13870476D02*
X12374524Y-13870476D01*
X12393571Y-13880000D01*
X12403095Y-13889524D01*
X12412619Y-13908571D01*
X12422143Y-13946667D01*
X12422143Y-13994286D01*
X12412619Y-14032381D01*
X12403095Y-14051428D01*
X12393571Y-14060952D01*
X12374524Y-14070476D01*
X12355476Y-14070476D01*
X12336428Y-14060952D01*
X12326905Y-14051428D01*
X12317381Y-14032381D01*
X12307857Y-13994286D01*
X12307857Y-13946667D01*
X12317381Y-13908571D01*
X12326905Y-13889524D01*
X12336428Y-13880000D01*
X12355476Y-13870476D01*
X12507857Y-14051428D02*
X12517381Y-14060952D01*
X12507857Y-14070476D01*
X12498333Y-14060952D01*
X12507857Y-14051428D01*
X12507857Y-14070476D01*
X12641190Y-13870476D02*
X12660238Y-13870476D01*
X12679286Y-13880000D01*
X12688809Y-13889524D01*
X12698333Y-13908571D01*
X12707857Y-13946667D01*
X12707857Y-13994286D01*
X12698333Y-14032381D01*
X12688809Y-14051428D01*
X12679286Y-14060952D01*
X12660238Y-14070476D01*
X12641190Y-14070476D01*
X12622143Y-14060952D01*
X12612619Y-14051428D01*
X12603095Y-14032381D01*
X12593571Y-13994286D01*
X12593571Y-13946667D01*
X12603095Y-13908571D01*
X12612619Y-13889524D01*
X12622143Y-13880000D01*
X12641190Y-13870476D01*
X12879286Y-13937143D02*
X12879286Y-14070476D01*
X12831667Y-13860952D02*
X12784048Y-14003809D01*
X12907857Y-14003809D01*
X13088809Y-14070476D02*
X12974524Y-14070476D01*
X13031667Y-14070476D02*
X13031667Y-13870476D01*
X13012619Y-13899048D01*
X12993571Y-13918095D01*
X12974524Y-13927619D01*
X13155476Y-13870476D02*
X13279286Y-13870476D01*
X13212619Y-13946667D01*
X13241190Y-13946667D01*
X13260238Y-13956190D01*
X13269762Y-13965714D01*
X13279286Y-13984762D01*
X13279286Y-14032381D01*
X13269762Y-14051428D01*
X13260238Y-14060952D01*
X13241190Y-14070476D01*
X13184048Y-14070476D01*
X13165000Y-14060952D01*
X13155476Y-14051428D01*
X13355476Y-13870476D02*
X13355476Y-13908571D01*
X13431667Y-13870476D02*
X13431667Y-13908571D01*
X13726905Y-14146667D02*
X13717381Y-14137143D01*
X13698333Y-14108571D01*
X13688809Y-14089524D01*
X13679286Y-14060952D01*
X13669762Y-14013333D01*
X13669762Y-13975238D01*
X13679286Y-13927619D01*
X13688809Y-13899048D01*
X13698333Y-13880000D01*
X13717381Y-13851428D01*
X13726905Y-13841905D01*
X13907857Y-14070476D02*
X13793571Y-14070476D01*
X13850714Y-14070476D02*
X13850714Y-13870476D01*
X13831667Y-13899048D01*
X13812619Y-13918095D01*
X13793571Y-13927619D01*
X14145952Y-14070476D02*
X14145952Y-13870476D01*
X14231667Y-14070476D02*
X14231667Y-13965714D01*
X14222143Y-13946667D01*
X14203095Y-13937143D01*
X14174524Y-13937143D01*
X14155476Y-13946667D01*
X14145952Y-13956190D01*
X14355476Y-14070476D02*
X14336428Y-14060952D01*
X14326905Y-14051428D01*
X14317381Y-14032381D01*
X14317381Y-13975238D01*
X14326905Y-13956190D01*
X14336428Y-13946667D01*
X14355476Y-13937143D01*
X14384048Y-13937143D01*
X14403095Y-13946667D01*
X14412619Y-13956190D01*
X14422143Y-13975238D01*
X14422143Y-14032381D01*
X14412619Y-14051428D01*
X14403095Y-14060952D01*
X14384048Y-14070476D01*
X14355476Y-14070476D01*
X14536428Y-14070476D02*
X14517381Y-14060952D01*
X14507857Y-14041905D01*
X14507857Y-13870476D01*
X14688809Y-14060952D02*
X14669762Y-14070476D01*
X14631667Y-14070476D01*
X14612619Y-14060952D01*
X14603095Y-14041905D01*
X14603095Y-13965714D01*
X14612619Y-13946667D01*
X14631667Y-13937143D01*
X14669762Y-13937143D01*
X14688809Y-13946667D01*
X14698333Y-13965714D01*
X14698333Y-13984762D01*
X14603095Y-14003809D01*
X14765000Y-14146667D02*
X14774524Y-14137143D01*
X14793571Y-14108571D01*
X14803095Y-14089524D01*
X14812619Y-14060952D01*
X14822143Y-14013333D01*
X14822143Y-13975238D01*
X14812619Y-13927619D01*
X14803095Y-13899048D01*
X14793571Y-13880000D01*
X14774524Y-13851428D01*
X14765000Y-13841905D01*
X15126905Y-14146667D02*
X15117381Y-14137143D01*
X15098333Y-14108571D01*
X15088809Y-14089524D01*
X15079286Y-14060952D01*
X15069762Y-14013333D01*
X15069762Y-13975238D01*
X15079286Y-13927619D01*
X15088809Y-13899048D01*
X15098333Y-13880000D01*
X15117381Y-13851428D01*
X15126905Y-13841905D01*
X15203095Y-13937143D02*
X15203095Y-14070476D01*
X15203095Y-13956190D02*
X15212619Y-13946667D01*
X15231667Y-13937143D01*
X15260238Y-13937143D01*
X15279286Y-13946667D01*
X15288809Y-13965714D01*
X15288809Y-14070476D01*
X15412619Y-14070476D02*
X15393571Y-14060952D01*
X15384048Y-14051428D01*
X15374524Y-14032381D01*
X15374524Y-13975238D01*
X15384048Y-13956190D01*
X15393571Y-13946667D01*
X15412619Y-13937143D01*
X15441190Y-13937143D01*
X15460238Y-13946667D01*
X15469762Y-13956190D01*
X15479286Y-13975238D01*
X15479286Y-14032381D01*
X15469762Y-14051428D01*
X15460238Y-14060952D01*
X15441190Y-14070476D01*
X15412619Y-14070476D01*
X15536428Y-13937143D02*
X15612619Y-13937143D01*
X15565000Y-13870476D02*
X15565000Y-14041905D01*
X15574524Y-14060952D01*
X15593571Y-14070476D01*
X15612619Y-14070476D01*
X15831667Y-13937143D02*
X15831667Y-14137143D01*
X15831667Y-13946667D02*
X15850714Y-13937143D01*
X15888809Y-13937143D01*
X15907857Y-13946667D01*
X15917381Y-13956190D01*
X15926905Y-13975238D01*
X15926905Y-14032381D01*
X15917381Y-14051428D01*
X15907857Y-14060952D01*
X15888809Y-14070476D01*
X15850714Y-14070476D01*
X15831667Y-14060952D01*
X16041190Y-14070476D02*
X16022143Y-14060952D01*
X16012619Y-14041905D01*
X16012619Y-13870476D01*
X16203095Y-14070476D02*
X16203095Y-13965714D01*
X16193571Y-13946667D01*
X16174524Y-13937143D01*
X16136428Y-13937143D01*
X16117381Y-13946667D01*
X16203095Y-14060952D02*
X16184048Y-14070476D01*
X16136428Y-14070476D01*
X16117381Y-14060952D01*
X16107857Y-14041905D01*
X16107857Y-14022857D01*
X16117381Y-14003809D01*
X16136428Y-13994286D01*
X16184048Y-13994286D01*
X16203095Y-13984762D01*
X16269762Y-13937143D02*
X16345952Y-13937143D01*
X16298333Y-13870476D02*
X16298333Y-14041905D01*
X16307857Y-14060952D01*
X16326905Y-14070476D01*
X16345952Y-14070476D01*
X16488809Y-14060952D02*
X16469762Y-14070476D01*
X16431667Y-14070476D01*
X16412619Y-14060952D01*
X16403095Y-14041905D01*
X16403095Y-13965714D01*
X16412619Y-13946667D01*
X16431667Y-13937143D01*
X16469762Y-13937143D01*
X16488809Y-13946667D01*
X16498333Y-13965714D01*
X16498333Y-13984762D01*
X16403095Y-14003809D01*
X16669762Y-14070476D02*
X16669762Y-13870476D01*
X16669762Y-14060952D02*
X16650714Y-14070476D01*
X16612619Y-14070476D01*
X16593571Y-14060952D01*
X16584048Y-14051428D01*
X16574524Y-14032381D01*
X16574524Y-13975238D01*
X16584048Y-13956190D01*
X16593571Y-13946667D01*
X16612619Y-13937143D01*
X16650714Y-13937143D01*
X16669762Y-13946667D01*
X16745952Y-14146667D02*
X16755476Y-14137143D01*
X16774524Y-14108571D01*
X16784048Y-14089524D01*
X16793571Y-14060952D01*
X16803095Y-14013333D01*
X16803095Y-13975238D01*
X16793571Y-13927619D01*
X16784048Y-13899048D01*
X16774524Y-13880000D01*
X16755476Y-13851428D01*
X16745952Y-13841905D01*
D13*
X10155000Y-14244000D02*
G75*
G03*
X10155000Y-14244000I-65000J0D01*
G01*
D11*
X10517381Y-14334476D02*
X10403095Y-14334476D01*
X10460238Y-14334476D02*
X10460238Y-14134476D01*
X10441190Y-14163048D01*
X10422143Y-14182095D01*
X10403095Y-14191619D01*
X10603095Y-14315428D02*
X10612619Y-14324952D01*
X10603095Y-14334476D01*
X10593571Y-14324952D01*
X10603095Y-14315428D01*
X10603095Y-14334476D01*
X10679286Y-14134476D02*
X10803095Y-14134476D01*
X10736429Y-14210667D01*
X10765000Y-14210667D01*
X10784048Y-14220190D01*
X10793571Y-14229714D01*
X10803095Y-14248762D01*
X10803095Y-14296381D01*
X10793571Y-14315428D01*
X10784048Y-14324952D01*
X10765000Y-14334476D01*
X10707857Y-14334476D01*
X10688810Y-14324952D01*
X10679286Y-14315428D01*
X10926905Y-14134476D02*
X10945952Y-14134476D01*
X10965000Y-14144000D01*
X10974524Y-14153524D01*
X10984048Y-14172571D01*
X10993571Y-14210667D01*
X10993571Y-14258286D01*
X10984048Y-14296381D01*
X10974524Y-14315428D01*
X10965000Y-14324952D01*
X10945952Y-14334476D01*
X10926905Y-14334476D01*
X10907857Y-14324952D01*
X10898333Y-14315428D01*
X10888810Y-14296381D01*
X10879286Y-14258286D01*
X10879286Y-14210667D01*
X10888810Y-14172571D01*
X10898333Y-14153524D01*
X10907857Y-14144000D01*
X10926905Y-14134476D01*
X11117381Y-14134476D02*
X11136429Y-14134476D01*
X11155476Y-14144000D01*
X11165000Y-14153524D01*
X11174524Y-14172571D01*
X11184048Y-14210667D01*
X11184048Y-14258286D01*
X11174524Y-14296381D01*
X11165000Y-14315428D01*
X11155476Y-14324952D01*
X11136429Y-14334476D01*
X11117381Y-14334476D01*
X11098333Y-14324952D01*
X11088810Y-14315428D01*
X11079286Y-14296381D01*
X11069762Y-14258286D01*
X11069762Y-14210667D01*
X11079286Y-14172571D01*
X11088810Y-14153524D01*
X11098333Y-14144000D01*
X11117381Y-14134476D01*
X11269762Y-14334476D02*
X11269762Y-14201143D01*
X11269762Y-14220190D02*
X11279286Y-14210667D01*
X11298333Y-14201143D01*
X11326905Y-14201143D01*
X11345952Y-14210667D01*
X11355476Y-14229714D01*
X11355476Y-14334476D01*
X11355476Y-14229714D02*
X11365000Y-14210667D01*
X11384048Y-14201143D01*
X11412619Y-14201143D01*
X11431667Y-14210667D01*
X11441190Y-14229714D01*
X11441190Y-14334476D01*
X11536428Y-14334476D02*
X11536428Y-14201143D01*
X11536428Y-14220190D02*
X11545952Y-14210667D01*
X11565000Y-14201143D01*
X11593571Y-14201143D01*
X11612619Y-14210667D01*
X11622143Y-14229714D01*
X11622143Y-14334476D01*
X11622143Y-14229714D02*
X11631667Y-14210667D01*
X11650714Y-14201143D01*
X11679286Y-14201143D01*
X11698333Y-14210667D01*
X11707857Y-14229714D01*
X11707857Y-14334476D01*
X12098333Y-14124952D02*
X11926905Y-14382095D01*
X12355476Y-14134476D02*
X12374524Y-14134476D01*
X12393571Y-14144000D01*
X12403095Y-14153524D01*
X12412619Y-14172571D01*
X12422143Y-14210667D01*
X12422143Y-14258286D01*
X12412619Y-14296381D01*
X12403095Y-14315428D01*
X12393571Y-14324952D01*
X12374524Y-14334476D01*
X12355476Y-14334476D01*
X12336428Y-14324952D01*
X12326905Y-14315428D01*
X12317381Y-14296381D01*
X12307857Y-14258286D01*
X12307857Y-14210667D01*
X12317381Y-14172571D01*
X12326905Y-14153524D01*
X12336428Y-14144000D01*
X12355476Y-14134476D01*
X12507857Y-14315428D02*
X12517381Y-14324952D01*
X12507857Y-14334476D01*
X12498333Y-14324952D01*
X12507857Y-14315428D01*
X12507857Y-14334476D01*
X12641190Y-14134476D02*
X12660238Y-14134476D01*
X12679286Y-14144000D01*
X12688809Y-14153524D01*
X12698333Y-14172571D01*
X12707857Y-14210667D01*
X12707857Y-14258286D01*
X12698333Y-14296381D01*
X12688809Y-14315428D01*
X12679286Y-14324952D01*
X12660238Y-14334476D01*
X12641190Y-14334476D01*
X12622143Y-14324952D01*
X12612619Y-14315428D01*
X12603095Y-14296381D01*
X12593571Y-14258286D01*
X12593571Y-14210667D01*
X12603095Y-14172571D01*
X12612619Y-14153524D01*
X12622143Y-14144000D01*
X12641190Y-14134476D01*
X12888809Y-14134476D02*
X12793571Y-14134476D01*
X12784048Y-14229714D01*
X12793571Y-14220190D01*
X12812619Y-14210667D01*
X12860238Y-14210667D01*
X12879286Y-14220190D01*
X12888809Y-14229714D01*
X12898333Y-14248762D01*
X12898333Y-14296381D01*
X12888809Y-14315428D01*
X12879286Y-14324952D01*
X12860238Y-14334476D01*
X12812619Y-14334476D01*
X12793571Y-14324952D01*
X12784048Y-14315428D01*
X13088809Y-14334476D02*
X12974524Y-14334476D01*
X13031667Y-14334476D02*
X13031667Y-14134476D01*
X13012619Y-14163048D01*
X12993571Y-14182095D01*
X12974524Y-14191619D01*
X13165000Y-14153524D02*
X13174524Y-14144000D01*
X13193571Y-14134476D01*
X13241190Y-14134476D01*
X13260238Y-14144000D01*
X13269762Y-14153524D01*
X13279286Y-14172571D01*
X13279286Y-14191619D01*
X13269762Y-14220190D01*
X13155476Y-14334476D01*
X13279286Y-14334476D01*
X13355476Y-14134476D02*
X13355476Y-14172571D01*
X13431667Y-14134476D02*
X13431667Y-14172571D01*
X13726905Y-14410667D02*
X13717381Y-14401143D01*
X13698333Y-14372571D01*
X13688809Y-14353524D01*
X13679286Y-14324952D01*
X13669762Y-14277333D01*
X13669762Y-14239238D01*
X13679286Y-14191619D01*
X13688809Y-14163048D01*
X13698333Y-14144000D01*
X13717381Y-14115428D01*
X13726905Y-14105905D01*
X13907857Y-14334476D02*
X13793571Y-14334476D01*
X13850714Y-14334476D02*
X13850714Y-14134476D01*
X13831667Y-14163048D01*
X13812619Y-14182095D01*
X13793571Y-14191619D01*
X14145952Y-14334476D02*
X14145952Y-14134476D01*
X14231667Y-14334476D02*
X14231667Y-14229714D01*
X14222143Y-14210667D01*
X14203095Y-14201143D01*
X14174524Y-14201143D01*
X14155476Y-14210667D01*
X14145952Y-14220190D01*
X14355476Y-14334476D02*
X14336428Y-14324952D01*
X14326905Y-14315428D01*
X14317381Y-14296381D01*
X14317381Y-14239238D01*
X14326905Y-14220190D01*
X14336428Y-14210667D01*
X14355476Y-14201143D01*
X14384048Y-14201143D01*
X14403095Y-14210667D01*
X14412619Y-14220190D01*
X14422143Y-14239238D01*
X14422143Y-14296381D01*
X14412619Y-14315428D01*
X14403095Y-14324952D01*
X14384048Y-14334476D01*
X14355476Y-14334476D01*
X14536428Y-14334476D02*
X14517381Y-14324952D01*
X14507857Y-14305905D01*
X14507857Y-14134476D01*
X14688809Y-14324952D02*
X14669762Y-14334476D01*
X14631667Y-14334476D01*
X14612619Y-14324952D01*
X14603095Y-14305905D01*
X14603095Y-14229714D01*
X14612619Y-14210667D01*
X14631667Y-14201143D01*
X14669762Y-14201143D01*
X14688809Y-14210667D01*
X14698333Y-14229714D01*
X14698333Y-14248762D01*
X14603095Y-14267809D01*
X14765000Y-14410667D02*
X14774524Y-14401143D01*
X14793571Y-14372571D01*
X14803095Y-14353524D01*
X14812619Y-14324952D01*
X14822143Y-14277333D01*
X14822143Y-14239238D01*
X14812619Y-14191619D01*
X14803095Y-14163048D01*
X14793571Y-14144000D01*
X14774524Y-14115428D01*
X14765000Y-14105905D01*
X15126905Y-14410667D02*
X15117381Y-14401143D01*
X15098333Y-14372571D01*
X15088809Y-14353524D01*
X15079286Y-14324952D01*
X15069762Y-14277333D01*
X15069762Y-14239238D01*
X15079286Y-14191619D01*
X15088809Y-14163048D01*
X15098333Y-14144000D01*
X15117381Y-14115428D01*
X15126905Y-14105905D01*
X15203095Y-14201143D02*
X15203095Y-14334476D01*
X15203095Y-14220190D02*
X15212619Y-14210667D01*
X15231667Y-14201143D01*
X15260238Y-14201143D01*
X15279286Y-14210667D01*
X15288809Y-14229714D01*
X15288809Y-14334476D01*
X15412619Y-14334476D02*
X15393571Y-14324952D01*
X15384048Y-14315428D01*
X15374524Y-14296381D01*
X15374524Y-14239238D01*
X15384048Y-14220190D01*
X15393571Y-14210667D01*
X15412619Y-14201143D01*
X15441190Y-14201143D01*
X15460238Y-14210667D01*
X15469762Y-14220190D01*
X15479286Y-14239238D01*
X15479286Y-14296381D01*
X15469762Y-14315428D01*
X15460238Y-14324952D01*
X15441190Y-14334476D01*
X15412619Y-14334476D01*
X15536428Y-14201143D02*
X15612619Y-14201143D01*
X15565000Y-14134476D02*
X15565000Y-14305905D01*
X15574524Y-14324952D01*
X15593571Y-14334476D01*
X15612619Y-14334476D01*
X15831667Y-14201143D02*
X15831667Y-14401143D01*
X15831667Y-14210667D02*
X15850714Y-14201143D01*
X15888809Y-14201143D01*
X15907857Y-14210667D01*
X15917381Y-14220190D01*
X15926905Y-14239238D01*
X15926905Y-14296381D01*
X15917381Y-14315428D01*
X15907857Y-14324952D01*
X15888809Y-14334476D01*
X15850714Y-14334476D01*
X15831667Y-14324952D01*
X16041190Y-14334476D02*
X16022143Y-14324952D01*
X16012619Y-14305905D01*
X16012619Y-14134476D01*
X16203095Y-14334476D02*
X16203095Y-14229714D01*
X16193571Y-14210667D01*
X16174524Y-14201143D01*
X16136428Y-14201143D01*
X16117381Y-14210667D01*
X16203095Y-14324952D02*
X16184048Y-14334476D01*
X16136428Y-14334476D01*
X16117381Y-14324952D01*
X16107857Y-14305905D01*
X16107857Y-14286857D01*
X16117381Y-14267809D01*
X16136428Y-14258286D01*
X16184048Y-14258286D01*
X16203095Y-14248762D01*
X16269762Y-14201143D02*
X16345952Y-14201143D01*
X16298333Y-14134476D02*
X16298333Y-14305905D01*
X16307857Y-14324952D01*
X16326905Y-14334476D01*
X16345952Y-14334476D01*
X16488809Y-14324952D02*
X16469762Y-14334476D01*
X16431667Y-14334476D01*
X16412619Y-14324952D01*
X16403095Y-14305905D01*
X16403095Y-14229714D01*
X16412619Y-14210667D01*
X16431667Y-14201143D01*
X16469762Y-14201143D01*
X16488809Y-14210667D01*
X16498333Y-14229714D01*
X16498333Y-14248762D01*
X16403095Y-14267809D01*
X16669762Y-14334476D02*
X16669762Y-14134476D01*
X16669762Y-14324952D02*
X16650714Y-14334476D01*
X16612619Y-14334476D01*
X16593571Y-14324952D01*
X16584048Y-14315428D01*
X16574524Y-14296381D01*
X16574524Y-14239238D01*
X16584048Y-14220190D01*
X16593571Y-14210667D01*
X16612619Y-14201143D01*
X16650714Y-14201143D01*
X16669762Y-14210667D01*
X16745952Y-14410667D02*
X16755476Y-14401143D01*
X16774524Y-14372571D01*
X16784048Y-14353524D01*
X16793571Y-14324952D01*
X16803095Y-14277333D01*
X16803095Y-14239238D01*
X16793571Y-14191619D01*
X16784048Y-14163048D01*
X16774524Y-14144000D01*
X16755476Y-14115428D01*
X16745952Y-14105905D01*
X10055000Y-14408000D02*
X10055000Y-14608000D01*
X9955000Y-14508000D02*
X10155000Y-14508000D01*
X10403095Y-14417524D02*
X10412619Y-14408000D01*
X10431667Y-14398476D01*
X10479286Y-14398476D01*
X10498333Y-14408000D01*
X10507857Y-14417524D01*
X10517381Y-14436571D01*
X10517381Y-14455619D01*
X10507857Y-14484190D01*
X10393571Y-14598476D01*
X10517381Y-14598476D01*
X10603095Y-14579428D02*
X10612619Y-14588952D01*
X10603095Y-14598476D01*
X10593571Y-14588952D01*
X10603095Y-14579428D01*
X10603095Y-14598476D01*
X10793571Y-14398476D02*
X10698333Y-14398476D01*
X10688810Y-14493714D01*
X10698333Y-14484190D01*
X10717381Y-14474667D01*
X10765000Y-14474667D01*
X10784048Y-14484190D01*
X10793571Y-14493714D01*
X10803095Y-14512762D01*
X10803095Y-14560381D01*
X10793571Y-14579428D01*
X10784048Y-14588952D01*
X10765000Y-14598476D01*
X10717381Y-14598476D01*
X10698333Y-14588952D01*
X10688810Y-14579428D01*
X10926905Y-14398476D02*
X10945952Y-14398476D01*
X10965000Y-14408000D01*
X10974524Y-14417524D01*
X10984048Y-14436571D01*
X10993571Y-14474667D01*
X10993571Y-14522286D01*
X10984048Y-14560381D01*
X10974524Y-14579428D01*
X10965000Y-14588952D01*
X10945952Y-14598476D01*
X10926905Y-14598476D01*
X10907857Y-14588952D01*
X10898333Y-14579428D01*
X10888810Y-14560381D01*
X10879286Y-14522286D01*
X10879286Y-14474667D01*
X10888810Y-14436571D01*
X10898333Y-14417524D01*
X10907857Y-14408000D01*
X10926905Y-14398476D01*
X11117381Y-14398476D02*
X11136429Y-14398476D01*
X11155476Y-14408000D01*
X11165000Y-14417524D01*
X11174524Y-14436571D01*
X11184048Y-14474667D01*
X11184048Y-14522286D01*
X11174524Y-14560381D01*
X11165000Y-14579428D01*
X11155476Y-14588952D01*
X11136429Y-14598476D01*
X11117381Y-14598476D01*
X11098333Y-14588952D01*
X11088810Y-14579428D01*
X11079286Y-14560381D01*
X11069762Y-14522286D01*
X11069762Y-14474667D01*
X11079286Y-14436571D01*
X11088810Y-14417524D01*
X11098333Y-14408000D01*
X11117381Y-14398476D01*
X11269762Y-14598476D02*
X11269762Y-14465143D01*
X11269762Y-14484190D02*
X11279286Y-14474667D01*
X11298333Y-14465143D01*
X11326905Y-14465143D01*
X11345952Y-14474667D01*
X11355476Y-14493714D01*
X11355476Y-14598476D01*
X11355476Y-14493714D02*
X11365000Y-14474667D01*
X11384048Y-14465143D01*
X11412619Y-14465143D01*
X11431667Y-14474667D01*
X11441190Y-14493714D01*
X11441190Y-14598476D01*
X11536428Y-14598476D02*
X11536428Y-14465143D01*
X11536428Y-14484190D02*
X11545952Y-14474667D01*
X11565000Y-14465143D01*
X11593571Y-14465143D01*
X11612619Y-14474667D01*
X11622143Y-14493714D01*
X11622143Y-14598476D01*
X11622143Y-14493714D02*
X11631667Y-14474667D01*
X11650714Y-14465143D01*
X11679286Y-14465143D01*
X11698333Y-14474667D01*
X11707857Y-14493714D01*
X11707857Y-14598476D01*
X12098333Y-14388952D02*
X11926905Y-14646095D01*
X12355476Y-14398476D02*
X12374524Y-14398476D01*
X12393571Y-14408000D01*
X12403095Y-14417524D01*
X12412619Y-14436571D01*
X12422143Y-14474667D01*
X12422143Y-14522286D01*
X12412619Y-14560381D01*
X12403095Y-14579428D01*
X12393571Y-14588952D01*
X12374524Y-14598476D01*
X12355476Y-14598476D01*
X12336428Y-14588952D01*
X12326905Y-14579428D01*
X12317381Y-14560381D01*
X12307857Y-14522286D01*
X12307857Y-14474667D01*
X12317381Y-14436571D01*
X12326905Y-14417524D01*
X12336428Y-14408000D01*
X12355476Y-14398476D01*
X12507857Y-14579428D02*
X12517381Y-14588952D01*
X12507857Y-14598476D01*
X12498333Y-14588952D01*
X12507857Y-14579428D01*
X12507857Y-14598476D01*
X12641190Y-14398476D02*
X12660238Y-14398476D01*
X12679286Y-14408000D01*
X12688809Y-14417524D01*
X12698333Y-14436571D01*
X12707857Y-14474667D01*
X12707857Y-14522286D01*
X12698333Y-14560381D01*
X12688809Y-14579428D01*
X12679286Y-14588952D01*
X12660238Y-14598476D01*
X12641190Y-14598476D01*
X12622143Y-14588952D01*
X12612619Y-14579428D01*
X12603095Y-14560381D01*
X12593571Y-14522286D01*
X12593571Y-14474667D01*
X12603095Y-14436571D01*
X12612619Y-14417524D01*
X12622143Y-14408000D01*
X12641190Y-14398476D01*
X12803095Y-14598476D02*
X12841190Y-14598476D01*
X12860238Y-14588952D01*
X12869762Y-14579428D01*
X12888809Y-14550857D01*
X12898333Y-14512762D01*
X12898333Y-14436571D01*
X12888809Y-14417524D01*
X12879286Y-14408000D01*
X12860238Y-14398476D01*
X12822143Y-14398476D01*
X12803095Y-14408000D01*
X12793571Y-14417524D01*
X12784048Y-14436571D01*
X12784048Y-14484190D01*
X12793571Y-14503238D01*
X12803095Y-14512762D01*
X12822143Y-14522286D01*
X12860238Y-14522286D01*
X12879286Y-14512762D01*
X12888809Y-14503238D01*
X12898333Y-14484190D01*
X13012619Y-14484190D02*
X12993571Y-14474667D01*
X12984048Y-14465143D01*
X12974524Y-14446095D01*
X12974524Y-14436571D01*
X12984048Y-14417524D01*
X12993571Y-14408000D01*
X13012619Y-14398476D01*
X13050714Y-14398476D01*
X13069762Y-14408000D01*
X13079286Y-14417524D01*
X13088809Y-14436571D01*
X13088809Y-14446095D01*
X13079286Y-14465143D01*
X13069762Y-14474667D01*
X13050714Y-14484190D01*
X13012619Y-14484190D01*
X12993571Y-14493714D01*
X12984048Y-14503238D01*
X12974524Y-14522286D01*
X12974524Y-14560381D01*
X12984048Y-14579428D01*
X12993571Y-14588952D01*
X13012619Y-14598476D01*
X13050714Y-14598476D01*
X13069762Y-14588952D01*
X13079286Y-14579428D01*
X13088809Y-14560381D01*
X13088809Y-14522286D01*
X13079286Y-14503238D01*
X13069762Y-14493714D01*
X13050714Y-14484190D01*
X13260238Y-14465143D02*
X13260238Y-14598476D01*
X13212619Y-14388952D02*
X13165000Y-14531809D01*
X13288809Y-14531809D01*
X13355476Y-14398476D02*
X13355476Y-14436571D01*
X13431667Y-14398476D02*
X13431667Y-14436571D01*
X13726905Y-14674667D02*
X13717381Y-14665143D01*
X13698333Y-14636571D01*
X13688809Y-14617524D01*
X13679286Y-14588952D01*
X13669762Y-14541333D01*
X13669762Y-14503238D01*
X13679286Y-14455619D01*
X13688809Y-14427048D01*
X13698333Y-14408000D01*
X13717381Y-14379428D01*
X13726905Y-14369905D01*
X13831667Y-14484190D02*
X13812619Y-14474667D01*
X13803095Y-14465143D01*
X13793571Y-14446095D01*
X13793571Y-14436571D01*
X13803095Y-14417524D01*
X13812619Y-14408000D01*
X13831667Y-14398476D01*
X13869762Y-14398476D01*
X13888809Y-14408000D01*
X13898333Y-14417524D01*
X13907857Y-14436571D01*
X13907857Y-14446095D01*
X13898333Y-14465143D01*
X13888809Y-14474667D01*
X13869762Y-14484190D01*
X13831667Y-14484190D01*
X13812619Y-14493714D01*
X13803095Y-14503238D01*
X13793571Y-14522286D01*
X13793571Y-14560381D01*
X13803095Y-14579428D01*
X13812619Y-14588952D01*
X13831667Y-14598476D01*
X13869762Y-14598476D01*
X13888809Y-14588952D01*
X13898333Y-14579428D01*
X13907857Y-14560381D01*
X13907857Y-14522286D01*
X13898333Y-14503238D01*
X13888809Y-14493714D01*
X13869762Y-14484190D01*
X14145952Y-14598476D02*
X14145952Y-14398476D01*
X14231667Y-14598476D02*
X14231667Y-14493714D01*
X14222143Y-14474667D01*
X14203095Y-14465143D01*
X14174524Y-14465143D01*
X14155476Y-14474667D01*
X14145952Y-14484190D01*
X14355476Y-14598476D02*
X14336428Y-14588952D01*
X14326905Y-14579428D01*
X14317381Y-14560381D01*
X14317381Y-14503238D01*
X14326905Y-14484190D01*
X14336428Y-14474667D01*
X14355476Y-14465143D01*
X14384048Y-14465143D01*
X14403095Y-14474667D01*
X14412619Y-14484190D01*
X14422143Y-14503238D01*
X14422143Y-14560381D01*
X14412619Y-14579428D01*
X14403095Y-14588952D01*
X14384048Y-14598476D01*
X14355476Y-14598476D01*
X14536428Y-14598476D02*
X14517381Y-14588952D01*
X14507857Y-14569905D01*
X14507857Y-14398476D01*
X14688809Y-14588952D02*
X14669762Y-14598476D01*
X14631667Y-14598476D01*
X14612619Y-14588952D01*
X14603095Y-14569905D01*
X14603095Y-14493714D01*
X14612619Y-14474667D01*
X14631667Y-14465143D01*
X14669762Y-14465143D01*
X14688809Y-14474667D01*
X14698333Y-14493714D01*
X14698333Y-14512762D01*
X14603095Y-14531809D01*
X14774524Y-14588952D02*
X14793571Y-14598476D01*
X14831667Y-14598476D01*
X14850714Y-14588952D01*
X14860238Y-14569905D01*
X14860238Y-14560381D01*
X14850714Y-14541333D01*
X14831667Y-14531809D01*
X14803095Y-14531809D01*
X14784048Y-14522286D01*
X14774524Y-14503238D01*
X14774524Y-14493714D01*
X14784048Y-14474667D01*
X14803095Y-14465143D01*
X14831667Y-14465143D01*
X14850714Y-14474667D01*
X14926905Y-14674667D02*
X14936428Y-14665143D01*
X14955476Y-14636571D01*
X14965000Y-14617524D01*
X14974524Y-14588952D01*
X14984048Y-14541333D01*
X14984048Y-14503238D01*
X14974524Y-14455619D01*
X14965000Y-14427048D01*
X14955476Y-14408000D01*
X14936428Y-14379428D01*
X14926905Y-14369905D01*
X15288809Y-14674667D02*
X15279286Y-14665143D01*
X15260238Y-14636571D01*
X15250714Y-14617524D01*
X15241190Y-14588952D01*
X15231667Y-14541333D01*
X15231667Y-14503238D01*
X15241190Y-14455619D01*
X15250714Y-14427048D01*
X15260238Y-14408000D01*
X15279286Y-14379428D01*
X15288809Y-14369905D01*
X15365000Y-14465143D02*
X15365000Y-14598476D01*
X15365000Y-14484190D02*
X15374524Y-14474667D01*
X15393571Y-14465143D01*
X15422143Y-14465143D01*
X15441190Y-14474667D01*
X15450714Y-14493714D01*
X15450714Y-14598476D01*
X15574524Y-14598476D02*
X15555476Y-14588952D01*
X15545952Y-14579428D01*
X15536428Y-14560381D01*
X15536428Y-14503238D01*
X15545952Y-14484190D01*
X15555476Y-14474667D01*
X15574524Y-14465143D01*
X15603095Y-14465143D01*
X15622143Y-14474667D01*
X15631667Y-14484190D01*
X15641190Y-14503238D01*
X15641190Y-14560381D01*
X15631667Y-14579428D01*
X15622143Y-14588952D01*
X15603095Y-14598476D01*
X15574524Y-14598476D01*
X15698333Y-14465143D02*
X15774524Y-14465143D01*
X15726905Y-14398476D02*
X15726905Y-14569905D01*
X15736428Y-14588952D01*
X15755476Y-14598476D01*
X15774524Y-14598476D01*
X15993571Y-14465143D02*
X15993571Y-14665143D01*
X15993571Y-14474667D02*
X16012619Y-14465143D01*
X16050714Y-14465143D01*
X16069762Y-14474667D01*
X16079286Y-14484190D01*
X16088809Y-14503238D01*
X16088809Y-14560381D01*
X16079286Y-14579428D01*
X16069762Y-14588952D01*
X16050714Y-14598476D01*
X16012619Y-14598476D01*
X15993571Y-14588952D01*
X16203095Y-14598476D02*
X16184048Y-14588952D01*
X16174524Y-14569905D01*
X16174524Y-14398476D01*
X16365000Y-14598476D02*
X16365000Y-14493714D01*
X16355476Y-14474667D01*
X16336428Y-14465143D01*
X16298333Y-14465143D01*
X16279286Y-14474667D01*
X16365000Y-14588952D02*
X16345952Y-14598476D01*
X16298333Y-14598476D01*
X16279286Y-14588952D01*
X16269762Y-14569905D01*
X16269762Y-14550857D01*
X16279286Y-14531809D01*
X16298333Y-14522286D01*
X16345952Y-14522286D01*
X16365000Y-14512762D01*
X16431667Y-14465143D02*
X16507857Y-14465143D01*
X16460238Y-14398476D02*
X16460238Y-14569905D01*
X16469762Y-14588952D01*
X16488809Y-14598476D01*
X16507857Y-14598476D01*
X16650714Y-14588952D02*
X16631667Y-14598476D01*
X16593571Y-14598476D01*
X16574524Y-14588952D01*
X16565000Y-14569905D01*
X16565000Y-14493714D01*
X16574524Y-14474667D01*
X16593571Y-14465143D01*
X16631667Y-14465143D01*
X16650714Y-14474667D01*
X16660238Y-14493714D01*
X16660238Y-14512762D01*
X16565000Y-14531809D01*
X16831667Y-14598476D02*
X16831667Y-14398476D01*
X16831667Y-14588952D02*
X16812619Y-14598476D01*
X16774524Y-14598476D01*
X16755476Y-14588952D01*
X16745952Y-14579428D01*
X16736428Y-14560381D01*
X16736428Y-14503238D01*
X16745952Y-14484190D01*
X16755476Y-14474667D01*
X16774524Y-14465143D01*
X16812619Y-14465143D01*
X16831667Y-14474667D01*
X16907857Y-14674667D02*
X16917381Y-14665143D01*
X16936429Y-14636571D01*
X16945952Y-14617524D01*
X16955476Y-14588952D01*
X16965000Y-14541333D01*
X16965000Y-14503238D01*
X16955476Y-14455619D01*
X16945952Y-14427048D01*
X16936429Y-14408000D01*
X16917381Y-14379428D01*
X16907857Y-14369905D01*
X10125711Y-14898711D02*
X10125711Y-14757289D01*
X9984289Y-14757289D01*
X9984289Y-14898711D01*
X10125711Y-14898711D01*
X10393571Y-14718476D02*
X10517381Y-14718476D01*
X10450714Y-14794667D01*
X10479286Y-14794667D01*
X10498333Y-14804190D01*
X10507857Y-14813714D01*
X10517381Y-14832762D01*
X10517381Y-14880381D01*
X10507857Y-14899428D01*
X10498333Y-14908952D01*
X10479286Y-14918476D01*
X10422143Y-14918476D01*
X10403095Y-14908952D01*
X10393571Y-14899428D01*
X10603095Y-14899428D02*
X10612619Y-14908952D01*
X10603095Y-14918476D01*
X10593571Y-14908952D01*
X10603095Y-14899428D01*
X10603095Y-14918476D01*
X10793571Y-14718476D02*
X10698333Y-14718476D01*
X10688810Y-14813714D01*
X10698333Y-14804190D01*
X10717381Y-14794667D01*
X10765000Y-14794667D01*
X10784048Y-14804190D01*
X10793571Y-14813714D01*
X10803095Y-14832762D01*
X10803095Y-14880381D01*
X10793571Y-14899428D01*
X10784048Y-14908952D01*
X10765000Y-14918476D01*
X10717381Y-14918476D01*
X10698333Y-14908952D01*
X10688810Y-14899428D01*
X10926905Y-14718476D02*
X10945952Y-14718476D01*
X10965000Y-14728000D01*
X10974524Y-14737524D01*
X10984048Y-14756571D01*
X10993571Y-14794667D01*
X10993571Y-14842286D01*
X10984048Y-14880381D01*
X10974524Y-14899428D01*
X10965000Y-14908952D01*
X10945952Y-14918476D01*
X10926905Y-14918476D01*
X10907857Y-14908952D01*
X10898333Y-14899428D01*
X10888810Y-14880381D01*
X10879286Y-14842286D01*
X10879286Y-14794667D01*
X10888810Y-14756571D01*
X10898333Y-14737524D01*
X10907857Y-14728000D01*
X10926905Y-14718476D01*
X11117381Y-14718476D02*
X11136429Y-14718476D01*
X11155476Y-14728000D01*
X11165000Y-14737524D01*
X11174524Y-14756571D01*
X11184048Y-14794667D01*
X11184048Y-14842286D01*
X11174524Y-14880381D01*
X11165000Y-14899428D01*
X11155476Y-14908952D01*
X11136429Y-14918476D01*
X11117381Y-14918476D01*
X11098333Y-14908952D01*
X11088810Y-14899428D01*
X11079286Y-14880381D01*
X11069762Y-14842286D01*
X11069762Y-14794667D01*
X11079286Y-14756571D01*
X11088810Y-14737524D01*
X11098333Y-14728000D01*
X11117381Y-14718476D01*
X11269762Y-14918476D02*
X11269762Y-14785143D01*
X11269762Y-14804190D02*
X11279286Y-14794667D01*
X11298333Y-14785143D01*
X11326905Y-14785143D01*
X11345952Y-14794667D01*
X11355476Y-14813714D01*
X11355476Y-14918476D01*
X11355476Y-14813714D02*
X11365000Y-14794667D01*
X11384048Y-14785143D01*
X11412619Y-14785143D01*
X11431667Y-14794667D01*
X11441190Y-14813714D01*
X11441190Y-14918476D01*
X11536428Y-14918476D02*
X11536428Y-14785143D01*
X11536428Y-14804190D02*
X11545952Y-14794667D01*
X11565000Y-14785143D01*
X11593571Y-14785143D01*
X11612619Y-14794667D01*
X11622143Y-14813714D01*
X11622143Y-14918476D01*
X11622143Y-14813714D02*
X11631667Y-14794667D01*
X11650714Y-14785143D01*
X11679286Y-14785143D01*
X11698333Y-14794667D01*
X11707857Y-14813714D01*
X11707857Y-14918476D01*
X12098333Y-14708952D02*
X11926905Y-14966095D01*
X12355476Y-14718476D02*
X12374524Y-14718476D01*
X12393571Y-14728000D01*
X12403095Y-14737524D01*
X12412619Y-14756571D01*
X12422143Y-14794667D01*
X12422143Y-14842286D01*
X12412619Y-14880381D01*
X12403095Y-14899428D01*
X12393571Y-14908952D01*
X12374524Y-14918476D01*
X12355476Y-14918476D01*
X12336428Y-14908952D01*
X12326905Y-14899428D01*
X12317381Y-14880381D01*
X12307857Y-14842286D01*
X12307857Y-14794667D01*
X12317381Y-14756571D01*
X12326905Y-14737524D01*
X12336428Y-14728000D01*
X12355476Y-14718476D01*
X12507857Y-14899428D02*
X12517381Y-14908952D01*
X12507857Y-14918476D01*
X12498333Y-14908952D01*
X12507857Y-14899428D01*
X12507857Y-14918476D01*
X12707857Y-14918476D02*
X12593571Y-14918476D01*
X12650714Y-14918476D02*
X12650714Y-14718476D01*
X12631667Y-14747048D01*
X12612619Y-14766095D01*
X12593571Y-14775619D01*
X12774524Y-14718476D02*
X12898333Y-14718476D01*
X12831667Y-14794667D01*
X12860238Y-14794667D01*
X12879286Y-14804190D01*
X12888809Y-14813714D01*
X12898333Y-14832762D01*
X12898333Y-14880381D01*
X12888809Y-14899428D01*
X12879286Y-14908952D01*
X12860238Y-14918476D01*
X12803095Y-14918476D01*
X12784048Y-14908952D01*
X12774524Y-14899428D01*
X12965000Y-14718476D02*
X13098333Y-14718476D01*
X13012619Y-14918476D01*
X13203095Y-14804190D02*
X13184048Y-14794667D01*
X13174524Y-14785143D01*
X13165000Y-14766095D01*
X13165000Y-14756571D01*
X13174524Y-14737524D01*
X13184048Y-14728000D01*
X13203095Y-14718476D01*
X13241190Y-14718476D01*
X13260238Y-14728000D01*
X13269762Y-14737524D01*
X13279286Y-14756571D01*
X13279286Y-14766095D01*
X13269762Y-14785143D01*
X13260238Y-14794667D01*
X13241190Y-14804190D01*
X13203095Y-14804190D01*
X13184048Y-14813714D01*
X13174524Y-14823238D01*
X13165000Y-14842286D01*
X13165000Y-14880381D01*
X13174524Y-14899428D01*
X13184048Y-14908952D01*
X13203095Y-14918476D01*
X13241190Y-14918476D01*
X13260238Y-14908952D01*
X13269762Y-14899428D01*
X13279286Y-14880381D01*
X13279286Y-14842286D01*
X13269762Y-14823238D01*
X13260238Y-14813714D01*
X13241190Y-14804190D01*
X13355476Y-14718476D02*
X13355476Y-14756571D01*
X13431667Y-14718476D02*
X13431667Y-14756571D01*
X13726905Y-14994667D02*
X13717381Y-14985143D01*
X13698333Y-14956571D01*
X13688809Y-14937524D01*
X13679286Y-14908952D01*
X13669762Y-14861333D01*
X13669762Y-14823238D01*
X13679286Y-14775619D01*
X13688809Y-14747048D01*
X13698333Y-14728000D01*
X13717381Y-14699428D01*
X13726905Y-14689905D01*
X13793571Y-14737524D02*
X13803095Y-14728000D01*
X13822143Y-14718476D01*
X13869762Y-14718476D01*
X13888809Y-14728000D01*
X13898333Y-14737524D01*
X13907857Y-14756571D01*
X13907857Y-14775619D01*
X13898333Y-14804190D01*
X13784048Y-14918476D01*
X13907857Y-14918476D01*
X14145952Y-14918476D02*
X14145952Y-14718476D01*
X14231667Y-14918476D02*
X14231667Y-14813714D01*
X14222143Y-14794667D01*
X14203095Y-14785143D01*
X14174524Y-14785143D01*
X14155476Y-14794667D01*
X14145952Y-14804190D01*
X14355476Y-14918476D02*
X14336428Y-14908952D01*
X14326905Y-14899428D01*
X14317381Y-14880381D01*
X14317381Y-14823238D01*
X14326905Y-14804190D01*
X14336428Y-14794667D01*
X14355476Y-14785143D01*
X14384048Y-14785143D01*
X14403095Y-14794667D01*
X14412619Y-14804190D01*
X14422143Y-14823238D01*
X14422143Y-14880381D01*
X14412619Y-14899428D01*
X14403095Y-14908952D01*
X14384048Y-14918476D01*
X14355476Y-14918476D01*
X14536428Y-14918476D02*
X14517381Y-14908952D01*
X14507857Y-14889905D01*
X14507857Y-14718476D01*
X14688809Y-14908952D02*
X14669762Y-14918476D01*
X14631667Y-14918476D01*
X14612619Y-14908952D01*
X14603095Y-14889905D01*
X14603095Y-14813714D01*
X14612619Y-14794667D01*
X14631667Y-14785143D01*
X14669762Y-14785143D01*
X14688809Y-14794667D01*
X14698333Y-14813714D01*
X14698333Y-14832762D01*
X14603095Y-14851809D01*
X14774524Y-14908952D02*
X14793571Y-14918476D01*
X14831667Y-14918476D01*
X14850714Y-14908952D01*
X14860238Y-14889905D01*
X14860238Y-14880381D01*
X14850714Y-14861333D01*
X14831667Y-14851809D01*
X14803095Y-14851809D01*
X14784048Y-14842286D01*
X14774524Y-14823238D01*
X14774524Y-14813714D01*
X14784048Y-14794667D01*
X14803095Y-14785143D01*
X14831667Y-14785143D01*
X14850714Y-14794667D01*
X14926905Y-14994667D02*
X14936428Y-14985143D01*
X14955476Y-14956571D01*
X14965000Y-14937524D01*
X14974524Y-14908952D01*
X14984048Y-14861333D01*
X14984048Y-14823238D01*
X14974524Y-14775619D01*
X14965000Y-14747048D01*
X14955476Y-14728000D01*
X14936428Y-14699428D01*
X14926905Y-14689905D01*
X15288809Y-14994667D02*
X15279286Y-14985143D01*
X15260238Y-14956571D01*
X15250714Y-14937524D01*
X15241190Y-14908952D01*
X15231667Y-14861333D01*
X15231667Y-14823238D01*
X15241190Y-14775619D01*
X15250714Y-14747048D01*
X15260238Y-14728000D01*
X15279286Y-14699428D01*
X15288809Y-14689905D01*
X15365000Y-14785143D02*
X15365000Y-14918476D01*
X15365000Y-14804190D02*
X15374524Y-14794667D01*
X15393571Y-14785143D01*
X15422143Y-14785143D01*
X15441190Y-14794667D01*
X15450714Y-14813714D01*
X15450714Y-14918476D01*
X15574524Y-14918476D02*
X15555476Y-14908952D01*
X15545952Y-14899428D01*
X15536428Y-14880381D01*
X15536428Y-14823238D01*
X15545952Y-14804190D01*
X15555476Y-14794667D01*
X15574524Y-14785143D01*
X15603095Y-14785143D01*
X15622143Y-14794667D01*
X15631667Y-14804190D01*
X15641190Y-14823238D01*
X15641190Y-14880381D01*
X15631667Y-14899428D01*
X15622143Y-14908952D01*
X15603095Y-14918476D01*
X15574524Y-14918476D01*
X15698333Y-14785143D02*
X15774524Y-14785143D01*
X15726905Y-14718476D02*
X15726905Y-14889905D01*
X15736428Y-14908952D01*
X15755476Y-14918476D01*
X15774524Y-14918476D01*
X15993571Y-14785143D02*
X15993571Y-14985143D01*
X15993571Y-14794667D02*
X16012619Y-14785143D01*
X16050714Y-14785143D01*
X16069762Y-14794667D01*
X16079286Y-14804190D01*
X16088809Y-14823238D01*
X16088809Y-14880381D01*
X16079286Y-14899428D01*
X16069762Y-14908952D01*
X16050714Y-14918476D01*
X16012619Y-14918476D01*
X15993571Y-14908952D01*
X16203095Y-14918476D02*
X16184048Y-14908952D01*
X16174524Y-14889905D01*
X16174524Y-14718476D01*
X16365000Y-14918476D02*
X16365000Y-14813714D01*
X16355476Y-14794667D01*
X16336428Y-14785143D01*
X16298333Y-14785143D01*
X16279286Y-14794667D01*
X16365000Y-14908952D02*
X16345952Y-14918476D01*
X16298333Y-14918476D01*
X16279286Y-14908952D01*
X16269762Y-14889905D01*
X16269762Y-14870857D01*
X16279286Y-14851809D01*
X16298333Y-14842286D01*
X16345952Y-14842286D01*
X16365000Y-14832762D01*
X16431667Y-14785143D02*
X16507857Y-14785143D01*
X16460238Y-14718476D02*
X16460238Y-14889905D01*
X16469762Y-14908952D01*
X16488809Y-14918476D01*
X16507857Y-14918476D01*
X16650714Y-14908952D02*
X16631667Y-14918476D01*
X16593571Y-14918476D01*
X16574524Y-14908952D01*
X16565000Y-14889905D01*
X16565000Y-14813714D01*
X16574524Y-14794667D01*
X16593571Y-14785143D01*
X16631667Y-14785143D01*
X16650714Y-14794667D01*
X16660238Y-14813714D01*
X16660238Y-14832762D01*
X16565000Y-14851809D01*
X16831667Y-14918476D02*
X16831667Y-14718476D01*
X16831667Y-14908952D02*
X16812619Y-14918476D01*
X16774524Y-14918476D01*
X16755476Y-14908952D01*
X16745952Y-14899428D01*
X16736428Y-14880381D01*
X16736428Y-14823238D01*
X16745952Y-14804190D01*
X16755476Y-14794667D01*
X16774524Y-14785143D01*
X16812619Y-14785143D01*
X16831667Y-14794667D01*
X16907857Y-14994667D02*
X16917381Y-14985143D01*
X16936429Y-14956571D01*
X16945952Y-14937524D01*
X16955476Y-14908952D01*
X16965000Y-14861333D01*
X16965000Y-14823238D01*
X16955476Y-14775619D01*
X16945952Y-14747048D01*
X16936429Y-14728000D01*
X16917381Y-14699428D01*
X16907857Y-14689905D01*
M02*
