G04 #@! TF.GenerationSoftware,KiCad,Pcbnew,(6.0.7-1)-1*
G04 #@! TF.CreationDate,2023-01-21T15:22:46-06:00*
G04 #@! TF.ProjectId,Neutro_v1,4e657574-726f-45f7-9631-2e6b69636164,v1*
G04 #@! TF.SameCoordinates,Original*
G04 #@! TF.FileFunction,Soldermask,Bot*
G04 #@! TF.FilePolarity,Negative*
%FSLAX46Y46*%
G04 Gerber Fmt 4.6, Leading zero omitted, Abs format (unit mm)*
G04 Created by KiCad (PCBNEW (6.0.7-1)-1) date 2023-01-21 15:22:46*
%MOMM*%
%LPD*%
G01*
G04 APERTURE LIST*
%ADD10C,1.500000*%
%ADD11C,2.500000*%
%ADD12C,2.250000*%
%ADD13R,1.800000X1.800000*%
%ADD14C,1.800000*%
%ADD15R,1.508000X1.508000*%
%ADD16C,1.508000*%
%ADD17C,1.300000*%
%ADD18C,1.050000*%
%ADD19R,2.300000X4.500000*%
%ADD20C,3.500000*%
%ADD21R,1.700000X1.700000*%
%ADD22O,1.700000X1.700000*%
G04 APERTURE END LIST*
D10*
X157353000Y-127000000D03*
X145000000Y-101600000D03*
X123190000Y-73000000D03*
D11*
X198700000Y-74400000D03*
D10*
X183000000Y-82000000D03*
X142000000Y-127000000D03*
X123190000Y-91000000D03*
X197000000Y-81300000D03*
X156000000Y-101600000D03*
X162179000Y-127000000D03*
X150750000Y-101600000D03*
X147000000Y-127000000D03*
D12*
X198120000Y-121285000D03*
X200660000Y-118745000D03*
X200660000Y-123825000D03*
X195580000Y-123825000D03*
X195580000Y-118745000D03*
D10*
X123190000Y-78740000D03*
X197000000Y-86300000D03*
D11*
X106100000Y-129000000D03*
D10*
X197000000Y-96500000D03*
X183000000Y-75650000D03*
D11*
X198700000Y-129000000D03*
D10*
X197000000Y-91300000D03*
X123190000Y-85000000D03*
X152400000Y-127000000D03*
D11*
X106100000Y-74500000D03*
D13*
X175750000Y-80725000D03*
D14*
X175750000Y-83265000D03*
D10*
X123190000Y-97000000D03*
D13*
X175800000Y-74375000D03*
D14*
X175800000Y-76915000D03*
D11*
X129750000Y-90358000D03*
X129750000Y-113358000D03*
X187750000Y-113358000D03*
X187750000Y-90358000D03*
D15*
X182880000Y-91628000D03*
D16*
X182880000Y-89088000D03*
X180340000Y-91628000D03*
X180340000Y-89088000D03*
X177800000Y-91628000D03*
X177800000Y-89088000D03*
X175260000Y-91628000D03*
X175260000Y-89088000D03*
X172720000Y-91628000D03*
X172720000Y-89088000D03*
X170180000Y-91628000D03*
X170180000Y-89088000D03*
X167640000Y-91628000D03*
X167640000Y-89088000D03*
X165100000Y-91628000D03*
X165100000Y-89088000D03*
X162560000Y-91628000D03*
X162560000Y-89088000D03*
X160020000Y-91628000D03*
X160020000Y-89088000D03*
X157480000Y-91628000D03*
X157480000Y-89088000D03*
X154940000Y-91628000D03*
X154940000Y-89088000D03*
X152400000Y-91628000D03*
X152400000Y-89088000D03*
X149860000Y-91628000D03*
X149860000Y-89088000D03*
X147320000Y-91628000D03*
X147320000Y-89088000D03*
X144780000Y-91628000D03*
X144780000Y-89088000D03*
X142240000Y-91628000D03*
X142240000Y-89088000D03*
X139700000Y-91628000D03*
X139700000Y-89088000D03*
X137160000Y-91628000D03*
X137160000Y-89088000D03*
X134620000Y-91628000D03*
X134620000Y-89088000D03*
D17*
X118237000Y-96637099D03*
D18*
X118237000Y-89187099D03*
D19*
X118237000Y-84487099D03*
X118237000Y-100887099D03*
D20*
X165735000Y-100076000D03*
X139065000Y-100076000D03*
D21*
X166497000Y-108458000D03*
D22*
X166497000Y-110998000D03*
M02*
